<?xml version="1.0" encoding="UTF-8" standalone="no"?>
<!DOCTYPE svg PUBLIC "-//W3C//DTD SVG 1.1//EN"
 "http://www.w3.org/Graphics/SVG/1.1/DTD/svg11.dtd">
<!-- Generated by graphviz version 2.40.1 (20161225.0304)
 -->
<!-- Title: dependencies Pages: 1 -->
<svg width="2642pt" height="284pt"
 viewBox="0.00 0.00 2642.00 284.00" xmlns="http://www.w3.org/2000/svg" xmlns:xlink="http://www.w3.org/1999/xlink">
<g id="graph0" class="graph" transform="scale(1 1) rotate(0) translate(4 280)">
<title>dependencies</title>
<polygon fill="#ffffff" stroke="transparent" points="-4,4 -4,-280 2638,-280 2638,4 -4,4"/>
<text text-anchor="start" x="1296.0091" y="-42.4" font-family="sans-serif" font-weight="bold" font-size="14.00" fill="#000000">Legend</text>
<polygon fill="#ffffb3" stroke="transparent" points="1083,-10 1083,-30 1103,-30 1103,-10 1083,-10"/>
<text text-anchor="start" x="1106.629" y="-15.4" font-family="sans-serif" font-size="14.00" fill="#000000"> &#160;Declarations</text>
<polygon fill="#8dd3c7" stroke="transparent" points="1196,-10 1196,-30 1216,-30 1216,-10 1196,-10"/>
<text text-anchor="start" x="1219.7251" y="-15.4" font-family="sans-serif" font-size="14.00" fill="#000000"> &#160;Module</text>
<polygon fill="#80b1d3" stroke="transparent" points="1282,-10 1282,-30 1302,-30 1302,-10 1282,-10"/>
<text text-anchor="start" x="1305.7812" y="-15.4" font-family="sans-serif" font-size="14.00" fill="#000000"> &#160;Bootstrap</text>
<polygon fill="#fdb462" stroke="transparent" points="1379,-10 1379,-30 1399,-30 1399,-10 1379,-10"/>
<text text-anchor="start" x="1402.6732" y="-15.4" font-family="sans-serif" font-size="14.00" fill="#000000"> &#160;Providers</text>
<polygon fill="#fb8072" stroke="transparent" points="1475,-10 1475,-30 1495,-30 1495,-10 1475,-10"/>
<text text-anchor="start" x="1498.7258" y="-15.4" font-family="sans-serif" font-size="14.00" fill="#000000"> &#160;Exports</text>
<g id="clust1" class="cluster">
<title>cluster_FeedModule</title>
<polygon fill="none" stroke="#000000" stroke-dasharray="1,5" points="8,-70 8,-268 2626,-268 2626,-70 8,-70"/>
</g>
<g id="clust2" class="cluster">
<title>cluster_FeedModule_declarations</title>
<polygon fill="none" stroke="#000000" points="404,-78 404,-130 2618,-130 2618,-78 404,-78"/>
</g>
<g id="clust17" class="cluster">
<title>cluster_FeedModule_imports</title>
<polygon fill="none" stroke="#000000" points="16,-78 16,-130 396,-130 396,-78 16,-78"/>
</g>
<g id="clust18" class="cluster">
<title>cluster_FeedModule_exports</title>
<polygon fill="none" stroke="#000000" points="1214,-208 1214,-260 1342,-260 1342,-208 1214,-208"/>
</g>
<!-- CardListComponent -->
<g id="node1" class="node">
<title>CardListComponent</title>
<polygon fill="#ffffb3" stroke="#000000" points="2610.323,-122 2479.677,-122 2479.677,-86 2610.323,-86 2610.323,-122"/>
<text text-anchor="middle" x="2545" y="-99.8" font-family="Times,serif" font-size="14.00" fill="#000000">CardListComponent</text>
</g>
<!-- FeedModule -->
<g id="node15" class="node">
<title>FeedModule</title>
<polygon fill="#8dd3c7" stroke="#000000" points="1321.2619,-187 1318.2619,-191 1297.2619,-191 1294.2619,-187 1234.7381,-187 1234.7381,-151 1321.2619,-151 1321.2619,-187"/>
<text text-anchor="middle" x="1278" y="-164.8" font-family="Times,serif" font-size="14.00" fill="#000000">FeedModule</text>
</g>
<!-- CardListComponent&#45;&gt;FeedModule -->
<g id="edge1" class="edge">
<title>CardListComponent&#45;&gt;FeedModule</title>
<path fill="none" stroke="#000000" d="M2545,-122.3228C2545,-145.6602 2545,-183 2545,-183 2545,-183 1331.613,-183 1331.613,-183"/>
<polygon fill="#000000" stroke="#000000" points="1331.613,-179.5001 1321.613,-183 1331.613,-186.5001 1331.613,-179.5001"/>
</g>
<!-- CustomTimelineChartComponent -->
<g id="node2" class="node">
<title>CustomTimelineChartComponent</title>
<polygon fill="#ffffb3" stroke="#000000" points="2462.0419,-122 2255.9581,-122 2255.9581,-86 2462.0419,-86 2462.0419,-122"/>
<text text-anchor="middle" x="2359" y="-99.8" font-family="Times,serif" font-size="14.00" fill="#000000">CustomTimelineChartComponent</text>
</g>
<!-- CustomTimelineChartComponent&#45;&gt;FeedModule -->
<g id="edge2" class="edge">
<title>CustomTimelineChartComponent&#45;&gt;FeedModule</title>
<path fill="none" stroke="#000000" d="M2359,-122.1554C2359,-144.3519 2359,-179 2359,-179 2359,-179 1331.3789,-179 1331.3789,-179"/>
<polygon fill="#000000" stroke="#000000" points="1331.3789,-175.5001 1321.3789,-179 1331.3788,-182.5001 1331.3789,-175.5001"/>
</g>
<!-- DraggableDirective -->
<g id="node3" class="node">
<title>DraggableDirective</title>
<polygon fill="#ffffb3" stroke="#000000" points="2238.385,-122 2111.615,-122 2111.615,-86 2238.385,-86 2238.385,-122"/>
<text text-anchor="middle" x="2175" y="-99.8" font-family="Times,serif" font-size="14.00" fill="#000000">DraggableDirective</text>
</g>
<!-- DraggableDirective&#45;&gt;FeedModule -->
<g id="edge3" class="edge">
<title>DraggableDirective&#45;&gt;FeedModule</title>
<path fill="none" stroke="#000000" d="M2175,-122.2843C2175,-143.3211 2175,-175 2175,-175 2175,-175 1331.2642,-175 1331.2642,-175"/>
<polygon fill="#000000" stroke="#000000" points="1331.2642,-171.5001 1321.2642,-175 1331.2641,-178.5001 1331.2642,-171.5001"/>
</g>
<!-- FeedComponent -->
<g id="node4" class="node">
<title>FeedComponent</title>
<polygon fill="#ffffb3" stroke="#000000" points="2094.0452,-122 1985.9548,-122 1985.9548,-86 2094.0452,-86 2094.0452,-122"/>
<text text-anchor="middle" x="2040" y="-99.8" font-family="Times,serif" font-size="14.00" fill="#000000">FeedComponent</text>
</g>
<!-- FeedComponent&#45;&gt;FeedModule -->
<g id="edge4" class="edge">
<title>FeedComponent&#45;&gt;FeedModule</title>
<path fill="none" stroke="#000000" d="M2040,-122.308C2040,-142.1455 2040,-171 2040,-171 2040,-171 1331.4281,-171 1331.4281,-171"/>
<polygon fill="#000000" stroke="#000000" points="1331.4282,-167.5001 1321.4281,-171 1331.4281,-174.5001 1331.4282,-167.5001"/>
</g>
<!-- FiltersComponent -->
<g id="node5" class="node">
<title>FiltersComponent</title>
<polygon fill="#ffffb3" stroke="#000000" points="1967.6066,-122 1850.3934,-122 1850.3934,-86 1967.6066,-86 1967.6066,-122"/>
<text text-anchor="middle" x="1909" y="-99.8" font-family="Times,serif" font-size="14.00" fill="#000000">FiltersComponent</text>
</g>
<!-- FiltersComponent&#45;&gt;FeedModule -->
<g id="edge5" class="edge">
<title>FiltersComponent&#45;&gt;FeedModule</title>
<path fill="none" stroke="#000000" d="M1909,-122.2222C1909,-140.8285 1909,-167 1909,-167 1909,-167 1331.3712,-167 1331.3712,-167"/>
<polygon fill="#000000" stroke="#000000" points="1331.3712,-163.5001 1321.3712,-167 1331.3712,-170.5001 1331.3712,-163.5001"/>
</g>
<!-- InitChartComponent -->
<g id="node6" class="node">
<title>InitChartComponent</title>
<polygon fill="#ffffb3" stroke="#000000" points="1832.8767,-122 1701.1233,-122 1701.1233,-86 1832.8767,-86 1832.8767,-122"/>
<text text-anchor="middle" x="1767" y="-99.8" font-family="Times,serif" font-size="14.00" fill="#000000">InitChartComponent</text>
</g>
<!-- InitChartComponent&#45;&gt;FeedModule -->
<g id="edge6" class="edge">
<title>InitChartComponent&#45;&gt;FeedModule</title>
<path fill="none" stroke="#000000" d="M1767,-122.0225C1767,-139.3734 1767,-163 1767,-163 1767,-163 1331.3955,-163 1331.3955,-163"/>
<polygon fill="#000000" stroke="#000000" points="1331.3955,-159.5001 1321.3955,-163 1331.3955,-166.5001 1331.3955,-159.5001"/>
</g>
<!-- MouseWheelDirective -->
<g id="node7" class="node">
<title>MouseWheelDirective</title>
<polygon fill="#ffffb3" stroke="#000000" points="1683.2213,-122 1540.7787,-122 1540.7787,-86 1683.2213,-86 1683.2213,-122"/>
<text text-anchor="middle" x="1612" y="-99.8" font-family="Times,serif" font-size="14.00" fill="#000000">MouseWheelDirective</text>
</g>
<!-- MouseWheelDirective&#45;&gt;FeedModule -->
<g id="edge7" class="edge">
<title>MouseWheelDirective&#45;&gt;FeedModule</title>
<path fill="none" stroke="#000000" d="M1612,-122.0091C1612,-138.0494 1612,-159 1612,-159 1612,-159 1331.3223,-159 1331.3223,-159"/>
<polygon fill="#000000" stroke="#000000" points="1331.3223,-155.5001 1321.3223,-159 1331.3222,-162.5001 1331.3223,-155.5001"/>
</g>
<!-- NoSelectionComponent -->
<g id="node8" class="node">
<title>NoSelectionComponent</title>
<polygon fill="#ffffb3" stroke="#000000" points="1522.0379,-122 1371.9621,-122 1371.9621,-86 1522.0379,-86 1522.0379,-122"/>
<text text-anchor="middle" x="1447" y="-99.8" font-family="Times,serif" font-size="14.00" fill="#000000">NoSelectionComponent</text>
</g>
<!-- NoSelectionComponent&#45;&gt;FeedModule -->
<g id="edge8" class="edge">
<title>NoSelectionComponent&#45;&gt;FeedModule</title>
<path fill="none" stroke="#000000" d="M1447,-122.1243C1447,-136.7832 1447,-155 1447,-155 1447,-155 1331.5217,-155 1331.5217,-155"/>
<polygon fill="#000000" stroke="#000000" points="1331.5217,-151.5001 1321.5217,-155 1331.5217,-158.5001 1331.5217,-151.5001"/>
</g>
<!-- SeveritySortComponent -->
<g id="node9" class="node">
<title>SeveritySortComponent</title>
<polygon fill="#ffffb3" stroke="#000000" points="1353.8201,-122 1202.1799,-122 1202.1799,-86 1353.8201,-86 1353.8201,-122"/>
<text text-anchor="middle" x="1278" y="-99.8" font-family="Times,serif" font-size="14.00" fill="#000000">SeveritySortComponent</text>
</g>
<!-- SeveritySortComponent&#45;&gt;FeedModule -->
<g id="edge9" class="edge">
<title>SeveritySortComponent&#45;&gt;FeedModule</title>
<path fill="none" stroke="#000000" d="M1278,-122.1061C1278,-122.1061 1278,-140.991 1278,-140.991"/>
<polygon fill="#000000" stroke="#000000" points="1274.5001,-140.9909 1278,-150.991 1281.5001,-140.991 1274.5001,-140.9909"/>
</g>
<!-- TagsFilterComponent -->
<g id="node10" class="node">
<title>TagsFilterComponent</title>
<polygon fill="#ffffb3" stroke="#000000" points="1184.3739,-122 1045.6261,-122 1045.6261,-86 1184.3739,-86 1184.3739,-122"/>
<text text-anchor="middle" x="1115" y="-99.8" font-family="Times,serif" font-size="14.00" fill="#000000">TagsFilterComponent</text>
</g>
<!-- TagsFilterComponent&#45;&gt;FeedModule -->
<g id="edge10" class="edge">
<title>TagsFilterComponent&#45;&gt;FeedModule</title>
<path fill="none" stroke="#000000" d="M1115,-122.1243C1115,-136.7832 1115,-155 1115,-155 1115,-155 1224.319,-155 1224.319,-155"/>
<polygon fill="#000000" stroke="#000000" points="1224.319,-158.5001 1234.319,-155 1224.319,-151.5001 1224.319,-158.5001"/>
</g>
<!-- TimeFilterComponent -->
<g id="node11" class="node">
<title>TimeFilterComponent</title>
<polygon fill="#ffffb3" stroke="#000000" points="1027.7106,-122 886.2894,-122 886.2894,-86 1027.7106,-86 1027.7106,-122"/>
<text text-anchor="middle" x="957" y="-99.8" font-family="Times,serif" font-size="14.00" fill="#000000">TimeFilterComponent</text>
</g>
<!-- TimeFilterComponent&#45;&gt;FeedModule -->
<g id="edge11" class="edge">
<title>TimeFilterComponent&#45;&gt;FeedModule</title>
<path fill="none" stroke="#000000" d="M957,-122.0091C957,-138.0494 957,-159 957,-159 957,-159 1224.7085,-159 1224.7085,-159"/>
<polygon fill="#000000" stroke="#000000" points="1224.7085,-162.5001 1234.7085,-159 1224.7085,-155.5001 1224.7085,-162.5001"/>
</g>
<!-- TimeLineComponent -->
<g id="node12" class="node">
<title>TimeLineComponent</title>
<polygon fill="#ffffb3" stroke="#000000" points="868.0394,-122 731.9606,-122 731.9606,-86 868.0394,-86 868.0394,-122"/>
<text text-anchor="middle" x="800" y="-99.8" font-family="Times,serif" font-size="14.00" fill="#000000">TimeLineComponent</text>
</g>
<!-- TimeLineComponent&#45;&gt;FeedModule -->
<g id="edge12" class="edge">
<title>TimeLineComponent&#45;&gt;FeedModule</title>
<path fill="none" stroke="#000000" d="M800,-122.0225C800,-139.3734 800,-163 800,-163 800,-163 1224.7376,-163 1224.7376,-163"/>
<polygon fill="#000000" stroke="#000000" points="1224.7377,-166.5001 1234.7376,-163 1224.7376,-159.5001 1224.7377,-166.5001"/>
</g>
<!-- TypeFilterComponent -->
<g id="node13" class="node">
<title>TypeFilterComponent</title>
<polygon fill="#ffffb3" stroke="#000000" points="714.4299,-122 573.5701,-122 573.5701,-86 714.4299,-86 714.4299,-122"/>
<text text-anchor="middle" x="644" y="-99.8" font-family="Times,serif" font-size="14.00" fill="#000000">TypeFilterComponent</text>
</g>
<!-- TypeFilterComponent&#45;&gt;FeedModule -->
<g id="edge13" class="edge">
<title>TypeFilterComponent&#45;&gt;FeedModule</title>
<path fill="none" stroke="#000000" d="M644,-122.2222C644,-140.8285 644,-167 644,-167 644,-167 1224.4226,-167 1224.4226,-167"/>
<polygon fill="#000000" stroke="#000000" points="1224.4226,-170.5001 1234.4226,-167 1224.4226,-163.5001 1224.4226,-170.5001"/>
</g>
<!-- XAxisTickFormatPipe -->
<g id="node14" class="node">
<title>XAxisTickFormatPipe</title>
<polygon fill="#ffffb3" stroke="#000000" points="555.5338,-122 412.4662,-122 412.4662,-86 555.5338,-86 555.5338,-122"/>
<text text-anchor="middle" x="484" y="-99.8" font-family="Times,serif" font-size="14.00" fill="#000000">XAxisTickFormatPipe</text>
</g>
<!-- XAxisTickFormatPipe&#45;&gt;FeedModule -->
<g id="edge14" class="edge">
<title>XAxisTickFormatPipe&#45;&gt;FeedModule</title>
<path fill="none" stroke="#000000" d="M484,-122.308C484,-142.1455 484,-171 484,-171 484,-171 1224.4641,-171 1224.4641,-171"/>
<polygon fill="#000000" stroke="#000000" points="1224.4641,-174.5001 1234.4641,-171 1224.4641,-167.5001 1224.4641,-174.5001"/>
</g>
<!-- FeedComponent  -->
<g id="node19" class="node">
<title>FeedComponent </title>
<polygon fill="#fb8072" stroke="#000000" points="1334.0442,-252 1221.9558,-252 1221.9558,-216 1334.0442,-216 1334.0442,-252"/>
<text text-anchor="middle" x="1278" y="-229.8" font-family="Times,serif" font-size="14.00" fill="#000000">FeedComponent </text>
</g>
<!-- FeedModule&#45;&gt;FeedComponent  -->
<g id="edge18" class="edge">
<title>FeedModule&#45;&gt;FeedComponent </title>
<path fill="none" stroke="#000000" stroke-dasharray="5,2" d="M1278,-187.1061C1278,-187.1061 1278,-205.991 1278,-205.991"/>
<polygon fill="#000000" stroke="#000000" points="1274.5001,-205.9909 1278,-215.991 1281.5001,-205.991 1274.5001,-205.9909"/>
</g>
<!-- CardsModule -->
<g id="node16" class="node">
<title>CardsModule</title>
<polygon fill="#8dd3c7" stroke="#000000" points="388.2064,-122 385.2064,-126 364.2064,-126 361.2064,-122 295.7936,-122 295.7936,-86 388.2064,-86 388.2064,-122"/>
<text text-anchor="middle" x="342" y="-99.8" font-family="Times,serif" font-size="14.00" fill="#000000">CardsModule</text>
</g>
<!-- CardsModule&#45;&gt;FeedModule -->
<g id="edge15" class="edge">
<title>CardsModule&#45;&gt;FeedModule</title>
<path fill="none" stroke="#000000" d="M342,-122.2843C342,-143.3211 342,-175 342,-175 342,-175 1224.732,-175 1224.732,-175"/>
<polygon fill="#000000" stroke="#000000" points="1224.732,-178.5001 1234.732,-175 1224.732,-171.5001 1224.732,-178.5001"/>
</g>
<!-- FeedRoutingModule -->
<g id="node17" class="node">
<title>FeedRoutingModule</title>
<polygon fill="#8dd3c7" stroke="#000000" points="277.8795,-122 274.8795,-126 253.8795,-126 250.8795,-122 146.1205,-122 146.1205,-86 277.8795,-86 277.8795,-122"/>
<text text-anchor="middle" x="212" y="-99.8" font-family="Times,serif" font-size="14.00" fill="#000000">FeedRoutingModule</text>
</g>
<!-- FeedRoutingModule&#45;&gt;FeedModule -->
<g id="edge16" class="edge">
<title>FeedRoutingModule&#45;&gt;FeedModule</title>
<path fill="none" stroke="#000000" d="M212,-122.1554C212,-144.3519 212,-179 212,-179 212,-179 1224.5583,-179 1224.5583,-179"/>
<polygon fill="#000000" stroke="#000000" points="1224.5583,-182.5001 1234.5583,-179 1224.5583,-175.5001 1224.5583,-182.5001"/>
</g>
<!-- UtilitiesModule -->
<g id="node18" class="node">
<title>UtilitiesModule</title>
<polygon fill="#8dd3c7" stroke="#000000" points="128.1598,-122 125.1598,-126 104.1598,-126 101.1598,-122 23.8402,-122 23.8402,-86 128.1598,-86 128.1598,-122"/>
<text text-anchor="middle" x="76" y="-99.8" font-family="Times,serif" font-size="14.00" fill="#000000">UtilitiesModule</text>
</g>
<!-- UtilitiesModule&#45;&gt;FeedModule -->
<g id="edge17" class="edge">
<title>UtilitiesModule&#45;&gt;FeedModule</title>
<path fill="none" stroke="#000000" d="M76,-122.3228C76,-145.6602 76,-183 76,-183 76,-183 1224.5101,-183 1224.5101,-183"/>
<polygon fill="#000000" stroke="#000000" points="1224.5101,-186.5001 1234.5101,-183 1224.51,-179.5001 1224.5101,-186.5001"/>
</g>
</g>
</svg>
