<?xml version="1.0" encoding="UTF-8" standalone="no"?>
<!DOCTYPE svg PUBLIC "-//W3C//DTD SVG 1.1//EN"
 "http://www.w3.org/Graphics/SVG/1.1/DTD/svg11.dtd">
<!-- Generated by graphviz version 2.40.1 (20161225.0304)
 -->
<!-- Title: dependencies Pages: 1 -->
<svg width="1243pt" height="284pt"
 viewBox="0.00 0.00 1243.00 284.00" xmlns="http://www.w3.org/2000/svg" xmlns:xlink="http://www.w3.org/1999/xlink">
<g id="graph0" class="graph" transform="scale(1 1) rotate(0) translate(4 280)">
<title>dependencies</title>
<polygon fill="#ffffff" stroke="transparent" points="-4,4 -4,-280 1239,-280 1239,4 -4,4"/>
<text text-anchor="start" x="596.5091" y="-42.4" font-family="sans-serif" font-weight="bold" font-size="14.00" fill="#000000">Legend</text>
<polygon fill="#ffffb3" stroke="transparent" points="383.5,-10 383.5,-30 403.5,-30 403.5,-10 383.5,-10"/>
<text text-anchor="start" x="407.129" y="-15.4" font-family="sans-serif" font-size="14.00" fill="#000000"> &#160;Declarations</text>
<polygon fill="#8dd3c7" stroke="transparent" points="496.5,-10 496.5,-30 516.5,-30 516.5,-10 496.5,-10"/>
<text text-anchor="start" x="520.2251" y="-15.4" font-family="sans-serif" font-size="14.00" fill="#000000"> &#160;Module</text>
<polygon fill="#80b1d3" stroke="transparent" points="582.5,-10 582.5,-30 602.5,-30 602.5,-10 582.5,-10"/>
<text text-anchor="start" x="606.2812" y="-15.4" font-family="sans-serif" font-size="14.00" fill="#000000"> &#160;Bootstrap</text>
<polygon fill="#fdb462" stroke="transparent" points="679.5,-10 679.5,-30 699.5,-30 699.5,-10 679.5,-10"/>
<text text-anchor="start" x="703.1732" y="-15.4" font-family="sans-serif" font-size="14.00" fill="#000000"> &#160;Providers</text>
<polygon fill="#fb8072" stroke="transparent" points="775.5,-10 775.5,-30 795.5,-30 795.5,-10 775.5,-10"/>
<text text-anchor="start" x="799.2258" y="-15.4" font-family="sans-serif" font-size="14.00" fill="#000000"> &#160;Exports</text>
<g id="clust1" class="cluster">
<title>cluster_CardsModule</title>
<polygon fill="none" stroke="#000000" stroke-dasharray="1,5" points="8,-70 8,-268 1227,-268 1227,-70 8,-70"/>
</g>
<g id="clust2" class="cluster">
<title>cluster_CardsModule_declarations</title>
<polygon fill="none" stroke="#000000" points="336,-78 336,-130 1219,-130 1219,-78 336,-78"/>
</g>
<g id="clust9" class="cluster">
<title>cluster_CardsModule_imports</title>
<polygon fill="none" stroke="#000000" points="208,-78 208,-130 328,-130 328,-78 208,-78"/>
</g>
<g id="clust10" class="cluster">
<title>cluster_CardsModule_exports</title>
<polygon fill="none" stroke="#000000" points="247,-208 247,-260 1011,-260 1011,-208 247,-208"/>
</g>
<g id="clust12" class="cluster">
<title>cluster_CardsModule_providers</title>
<polygon fill="none" stroke="#000000" points="16,-78 16,-130 200,-130 200,-78 16,-78"/>
</g>
<!-- ActionComponent -->
<g id="node1" class="node">
<title>ActionComponent</title>
<polygon fill="#ffffb3" stroke="#000000" points="1210.9356,-122 1091.0644,-122 1091.0644,-86 1210.9356,-86 1210.9356,-122"/>
<text text-anchor="middle" x="1151" y="-99.8" font-family="Times,serif" font-size="14.00" fill="#000000">ActionComponent</text>
</g>
<!-- CardsModule -->
<g id="node7" class="node">
<title>CardsModule</title>
<polygon fill="#8dd3c7" stroke="#000000" points="665.2064,-187 662.2064,-191 641.2064,-191 638.2064,-187 572.7936,-187 572.7936,-151 665.2064,-151 665.2064,-187"/>
<text text-anchor="middle" x="619" y="-164.8" font-family="Times,serif" font-size="14.00" fill="#000000">CardsModule</text>
</g>
<!-- ActionComponent&#45;&gt;CardsModule -->
<g id="edge1" class="edge">
<title>ActionComponent&#45;&gt;CardsModule</title>
<path fill="none" stroke="#000000" d="M1151,-122.1061C1151,-141.3391 1151,-169 1151,-169 1151,-169 675.2809,-169 675.2809,-169"/>
<polygon fill="#000000" stroke="#000000" points="675.2809,-165.5001 665.2809,-169 675.2808,-172.5001 675.2809,-165.5001"/>
</g>
<!-- CardComponent -->
<g id="node2" class="node">
<title>CardComponent</title>
<polygon fill="#ffffb3" stroke="#000000" points="1073.0452,-122 964.9548,-122 964.9548,-86 1073.0452,-86 1073.0452,-122"/>
<text text-anchor="middle" x="1019" y="-99.8" font-family="Times,serif" font-size="14.00" fill="#000000">CardComponent</text>
</g>
<!-- CardComponent&#45;&gt;CardsModule -->
<g id="edge2" class="edge">
<title>CardComponent&#45;&gt;CardsModule</title>
<path fill="none" stroke="#000000" d="M983.875,-122.0225C983.875,-139.3734 983.875,-163 983.875,-163 983.875,-163 675.2117,-163 675.2117,-163"/>
<polygon fill="#000000" stroke="#000000" points="675.2117,-159.5001 665.2117,-163 675.2116,-166.5001 675.2117,-159.5001"/>
</g>
<!-- CardDetailsComponent -->
<g id="node3" class="node">
<title>CardDetailsComponent</title>
<polygon fill="#ffffb3" stroke="#000000" points="947.1965,-122 798.8035,-122 798.8035,-86 947.1965,-86 947.1965,-122"/>
<text text-anchor="middle" x="873" y="-99.8" font-family="Times,serif" font-size="14.00" fill="#000000">CardDetailsComponent</text>
</g>
<!-- CardDetailsComponent&#45;&gt;CardsModule -->
<g id="edge3" class="edge">
<title>CardDetailsComponent&#45;&gt;CardsModule</title>
<path fill="none" stroke="#000000" d="M835.875,-122.2396C835.875,-137.5706 835.875,-157 835.875,-157 835.875,-157 675.2591,-157 675.2591,-157"/>
<polygon fill="#000000" stroke="#000000" points="675.2592,-153.5001 665.2591,-157 675.2591,-160.5001 675.2592,-153.5001"/>
</g>
<!-- ConfirmModalComponent -->
<g id="node4" class="node">
<title>ConfirmModalComponent</title>
<polygon fill="#ffffb3" stroke="#000000" points="780.8215,-122 615.1785,-122 615.1785,-86 780.8215,-86 780.8215,-122"/>
<text text-anchor="middle" x="698" y="-99.8" font-family="Times,serif" font-size="14.00" fill="#000000">ConfirmModalComponent</text>
</g>
<!-- ConfirmModalComponent&#45;&gt;CardsModule -->
<g id="edge4" class="edge">
<title>ConfirmModalComponent&#45;&gt;CardsModule</title>
<path fill="none" stroke="#000000" d="M640.2213,-122.1061C640.2213,-122.1061 640.2213,-140.991 640.2213,-140.991"/>
<polygon fill="#000000" stroke="#000000" points="636.7213,-140.9909 640.2213,-150.991 643.7213,-140.991 636.7213,-140.9909"/>
</g>
<!-- DetailComponent -->
<g id="node5" class="node">
<title>DetailComponent</title>
<polygon fill="#ffffb3" stroke="#000000" points="597.5409,-122 482.4591,-122 482.4591,-86 597.5409,-86 597.5409,-122"/>
<text text-anchor="middle" x="540" y="-99.8" font-family="Times,serif" font-size="14.00" fill="#000000">DetailComponent</text>
</g>
<!-- DetailComponent&#45;&gt;CardsModule -->
<g id="edge5" class="edge">
<title>DetailComponent&#45;&gt;CardsModule</title>
<path fill="none" stroke="#000000" d="M585.3335,-122.1061C585.3335,-122.1061 585.3335,-140.991 585.3335,-140.991"/>
<polygon fill="#000000" stroke="#000000" points="581.8335,-140.9909 585.3335,-150.991 588.8335,-140.991 581.8335,-140.9909"/>
</g>
<!-- DetailsComponent -->
<g id="node6" class="node">
<title>DetailsComponent</title>
<polygon fill="#ffffb3" stroke="#000000" points="464.4846,-122 343.5154,-122 343.5154,-86 464.4846,-86 464.4846,-122"/>
<text text-anchor="middle" x="404" y="-99.8" font-family="Times,serif" font-size="14.00" fill="#000000">DetailsComponent</text>
</g>
<!-- DetailsComponent&#45;&gt;CardsModule -->
<g id="edge6" class="edge">
<title>DetailsComponent&#45;&gt;CardsModule</title>
<path fill="none" stroke="#000000" d="M430.9862,-122.2396C430.9862,-137.5706 430.9862,-157 430.9862,-157 430.9862,-157 562.5247,-157 562.5247,-157"/>
<polygon fill="#000000" stroke="#000000" points="562.5247,-160.5001 572.5247,-157 562.5246,-153.5001 562.5247,-160.5001"/>
</g>
<!-- CardComponent  -->
<g id="node9" class="node">
<title>CardComponent </title>
<polygon fill="#fb8072" stroke="#000000" points="1003.0442,-252 890.9558,-252 890.9558,-216 1003.0442,-216 1003.0442,-252"/>
<text text-anchor="middle" x="947" y="-229.8" font-family="Times,serif" font-size="14.00" fill="#000000">CardComponent </text>
</g>
<!-- CardsModule&#45;&gt;CardComponent  -->
<g id="edge8" class="edge">
<title>CardsModule&#45;&gt;CardComponent </title>
<path fill="none" stroke="#000000" stroke-dasharray="5,2" d="M665.2234,-175C749.3865,-175 919.0381,-175 919.0381,-175 919.0381,-175 919.0381,-205.9775 919.0381,-205.9775"/>
<polygon fill="#000000" stroke="#000000" points="915.5381,-205.9774 919.0381,-215.9775 922.5381,-205.9775 915.5381,-205.9774"/>
</g>
<!-- CardDetailsComponent  -->
<g id="node10" class="node">
<title>CardDetailsComponent </title>
<polygon fill="#fb8072" stroke="#000000" points="872.6967,-252 721.3033,-252 721.3033,-216 872.6967,-216 872.6967,-252"/>
<text text-anchor="middle" x="797" y="-229.8" font-family="Times,serif" font-size="14.00" fill="#000000">CardDetailsComponent </text>
</g>
<!-- CardsModule&#45;&gt;CardDetailsComponent  -->
<g id="edge9" class="edge">
<title>CardsModule&#45;&gt;CardDetailsComponent </title>
<path fill="none" stroke="#000000" stroke-dasharray="5,2" d="M665.1344,-181C703.1723,-181 750.9062,-181 750.9062,-181 750.9062,-181 750.9062,-205.7604 750.9062,-205.7604"/>
<polygon fill="#000000" stroke="#000000" points="747.4063,-205.7604 750.9062,-215.7604 754.4063,-205.7604 747.4063,-205.7604"/>
</g>
<!-- ConfirmModalComponent  -->
<g id="node11" class="node">
<title>ConfirmModalComponent </title>
<polygon fill="#fb8072" stroke="#000000" points="703.3213,-252 534.6787,-252 534.6787,-216 703.3213,-216 703.3213,-252"/>
<text text-anchor="middle" x="619" y="-229.8" font-family="Times,serif" font-size="14.00" fill="#000000">ConfirmModalComponent </text>
</g>
<!-- CardsModule&#45;&gt;ConfirmModalComponent  -->
<g id="edge10" class="edge">
<title>CardsModule&#45;&gt;ConfirmModalComponent </title>
<path fill="none" stroke="#000000" stroke-dasharray="5,2" d="M619,-187.1061C619,-187.1061 619,-205.991 619,-205.991"/>
<polygon fill="#000000" stroke="#000000" points="615.5001,-205.9909 619,-215.991 622.5001,-205.991 615.5001,-205.9909"/>
</g>
<!-- DetailComponent  -->
<g id="node12" class="node">
<title>DetailComponent </title>
<polygon fill="#fb8072" stroke="#000000" points="516.54,-252 397.46,-252 397.46,-216 516.54,-216 516.54,-252"/>
<text text-anchor="middle" x="457" y="-229.8" font-family="Times,serif" font-size="14.00" fill="#000000">DetailComponent </text>
</g>
<!-- CardsModule&#45;&gt;DetailComponent  -->
<g id="edge11" class="edge">
<title>CardsModule&#45;&gt;DetailComponent </title>
<path fill="none" stroke="#000000" stroke-dasharray="5,2" d="M572.7499,-181C539.0874,-181 499.375,-181 499.375,-181 499.375,-181 499.375,-205.7604 499.375,-205.7604"/>
<polygon fill="#000000" stroke="#000000" points="495.8751,-205.7604 499.375,-215.7604 502.8751,-205.7604 495.8751,-205.7604"/>
</g>
<!-- DetailsComponent  -->
<g id="node13" class="node">
<title>DetailsComponent </title>
<polygon fill="#fb8072" stroke="#000000" points="379.4855,-252 254.5145,-252 254.5145,-216 379.4855,-216 379.4855,-252"/>
<text text-anchor="middle" x="317" y="-229.8" font-family="Times,serif" font-size="14.00" fill="#000000">DetailsComponent </text>
</g>
<!-- CardsModule&#45;&gt;DetailsComponent  -->
<g id="edge12" class="edge">
<title>CardsModule&#45;&gt;DetailsComponent </title>
<path fill="none" stroke="#000000" stroke-dasharray="5,2" d="M572.6443,-175C498.4724,-175 361.375,-175 361.375,-175 361.375,-175 361.375,-205.9775 361.375,-205.9775"/>
<polygon fill="#000000" stroke="#000000" points="357.8751,-205.9774 361.375,-215.9775 364.8751,-205.9775 357.8751,-205.9774"/>
</g>
<!-- UtilitiesModule -->
<g id="node8" class="node">
<title>UtilitiesModule</title>
<polygon fill="#8dd3c7" stroke="#000000" points="320.1598,-122 317.1598,-126 296.1598,-126 293.1598,-122 215.8402,-122 215.8402,-86 320.1598,-86 320.1598,-122"/>
<text text-anchor="middle" x="268" y="-99.8" font-family="Times,serif" font-size="14.00" fill="#000000">UtilitiesModule</text>
</g>
<!-- UtilitiesModule&#45;&gt;CardsModule -->
<g id="edge7" class="edge">
<title>UtilitiesModule&#45;&gt;CardsModule</title>
<path fill="none" stroke="#000000" d="M287.5437,-122.0225C287.5437,-139.3734 287.5437,-163 287.5437,-163 287.5437,-163 562.5634,-163 562.5634,-163"/>
<polygon fill="#000000" stroke="#000000" points="562.5634,-166.5001 572.5634,-163 562.5634,-159.5001 562.5634,-166.5001"/>
</g>
<!-- HandlebarsService -->
<g id="node14" class="node">
<title>HandlebarsService</title>
<ellipse fill="#fdb462" stroke="#000000" cx="108" cy="-104" rx="83.9257" ry="18"/>
<text text-anchor="middle" x="108" y="-99.8" font-family="Times,serif" font-size="14.00" fill="#000000">HandlebarsService</text>
</g>
<!-- HandlebarsService&#45;&gt;CardsModule -->
<g id="edge13" class="edge">
<title>HandlebarsService&#45;&gt;CardsModule</title>
<path fill="none" stroke="#000000" d="M108,-122.1061C108,-141.3391 108,-169 108,-169 108,-169 562.7509,-169 562.7509,-169"/>
<polygon fill="#000000" stroke="#000000" points="562.7509,-172.5001 572.7509,-169 562.7509,-165.5001 562.7509,-172.5001"/>
</g>
</g>
</svg>
