<?xml version="1.0" encoding="UTF-8" standalone="no"?>
<!DOCTYPE svg PUBLIC "-//W3C//DTD SVG 1.1//EN"
 "http://www.w3.org/Graphics/SVG/1.1/DTD/svg11.dtd">
<!-- Generated by graphviz version 2.40.1 (20161225.0304)
 -->
<!-- Title: dependencies Pages: 1 -->
<svg width="1354pt" height="284pt"
 viewBox="0.00 0.00 1354.00 284.00" xmlns="http://www.w3.org/2000/svg" xmlns:xlink="http://www.w3.org/1999/xlink">
<g id="graph0" class="graph" transform="scale(1 1) rotate(0) translate(4 280)">
<title>dependencies</title>
<polygon fill="#ffffff" stroke="transparent" points="-4,4 -4,-280 1350,-280 1350,4 -4,4"/>
<text text-anchor="start" x="652.0091" y="-42.4" font-family="sans-serif" font-weight="bold" font-size="14.00" fill="#000000">Legend</text>
<polygon fill="#ffffb3" stroke="transparent" points="439,-10 439,-30 459,-30 459,-10 439,-10"/>
<text text-anchor="start" x="462.629" y="-15.4" font-family="sans-serif" font-size="14.00" fill="#000000"> &#160;Declarations</text>
<polygon fill="#8dd3c7" stroke="transparent" points="552,-10 552,-30 572,-30 572,-10 552,-10"/>
<text text-anchor="start" x="575.7251" y="-15.4" font-family="sans-serif" font-size="14.00" fill="#000000"> &#160;Module</text>
<polygon fill="#80b1d3" stroke="transparent" points="638,-10 638,-30 658,-30 658,-10 638,-10"/>
<text text-anchor="start" x="661.7812" y="-15.4" font-family="sans-serif" font-size="14.00" fill="#000000"> &#160;Bootstrap</text>
<polygon fill="#fdb462" stroke="transparent" points="735,-10 735,-30 755,-30 755,-10 735,-10"/>
<text text-anchor="start" x="758.6732" y="-15.4" font-family="sans-serif" font-size="14.00" fill="#000000"> &#160;Providers</text>
<polygon fill="#fb8072" stroke="transparent" points="831,-10 831,-30 851,-30 851,-10 831,-10"/>
<text text-anchor="start" x="854.7258" y="-15.4" font-family="sans-serif" font-size="14.00" fill="#000000"> &#160;Exports</text>
<g id="clust1" class="cluster">
<title>cluster_FeedModule</title>
<polygon fill="none" stroke="#000000" stroke-dasharray="1,5" points="8,-70 8,-268 1338,-268 1338,-70 8,-70"/>
</g>
<g id="clust2" class="cluster">
<title>cluster_FeedModule_declarations</title>
<polygon fill="none" stroke="#000000" points="282,-78 282,-130 1330,-130 1330,-78 282,-78"/>
</g>
<g id="clust10" class="cluster">
<title>cluster_FeedModule_imports</title>
<polygon fill="none" stroke="#000000" points="16,-78 16,-130 274,-130 274,-78 16,-78"/>
</g>
<g id="clust11" class="cluster">
<title>cluster_FeedModule_exports</title>
<polygon fill="none" stroke="#000000" points="609,-208 609,-260 737,-260 737,-208 609,-208"/>
</g>
<!-- CardListComponent -->
<g id="node1" class="node">
<title>CardListComponent</title>
<polygon fill="#ffffb3" stroke="#000000" points="1322.323,-122 1191.677,-122 1191.677,-86 1322.323,-86 1322.323,-122"/>
<text text-anchor="middle" x="1257" y="-99.8" font-family="Times,serif" font-size="14.00" fill="#000000">CardListComponent</text>
</g>
<!-- FeedModule -->
<g id="node8" class="node">
<title>FeedModule</title>
<polygon fill="#8dd3c7" stroke="#000000" points="716.2619,-187 713.2619,-191 692.2619,-191 689.2619,-187 629.7381,-187 629.7381,-151 716.2619,-151 716.2619,-187"/>
<text text-anchor="middle" x="673" y="-164.8" font-family="Times,serif" font-size="14.00" fill="#000000">FeedModule</text>
</g>
<!-- CardListComponent&#45;&gt;FeedModule -->
<g id="edge1" class="edge">
<title>CardListComponent&#45;&gt;FeedModule</title>
<path fill="none" stroke="#000000" d="M1257,-122.0109C1257,-144.4852 1257,-180 1257,-180 1257,-180 726.4178,-180 726.4178,-180"/>
<polygon fill="#000000" stroke="#000000" points="726.4178,-176.5001 716.4178,-180 726.4178,-183.5001 726.4178,-176.5001"/>
</g>
<!-- FeedComponent -->
<g id="node2" class="node">
<title>FeedComponent</title>
<polygon fill="#ffffb3" stroke="#000000" points="1174.0452,-122 1065.9548,-122 1065.9548,-86 1174.0452,-86 1174.0452,-122"/>
<text text-anchor="middle" x="1120" y="-99.8" font-family="Times,serif" font-size="14.00" fill="#000000">FeedComponent</text>
</g>
<!-- FeedComponent&#45;&gt;FeedModule -->
<g id="edge2" class="edge">
<title>FeedComponent&#45;&gt;FeedModule</title>
<path fill="none" stroke="#000000" d="M1120,-122.1289C1120,-142.5724 1120,-173 1120,-173 1120,-173 726.2664,-173 726.2664,-173"/>
<polygon fill="#000000" stroke="#000000" points="726.2664,-169.5001 716.2664,-173 726.2664,-176.5001 726.2664,-169.5001"/>
</g>
<!-- FiltersComponent -->
<g id="node3" class="node">
<title>FiltersComponent</title>
<polygon fill="#ffffb3" stroke="#000000" points="1047.6066,-122 930.3934,-122 930.3934,-86 1047.6066,-86 1047.6066,-122"/>
<text text-anchor="middle" x="989" y="-99.8" font-family="Times,serif" font-size="14.00" fill="#000000">FiltersComponent</text>
</g>
<!-- FiltersComponent&#45;&gt;FeedModule -->
<g id="edge3" class="edge">
<title>FiltersComponent&#45;&gt;FeedModule</title>
<path fill="none" stroke="#000000" d="M989,-122.2667C989,-140.5552 989,-166 989,-166 989,-166 726.2759,-166 726.2759,-166"/>
<polygon fill="#000000" stroke="#000000" points="726.2759,-162.5001 716.2759,-166 726.2758,-169.5001 726.2759,-162.5001"/>
</g>
<!-- NoSelectionComponent -->
<g id="node4" class="node">
<title>NoSelectionComponent</title>
<polygon fill="#ffffb3" stroke="#000000" points="912.0379,-122 761.9621,-122 761.9621,-86 912.0379,-86 912.0379,-122"/>
<text text-anchor="middle" x="837" y="-99.8" font-family="Times,serif" font-size="14.00" fill="#000000">NoSelectionComponent</text>
</g>
<!-- NoSelectionComponent&#45;&gt;FeedModule -->
<g id="edge4" class="edge">
<title>NoSelectionComponent&#45;&gt;FeedModule</title>
<path fill="none" stroke="#000000" d="M837,-122.0091C837,-138.0494 837,-159 837,-159 837,-159 726.5184,-159 726.5184,-159"/>
<polygon fill="#000000" stroke="#000000" points="726.5185,-155.5001 716.5184,-159 726.5184,-162.5001 726.5185,-155.5001"/>
</g>
<!-- TimeFilterComponent -->
<g id="node5" class="node">
<title>TimeFilterComponent</title>
<polygon fill="#ffffb3" stroke="#000000" points="743.7106,-122 602.2894,-122 602.2894,-86 743.7106,-86 743.7106,-122"/>
<text text-anchor="middle" x="673" y="-99.8" font-family="Times,serif" font-size="14.00" fill="#000000">TimeFilterComponent</text>
</g>
<!-- TimeFilterComponent&#45;&gt;FeedModule -->
<g id="edge5" class="edge">
<title>TimeFilterComponent&#45;&gt;FeedModule</title>
<path fill="none" stroke="#000000" d="M673,-122.1061C673,-122.1061 673,-140.991 673,-140.991"/>
<polygon fill="#000000" stroke="#000000" points="669.5001,-140.9909 673,-150.991 676.5001,-140.991 669.5001,-140.9909"/>
</g>
<!-- TimeLineComponent -->
<g id="node6" class="node">
<title>TimeLineComponent</title>
<polygon fill="#ffffb3" stroke="#000000" points="584.0394,-122 447.9606,-122 447.9606,-86 584.0394,-86 584.0394,-122"/>
<text text-anchor="middle" x="516" y="-99.8" font-family="Times,serif" font-size="14.00" fill="#000000">TimeLineComponent</text>
</g>
<!-- TimeLineComponent&#45;&gt;FeedModule -->
<g id="edge6" class="edge">
<title>TimeLineComponent&#45;&gt;FeedModule</title>
<path fill="none" stroke="#000000" d="M516,-122.0091C516,-138.0494 516,-159 516,-159 516,-159 619.6835,-159 619.6835,-159"/>
<polygon fill="#000000" stroke="#000000" points="619.6835,-162.5001 629.6835,-159 619.6834,-155.5001 619.6835,-162.5001"/>
</g>
<!-- TypeFilterComponent -->
<g id="node7" class="node">
<title>TypeFilterComponent</title>
<polygon fill="#ffffb3" stroke="#000000" points="430.4299,-122 289.5701,-122 289.5701,-86 430.4299,-86 430.4299,-122"/>
<text text-anchor="middle" x="360" y="-99.8" font-family="Times,serif" font-size="14.00" fill="#000000">TypeFilterComponent</text>
</g>
<!-- TypeFilterComponent&#45;&gt;FeedModule -->
<g id="edge7" class="edge">
<title>TypeFilterComponent&#45;&gt;FeedModule</title>
<path fill="none" stroke="#000000" d="M360,-122.2667C360,-140.5552 360,-166 360,-166 360,-166 619.4787,-166 619.4787,-166"/>
<polygon fill="#000000" stroke="#000000" points="619.4787,-169.5001 629.4787,-166 619.4787,-162.5001 619.4787,-169.5001"/>
</g>
<!-- FeedComponent  -->
<g id="node11" class="node">
<title>FeedComponent </title>
<polygon fill="#fb8072" stroke="#000000" points="729.0442,-252 616.9558,-252 616.9558,-216 729.0442,-216 729.0442,-252"/>
<text text-anchor="middle" x="673" y="-229.8" font-family="Times,serif" font-size="14.00" fill="#000000">FeedComponent </text>
</g>
<!-- FeedModule&#45;&gt;FeedComponent  -->
<g id="edge10" class="edge">
<title>FeedModule&#45;&gt;FeedComponent </title>
<path fill="none" stroke="#000000" stroke-dasharray="5,2" d="M673,-187.1061C673,-187.1061 673,-205.991 673,-205.991"/>
<polygon fill="#000000" stroke="#000000" points="669.5001,-205.9909 673,-215.991 676.5001,-205.991 669.5001,-205.9909"/>
</g>
<!-- CardsModule -->
<g id="node9" class="node">
<title>CardsModule</title>
<polygon fill="#8dd3c7" stroke="#000000" points="266.2064,-122 263.2064,-126 242.2064,-126 239.2064,-122 173.7936,-122 173.7936,-86 266.2064,-86 266.2064,-122"/>
<text text-anchor="middle" x="220" y="-99.8" font-family="Times,serif" font-size="14.00" fill="#000000">CardsModule</text>
</g>
<!-- CardsModule&#45;&gt;FeedModule -->
<g id="edge8" class="edge">
<title>CardsModule&#45;&gt;FeedModule</title>
<path fill="none" stroke="#000000" d="M220,-122.1289C220,-142.5724 220,-173 220,-173 220,-173 619.5645,-173 619.5645,-173"/>
<polygon fill="#000000" stroke="#000000" points="619.5645,-176.5001 629.5645,-173 619.5644,-169.5001 619.5645,-176.5001"/>
</g>
<!-- FeedRoutingModule -->
<g id="node10" class="node">
<title>FeedRoutingModule</title>
<polygon fill="#8dd3c7" stroke="#000000" points="155.8795,-122 152.8795,-126 131.8795,-126 128.8795,-122 24.1205,-122 24.1205,-86 155.8795,-86 155.8795,-122"/>
<text text-anchor="middle" x="90" y="-99.8" font-family="Times,serif" font-size="14.00" fill="#000000">FeedRoutingModule</text>
</g>
<!-- FeedRoutingModule&#45;&gt;FeedModule -->
<g id="edge9" class="edge">
<title>FeedRoutingModule&#45;&gt;FeedModule</title>
<path fill="none" stroke="#000000" d="M90,-122.0109C90,-144.4852 90,-180 90,-180 90,-180 619.6565,-180 619.6565,-180"/>
<polygon fill="#000000" stroke="#000000" points="619.6566,-183.5001 629.6565,-180 619.6565,-176.5001 619.6566,-183.5001"/>
</g>
</g>
</svg>
