<?xml version="1.0" encoding="UTF-8" standalone="no"?>
<!DOCTYPE svg PUBLIC "-//W3C//DTD SVG 1.1//EN"
 "http://www.w3.org/Graphics/SVG/1.1/DTD/svg11.dtd">
<!-- Generated by graphviz version 2.40.1 (20161225.0304)
 -->
<!-- Title: dependencies Pages: 1 -->
<svg width="1195pt" height="284pt"
 viewBox="0.00 0.00 1195.00 284.00" xmlns="http://www.w3.org/2000/svg" xmlns:xlink="http://www.w3.org/1999/xlink">
<g id="graph0" class="graph" transform="scale(1 1) rotate(0) translate(4 280)">
<title>dependencies</title>
<polygon fill="#ffffff" stroke="transparent" points="-4,4 -4,-280 1191,-280 1191,4 -4,4"/>
<text text-anchor="start" x="572.5091" y="-42.4" font-family="sans-serif" font-weight="bold" font-size="14.00" fill="#000000">Legend</text>
<polygon fill="#ffffb3" stroke="transparent" points="359.5,-10 359.5,-30 379.5,-30 379.5,-10 359.5,-10"/>
<text text-anchor="start" x="383.129" y="-15.4" font-family="sans-serif" font-size="14.00" fill="#000000"> &#160;Declarations</text>
<polygon fill="#8dd3c7" stroke="transparent" points="472.5,-10 472.5,-30 492.5,-30 492.5,-10 472.5,-10"/>
<text text-anchor="start" x="496.2251" y="-15.4" font-family="sans-serif" font-size="14.00" fill="#000000"> &#160;Module</text>
<polygon fill="#80b1d3" stroke="transparent" points="558.5,-10 558.5,-30 578.5,-30 578.5,-10 558.5,-10"/>
<text text-anchor="start" x="582.2812" y="-15.4" font-family="sans-serif" font-size="14.00" fill="#000000"> &#160;Bootstrap</text>
<polygon fill="#fdb462" stroke="transparent" points="655.5,-10 655.5,-30 675.5,-30 675.5,-10 655.5,-10"/>
<text text-anchor="start" x="679.1732" y="-15.4" font-family="sans-serif" font-size="14.00" fill="#000000"> &#160;Providers</text>
<polygon fill="#fb8072" stroke="transparent" points="751.5,-10 751.5,-30 771.5,-30 771.5,-10 751.5,-10"/>
<text text-anchor="start" x="775.2258" y="-15.4" font-family="sans-serif" font-size="14.00" fill="#000000"> &#160;Exports</text>
<g id="clust1" class="cluster">
<title>cluster_FeedModule</title>
<polygon fill="none" stroke="#000000" stroke-dasharray="1,5" points="8,-70 8,-268 1179,-268 1179,-70 8,-70"/>
</g>
<g id="clust2" class="cluster">
<title>cluster_FeedModule_declarations</title>
<polygon fill="none" stroke="#000000" points="282,-78 282,-130 1171,-130 1171,-78 282,-78"/>
</g>
<g id="clust9" class="cluster">
<title>cluster_FeedModule_imports</title>
<polygon fill="none" stroke="#000000" points="16,-78 16,-130 274,-130 274,-78 16,-78"/>
</g>
<g id="clust10" class="cluster">
<title>cluster_FeedModule_exports</title>
<polygon fill="none" stroke="#000000" points="533,-208 533,-260 661,-260 661,-208 533,-208"/>
</g>
<!-- CardListComponent -->
<g id="node1" class="node">
<title>CardListComponent</title>
<polygon fill="#ffffb3" stroke="#000000" points="1163.323,-122 1032.677,-122 1032.677,-86 1163.323,-86 1163.323,-122"/>
<text text-anchor="middle" x="1098" y="-99.8" font-family="Times,serif" font-size="14.00" fill="#000000">CardListComponent</text>
</g>
<!-- FeedModule -->
<g id="node7" class="node">
<title>FeedModule</title>
<polygon fill="#8dd3c7" stroke="#000000" points="640.2619,-187 637.2619,-191 616.2619,-191 613.2619,-187 553.7381,-187 553.7381,-151 640.2619,-151 640.2619,-187"/>
<text text-anchor="middle" x="597" y="-164.8" font-family="Times,serif" font-size="14.00" fill="#000000">FeedModule</text>
</g>
<!-- CardListComponent&#45;&gt;FeedModule -->
<g id="edge1" class="edge">
<title>CardListComponent&#45;&gt;FeedModule</title>
<path fill="none" stroke="#000000" d="M1098,-122.2921C1098,-144.2057 1098,-178 1098,-178 1098,-178 650.584,-178 650.584,-178"/>
<polygon fill="#000000" stroke="#000000" points="650.5841,-174.5001 640.584,-178 650.584,-181.5001 650.5841,-174.5001"/>
</g>
<!-- FeedComponent -->
<g id="node2" class="node">
<title>FeedComponent</title>
<polygon fill="#ffffb3" stroke="#000000" points="1015.0452,-122 906.9548,-122 906.9548,-86 1015.0452,-86 1015.0452,-122"/>
<text text-anchor="middle" x="961" y="-99.8" font-family="Times,serif" font-size="14.00" fill="#000000">FeedComponent</text>
</g>
<!-- FeedComponent&#45;&gt;FeedModule -->
<g id="edge2" class="edge">
<title>FeedComponent&#45;&gt;FeedModule</title>
<path fill="none" stroke="#000000" d="M961,-122.1061C961,-141.3391 961,-169 961,-169 961,-169 650.5454,-169 650.5454,-169"/>
<polygon fill="#000000" stroke="#000000" points="650.5454,-165.5001 640.5454,-169 650.5453,-172.5001 650.5454,-165.5001"/>
</g>
<!-- FiltersComponent -->
<g id="node3" class="node">
<title>FiltersComponent</title>
<polygon fill="#ffffb3" stroke="#000000" points="888.6066,-122 771.3934,-122 771.3934,-86 888.6066,-86 888.6066,-122"/>
<text text-anchor="middle" x="830" y="-99.8" font-family="Times,serif" font-size="14.00" fill="#000000">FiltersComponent</text>
</g>
<!-- FiltersComponent&#45;&gt;FeedModule -->
<g id="edge3" class="edge">
<title>FiltersComponent&#45;&gt;FeedModule</title>
<path fill="none" stroke="#000000" d="M830,-122.027C830,-138.3976 830,-160 830,-160 830,-160 650.2795,-160 650.2795,-160"/>
<polygon fill="#000000" stroke="#000000" points="650.2795,-156.5001 640.2795,-160 650.2794,-163.5001 650.2795,-156.5001"/>
</g>
<!-- NoSelectionComponent -->
<g id="node4" class="node">
<title>NoSelectionComponent</title>
<polygon fill="#ffffb3" stroke="#000000" points="753.0379,-122 602.9621,-122 602.9621,-86 753.0379,-86 753.0379,-122"/>
<text text-anchor="middle" x="678" y="-99.8" font-family="Times,serif" font-size="14.00" fill="#000000">NoSelectionComponent</text>
</g>
<!-- NoSelectionComponent&#45;&gt;FeedModule -->
<g id="edge4" class="edge">
<title>NoSelectionComponent&#45;&gt;FeedModule</title>
<path fill="none" stroke="#000000" d="M621.5561,-122.1061C621.5561,-122.1061 621.5561,-140.991 621.5561,-140.991"/>
<polygon fill="#000000" stroke="#000000" points="618.0562,-140.9909 621.5561,-150.991 625.0562,-140.991 618.0562,-140.9909"/>
</g>
<!-- TimeLineComponent -->
<g id="node5" class="node">
<title>TimeLineComponent</title>
<polygon fill="#ffffb3" stroke="#000000" points="584.0394,-122 447.9606,-122 447.9606,-86 584.0394,-86 584.0394,-122"/>
<text text-anchor="middle" x="516" y="-99.8" font-family="Times,serif" font-size="14.00" fill="#000000">TimeLineComponent</text>
</g>
<!-- TimeLineComponent&#45;&gt;FeedModule -->
<g id="edge5" class="edge">
<title>TimeLineComponent&#45;&gt;FeedModule</title>
<path fill="none" stroke="#000000" d="M568.9443,-122.1061C568.9443,-122.1061 568.9443,-140.991 568.9443,-140.991"/>
<polygon fill="#000000" stroke="#000000" points="565.4443,-140.9909 568.9443,-150.991 572.4443,-140.991 565.4443,-140.9909"/>
</g>
<!-- TypeFilterComponent -->
<g id="node6" class="node">
<title>TypeFilterComponent</title>
<polygon fill="#ffffb3" stroke="#000000" points="430.4299,-122 289.5701,-122 289.5701,-86 430.4299,-86 430.4299,-122"/>
<text text-anchor="middle" x="360" y="-99.8" font-family="Times,serif" font-size="14.00" fill="#000000">TypeFilterComponent</text>
</g>
<!-- TypeFilterComponent&#45;&gt;FeedModule -->
<g id="edge6" class="edge">
<title>TypeFilterComponent&#45;&gt;FeedModule</title>
<path fill="none" stroke="#000000" d="M360,-122.027C360,-138.3976 360,-160 360,-160 360,-160 543.5305,-160 543.5305,-160"/>
<polygon fill="#000000" stroke="#000000" points="543.5306,-163.5001 553.5305,-160 543.5305,-156.5001 543.5306,-163.5001"/>
</g>
<!-- FeedComponent  -->
<g id="node10" class="node">
<title>FeedComponent </title>
<polygon fill="#fb8072" stroke="#000000" points="653.0442,-252 540.9558,-252 540.9558,-216 653.0442,-216 653.0442,-252"/>
<text text-anchor="middle" x="597" y="-229.8" font-family="Times,serif" font-size="14.00" fill="#000000">FeedComponent </text>
</g>
<!-- FeedModule&#45;&gt;FeedComponent  -->
<g id="edge9" class="edge">
<title>FeedModule&#45;&gt;FeedComponent </title>
<path fill="none" stroke="#000000" stroke-dasharray="5,2" d="M597,-187.1061C597,-187.1061 597,-205.991 597,-205.991"/>
<polygon fill="#000000" stroke="#000000" points="593.5001,-205.9909 597,-215.991 600.5001,-205.991 593.5001,-205.9909"/>
</g>
<!-- CardsModule -->
<g id="node8" class="node">
<title>CardsModule</title>
<polygon fill="#8dd3c7" stroke="#000000" points="266.2064,-122 263.2064,-126 242.2064,-126 239.2064,-122 173.7936,-122 173.7936,-86 266.2064,-86 266.2064,-122"/>
<text text-anchor="middle" x="220" y="-99.8" font-family="Times,serif" font-size="14.00" fill="#000000">CardsModule</text>
</g>
<!-- CardsModule&#45;&gt;FeedModule -->
<g id="edge7" class="edge">
<title>CardsModule&#45;&gt;FeedModule</title>
<path fill="none" stroke="#000000" d="M220,-122.1061C220,-141.3391 220,-169 220,-169 220,-169 543.385,-169 543.385,-169"/>
<polygon fill="#000000" stroke="#000000" points="543.385,-172.5001 553.385,-169 543.385,-165.5001 543.385,-172.5001"/>
</g>
<!-- FeedRoutingModule -->
<g id="node9" class="node">
<title>FeedRoutingModule</title>
<polygon fill="#8dd3c7" stroke="#000000" points="155.8795,-122 152.8795,-126 131.8795,-126 128.8795,-122 24.1205,-122 24.1205,-86 155.8795,-86 155.8795,-122"/>
<text text-anchor="middle" x="90" y="-99.8" font-family="Times,serif" font-size="14.00" fill="#000000">FeedRoutingModule</text>
</g>
<!-- FeedRoutingModule&#45;&gt;FeedModule -->
<g id="edge8" class="edge">
<title>FeedRoutingModule&#45;&gt;FeedModule</title>
<path fill="none" stroke="#000000" d="M90,-122.2921C90,-144.2057 90,-178 90,-178 90,-178 543.3347,-178 543.3347,-178"/>
<polygon fill="#000000" stroke="#000000" points="543.3347,-181.5001 553.3347,-178 543.3346,-174.5001 543.3347,-181.5001"/>
</g>
</g>
</svg>
