<?xml version="1.0" encoding="UTF-8" standalone="no"?>
<!DOCTYPE svg PUBLIC "-//W3C//DTD SVG 1.1//EN"
 "http://www.w3.org/Graphics/SVG/1.1/DTD/svg11.dtd">
<!-- Generated by graphviz version 2.40.1 (20161225.0304)
 -->
<!-- Title: dependencies Pages: 1 -->
<svg width="1037pt" height="284pt"
 viewBox="0.00 0.00 1037.00 284.00" xmlns="http://www.w3.org/2000/svg" xmlns:xlink="http://www.w3.org/1999/xlink">
<g id="graph0" class="graph" transform="scale(1 1) rotate(0) translate(4 280)">
<title>dependencies</title>
<polygon fill="#ffffff" stroke="transparent" points="-4,4 -4,-280 1033,-280 1033,4 -4,4"/>
<text text-anchor="start" x="493.5091" y="-42.4" font-family="sans-serif" font-weight="bold" font-size="14.00" fill="#000000">Legend</text>
<polygon fill="#ffffb3" stroke="transparent" points="280.5,-10 280.5,-30 300.5,-30 300.5,-10 280.5,-10"/>
<text text-anchor="start" x="304.129" y="-15.4" font-family="sans-serif" font-size="14.00" fill="#000000"> &#160;Declarations</text>
<polygon fill="#8dd3c7" stroke="transparent" points="393.5,-10 393.5,-30 413.5,-30 413.5,-10 393.5,-10"/>
<text text-anchor="start" x="417.2251" y="-15.4" font-family="sans-serif" font-size="14.00" fill="#000000"> &#160;Module</text>
<polygon fill="#80b1d3" stroke="transparent" points="479.5,-10 479.5,-30 499.5,-30 499.5,-10 479.5,-10"/>
<text text-anchor="start" x="503.2812" y="-15.4" font-family="sans-serif" font-size="14.00" fill="#000000"> &#160;Bootstrap</text>
<polygon fill="#fdb462" stroke="transparent" points="576.5,-10 576.5,-30 596.5,-30 596.5,-10 576.5,-10"/>
<text text-anchor="start" x="600.1732" y="-15.4" font-family="sans-serif" font-size="14.00" fill="#000000"> &#160;Providers</text>
<polygon fill="#fb8072" stroke="transparent" points="672.5,-10 672.5,-30 692.5,-30 692.5,-10 672.5,-10"/>
<text text-anchor="start" x="696.2258" y="-15.4" font-family="sans-serif" font-size="14.00" fill="#000000"> &#160;Exports</text>
<g id="clust1" class="cluster">
<title>cluster_FeedModule</title>
<polygon fill="none" stroke="#000000" stroke-dasharray="1,5" points="8,-70 8,-268 1021,-268 1021,-70 8,-70"/>
</g>
<g id="clust2" class="cluster">
<title>cluster_FeedModule_declarations</title>
<polygon fill="none" stroke="#000000" points="282,-78 282,-130 1013,-130 1013,-78 282,-78"/>
</g>
<g id="clust8" class="cluster">
<title>cluster_FeedModule_imports</title>
<polygon fill="none" stroke="#000000" points="16,-78 16,-130 274,-130 274,-78 16,-78"/>
</g>
<g id="clust9" class="cluster">
<title>cluster_FeedModule_exports</title>
<polygon fill="none" stroke="#000000" points="456,-208 456,-260 584,-260 584,-208 456,-208"/>
</g>
<!-- CardListComponent -->
<g id="node1" class="node">
<title>CardListComponent</title>
<polygon fill="#ffffb3" stroke="#000000" points="1005.323,-122 874.677,-122 874.677,-86 1005.323,-86 1005.323,-122"/>
<text text-anchor="middle" x="940" y="-99.8" font-family="Times,serif" font-size="14.00" fill="#000000">CardListComponent</text>
</g>
<!-- FeedModule -->
<g id="node6" class="node">
<title>FeedModule</title>
<polygon fill="#8dd3c7" stroke="#000000" points="563.2619,-187 560.2619,-191 539.2619,-191 536.2619,-187 476.7381,-187 476.7381,-151 563.2619,-151 563.2619,-187"/>
<text text-anchor="middle" x="520" y="-164.8" font-family="Times,serif" font-size="14.00" fill="#000000">FeedModule</text>
</g>
<!-- CardListComponent&#45;&gt;FeedModule -->
<g id="edge1" class="edge">
<title>CardListComponent&#45;&gt;FeedModule</title>
<path fill="none" stroke="#000000" d="M940,-122.2921C940,-144.2057 940,-178 940,-178 940,-178 573.3655,-178 573.3655,-178"/>
<polygon fill="#000000" stroke="#000000" points="573.3655,-174.5001 563.3655,-178 573.3654,-181.5001 573.3655,-174.5001"/>
</g>
<!-- FeedComponent -->
<g id="node2" class="node">
<title>FeedComponent</title>
<polygon fill="#ffffb3" stroke="#000000" points="857.0452,-122 748.9548,-122 748.9548,-86 857.0452,-86 857.0452,-122"/>
<text text-anchor="middle" x="803" y="-99.8" font-family="Times,serif" font-size="14.00" fill="#000000">FeedComponent</text>
</g>
<!-- FeedComponent&#45;&gt;FeedModule -->
<g id="edge2" class="edge">
<title>FeedComponent&#45;&gt;FeedModule</title>
<path fill="none" stroke="#000000" d="M803,-122.1061C803,-141.3391 803,-169 803,-169 803,-169 573.2897,-169 573.2897,-169"/>
<polygon fill="#000000" stroke="#000000" points="573.2897,-165.5001 563.2897,-169 573.2896,-172.5001 573.2897,-165.5001"/>
</g>
<!-- FiltersComponent -->
<g id="node3" class="node">
<title>FiltersComponent</title>
<polygon fill="#ffffb3" stroke="#000000" points="730.6066,-122 613.3934,-122 613.3934,-86 730.6066,-86 730.6066,-122"/>
<text text-anchor="middle" x="672" y="-99.8" font-family="Times,serif" font-size="14.00" fill="#000000">FiltersComponent</text>
</g>
<!-- FiltersComponent&#45;&gt;FeedModule -->
<g id="edge3" class="edge">
<title>FiltersComponent&#45;&gt;FeedModule</title>
<path fill="none" stroke="#000000" d="M672,-122.027C672,-138.3976 672,-160 672,-160 672,-160 573.5571,-160 573.5571,-160"/>
<polygon fill="#000000" stroke="#000000" points="573.5571,-156.5001 563.5571,-160 573.5571,-163.5001 573.5571,-156.5001"/>
</g>
<!-- NoSelectionComponent -->
<g id="node4" class="node">
<title>NoSelectionComponent</title>
<polygon fill="#ffffb3" stroke="#000000" points="595.0379,-122 444.9621,-122 444.9621,-86 595.0379,-86 595.0379,-122"/>
<text text-anchor="middle" x="520" y="-99.8" font-family="Times,serif" font-size="14.00" fill="#000000">NoSelectionComponent</text>
</g>
<!-- NoSelectionComponent&#45;&gt;FeedModule -->
<g id="edge4" class="edge">
<title>NoSelectionComponent&#45;&gt;FeedModule</title>
<path fill="none" stroke="#000000" d="M520,-122.1061C520,-122.1061 520,-140.991 520,-140.991"/>
<polygon fill="#000000" stroke="#000000" points="516.5001,-140.9909 520,-150.991 523.5001,-140.991 516.5001,-140.9909"/>
</g>
<!-- TimeLineComponent -->
<g id="node5" class="node">
<title>TimeLineComponent</title>
<polygon fill="#ffffb3" stroke="#000000" points="426.0394,-122 289.9606,-122 289.9606,-86 426.0394,-86 426.0394,-122"/>
<text text-anchor="middle" x="358" y="-99.8" font-family="Times,serif" font-size="14.00" fill="#000000">TimeLineComponent</text>
</g>
<!-- TimeLineComponent&#45;&gt;FeedModule -->
<g id="edge5" class="edge">
<title>TimeLineComponent&#45;&gt;FeedModule</title>
<path fill="none" stroke="#000000" d="M358,-122.027C358,-138.3976 358,-160 358,-160 358,-160 466.587,-160 466.587,-160"/>
<polygon fill="#000000" stroke="#000000" points="466.587,-163.5001 476.587,-160 466.5869,-156.5001 466.587,-163.5001"/>
</g>
<!-- FeedComponent  -->
<g id="node9" class="node">
<title>FeedComponent </title>
<polygon fill="#fb8072" stroke="#000000" points="576.0442,-252 463.9558,-252 463.9558,-216 576.0442,-216 576.0442,-252"/>
<text text-anchor="middle" x="520" y="-229.8" font-family="Times,serif" font-size="14.00" fill="#000000">FeedComponent </text>
</g>
<!-- FeedModule&#45;&gt;FeedComponent  -->
<g id="edge8" class="edge">
<title>FeedModule&#45;&gt;FeedComponent </title>
<path fill="none" stroke="#000000" stroke-dasharray="5,2" d="M520,-187.1061C520,-187.1061 520,-205.991 520,-205.991"/>
<polygon fill="#000000" stroke="#000000" points="516.5001,-205.9909 520,-215.991 523.5001,-205.991 516.5001,-205.9909"/>
</g>
<!-- CardsModule -->
<g id="node7" class="node">
<title>CardsModule</title>
<polygon fill="#8dd3c7" stroke="#000000" points="266.2064,-122 263.2064,-126 242.2064,-126 239.2064,-122 173.7936,-122 173.7936,-86 266.2064,-86 266.2064,-122"/>
<text text-anchor="middle" x="220" y="-99.8" font-family="Times,serif" font-size="14.00" fill="#000000">CardsModule</text>
</g>
<!-- CardsModule&#45;&gt;FeedModule -->
<g id="edge6" class="edge">
<title>CardsModule&#45;&gt;FeedModule</title>
<path fill="none" stroke="#000000" d="M220,-122.1061C220,-141.3391 220,-169 220,-169 220,-169 466.6978,-169 466.6978,-169"/>
<polygon fill="#000000" stroke="#000000" points="466.6979,-172.5001 476.6978,-169 466.6978,-165.5001 466.6979,-172.5001"/>
</g>
<!-- FeedRoutingModule -->
<g id="node8" class="node">
<title>FeedRoutingModule</title>
<polygon fill="#8dd3c7" stroke="#000000" points="155.8795,-122 152.8795,-126 131.8795,-126 128.8795,-122 24.1205,-122 24.1205,-86 155.8795,-86 155.8795,-122"/>
<text text-anchor="middle" x="90" y="-99.8" font-family="Times,serif" font-size="14.00" fill="#000000">FeedRoutingModule</text>
</g>
<!-- FeedRoutingModule&#45;&gt;FeedModule -->
<g id="edge7" class="edge">
<title>FeedRoutingModule&#45;&gt;FeedModule</title>
<path fill="none" stroke="#000000" d="M90,-122.2921C90,-144.2057 90,-178 90,-178 90,-178 466.4029,-178 466.4029,-178"/>
<polygon fill="#000000" stroke="#000000" points="466.403,-181.5001 476.4029,-178 466.4029,-174.5001 466.403,-181.5001"/>
</g>
</g>
</svg>
