<?xml version="1.0" encoding="UTF-8" standalone="no"?>
<!DOCTYPE svg PUBLIC "-//W3C//DTD SVG 1.1//EN"
 "http://www.w3.org/Graphics/SVG/1.1/DTD/svg11.dtd">
<!-- Generated by graphviz version 2.40.1 (20161225.0304)
 -->
<!-- Title: dependencies Pages: 1 -->
<svg width="902pt" height="284pt"
 viewBox="0.00 0.00 902.00 284.00" xmlns="http://www.w3.org/2000/svg" xmlns:xlink="http://www.w3.org/1999/xlink">
<g id="graph0" class="graph" transform="scale(1 1) rotate(0) translate(4 280)">
<title>dependencies</title>
<polygon fill="#ffffff" stroke="transparent" points="-4,4 -4,-280 898,-280 898,4 -4,4"/>
<text text-anchor="start" x="426.0091" y="-42.4" font-family="sans-serif" font-weight="bold" font-size="14.00" fill="#000000">Legend</text>
<polygon fill="#ffffb3" stroke="transparent" points="213,-10 213,-30 233,-30 233,-10 213,-10"/>
<text text-anchor="start" x="236.629" y="-15.4" font-family="sans-serif" font-size="14.00" fill="#000000"> &#160;Declarations</text>
<polygon fill="#8dd3c7" stroke="transparent" points="326,-10 326,-30 346,-30 346,-10 326,-10"/>
<text text-anchor="start" x="349.7251" y="-15.4" font-family="sans-serif" font-size="14.00" fill="#000000"> &#160;Module</text>
<polygon fill="#80b1d3" stroke="transparent" points="412,-10 412,-30 432,-30 432,-10 412,-10"/>
<text text-anchor="start" x="435.7812" y="-15.4" font-family="sans-serif" font-size="14.00" fill="#000000"> &#160;Bootstrap</text>
<polygon fill="#fdb462" stroke="transparent" points="509,-10 509,-30 529,-30 529,-10 509,-10"/>
<text text-anchor="start" x="532.6732" y="-15.4" font-family="sans-serif" font-size="14.00" fill="#000000"> &#160;Providers</text>
<polygon fill="#fb8072" stroke="transparent" points="605,-10 605,-30 625,-30 625,-10 605,-10"/>
<text text-anchor="start" x="628.7258" y="-15.4" font-family="sans-serif" font-size="14.00" fill="#000000"> &#160;Exports</text>
<g id="clust1" class="cluster">
<title>cluster_FeedModule</title>
<polygon fill="none" stroke="#000000" stroke-dasharray="1,5" points="8,-70 8,-268 886,-268 886,-70 8,-70"/>
</g>
<g id="clust2" class="cluster">
<title>cluster_FeedModule_declarations</title>
<polygon fill="none" stroke="#000000" points="282,-78 282,-130 878,-130 878,-78 282,-78"/>
</g>
<g id="clust7" class="cluster">
<title>cluster_FeedModule_imports</title>
<polygon fill="none" stroke="#000000" points="16,-78 16,-130 274,-130 274,-78 16,-78"/>
</g>
<g id="clust8" class="cluster">
<title>cluster_FeedModule_exports</title>
<polygon fill="none" stroke="#000000" points="375,-208 375,-260 503,-260 503,-208 375,-208"/>
</g>
<!-- CardListComponent -->
<g id="node1" class="node">
<title>CardListComponent</title>
<polygon fill="#ffffb3" stroke="#000000" points="870.323,-122 739.677,-122 739.677,-86 870.323,-86 870.323,-122"/>
<text text-anchor="middle" x="805" y="-99.8" font-family="Times,serif" font-size="14.00" fill="#000000">CardListComponent</text>
</g>
<!-- FeedModule -->
<g id="node5" class="node">
<title>FeedModule</title>
<polygon fill="#8dd3c7" stroke="#000000" points="482.2619,-187 479.2619,-191 458.2619,-191 455.2619,-187 395.7381,-187 395.7381,-151 482.2619,-151 482.2619,-187"/>
<text text-anchor="middle" x="439" y="-164.8" font-family="Times,serif" font-size="14.00" fill="#000000">FeedModule</text>
</g>
<!-- CardListComponent&#45;&gt;FeedModule -->
<g id="edge1" class="edge">
<title>CardListComponent&#45;&gt;FeedModule</title>
<path fill="none" stroke="#000000" d="M805,-122.2843C805,-143.3211 805,-175 805,-175 805,-175 492.4223,-175 492.4223,-175"/>
<polygon fill="#000000" stroke="#000000" points="492.4223,-171.5001 482.4223,-175 492.4222,-178.5001 492.4223,-171.5001"/>
</g>
<!-- FeedComponent -->
<g id="node2" class="node">
<title>FeedComponent</title>
<polygon fill="#ffffb3" stroke="#000000" points="722.0452,-122 613.9548,-122 613.9548,-86 722.0452,-86 722.0452,-122"/>
<text text-anchor="middle" x="668" y="-99.8" font-family="Times,serif" font-size="14.00" fill="#000000">FeedComponent</text>
</g>
<!-- FeedComponent&#45;&gt;FeedModule -->
<g id="edge2" class="edge">
<title>FeedComponent&#45;&gt;FeedModule</title>
<path fill="none" stroke="#000000" d="M668,-122.0225C668,-139.3734 668,-163 668,-163 668,-163 492.3424,-163 492.3424,-163"/>
<polygon fill="#000000" stroke="#000000" points="492.3424,-159.5001 482.3424,-163 492.3423,-166.5001 492.3424,-159.5001"/>
</g>
<!-- NoSelectionComponent -->
<g id="node3" class="node">
<title>NoSelectionComponent</title>
<polygon fill="#ffffb3" stroke="#000000" points="595.0379,-122 444.9621,-122 444.9621,-86 595.0379,-86 595.0379,-122"/>
<text text-anchor="middle" x="520" y="-99.8" font-family="Times,serif" font-size="14.00" fill="#000000">NoSelectionComponent</text>
</g>
<!-- NoSelectionComponent&#45;&gt;FeedModule -->
<g id="edge3" class="edge">
<title>NoSelectionComponent&#45;&gt;FeedModule</title>
<path fill="none" stroke="#000000" d="M463.5561,-122.1061C463.5561,-122.1061 463.5561,-140.991 463.5561,-140.991"/>
<polygon fill="#000000" stroke="#000000" points="460.0562,-140.9909 463.5561,-150.991 467.0562,-140.991 460.0562,-140.9909"/>
</g>
<!-- TimeLineComponent -->
<g id="node4" class="node">
<title>TimeLineComponent</title>
<polygon fill="#ffffb3" stroke="#000000" points="426.0394,-122 289.9606,-122 289.9606,-86 426.0394,-86 426.0394,-122"/>
<text text-anchor="middle" x="358" y="-99.8" font-family="Times,serif" font-size="14.00" fill="#000000">TimeLineComponent</text>
</g>
<!-- TimeLineComponent&#45;&gt;FeedModule -->
<g id="edge4" class="edge">
<title>TimeLineComponent&#45;&gt;FeedModule</title>
<path fill="none" stroke="#000000" d="M410.9443,-122.1061C410.9443,-122.1061 410.9443,-140.991 410.9443,-140.991"/>
<polygon fill="#000000" stroke="#000000" points="407.4443,-140.9909 410.9443,-150.991 414.4443,-140.991 407.4443,-140.9909"/>
</g>
<!-- FeedComponent  -->
<g id="node8" class="node">
<title>FeedComponent </title>
<polygon fill="#fb8072" stroke="#000000" points="495.0442,-252 382.9558,-252 382.9558,-216 495.0442,-216 495.0442,-252"/>
<text text-anchor="middle" x="439" y="-229.8" font-family="Times,serif" font-size="14.00" fill="#000000">FeedComponent </text>
</g>
<!-- FeedModule&#45;&gt;FeedComponent  -->
<g id="edge7" class="edge">
<title>FeedModule&#45;&gt;FeedComponent </title>
<path fill="none" stroke="#000000" stroke-dasharray="5,2" d="M439,-187.1061C439,-187.1061 439,-205.991 439,-205.991"/>
<polygon fill="#000000" stroke="#000000" points="435.5001,-205.9909 439,-215.991 442.5001,-205.991 435.5001,-205.9909"/>
</g>
<!-- CardsModule -->
<g id="node6" class="node">
<title>CardsModule</title>
<polygon fill="#8dd3c7" stroke="#000000" points="266.2064,-122 263.2064,-126 242.2064,-126 239.2064,-122 173.7936,-122 173.7936,-86 266.2064,-86 266.2064,-122"/>
<text text-anchor="middle" x="220" y="-99.8" font-family="Times,serif" font-size="14.00" fill="#000000">CardsModule</text>
</g>
<!-- CardsModule&#45;&gt;FeedModule -->
<g id="edge5" class="edge">
<title>CardsModule&#45;&gt;FeedModule</title>
<path fill="none" stroke="#000000" d="M220,-122.0225C220,-139.3734 220,-163 220,-163 220,-163 385.7326,-163 385.7326,-163"/>
<polygon fill="#000000" stroke="#000000" points="385.7327,-166.5001 395.7326,-163 385.7326,-159.5001 385.7327,-166.5001"/>
</g>
<!-- FeedRoutingModule -->
<g id="node7" class="node">
<title>FeedRoutingModule</title>
<polygon fill="#8dd3c7" stroke="#000000" points="155.8795,-122 152.8795,-126 131.8795,-126 128.8795,-122 24.1205,-122 24.1205,-86 155.8795,-86 155.8795,-122"/>
<text text-anchor="middle" x="90" y="-99.8" font-family="Times,serif" font-size="14.00" fill="#000000">FeedRoutingModule</text>
</g>
<!-- FeedRoutingModule&#45;&gt;FeedModule -->
<g id="edge6" class="edge">
<title>FeedRoutingModule&#45;&gt;FeedModule</title>
<path fill="none" stroke="#000000" d="M90,-122.2843C90,-143.3211 90,-175 90,-175 90,-175 385.5046,-175 385.5046,-175"/>
<polygon fill="#000000" stroke="#000000" points="385.5046,-178.5001 395.5046,-175 385.5045,-171.5001 385.5046,-178.5001"/>
</g>
</g>
</svg>
