<?xml version="1.0" encoding="UTF-8" standalone="no"?>
<!DOCTYPE svg PUBLIC "-//W3C//DTD SVG 1.1//EN"
 "http://www.w3.org/Graphics/SVG/1.1/DTD/svg11.dtd">
<!-- Generated by graphviz version 2.40.1 (20161225.0304)
 -->
<!-- Title: dependencies Pages: 1 -->
<svg width="1326pt" height="211pt"
 viewBox="0.00 0.00 1326.00 211.00" xmlns="http://www.w3.org/2000/svg" xmlns:xlink="http://www.w3.org/1999/xlink">
<g id="graph0" class="graph" transform="scale(1 1) rotate(0) translate(4 207)">
<title>dependencies</title>
<polygon fill="#ffffff" stroke="transparent" points="-4,4 -4,-207 1322,-207 1322,4 -4,4"/>
<text text-anchor="start" x="638.0091" y="-42.4" font-family="sans-serif" font-weight="bold" font-size="14.00" fill="#000000">Legend</text>
<polygon fill="#ffffb3" stroke="transparent" points="425,-10 425,-30 445,-30 445,-10 425,-10"/>
<text text-anchor="start" x="448.629" y="-15.4" font-family="sans-serif" font-size="14.00" fill="#000000"> &#160;Declarations</text>
<polygon fill="#8dd3c7" stroke="transparent" points="538,-10 538,-30 558,-30 558,-10 538,-10"/>
<text text-anchor="start" x="561.7251" y="-15.4" font-family="sans-serif" font-size="14.00" fill="#000000"> &#160;Module</text>
<polygon fill="#80b1d3" stroke="transparent" points="624,-10 624,-30 644,-30 644,-10 624,-10"/>
<text text-anchor="start" x="647.7812" y="-15.4" font-family="sans-serif" font-size="14.00" fill="#000000"> &#160;Bootstrap</text>
<polygon fill="#fdb462" stroke="transparent" points="721,-10 721,-30 741,-30 741,-10 721,-10"/>
<text text-anchor="start" x="744.6732" y="-15.4" font-family="sans-serif" font-size="14.00" fill="#000000"> &#160;Providers</text>
<polygon fill="#fb8072" stroke="transparent" points="817,-10 817,-30 837,-30 837,-10 817,-10"/>
<text text-anchor="start" x="840.7258" y="-15.4" font-family="sans-serif" font-size="14.00" fill="#000000"> &#160;Exports</text>
<g id="clust1" class="cluster">
<title>cluster_ArchivesModule</title>
<polygon fill="none" stroke="#000000" stroke-dasharray="1,5" points="8,-70 8,-195 1310,-195 1310,-70 8,-70"/>
</g>
<g id="clust2" class="cluster">
<title>cluster_ArchivesModule_declarations</title>
<polygon fill="none" stroke="#000000" points="306,-78 306,-130 1302,-130 1302,-78 306,-78"/>
</g>
<g id="clust9" class="cluster">
<title>cluster_ArchivesModule_imports</title>
<polygon fill="none" stroke="#000000" points="16,-78 16,-130 298,-130 298,-78 16,-78"/>
</g>
<!-- ArchiveFiltersComponent -->
<g id="node1" class="node">
<title>ArchiveFiltersComponent</title>
<polygon fill="#ffffb3" stroke="#000000" points="1294.1937,-122 1131.8063,-122 1131.8063,-86 1294.1937,-86 1294.1937,-122"/>
<text text-anchor="middle" x="1213" y="-99.8" font-family="Times,serif" font-size="14.00" fill="#000000">ArchiveFiltersComponent</text>
</g>
<!-- ArchivesModule -->
<g id="node7" class="node">
<title>ArchivesModule</title>
<polygon fill="#8dd3c7" stroke="#000000" points="666.0814,-187 663.0814,-191 642.0814,-191 639.0814,-187 555.9186,-187 555.9186,-151 666.0814,-151 666.0814,-187"/>
<text text-anchor="middle" x="611" y="-164.8" font-family="Times,serif" font-size="14.00" fill="#000000">ArchivesModule</text>
</g>
<!-- ArchiveFiltersComponent&#45;&gt;ArchivesModule -->
<g id="edge1" class="edge">
<title>ArchiveFiltersComponent&#45;&gt;ArchivesModule</title>
<path fill="none" stroke="#000000" d="M1213,-122.2921C1213,-144.2057 1213,-178 1213,-178 1213,-178 676.2872,-178 676.2872,-178"/>
<polygon fill="#000000" stroke="#000000" points="676.2873,-174.5001 666.2872,-178 676.2872,-181.5001 676.2873,-174.5001"/>
</g>
<!-- ArchiveListComponent -->
<g id="node2" class="node">
<title>ArchiveListComponent</title>
<polygon fill="#ffffb3" stroke="#000000" points="1114.1979,-122 965.8021,-122 965.8021,-86 1114.1979,-86 1114.1979,-122"/>
<text text-anchor="middle" x="1040" y="-99.8" font-family="Times,serif" font-size="14.00" fill="#000000">ArchiveListComponent</text>
</g>
<!-- ArchiveListComponent&#45;&gt;ArchivesModule -->
<g id="edge2" class="edge">
<title>ArchiveListComponent&#45;&gt;ArchivesModule</title>
<path fill="none" stroke="#000000" d="M1040,-122.1061C1040,-141.3391 1040,-169 1040,-169 1040,-169 676.206,-169 676.206,-169"/>
<polygon fill="#000000" stroke="#000000" points="676.206,-165.5001 666.206,-169 676.206,-172.5001 676.206,-165.5001"/>
</g>
<!-- ArchiveListPageComponent -->
<g id="node3" class="node">
<title>ArchiveListPageComponent</title>
<polygon fill="#ffffb3" stroke="#000000" points="947.9101,-122 772.0899,-122 772.0899,-86 947.9101,-86 947.9101,-122"/>
<text text-anchor="middle" x="860" y="-99.8" font-family="Times,serif" font-size="14.00" fill="#000000">ArchiveListPageComponent</text>
</g>
<!-- ArchiveListPageComponent&#45;&gt;ArchivesModule -->
<g id="edge3" class="edge">
<title>ArchiveListPageComponent&#45;&gt;ArchivesModule</title>
<path fill="none" stroke="#000000" d="M860,-122.027C860,-138.3976 860,-160 860,-160 860,-160 676.2612,-160 676.2612,-160"/>
<polygon fill="#000000" stroke="#000000" points="676.2612,-156.5001 666.2612,-160 676.2611,-163.5001 676.2612,-156.5001"/>
</g>
<!-- ArchivesComponent -->
<g id="node4" class="node">
<title>ArchivesComponent</title>
<polygon fill="#ffffb3" stroke="#000000" points="753.8641,-122 622.1359,-122 622.1359,-86 753.8641,-86 753.8641,-122"/>
<text text-anchor="middle" x="688" y="-99.8" font-family="Times,serif" font-size="14.00" fill="#000000">ArchivesComponent</text>
</g>
<!-- ArchivesComponent&#45;&gt;ArchivesModule -->
<g id="edge4" class="edge">
<title>ArchivesComponent&#45;&gt;ArchivesModule</title>
<path fill="none" stroke="#000000" d="M644.0544,-122.1061C644.0544,-122.1061 644.0544,-140.991 644.0544,-140.991"/>
<polygon fill="#000000" stroke="#000000" points="640.5544,-140.9909 644.0544,-150.991 647.5544,-140.991 640.5544,-140.9909"/>
</g>
<!-- BaseFilterComponent -->
<g id="node5" class="node">
<title>BaseFilterComponent</title>
<polygon fill="#ffffb3" stroke="#000000" points="604.3725,-122 465.6275,-122 465.6275,-86 604.3725,-86 604.3725,-122"/>
<text text-anchor="middle" x="535" y="-99.8" font-family="Times,serif" font-size="14.00" fill="#000000">BaseFilterComponent</text>
</g>
<!-- BaseFilterComponent&#45;&gt;ArchivesModule -->
<g id="edge5" class="edge">
<title>BaseFilterComponent&#45;&gt;ArchivesModule</title>
<path fill="none" stroke="#000000" d="M580.1978,-122.1061C580.1978,-122.1061 580.1978,-140.991 580.1978,-140.991"/>
<polygon fill="#000000" stroke="#000000" points="576.6978,-140.9909 580.1978,-150.991 583.6978,-140.991 576.6978,-140.9909"/>
</g>
<!-- ListFilterComponent -->
<g id="node6" class="node">
<title>ListFilterComponent</title>
<polygon fill="#ffffb3" stroke="#000000" points="447.9411,-122 314.0589,-122 314.0589,-86 447.9411,-86 447.9411,-122"/>
<text text-anchor="middle" x="381" y="-99.8" font-family="Times,serif" font-size="14.00" fill="#000000">ListFilterComponent</text>
</g>
<!-- ListFilterComponent&#45;&gt;ArchivesModule -->
<g id="edge6" class="edge">
<title>ListFilterComponent&#45;&gt;ArchivesModule</title>
<path fill="none" stroke="#000000" d="M381,-122.027C381,-138.3976 381,-160 381,-160 381,-160 545.9093,-160 545.9093,-160"/>
<polygon fill="#000000" stroke="#000000" points="545.9093,-163.5001 555.9093,-160 545.9092,-156.5001 545.9093,-163.5001"/>
</g>
<!-- ArchivesRoutingModule -->
<g id="node8" class="node">
<title>ArchivesRoutingModule</title>
<polygon fill="#8dd3c7" stroke="#000000" points="289.6993,-122 286.6993,-126 265.6993,-126 262.6993,-122 134.3007,-122 134.3007,-86 289.6993,-86 289.6993,-122"/>
<text text-anchor="middle" x="212" y="-99.8" font-family="Times,serif" font-size="14.00" fill="#000000">ArchivesRoutingModule</text>
</g>
<!-- ArchivesRoutingModule&#45;&gt;ArchivesModule -->
<g id="edge7" class="edge">
<title>ArchivesRoutingModule&#45;&gt;ArchivesModule</title>
<path fill="none" stroke="#000000" d="M212,-122.1061C212,-141.3391 212,-169 212,-169 212,-169 545.9397,-169 545.9397,-169"/>
<polygon fill="#000000" stroke="#000000" points="545.9397,-172.5001 555.9397,-169 545.9396,-165.5001 545.9397,-172.5001"/>
</g>
<!-- CardsModule -->
<g id="node9" class="node">
<title>CardsModule</title>
<polygon fill="#8dd3c7" stroke="#000000" points="116.2064,-122 113.2064,-126 92.2064,-126 89.2064,-122 23.7936,-122 23.7936,-86 116.2064,-86 116.2064,-122"/>
<text text-anchor="middle" x="70" y="-99.8" font-family="Times,serif" font-size="14.00" fill="#000000">CardsModule</text>
</g>
<!-- CardsModule&#45;&gt;ArchivesModule -->
<g id="edge8" class="edge">
<title>CardsModule&#45;&gt;ArchivesModule</title>
<path fill="none" stroke="#000000" d="M70,-122.2921C70,-144.2057 70,-178 70,-178 70,-178 545.8976,-178 545.8976,-178"/>
<polygon fill="#000000" stroke="#000000" points="545.8976,-181.5001 555.8976,-178 545.8976,-174.5001 545.8976,-181.5001"/>
</g>
</g>
</svg>
