<?xml version="1.0" encoding="UTF-8" standalone="no"?>
<!DOCTYPE svg PUBLIC "-//W3C//DTD SVG 1.1//EN"
 "http://www.w3.org/Graphics/SVG/1.1/DTD/svg11.dtd">
<!-- Generated by graphviz version 2.40.1 (20161225.0304)
 -->
<!-- Title: dependencies Pages: 1 -->
<svg width="1132pt" height="211pt"
 viewBox="0.00 0.00 1132.00 211.00" xmlns="http://www.w3.org/2000/svg" xmlns:xlink="http://www.w3.org/1999/xlink">
<g id="graph0" class="graph" transform="scale(1 1) rotate(0) translate(4 207)">
<title>dependencies</title>
<polygon fill="#ffffff" stroke="transparent" points="-4,4 -4,-207 1128,-207 1128,4 -4,4"/>
<text text-anchor="start" x="541.0091" y="-42.4" font-family="sans-serif" font-weight="bold" font-size="14.00" fill="#000000">Legend</text>
<polygon fill="#ffffb3" stroke="transparent" points="328,-10 328,-30 348,-30 348,-10 328,-10"/>
<text text-anchor="start" x="351.629" y="-15.4" font-family="sans-serif" font-size="14.00" fill="#000000"> &#160;Declarations</text>
<polygon fill="#8dd3c7" stroke="transparent" points="441,-10 441,-30 461,-30 461,-10 441,-10"/>
<text text-anchor="start" x="464.7251" y="-15.4" font-family="sans-serif" font-size="14.00" fill="#000000"> &#160;Module</text>
<polygon fill="#80b1d3" stroke="transparent" points="527,-10 527,-30 547,-30 547,-10 527,-10"/>
<text text-anchor="start" x="550.7812" y="-15.4" font-family="sans-serif" font-size="14.00" fill="#000000"> &#160;Bootstrap</text>
<polygon fill="#fdb462" stroke="transparent" points="624,-10 624,-30 644,-30 644,-10 624,-10"/>
<text text-anchor="start" x="647.6732" y="-15.4" font-family="sans-serif" font-size="14.00" fill="#000000"> &#160;Providers</text>
<polygon fill="#fb8072" stroke="transparent" points="720,-10 720,-30 740,-30 740,-10 720,-10"/>
<text text-anchor="start" x="743.7258" y="-15.4" font-family="sans-serif" font-size="14.00" fill="#000000"> &#160;Exports</text>
<g id="clust1" class="cluster">
<title>cluster_ArchivesModule</title>
<polygon fill="none" stroke="#000000" stroke-dasharray="1,5" points="8,-70 8,-195 1116,-195 1116,-70 8,-70"/>
</g>
<g id="clust2" class="cluster">
<title>cluster_ArchivesModule_declarations</title>
<polygon fill="none" stroke="#000000" points="306,-78 306,-130 1108,-130 1108,-78 306,-78"/>
</g>
<g id="clust8" class="cluster">
<title>cluster_ArchivesModule_imports</title>
<polygon fill="none" stroke="#000000" points="16,-78 16,-130 298,-130 298,-78 16,-78"/>
</g>
<!-- ArchiveFiltersComponent -->
<g id="node1" class="node">
<title>ArchiveFiltersComponent</title>
<polygon fill="#ffffb3" stroke="#000000" points="1100.1937,-122 937.8063,-122 937.8063,-86 1100.1937,-86 1100.1937,-122"/>
<text text-anchor="middle" x="1019" y="-99.8" font-family="Times,serif" font-size="14.00" fill="#000000">ArchiveFiltersComponent</text>
</g>
<!-- ArchivesModule -->
<g id="node6" class="node">
<title>ArchivesModule</title>
<polygon fill="#8dd3c7" stroke="#000000" points="590.0814,-187 587.0814,-191 566.0814,-191 563.0814,-187 479.9186,-187 479.9186,-151 590.0814,-151 590.0814,-187"/>
<text text-anchor="middle" x="535" y="-164.8" font-family="Times,serif" font-size="14.00" fill="#000000">ArchivesModule</text>
</g>
<!-- ArchiveFiltersComponent&#45;&gt;ArchivesModule -->
<g id="edge1" class="edge">
<title>ArchiveFiltersComponent&#45;&gt;ArchivesModule</title>
<path fill="none" stroke="#000000" d="M1019,-122.2921C1019,-144.2057 1019,-178 1019,-178 1019,-178 600.0497,-178 600.0497,-178"/>
<polygon fill="#000000" stroke="#000000" points="600.0498,-174.5001 590.0497,-178 600.0497,-181.5001 600.0498,-174.5001"/>
</g>
<!-- ArchiveListComponent -->
<g id="node2" class="node">
<title>ArchiveListComponent</title>
<polygon fill="#ffffb3" stroke="#000000" points="920.1979,-122 771.8021,-122 771.8021,-86 920.1979,-86 920.1979,-122"/>
<text text-anchor="middle" x="846" y="-99.8" font-family="Times,serif" font-size="14.00" fill="#000000">ArchiveListComponent</text>
</g>
<!-- ArchiveListComponent&#45;&gt;ArchivesModule -->
<g id="edge2" class="edge">
<title>ArchiveListComponent&#45;&gt;ArchivesModule</title>
<path fill="none" stroke="#000000" d="M846,-122.1061C846,-141.3391 846,-169 846,-169 846,-169 600.2422,-169 600.2422,-169"/>
<polygon fill="#000000" stroke="#000000" points="600.2422,-165.5001 590.2422,-169 600.2422,-172.5001 600.2422,-165.5001"/>
</g>
<!-- ArchivesComponent -->
<g id="node3" class="node">
<title>ArchivesComponent</title>
<polygon fill="#ffffb3" stroke="#000000" points="753.8641,-122 622.1359,-122 622.1359,-86 753.8641,-86 753.8641,-122"/>
<text text-anchor="middle" x="688" y="-99.8" font-family="Times,serif" font-size="14.00" fill="#000000">ArchivesComponent</text>
</g>
<!-- ArchivesComponent&#45;&gt;ArchivesModule -->
<g id="edge3" class="edge">
<title>ArchivesComponent&#45;&gt;ArchivesModule</title>
<path fill="none" stroke="#000000" d="M688,-122.027C688,-138.3976 688,-160 688,-160 688,-160 600.2365,-160 600.2365,-160"/>
<polygon fill="#000000" stroke="#000000" points="600.2365,-156.5001 590.2365,-160 600.2365,-163.5001 600.2365,-156.5001"/>
</g>
<!-- BaseFilterComponent -->
<g id="node4" class="node">
<title>BaseFilterComponent</title>
<polygon fill="#ffffb3" stroke="#000000" points="604.3725,-122 465.6275,-122 465.6275,-86 604.3725,-86 604.3725,-122"/>
<text text-anchor="middle" x="535" y="-99.8" font-family="Times,serif" font-size="14.00" fill="#000000">BaseFilterComponent</text>
</g>
<!-- BaseFilterComponent&#45;&gt;ArchivesModule -->
<g id="edge4" class="edge">
<title>BaseFilterComponent&#45;&gt;ArchivesModule</title>
<path fill="none" stroke="#000000" d="M535,-122.1061C535,-122.1061 535,-140.991 535,-140.991"/>
<polygon fill="#000000" stroke="#000000" points="531.5001,-140.9909 535,-150.991 538.5001,-140.991 531.5001,-140.9909"/>
</g>
<!-- ListFilterComponent -->
<g id="node5" class="node">
<title>ListFilterComponent</title>
<polygon fill="#ffffb3" stroke="#000000" points="447.9411,-122 314.0589,-122 314.0589,-86 447.9411,-86 447.9411,-122"/>
<text text-anchor="middle" x="381" y="-99.8" font-family="Times,serif" font-size="14.00" fill="#000000">ListFilterComponent</text>
</g>
<!-- ListFilterComponent&#45;&gt;ArchivesModule -->
<g id="edge5" class="edge">
<title>ListFilterComponent&#45;&gt;ArchivesModule</title>
<path fill="none" stroke="#000000" d="M381,-122.027C381,-138.3976 381,-160 381,-160 381,-160 469.8374,-160 469.8374,-160"/>
<polygon fill="#000000" stroke="#000000" points="469.8375,-163.5001 479.8374,-160 469.8374,-156.5001 469.8375,-163.5001"/>
</g>
<!-- ArchivesRoutingModule -->
<g id="node7" class="node">
<title>ArchivesRoutingModule</title>
<polygon fill="#8dd3c7" stroke="#000000" points="289.6993,-122 286.6993,-126 265.6993,-126 262.6993,-122 134.3007,-122 134.3007,-86 289.6993,-86 289.6993,-122"/>
<text text-anchor="middle" x="212" y="-99.8" font-family="Times,serif" font-size="14.00" fill="#000000">ArchivesRoutingModule</text>
</g>
<!-- ArchivesRoutingModule&#45;&gt;ArchivesModule -->
<g id="edge6" class="edge">
<title>ArchivesRoutingModule&#45;&gt;ArchivesModule</title>
<path fill="none" stroke="#000000" d="M212,-122.1061C212,-141.3391 212,-169 212,-169 212,-169 469.8413,-169 469.8413,-169"/>
<polygon fill="#000000" stroke="#000000" points="469.8414,-172.5001 479.8413,-169 469.8413,-165.5001 469.8414,-172.5001"/>
</g>
<!-- CardsModule -->
<g id="node8" class="node">
<title>CardsModule</title>
<polygon fill="#8dd3c7" stroke="#000000" points="116.2064,-122 113.2064,-126 92.2064,-126 89.2064,-122 23.7936,-122 23.7936,-86 116.2064,-86 116.2064,-122"/>
<text text-anchor="middle" x="70" y="-99.8" font-family="Times,serif" font-size="14.00" fill="#000000">CardsModule</text>
</g>
<!-- CardsModule&#45;&gt;ArchivesModule -->
<g id="edge7" class="edge">
<title>CardsModule&#45;&gt;ArchivesModule</title>
<path fill="none" stroke="#000000" d="M70,-122.2921C70,-144.2057 70,-178 70,-178 70,-178 469.8324,-178 469.8324,-178"/>
<polygon fill="#000000" stroke="#000000" points="469.8324,-181.5001 479.8324,-178 469.8323,-174.5001 469.8324,-181.5001"/>
</g>
</g>
</svg>
