<?xml version="1.0" encoding="UTF-8" standalone="no"?>
<!DOCTYPE svg PUBLIC "-//W3C//DTD SVG 1.1//EN"
 "http://www.w3.org/Graphics/SVG/1.1/DTD/svg11.dtd">
<!-- Generated by graphviz version 2.40.1 (20161225.0304)
 -->
<!-- Title: dependencies Pages: 1 -->
<svg width="3219pt" height="363pt"
 viewBox="0.00 0.00 3219.00 363.00" xmlns="http://www.w3.org/2000/svg" xmlns:xlink="http://www.w3.org/1999/xlink">
<g id="graph0" class="graph" transform="scale(1 1) rotate(0) translate(4 359)">
<title>dependencies</title>
<polygon fill="#ffffff" stroke="transparent" points="-4,4 -4,-359 3215,-359 3215,4 -4,4"/>
<text text-anchor="start" x="1584.5091" y="-42.4" font-family="sans-serif" font-weight="bold" font-size="14.00" fill="#000000">Legend</text>
<polygon fill="#ffffb3" stroke="transparent" points="1371.5,-10 1371.5,-30 1391.5,-30 1391.5,-10 1371.5,-10"/>
<text text-anchor="start" x="1395.129" y="-15.4" font-family="sans-serif" font-size="14.00" fill="#000000"> &#160;Declarations</text>
<polygon fill="#8dd3c7" stroke="transparent" points="1484.5,-10 1484.5,-30 1504.5,-30 1504.5,-10 1484.5,-10"/>
<text text-anchor="start" x="1508.2251" y="-15.4" font-family="sans-serif" font-size="14.00" fill="#000000"> &#160;Module</text>
<polygon fill="#80b1d3" stroke="transparent" points="1570.5,-10 1570.5,-30 1590.5,-30 1590.5,-10 1570.5,-10"/>
<text text-anchor="start" x="1594.2812" y="-15.4" font-family="sans-serif" font-size="14.00" fill="#000000"> &#160;Bootstrap</text>
<polygon fill="#fdb462" stroke="transparent" points="1667.5,-10 1667.5,-30 1687.5,-30 1687.5,-10 1667.5,-10"/>
<text text-anchor="start" x="1691.1732" y="-15.4" font-family="sans-serif" font-size="14.00" fill="#000000"> &#160;Providers</text>
<polygon fill="#fb8072" stroke="transparent" points="1763.5,-10 1763.5,-30 1783.5,-30 1783.5,-10 1763.5,-10"/>
<text text-anchor="start" x="1787.2258" y="-15.4" font-family="sans-serif" font-size="14.00" fill="#000000"> &#160;Exports</text>
<g id="clust1" class="cluster">
<title>cluster_AppModule</title>
<polygon fill="none" stroke="#000000" stroke-dasharray="1,5" points="380,-146 380,-347 1297,-347 1297,-146 380,-146"/>
</g>
<g id="clust2" class="cluster">
<title>cluster_AppModule_declarations</title>
<polygon fill="none" stroke="#000000" points="770,-154 770,-206 1289,-206 1289,-154 770,-154"/>
</g>
<g id="clust7" class="cluster">
<title>cluster_AppModule_imports</title>
<polygon fill="none" stroke="#000000" points="388,-154 388,-206 762,-206 762,-154 388,-154"/>
</g>
<g id="clust9" class="cluster">
<title>cluster_AppModule_bootstrap</title>
<polygon fill="none" stroke="#000000" points="777,-287 777,-339 901,-339 901,-287 777,-287"/>
</g>
<g id="clust17" class="cluster">
<title>cluster_ArchivesModule</title>
<polygon fill="none" stroke="#000000" stroke-dasharray="1,5" points="1305,-70 1305,-206 1649,-206 1649,-70 1305,-70"/>
</g>
<g id="clust18" class="cluster">
<title>cluster_ArchivesModule_declarations</title>
<polygon fill="none" stroke="#000000" points="1493,-78 1493,-130 1641,-130 1641,-78 1493,-78"/>
</g>
<g id="clust20" class="cluster">
<title>cluster_ArchivesModule_imports</title>
<polygon fill="none" stroke="#000000" points="1313,-78 1313,-130 1485,-130 1485,-78 1313,-78"/>
</g>
<g id="clust30" class="cluster">
<title>cluster_CardsModule</title>
<polygon fill="none" stroke="#000000" stroke-dasharray="1,5" points="1657,-70 1657,-279 2427,-279 2427,-70 1657,-70"/>
</g>
<g id="clust31" class="cluster">
<title>cluster_CardsModule_declarations</title>
<polygon fill="none" stroke="#000000" points="1857,-78 1857,-130 2419,-130 2419,-78 1857,-78"/>
</g>
<g id="clust37" class="cluster">
<title>cluster_CardsModule_exports</title>
<polygon fill="none" stroke="#000000" points="1806,-219 1806,-271 2383,-271 2383,-219 1806,-219"/>
</g>
<g id="clust39" class="cluster">
<title>cluster_CardsModule_providers</title>
<polygon fill="none" stroke="#000000" points="1665,-78 1665,-130 1849,-130 1849,-78 1665,-78"/>
</g>
<g id="clust40" class="cluster">
<title>cluster_FeedModule</title>
<polygon fill="none" stroke="#000000" stroke-dasharray="1,5" points="2435,-146 2435,-347 3203,-347 3203,-146 2435,-146"/>
</g>
<g id="clust41" class="cluster">
<title>cluster_FeedModule_declarations</title>
<polygon fill="none" stroke="#000000" points="2599,-154 2599,-206 3195,-206 3195,-154 2599,-154"/>
</g>
<g id="clust46" class="cluster">
<title>cluster_FeedModule_imports</title>
<polygon fill="none" stroke="#000000" points="2443,-154 2443,-206 2591,-206 2591,-154 2443,-154"/>
</g>
<g id="clust47" class="cluster">
<title>cluster_FeedModule_exports</title>
<polygon fill="none" stroke="#000000" points="2692,-287 2692,-339 2820,-339 2820,-287 2692,-287"/>
</g>
<g id="clust56" class="cluster">
<title>cluster_ServicesModule</title>
<polygon fill="none" stroke="#000000" stroke-dasharray="1,5" points="8,-70 8,-138 807,-138 807,-70 8,-70"/>
</g>
<g id="clust61" class="cluster">
<title>cluster_ServicesModule_providers</title>
<polygon fill="none" stroke="#000000" points="16,-78 16,-130 799,-130 799,-78 16,-78"/>
</g>
<g id="clust62" class="cluster">
<title>cluster_StateModule</title>
<polygon fill="none" stroke="#000000" stroke-dasharray="1,5" points="815,-70 815,-138 939,-138 939,-70 815,-70"/>
</g>
<g id="clust64" class="cluster">
<title>cluster_StateModule_imports</title>
<polygon fill="none" stroke="#000000" points="823,-78 823,-130 931,-130 931,-78 823,-78"/>
</g>
<!-- AppComponent -->
<g id="node1" class="node">
<title>AppComponent</title>
<polygon fill="#ffffb3" stroke="#000000" points="1280.9399,-198 1175.0601,-198 1175.0601,-162 1280.9399,-162 1280.9399,-198"/>
<text text-anchor="middle" x="1228" y="-175.8" font-family="Times,serif" font-size="14.00" fill="#000000">AppComponent</text>
</g>
<!-- AppModule -->
<g id="node5" class="node">
<title>AppModule</title>
<polygon fill="#8dd3c7" stroke="#000000" points="880.6571,-263 877.6571,-267 856.6571,-267 853.6571,-263 797.3429,-263 797.3429,-227 880.6571,-227 880.6571,-263"/>
<text text-anchor="middle" x="839" y="-240.8" font-family="Times,serif" font-size="14.00" fill="#000000">AppModule</text>
</g>
<!-- AppComponent&#45;&gt;AppModule -->
<g id="edge1" class="edge">
<title>AppComponent&#45;&gt;AppModule</title>
<path fill="none" stroke="#000000" d="M1228,-198.2921C1228,-220.2057 1228,-254 1228,-254 1228,-254 890.9994,-254 890.9994,-254"/>
<polygon fill="#000000" stroke="#000000" points="890.9994,-250.5001 880.9994,-254 890.9994,-257.5001 890.9994,-250.5001"/>
</g>
<!-- IconComponent -->
<g id="node2" class="node">
<title>IconComponent</title>
<polygon fill="#ffffb3" stroke="#000000" points="1157.2078,-198 1050.7922,-198 1050.7922,-162 1157.2078,-162 1157.2078,-198"/>
<text text-anchor="middle" x="1104" y="-175.8" font-family="Times,serif" font-size="14.00" fill="#000000">IconComponent</text>
</g>
<!-- IconComponent&#45;&gt;AppModule -->
<g id="edge2" class="edge">
<title>IconComponent&#45;&gt;AppModule</title>
<path fill="none" stroke="#000000" d="M1104,-198.1061C1104,-217.3391 1104,-245 1104,-245 1104,-245 890.6978,-245 890.6978,-245"/>
<polygon fill="#000000" stroke="#000000" points="890.6978,-241.5001 880.6978,-245 890.6977,-248.5001 890.6978,-241.5001"/>
</g>
<!-- LoginComponent -->
<g id="node3" class="node">
<title>LoginComponent</title>
<polygon fill="#ffffb3" stroke="#000000" points="1033.2758,-198 918.7242,-198 918.7242,-162 1033.2758,-162 1033.2758,-198"/>
<text text-anchor="middle" x="976" y="-175.8" font-family="Times,serif" font-size="14.00" fill="#000000">LoginComponent</text>
</g>
<!-- LoginComponent&#45;&gt;AppModule -->
<g id="edge3" class="edge">
<title>LoginComponent&#45;&gt;AppModule</title>
<path fill="none" stroke="#000000" d="M976,-198.027C976,-214.3976 976,-236 976,-236 976,-236 890.8489,-236 890.8489,-236"/>
<polygon fill="#000000" stroke="#000000" points="890.849,-232.5001 880.8489,-236 890.8489,-239.5001 890.849,-232.5001"/>
</g>
<!-- NavbarComponent -->
<g id="node4" class="node">
<title>NavbarComponent</title>
<polygon fill="#ffffb3" stroke="#000000" points="900.0297,-198 777.9703,-198 777.9703,-162 900.0297,-162 900.0297,-198"/>
<text text-anchor="middle" x="839" y="-175.8" font-family="Times,serif" font-size="14.00" fill="#000000">NavbarComponent</text>
</g>
<!-- NavbarComponent&#45;&gt;AppModule -->
<g id="edge4" class="edge">
<title>NavbarComponent&#45;&gt;AppModule</title>
<path fill="none" stroke="#000000" d="M839,-198.1061C839,-198.1061 839,-216.991 839,-216.991"/>
<polygon fill="#000000" stroke="#000000" points="835.5001,-216.9909 839,-226.991 842.5001,-216.991 835.5001,-216.9909"/>
</g>
<!-- AppComponent  -->
<g id="node9" class="node">
<title>AppComponent </title>
<polygon fill="#80b1d3" stroke="#000000" points="893.439,-331 784.561,-331 784.561,-295 893.439,-295 893.439,-331"/>
<text text-anchor="middle" x="839" y="-308.8" font-family="Times,serif" font-size="14.00" fill="#000000">AppComponent </text>
</g>
<!-- AppModule&#45;&gt;AppComponent  -->
<g id="edge8" class="edge">
<title>AppModule&#45;&gt;AppComponent </title>
<path fill="none" stroke="#000000" stroke-dasharray="1,5" d="M839,-263.2228C839,-263.2228 839,-284.7269 839,-284.7269"/>
<polygon fill="#000000" stroke="#000000" points="835.5001,-284.7269 839,-294.7269 842.5001,-284.727 835.5001,-284.7269"/>
</g>
<!-- AppRoutingModule -->
<g id="node6" class="node">
<title>AppRoutingModule</title>
<polygon fill="#8dd3c7" stroke="#000000" points="754.2744,-198 751.2744,-202 730.2744,-202 727.2744,-198 625.7256,-198 625.7256,-162 754.2744,-162 754.2744,-198"/>
<text text-anchor="middle" x="690" y="-175.8" font-family="Times,serif" font-size="14.00" fill="#000000">AppRoutingModule</text>
</g>
<!-- AppRoutingModule&#45;&gt;AppModule -->
<g id="edge5" class="edge">
<title>AppRoutingModule&#45;&gt;AppModule</title>
<path fill="none" stroke="#000000" d="M690,-198.027C690,-214.3976 690,-236 690,-236 690,-236 787.0987,-236 787.0987,-236"/>
<polygon fill="#000000" stroke="#000000" points="787.0987,-239.5001 797.0987,-236 787.0986,-232.5001 787.0987,-239.5001"/>
</g>
<!-- ServicesModule -->
<g id="node7" class="node">
<title>ServicesModule</title>
<polygon fill="#8dd3c7" stroke="#000000" points="502.472,-198 499.472,-202 478.472,-202 475.472,-198 395.528,-198 395.528,-162 502.472,-162 502.472,-198"/>
<text text-anchor="middle" x="449" y="-175.8" font-family="Times,serif" font-size="14.00" fill="#000000">ServicesModule</text>
</g>
<!-- ServicesModule&#45;&gt;AppModule -->
<g id="edge6" class="edge">
<title>ServicesModule&#45;&gt;AppModule</title>
<path fill="none" stroke="#000000" d="M449,-198.2921C449,-220.2057 449,-254 449,-254 449,-254 787.2632,-254 787.2632,-254"/>
<polygon fill="#000000" stroke="#000000" points="787.2632,-257.5001 797.2632,-254 787.2631,-250.5001 787.2632,-257.5001"/>
</g>
<!-- StateModule -->
<g id="node8" class="node">
<title>StateModule</title>
<polygon fill="#8dd3c7" stroke="#000000" points="607.544,-198 604.544,-202 583.544,-202 580.544,-198 520.456,-198 520.456,-162 607.544,-162 607.544,-198"/>
<text text-anchor="middle" x="564" y="-175.8" font-family="Times,serif" font-size="14.00" fill="#000000">StateModule</text>
</g>
<!-- StateModule&#45;&gt;AppModule -->
<g id="edge7" class="edge">
<title>StateModule&#45;&gt;AppModule</title>
<path fill="none" stroke="#000000" d="M564,-198.1061C564,-217.3391 564,-245 564,-245 564,-245 787.2334,-245 787.2334,-245"/>
<polygon fill="#000000" stroke="#000000" points="787.2335,-248.5001 797.2334,-245 787.2334,-241.5001 787.2335,-248.5001"/>
</g>
<!-- ArchivesComponent -->
<g id="node10" class="node">
<title>ArchivesComponent</title>
<polygon fill="#ffffb3" stroke="#000000" points="1632.8641,-122 1501.1359,-122 1501.1359,-86 1632.8641,-86 1632.8641,-122"/>
<text text-anchor="middle" x="1567" y="-99.8" font-family="Times,serif" font-size="14.00" fill="#000000">ArchivesComponent</text>
</g>
<!-- ArchivesModule -->
<g id="node11" class="node">
<title>ArchivesModule</title>
<polygon fill="#8dd3c7" stroke="#000000" points="1538.0814,-198 1535.0814,-202 1514.0814,-202 1511.0814,-198 1427.9186,-198 1427.9186,-162 1538.0814,-162 1538.0814,-198"/>
<text text-anchor="middle" x="1483" y="-175.8" font-family="Times,serif" font-size="14.00" fill="#000000">ArchivesModule</text>
</g>
<!-- ArchivesComponent&#45;&gt;ArchivesModule -->
<g id="edge9" class="edge">
<title>ArchivesComponent&#45;&gt;ArchivesModule</title>
<path fill="none" stroke="#000000" d="M1519.5543,-122.0109C1519.5543,-122.0109 1519.5543,-151.855 1519.5543,-151.855"/>
<polygon fill="#000000" stroke="#000000" points="1516.0544,-151.8549 1519.5543,-161.855 1523.0544,-151.855 1516.0544,-151.8549"/>
</g>
<!-- ArchivesRoutingModule -->
<g id="node12" class="node">
<title>ArchivesRoutingModule</title>
<polygon fill="#8dd3c7" stroke="#000000" points="1476.6993,-122 1473.6993,-126 1452.6993,-126 1449.6993,-122 1321.3007,-122 1321.3007,-86 1476.6993,-86 1476.6993,-122"/>
<text text-anchor="middle" x="1399" y="-99.8" font-family="Times,serif" font-size="14.00" fill="#000000">ArchivesRoutingModule</text>
</g>
<!-- ArchivesRoutingModule&#45;&gt;ArchivesModule -->
<g id="edge10" class="edge">
<title>ArchivesRoutingModule&#45;&gt;ArchivesModule</title>
<path fill="none" stroke="#000000" d="M1452.2795,-122.0109C1452.2795,-122.0109 1452.2795,-151.855 1452.2795,-151.855"/>
<polygon fill="#000000" stroke="#000000" points="1448.7795,-151.8549 1452.2795,-161.855 1455.7795,-151.855 1448.7795,-151.8549"/>
</g>
<!-- CardComponent -->
<g id="node13" class="node">
<title>CardComponent</title>
<polygon fill="#ffffb3" stroke="#000000" points="2411.0452,-122 2302.9548,-122 2302.9548,-86 2411.0452,-86 2411.0452,-122"/>
<text text-anchor="middle" x="2357" y="-99.8" font-family="Times,serif" font-size="14.00" fill="#000000">CardComponent</text>
</g>
<!-- CardsModule -->
<g id="node17" class="node">
<title>CardsModule</title>
<polygon fill="#8dd3c7" stroke="#000000" points="2179.2064,-198 2176.2064,-202 2155.2064,-202 2152.2064,-198 2086.7936,-198 2086.7936,-162 2179.2064,-162 2179.2064,-198"/>
<text text-anchor="middle" x="2133" y="-175.8" font-family="Times,serif" font-size="14.00" fill="#000000">CardsModule</text>
</g>
<!-- CardComponent&#45;&gt;CardsModule -->
<g id="edge11" class="edge">
<title>CardComponent&#45;&gt;CardsModule</title>
<path fill="none" stroke="#000000" d="M2338.875,-122.308C2338.875,-142.1455 2338.875,-171 2338.875,-171 2338.875,-171 2189.2024,-171 2189.2024,-171"/>
<polygon fill="#000000" stroke="#000000" points="2189.2024,-167.5001 2179.2024,-171 2189.2023,-174.5001 2189.2024,-167.5001"/>
</g>
<!-- CardDetailsComponent -->
<g id="node14" class="node">
<title>CardDetailsComponent</title>
<polygon fill="#ffffb3" stroke="#000000" points="2285.1965,-122 2136.8035,-122 2136.8035,-86 2285.1965,-86 2285.1965,-122"/>
<text text-anchor="middle" x="2211" y="-99.8" font-family="Times,serif" font-size="14.00" fill="#000000">CardDetailsComponent</text>
</g>
<!-- CardDetailsComponent&#45;&gt;CardsModule -->
<g id="edge12" class="edge">
<title>CardDetailsComponent&#45;&gt;CardsModule</title>
<path fill="none" stroke="#000000" d="M2158.0025,-122.0109C2158.0025,-122.0109 2158.0025,-151.855 2158.0025,-151.855"/>
<polygon fill="#000000" stroke="#000000" points="2154.5025,-151.8549 2158.0025,-161.855 2161.5025,-151.855 2154.5025,-151.8549"/>
</g>
<!-- DetailComponent -->
<g id="node15" class="node">
<title>DetailComponent</title>
<polygon fill="#ffffb3" stroke="#000000" points="2118.5409,-122 2003.4591,-122 2003.4591,-86 2118.5409,-86 2118.5409,-122"/>
<text text-anchor="middle" x="2061" y="-99.8" font-family="Times,serif" font-size="14.00" fill="#000000">DetailComponent</text>
</g>
<!-- DetailComponent&#45;&gt;CardsModule -->
<g id="edge13" class="edge">
<title>DetailComponent&#45;&gt;CardsModule</title>
<path fill="none" stroke="#000000" d="M2102.8335,-122.0109C2102.8335,-122.0109 2102.8335,-151.855 2102.8335,-151.855"/>
<polygon fill="#000000" stroke="#000000" points="2099.3335,-151.8549 2102.8335,-161.855 2106.3335,-151.855 2099.3335,-151.8549"/>
</g>
<!-- DetailsComponent -->
<g id="node16" class="node">
<title>DetailsComponent</title>
<polygon fill="#ffffb3" stroke="#000000" points="1985.4846,-122 1864.5154,-122 1864.5154,-86 1985.4846,-86 1985.4846,-122"/>
<text text-anchor="middle" x="1925" y="-99.8" font-family="Times,serif" font-size="14.00" fill="#000000">DetailsComponent</text>
</g>
<!-- DetailsComponent&#45;&gt;CardsModule -->
<g id="edge14" class="edge">
<title>DetailsComponent&#45;&gt;CardsModule</title>
<path fill="none" stroke="#000000" d="M1970.9862,-122.0348C1970.9862,-141.5762 1970.9862,-170 1970.9862,-170 1970.9862,-170 2076.5733,-170 2076.5733,-170"/>
<polygon fill="#000000" stroke="#000000" points="2076.5734,-173.5001 2086.5733,-170 2076.5733,-166.5001 2076.5734,-173.5001"/>
</g>
<!-- CardComponent  -->
<g id="node18" class="node">
<title>CardComponent </title>
<polygon fill="#fb8072" stroke="#000000" points="2375.0442,-263 2262.9558,-263 2262.9558,-227 2375.0442,-227 2375.0442,-263"/>
<text text-anchor="middle" x="2319" y="-240.8" font-family="Times,serif" font-size="14.00" fill="#000000">CardComponent </text>
</g>
<!-- CardsModule&#45;&gt;CardComponent  -->
<g id="edge15" class="edge">
<title>CardsModule&#45;&gt;CardComponent </title>
<path fill="none" stroke="#000000" stroke-dasharray="5,2" d="M2179.1811,-189C2220.3138,-189 2274.0381,-189 2274.0381,-189 2274.0381,-189 2274.0381,-216.973 2274.0381,-216.973"/>
<polygon fill="#000000" stroke="#000000" points="2270.5381,-216.973 2274.0381,-226.973 2277.5381,-216.973 2270.5381,-216.973"/>
</g>
<!-- CardDetailsComponent  -->
<g id="node19" class="node">
<title>CardDetailsComponent </title>
<polygon fill="#fb8072" stroke="#000000" points="2244.6967,-263 2093.3033,-263 2093.3033,-227 2244.6967,-227 2244.6967,-263"/>
<text text-anchor="middle" x="2169" y="-240.8" font-family="Times,serif" font-size="14.00" fill="#000000">CardDetailsComponent </text>
</g>
<!-- CardsModule&#45;&gt;CardDetailsComponent  -->
<g id="edge16" class="edge">
<title>CardsModule&#45;&gt;CardDetailsComponent </title>
<path fill="none" stroke="#000000" stroke-dasharray="5,2" d="M2136.1275,-198.1061C2136.1275,-198.1061 2136.1275,-216.991 2136.1275,-216.991"/>
<polygon fill="#000000" stroke="#000000" points="2132.6275,-216.9909 2136.1275,-226.991 2139.6275,-216.991 2132.6275,-216.9909"/>
</g>
<!-- DetailComponent  -->
<g id="node20" class="node">
<title>DetailComponent </title>
<polygon fill="#fb8072" stroke="#000000" points="2075.54,-263 1956.46,-263 1956.46,-227 2075.54,-227 2075.54,-263"/>
<text text-anchor="middle" x="2016" y="-240.8" font-family="Times,serif" font-size="14.00" fill="#000000">DetailComponent </text>
</g>
<!-- CardsModule&#45;&gt;DetailComponent  -->
<g id="edge17" class="edge">
<title>CardsModule&#45;&gt;DetailComponent </title>
<path fill="none" stroke="#000000" stroke-dasharray="5,2" d="M2086.7361,-191C2063.1484,-191 2039.375,-191 2039.375,-191 2039.375,-191 2039.375,-216.7181 2039.375,-216.7181"/>
<polygon fill="#000000" stroke="#000000" points="2035.8751,-216.718 2039.375,-226.7181 2042.8751,-216.7181 2035.8751,-216.718"/>
</g>
<!-- DetailsComponent  -->
<g id="node21" class="node">
<title>DetailsComponent </title>
<polygon fill="#fb8072" stroke="#000000" points="1938.4855,-263 1813.5145,-263 1813.5145,-227 1938.4855,-227 1938.4855,-263"/>
<text text-anchor="middle" x="1876" y="-240.8" font-family="Times,serif" font-size="14.00" fill="#000000">DetailsComponent </text>
</g>
<!-- CardsModule&#45;&gt;DetailsComponent  -->
<g id="edge18" class="edge">
<title>CardsModule&#45;&gt;DetailsComponent </title>
<path fill="none" stroke="#000000" stroke-dasharray="5,2" d="M2086.6839,-184C2019.0898,-184 1901.375,-184 1901.375,-184 1901.375,-184 1901.375,-216.698 1901.375,-216.698"/>
<polygon fill="#000000" stroke="#000000" points="1897.8751,-216.698 1901.375,-226.698 1904.8751,-216.698 1897.8751,-216.698"/>
</g>
<!-- FeedModule -->
<g id="node27" class="node">
<title>FeedModule</title>
<polygon fill="#8dd3c7" stroke="#000000" points="2799.2619,-263 2796.2619,-267 2775.2619,-267 2772.2619,-263 2712.7381,-263 2712.7381,-227 2799.2619,-227 2799.2619,-263"/>
<text text-anchor="middle" x="2756" y="-240.8" font-family="Times,serif" font-size="14.00" fill="#000000">FeedModule</text>
</g>
<!-- CardsModule&#45;&gt;FeedModule -->
<g id="edge24" class="edge">
<title>CardsModule&#45;&gt;FeedModule</title>
<path fill="none" stroke="#000000" d="M2179.2613,-180C2263.0107,-180 2431.1662,-180 2431.1662,-180 2431.1662,-180 2431.1662,-251 2431.1662,-251 2431.1662,-251 2702.5285,-251 2702.5285,-251"/>
<polygon fill="#000000" stroke="#000000" points="2702.5286,-254.5001 2712.5285,-251 2702.5285,-247.5001 2702.5286,-254.5001"/>
</g>
<!-- HandlebarsService -->
<g id="node22" class="node">
<title>HandlebarsService</title>
<ellipse fill="#fdb462" stroke="#000000" cx="1757" cy="-104" rx="83.9257" ry="18"/>
<text text-anchor="middle" x="1757" y="-99.8" font-family="Times,serif" font-size="14.00" fill="#000000">HandlebarsService</text>
</g>
<!-- HandlebarsService&#45;&gt;CardsModule -->
<g id="edge19" class="edge">
<title>HandlebarsService&#45;&gt;CardsModule</title>
<path fill="none" stroke="#000000" d="M1827.3603,-113.8451C1827.3603,-133.771 1827.3603,-177 1827.3603,-177 1827.3603,-177 2076.5799,-177 2076.5799,-177"/>
<polygon fill="#000000" stroke="#000000" points="2076.5799,-180.5001 2086.5799,-177 2076.5799,-173.5001 2076.5799,-180.5001"/>
</g>
<!-- CardListComponent -->
<g id="node23" class="node">
<title>CardListComponent</title>
<polygon fill="#ffffb3" stroke="#000000" points="3187.323,-198 3056.677,-198 3056.677,-162 3187.323,-162 3187.323,-198"/>
<text text-anchor="middle" x="3122" y="-175.8" font-family="Times,serif" font-size="14.00" fill="#000000">CardListComponent</text>
</g>
<!-- CardListComponent&#45;&gt;FeedModule -->
<g id="edge20" class="edge">
<title>CardListComponent&#45;&gt;FeedModule</title>
<path fill="none" stroke="#000000" d="M3122,-198.2843C3122,-219.3211 3122,-251 3122,-251 3122,-251 2809.4223,-251 2809.4223,-251"/>
<polygon fill="#000000" stroke="#000000" points="2809.4223,-247.5001 2799.4223,-251 2809.4222,-254.5001 2809.4223,-247.5001"/>
</g>
<!-- FeedComponent -->
<g id="node24" class="node">
<title>FeedComponent</title>
<polygon fill="#ffffb3" stroke="#000000" points="3039.0452,-198 2930.9548,-198 2930.9548,-162 3039.0452,-162 3039.0452,-198"/>
<text text-anchor="middle" x="2985" y="-175.8" font-family="Times,serif" font-size="14.00" fill="#000000">FeedComponent</text>
</g>
<!-- FeedComponent&#45;&gt;FeedModule -->
<g id="edge21" class="edge">
<title>FeedComponent&#45;&gt;FeedModule</title>
<path fill="none" stroke="#000000" d="M2985,-198.0225C2985,-215.3734 2985,-239 2985,-239 2985,-239 2809.3424,-239 2809.3424,-239"/>
<polygon fill="#000000" stroke="#000000" points="2809.3424,-235.5001 2799.3424,-239 2809.3423,-242.5001 2809.3424,-235.5001"/>
</g>
<!-- NoSelectionComponent -->
<g id="node25" class="node">
<title>NoSelectionComponent</title>
<polygon fill="#ffffb3" stroke="#000000" points="2912.0379,-198 2761.9621,-198 2761.9621,-162 2912.0379,-162 2912.0379,-198"/>
<text text-anchor="middle" x="2837" y="-175.8" font-family="Times,serif" font-size="14.00" fill="#000000">NoSelectionComponent</text>
</g>
<!-- NoSelectionComponent&#45;&gt;FeedModule -->
<g id="edge22" class="edge">
<title>NoSelectionComponent&#45;&gt;FeedModule</title>
<path fill="none" stroke="#000000" d="M2780.5561,-198.1061C2780.5561,-198.1061 2780.5561,-216.991 2780.5561,-216.991"/>
<polygon fill="#000000" stroke="#000000" points="2777.0562,-216.9909 2780.5561,-226.991 2784.0562,-216.991 2777.0562,-216.9909"/>
</g>
<!-- TimeLineComponent -->
<g id="node26" class="node">
<title>TimeLineComponent</title>
<polygon fill="#ffffb3" stroke="#000000" points="2743.0394,-198 2606.9606,-198 2606.9606,-162 2743.0394,-162 2743.0394,-198"/>
<text text-anchor="middle" x="2675" y="-175.8" font-family="Times,serif" font-size="14.00" fill="#000000">TimeLineComponent</text>
</g>
<!-- TimeLineComponent&#45;&gt;FeedModule -->
<g id="edge23" class="edge">
<title>TimeLineComponent&#45;&gt;FeedModule</title>
<path fill="none" stroke="#000000" d="M2727.9443,-198.1061C2727.9443,-198.1061 2727.9443,-216.991 2727.9443,-216.991"/>
<polygon fill="#000000" stroke="#000000" points="2724.4443,-216.9909 2727.9443,-226.991 2731.4443,-216.991 2724.4443,-216.9909"/>
</g>
<!-- FeedComponent  -->
<g id="node29" class="node">
<title>FeedComponent </title>
<polygon fill="#fb8072" stroke="#000000" points="2812.0442,-331 2699.9558,-331 2699.9558,-295 2812.0442,-295 2812.0442,-331"/>
<text text-anchor="middle" x="2756" y="-308.8" font-family="Times,serif" font-size="14.00" fill="#000000">FeedComponent </text>
</g>
<!-- FeedModule&#45;&gt;FeedComponent  -->
<g id="edge26" class="edge">
<title>FeedModule&#45;&gt;FeedComponent </title>
<path fill="none" stroke="#000000" stroke-dasharray="5,2" d="M2756,-263.2228C2756,-263.2228 2756,-284.7269 2756,-284.7269"/>
<polygon fill="#000000" stroke="#000000" points="2752.5001,-284.7269 2756,-294.7269 2759.5001,-284.727 2752.5001,-284.7269"/>
</g>
<!-- FeedRoutingModule -->
<g id="node28" class="node">
<title>FeedRoutingModule</title>
<polygon fill="#8dd3c7" stroke="#000000" points="2582.8795,-198 2579.8795,-202 2558.8795,-202 2555.8795,-198 2451.1205,-198 2451.1205,-162 2582.8795,-162 2582.8795,-198"/>
<text text-anchor="middle" x="2517" y="-175.8" font-family="Times,serif" font-size="14.00" fill="#000000">FeedRoutingModule</text>
</g>
<!-- FeedRoutingModule&#45;&gt;FeedModule -->
<g id="edge25" class="edge">
<title>FeedRoutingModule&#45;&gt;FeedModule</title>
<path fill="none" stroke="#000000" d="M2517,-198.0225C2517,-215.3734 2517,-239 2517,-239 2517,-239 2702.7189,-239 2702.7189,-239"/>
<polygon fill="#000000" stroke="#000000" points="2702.7189,-242.5001 2712.7189,-239 2702.7189,-235.5001 2702.7189,-242.5001"/>
</g>
<!-- AuthenticationService -->
<g id="node30" class="node">
<title>AuthenticationService</title>
<ellipse fill="#fdb462" stroke="#000000" cx="694" cy="-104" rx="97.2683" ry="18"/>
<text text-anchor="middle" x="694" y="-99.8" font-family="Times,serif" font-size="14.00" fill="#000000">AuthenticationService</text>
</g>
<!-- AuthenticationService&#45;&gt;ServicesModule -->
<g id="edge27" class="edge">
<title>AuthenticationService&#45;&gt;ServicesModule</title>
<path fill="none" stroke="#000000" d="M600.3344,-109C600.3344,-118 600.3344,-136 600.3344,-136 600.3344,-136 488.7366,-136 488.7366,-136 488.7366,-136 488.7366,-151.8495 488.7366,-151.8495"/>
<polygon fill="#000000" stroke="#000000" points="485.2367,-151.8494 488.7366,-161.8495 492.2367,-151.8495 485.2367,-151.8494"/>
</g>
<!-- CardService -->
<g id="node31" class="node">
<title>CardService</title>
<ellipse fill="#fdb462" stroke="#000000" cx="520" cy="-104" rx="58.5251" ry="18"/>
<text text-anchor="middle" x="520" y="-99.8" font-family="Times,serif" font-size="14.00" fill="#000000">CardService</text>
</g>
<!-- CardService&#45;&gt;ServicesModule -->
<g id="edge28" class="edge">
<title>CardService&#45;&gt;ServicesModule</title>
<path fill="none" stroke="#000000" d="M474.9873,-115.875C474.9873,-115.875 474.9873,-151.9891 474.9873,-151.9891"/>
<polygon fill="#000000" stroke="#000000" points="471.4874,-151.989 474.9873,-161.9891 478.4874,-151.9891 471.4874,-151.989"/>
</g>
<!-- ThirdsService -->
<g id="node32" class="node">
<title>ThirdsService</title>
<ellipse fill="#fdb462" stroke="#000000" cx="378" cy="-104" rx="65.4053" ry="18"/>
<text text-anchor="middle" x="378" y="-99.8" font-family="Times,serif" font-size="14.00" fill="#000000">ThirdsService</text>
</g>
<!-- ThirdsService&#45;&gt;ServicesModule -->
<g id="edge29" class="edge">
<title>ThirdsService&#45;&gt;ServicesModule</title>
<path fill="none" stroke="#000000" d="M419.3582,-117.9396C419.3582,-117.9396 419.3582,-151.8444 419.3582,-151.8444"/>
<polygon fill="#000000" stroke="#000000" points="415.8583,-151.8444 419.3582,-161.8444 422.8583,-151.8444 415.8583,-151.8444"/>
</g>
<!-- TimeService -->
<g id="node33" class="node">
<title>TimeService</title>
<ellipse fill="#fdb462" stroke="#000000" cx="234" cy="-104" rx="60.2479" ry="18"/>
<text text-anchor="middle" x="234" y="-99.8" font-family="Times,serif" font-size="14.00" fill="#000000">TimeService</text>
</g>
<!-- TimeService&#45;&gt;ServicesModule -->
<g id="edge30" class="edge">
<title>TimeService&#45;&gt;ServicesModule</title>
<path fill="none" stroke="#000000" d="M234,-122.0267C234,-142.7672 234,-174 234,-174 234,-174 385.301,-174 385.301,-174"/>
<polygon fill="#000000" stroke="#000000" points="385.3011,-177.5001 395.301,-174 385.301,-170.5001 385.3011,-177.5001"/>
</g>
<!-- TokenInjector -->
<g id="node34" class="node">
<title>TokenInjector</title>
<ellipse fill="#fdb462" stroke="#000000" cx="90" cy="-104" rx="65.9716" ry="18"/>
<text text-anchor="middle" x="90" y="-99.8" font-family="Times,serif" font-size="14.00" fill="#000000">TokenInjector</text>
</g>
<!-- TokenInjector&#45;&gt;ServicesModule -->
<g id="edge31" class="edge">
<title>TokenInjector&#45;&gt;ServicesModule</title>
<path fill="none" stroke="#000000" d="M90,-122.1985C90,-146.3563 90,-186 90,-186 90,-186 385.2541,-186 385.2541,-186"/>
<polygon fill="#000000" stroke="#000000" points="385.2541,-189.5001 395.2541,-186 385.254,-182.5001 385.2541,-189.5001"/>
</g>
<!-- !environment -->
<g id="node35" class="node">
<title>!environment</title>
<polygon fill="#8dd3c7" stroke="#000000" points="922.9232,-122 919.9232,-126 898.9232,-126 895.9232,-122 831.0768,-122 831.0768,-86 922.9232,-86 922.9232,-122"/>
<text text-anchor="middle" x="877" y="-99.8" font-family="Times,serif" font-size="14.00" fill="#000000">!environment</text>
</g>
<!-- !environment&#45;&gt;StateModule -->
<g id="edge32" class="edge">
<title>!environment&#45;&gt;StateModule</title>
<path fill="none" stroke="#000000" d="M865.7767,-122.0439C865.7767,-134.5633 865.7767,-149 865.7767,-149 865.7767,-149 604.0529,-149 604.0529,-149 604.0529,-149 604.0529,-151.9672 604.0529,-151.9672"/>
<polygon fill="#000000" stroke="#000000" points="600.553,-151.9671 604.0529,-161.9672 607.553,-151.9672 600.553,-151.9671"/>
</g>
</g>
</svg>
