<?xml version="1.0" encoding="UTF-8" standalone="no"?>
<!DOCTYPE svg PUBLIC "-//W3C//DTD SVG 1.1//EN"
 "http://www.w3.org/Graphics/SVG/1.1/DTD/svg11.dtd">
<!-- Generated by graphviz version 2.40.1 (20161225.0304)
 -->
<!-- Title: dependencies Pages: 1 -->
<svg width="2194pt" height="284pt"
 viewBox="0.00 0.00 2194.00 284.00" xmlns="http://www.w3.org/2000/svg" xmlns:xlink="http://www.w3.org/1999/xlink">
<g id="graph0" class="graph" transform="scale(1 1) rotate(0) translate(4 280)">
<title>dependencies</title>
<polygon fill="#ffffff" stroke="transparent" points="-4,4 -4,-280 2190,-280 2190,4 -4,4"/>
<text text-anchor="start" x="1072.0091" y="-42.4" font-family="sans-serif" font-weight="bold" font-size="14.00" fill="#000000">Legend</text>
<polygon fill="#ffffb3" stroke="transparent" points="859,-10 859,-30 879,-30 879,-10 859,-10"/>
<text text-anchor="start" x="882.629" y="-15.4" font-family="sans-serif" font-size="14.00" fill="#000000"> &#160;Declarations</text>
<polygon fill="#8dd3c7" stroke="transparent" points="972,-10 972,-30 992,-30 992,-10 972,-10"/>
<text text-anchor="start" x="995.7251" y="-15.4" font-family="sans-serif" font-size="14.00" fill="#000000"> &#160;Module</text>
<polygon fill="#80b1d3" stroke="transparent" points="1058,-10 1058,-30 1078,-30 1078,-10 1058,-10"/>
<text text-anchor="start" x="1081.7812" y="-15.4" font-family="sans-serif" font-size="14.00" fill="#000000"> &#160;Bootstrap</text>
<polygon fill="#fdb462" stroke="transparent" points="1155,-10 1155,-30 1175,-30 1175,-10 1155,-10"/>
<text text-anchor="start" x="1178.6732" y="-15.4" font-family="sans-serif" font-size="14.00" fill="#000000"> &#160;Providers</text>
<polygon fill="#fb8072" stroke="transparent" points="1251,-10 1251,-30 1271,-30 1271,-10 1251,-10"/>
<text text-anchor="start" x="1274.7258" y="-15.4" font-family="sans-serif" font-size="14.00" fill="#000000"> &#160;Exports</text>
<g id="clust1" class="cluster">
<title>cluster_FeedModule</title>
<polygon fill="none" stroke="#000000" stroke-dasharray="1,5" points="8,-70 8,-268 2178,-268 2178,-70 8,-70"/>
</g>
<g id="clust2" class="cluster">
<title>cluster_FeedModule_declarations</title>
<polygon fill="none" stroke="#000000" points="282,-78 282,-130 2170,-130 2170,-78 282,-78"/>
</g>
<g id="clust15" class="cluster">
<title>cluster_FeedModule_imports</title>
<polygon fill="none" stroke="#000000" points="16,-78 16,-130 274,-130 274,-78 16,-78"/>
</g>
<g id="clust16" class="cluster">
<title>cluster_FeedModule_exports</title>
<polygon fill="none" stroke="#000000" points="1017,-208 1017,-260 1145,-260 1145,-208 1017,-208"/>
</g>
<!-- CardListComponent -->
<g id="node1" class="node">
<title>CardListComponent</title>
<polygon fill="#ffffb3" stroke="#000000" points="2162.323,-122 2031.677,-122 2031.677,-86 2162.323,-86 2162.323,-122"/>
<text text-anchor="middle" x="2097" y="-99.8" font-family="Times,serif" font-size="14.00" fill="#000000">CardListComponent</text>
</g>
<!-- FeedModule -->
<g id="node13" class="node">
<title>FeedModule</title>
<polygon fill="#8dd3c7" stroke="#000000" points="1124.2619,-187 1121.2619,-191 1100.2619,-191 1097.2619,-187 1037.7381,-187 1037.7381,-151 1124.2619,-151 1124.2619,-187"/>
<text text-anchor="middle" x="1081" y="-164.8" font-family="Times,serif" font-size="14.00" fill="#000000">FeedModule</text>
</g>
<!-- CardListComponent&#45;&gt;FeedModule -->
<g id="edge1" class="edge">
<title>CardListComponent&#45;&gt;FeedModule</title>
<path fill="none" stroke="#000000" d="M2097,-122.0908C2097,-145.1328 2097,-182 2097,-182 2097,-182 1134.3312,-182 1134.3312,-182"/>
<polygon fill="#000000" stroke="#000000" points="1134.3313,-178.5001 1124.3312,-182 1134.3312,-185.5001 1134.3313,-178.5001"/>
</g>
<!-- CustomTimelineChartComponent -->
<g id="node2" class="node">
<title>CustomTimelineChartComponent</title>
<polygon fill="#ffffb3" stroke="#000000" points="2014.0419,-122 1807.9581,-122 1807.9581,-86 2014.0419,-86 2014.0419,-122"/>
<text text-anchor="middle" x="1911" y="-99.8" font-family="Times,serif" font-size="14.00" fill="#000000">CustomTimelineChartComponent</text>
</g>
<!-- CustomTimelineChartComponent&#45;&gt;FeedModule -->
<g id="edge2" class="edge">
<title>CustomTimelineChartComponent&#45;&gt;FeedModule</title>
<path fill="none" stroke="#000000" d="M1911,-122.0449C1911,-143.6623 1911,-177 1911,-177 1911,-177 1134.4558,-177 1134.4558,-177"/>
<polygon fill="#000000" stroke="#000000" points="1134.4558,-173.5001 1124.4558,-177 1134.4558,-180.5001 1134.4558,-173.5001"/>
</g>
<!-- DraggableDirective -->
<g id="node3" class="node">
<title>DraggableDirective</title>
<polygon fill="#ffffb3" stroke="#000000" points="1790.385,-122 1663.615,-122 1663.615,-86 1790.385,-86 1790.385,-122"/>
<text text-anchor="middle" x="1727" y="-99.8" font-family="Times,serif" font-size="14.00" fill="#000000">DraggableDirective</text>
</g>
<!-- DraggableDirective&#45;&gt;FeedModule -->
<g id="edge3" class="edge">
<title>DraggableDirective&#45;&gt;FeedModule</title>
<path fill="none" stroke="#000000" d="M1727,-122.2228C1727,-142.3652 1727,-172 1727,-172 1727,-172 1134.389,-172 1134.389,-172"/>
<polygon fill="#000000" stroke="#000000" points="1134.389,-168.5001 1124.389,-172 1134.3889,-175.5001 1134.389,-168.5001"/>
</g>
<!-- FeedComponent -->
<g id="node4" class="node">
<title>FeedComponent</title>
<polygon fill="#ffffb3" stroke="#000000" points="1646.0452,-122 1537.9548,-122 1537.9548,-86 1646.0452,-86 1646.0452,-122"/>
<text text-anchor="middle" x="1592" y="-99.8" font-family="Times,serif" font-size="14.00" fill="#000000">FeedComponent</text>
</g>
<!-- FeedComponent&#45;&gt;FeedModule -->
<g id="edge4" class="edge">
<title>FeedComponent&#45;&gt;FeedModule</title>
<path fill="none" stroke="#000000" d="M1592,-122.2222C1592,-140.8285 1592,-167 1592,-167 1592,-167 1134.5676,-167 1134.5676,-167"/>
<polygon fill="#000000" stroke="#000000" points="1134.5676,-163.5001 1124.5676,-167 1134.5675,-170.5001 1134.5676,-163.5001"/>
</g>
<!-- FiltersComponent -->
<g id="node5" class="node">
<title>FiltersComponent</title>
<polygon fill="#ffffb3" stroke="#000000" points="1519.6066,-122 1402.3934,-122 1402.3934,-86 1519.6066,-86 1519.6066,-122"/>
<text text-anchor="middle" x="1461" y="-99.8" font-family="Times,serif" font-size="14.00" fill="#000000">FiltersComponent</text>
</g>
<!-- FiltersComponent&#45;&gt;FeedModule -->
<g id="edge5" class="edge">
<title>FiltersComponent&#45;&gt;FeedModule</title>
<path fill="none" stroke="#000000" d="M1461,-122.0336C1461,-139.0597 1461,-162 1461,-162 1461,-162 1134.5908,-162 1134.5908,-162"/>
<polygon fill="#000000" stroke="#000000" points="1134.5909,-158.5001 1124.5908,-162 1134.5908,-165.5001 1134.5909,-158.5001"/>
</g>
<!-- InitChartComponent -->
<g id="node6" class="node">
<title>InitChartComponent</title>
<polygon fill="#ffffb3" stroke="#000000" points="1384.8767,-122 1253.1233,-122 1253.1233,-86 1384.8767,-86 1384.8767,-122"/>
<text text-anchor="middle" x="1319" y="-99.8" font-family="Times,serif" font-size="14.00" fill="#000000">InitChartComponent</text>
</g>
<!-- InitChartComponent&#45;&gt;FeedModule -->
<g id="edge6" class="edge">
<title>InitChartComponent&#45;&gt;FeedModule</title>
<path fill="none" stroke="#000000" d="M1319,-122.2396C1319,-137.5706 1319,-157 1319,-157 1319,-157 1134.3761,-157 1134.3761,-157"/>
<polygon fill="#000000" stroke="#000000" points="1134.3762,-153.5001 1124.3761,-157 1134.3761,-160.5001 1134.3762,-153.5001"/>
</g>
<!-- MouseWheelDirective -->
<g id="node7" class="node">
<title>MouseWheelDirective</title>
<polygon fill="#ffffb3" stroke="#000000" points="1235.2213,-122 1092.7787,-122 1092.7787,-86 1235.2213,-86 1235.2213,-122"/>
<text text-anchor="middle" x="1164" y="-99.8" font-family="Times,serif" font-size="14.00" fill="#000000">MouseWheelDirective</text>
</g>
<!-- MouseWheelDirective&#45;&gt;FeedModule -->
<g id="edge7" class="edge">
<title>MouseWheelDirective&#45;&gt;FeedModule</title>
<path fill="none" stroke="#000000" d="M1108.5102,-122.1061C1108.5102,-122.1061 1108.5102,-140.991 1108.5102,-140.991"/>
<polygon fill="#000000" stroke="#000000" points="1105.0102,-140.9909 1108.5102,-150.991 1112.0102,-140.991 1105.0102,-140.9909"/>
</g>
<!-- NoSelectionComponent -->
<g id="node8" class="node">
<title>NoSelectionComponent</title>
<polygon fill="#ffffb3" stroke="#000000" points="1074.0379,-122 923.9621,-122 923.9621,-86 1074.0379,-86 1074.0379,-122"/>
<text text-anchor="middle" x="999" y="-99.8" font-family="Times,serif" font-size="14.00" fill="#000000">NoSelectionComponent</text>
</g>
<!-- NoSelectionComponent&#45;&gt;FeedModule -->
<g id="edge8" class="edge">
<title>NoSelectionComponent&#45;&gt;FeedModule</title>
<path fill="none" stroke="#000000" d="M1055.9439,-122.1061C1055.9439,-122.1061 1055.9439,-140.991 1055.9439,-140.991"/>
<polygon fill="#000000" stroke="#000000" points="1052.444,-140.9909 1055.9439,-150.991 1059.444,-140.991 1052.444,-140.9909"/>
</g>
<!-- TimeFilterComponent -->
<g id="node9" class="node">
<title>TimeFilterComponent</title>
<polygon fill="#ffffb3" stroke="#000000" points="905.7106,-122 764.2894,-122 764.2894,-86 905.7106,-86 905.7106,-122"/>
<text text-anchor="middle" x="835" y="-99.8" font-family="Times,serif" font-size="14.00" fill="#000000">TimeFilterComponent</text>
</g>
<!-- TimeFilterComponent&#45;&gt;FeedModule -->
<g id="edge9" class="edge">
<title>TimeFilterComponent&#45;&gt;FeedModule</title>
<path fill="none" stroke="#000000" d="M835,-122.2396C835,-137.5706 835,-157 835,-157 835,-157 1027.5864,-157 1027.5864,-157"/>
<polygon fill="#000000" stroke="#000000" points="1027.5864,-160.5001 1037.5864,-157 1027.5864,-153.5001 1027.5864,-160.5001"/>
</g>
<!-- TimeLineComponent -->
<g id="node10" class="node">
<title>TimeLineComponent</title>
<polygon fill="#ffffb3" stroke="#000000" points="746.0394,-122 609.9606,-122 609.9606,-86 746.0394,-86 746.0394,-122"/>
<text text-anchor="middle" x="678" y="-99.8" font-family="Times,serif" font-size="14.00" fill="#000000">TimeLineComponent</text>
</g>
<!-- TimeLineComponent&#45;&gt;FeedModule -->
<g id="edge10" class="edge">
<title>TimeLineComponent&#45;&gt;FeedModule</title>
<path fill="none" stroke="#000000" d="M678,-122.0336C678,-139.0597 678,-162 678,-162 678,-162 1027.489,-162 1027.489,-162"/>
<polygon fill="#000000" stroke="#000000" points="1027.4891,-165.5001 1037.489,-162 1027.489,-158.5001 1027.4891,-165.5001"/>
</g>
<!-- TypeFilterComponent -->
<g id="node11" class="node">
<title>TypeFilterComponent</title>
<polygon fill="#ffffb3" stroke="#000000" points="592.4299,-122 451.5701,-122 451.5701,-86 592.4299,-86 592.4299,-122"/>
<text text-anchor="middle" x="522" y="-99.8" font-family="Times,serif" font-size="14.00" fill="#000000">TypeFilterComponent</text>
</g>
<!-- TypeFilterComponent&#45;&gt;FeedModule -->
<g id="edge11" class="edge">
<title>TypeFilterComponent&#45;&gt;FeedModule</title>
<path fill="none" stroke="#000000" d="M522,-122.2222C522,-140.8285 522,-167 522,-167 522,-167 1027.6014,-167 1027.6014,-167"/>
<polygon fill="#000000" stroke="#000000" points="1027.6014,-170.5001 1037.6014,-167 1027.6013,-163.5001 1027.6014,-170.5001"/>
</g>
<!-- XAxisTickFormatPipe -->
<g id="node12" class="node">
<title>XAxisTickFormatPipe</title>
<polygon fill="#ffffb3" stroke="#000000" points="433.5338,-122 290.4662,-122 290.4662,-86 433.5338,-86 433.5338,-122"/>
<text text-anchor="middle" x="362" y="-99.8" font-family="Times,serif" font-size="14.00" fill="#000000">XAxisTickFormatPipe</text>
</g>
<!-- XAxisTickFormatPipe&#45;&gt;FeedModule -->
<g id="edge12" class="edge">
<title>XAxisTickFormatPipe&#45;&gt;FeedModule</title>
<path fill="none" stroke="#000000" d="M362,-122.2228C362,-142.3652 362,-172 362,-172 362,-172 1027.6425,-172 1027.6425,-172"/>
<polygon fill="#000000" stroke="#000000" points="1027.6426,-175.5001 1037.6425,-172 1027.6425,-168.5001 1027.6426,-175.5001"/>
</g>
<!-- FeedComponent  -->
<g id="node16" class="node">
<title>FeedComponent </title>
<polygon fill="#fb8072" stroke="#000000" points="1137.0442,-252 1024.9558,-252 1024.9558,-216 1137.0442,-216 1137.0442,-252"/>
<text text-anchor="middle" x="1081" y="-229.8" font-family="Times,serif" font-size="14.00" fill="#000000">FeedComponent </text>
</g>
<!-- FeedModule&#45;&gt;FeedComponent  -->
<g id="edge15" class="edge">
<title>FeedModule&#45;&gt;FeedComponent </title>
<path fill="none" stroke="#000000" stroke-dasharray="5,2" d="M1081,-187.1061C1081,-187.1061 1081,-205.991 1081,-205.991"/>
<polygon fill="#000000" stroke="#000000" points="1077.5001,-205.9909 1081,-215.991 1084.5001,-205.991 1077.5001,-205.9909"/>
</g>
<!-- CardsModule -->
<g id="node14" class="node">
<title>CardsModule</title>
<polygon fill="#8dd3c7" stroke="#000000" points="266.2064,-122 263.2064,-126 242.2064,-126 239.2064,-122 173.7936,-122 173.7936,-86 266.2064,-86 266.2064,-122"/>
<text text-anchor="middle" x="220" y="-99.8" font-family="Times,serif" font-size="14.00" fill="#000000">CardsModule</text>
</g>
<!-- CardsModule&#45;&gt;FeedModule -->
<g id="edge13" class="edge">
<title>CardsModule&#45;&gt;FeedModule</title>
<path fill="none" stroke="#000000" d="M220,-122.0449C220,-143.6623 220,-177 220,-177 220,-177 1027.7128,-177 1027.7128,-177"/>
<polygon fill="#000000" stroke="#000000" points="1027.7129,-180.5001 1037.7128,-177 1027.7128,-173.5001 1027.7129,-180.5001"/>
</g>
<!-- FeedRoutingModule -->
<g id="node15" class="node">
<title>FeedRoutingModule</title>
<polygon fill="#8dd3c7" stroke="#000000" points="155.8795,-122 152.8795,-126 131.8795,-126 128.8795,-122 24.1205,-122 24.1205,-86 155.8795,-86 155.8795,-122"/>
<text text-anchor="middle" x="90" y="-99.8" font-family="Times,serif" font-size="14.00" fill="#000000">FeedRoutingModule</text>
</g>
<!-- FeedRoutingModule&#45;&gt;FeedModule -->
<g id="edge14" class="edge">
<title>FeedRoutingModule&#45;&gt;FeedModule</title>
<path fill="none" stroke="#000000" d="M90,-122.0908C90,-145.1328 90,-182 90,-182 90,-182 1027.4605,-182 1027.4605,-182"/>
<polygon fill="#000000" stroke="#000000" points="1027.4606,-185.5001 1037.4605,-182 1027.4605,-178.5001 1027.4606,-185.5001"/>
</g>
</g>
</svg>
