<?xml version="1.0" encoding="UTF-8" standalone="no"?>
<!DOCTYPE svg PUBLIC "-//W3C//DTD SVG 1.1//EN"
 "http://www.w3.org/Graphics/SVG/1.1/DTD/svg11.dtd">
<!-- Generated by graphviz version 2.40.1 (20161225.0304)
 -->
<!-- Title: dependencies Pages: 1 -->
<svg width="1603pt" height="211pt"
 viewBox="0.00 0.00 1603.00 211.00" xmlns="http://www.w3.org/2000/svg" xmlns:xlink="http://www.w3.org/1999/xlink">
<g id="graph0" class="graph" transform="scale(1 1) rotate(0) translate(4 207)">
<title>dependencies</title>
<polygon fill="#ffffff" stroke="transparent" points="-4,4 -4,-207 1599,-207 1599,4 -4,4"/>
<text text-anchor="start" x="776.5091" y="-42.4" font-family="sans-serif" font-weight="bold" font-size="14.00" fill="#000000">Legend</text>
<polygon fill="#ffffb3" stroke="transparent" points="563.5,-10 563.5,-30 583.5,-30 583.5,-10 563.5,-10"/>
<text text-anchor="start" x="587.129" y="-15.4" font-family="sans-serif" font-size="14.00" fill="#000000"> &#160;Declarations</text>
<polygon fill="#8dd3c7" stroke="transparent" points="676.5,-10 676.5,-30 696.5,-30 696.5,-10 676.5,-10"/>
<text text-anchor="start" x="700.2251" y="-15.4" font-family="sans-serif" font-size="14.00" fill="#000000"> &#160;Module</text>
<polygon fill="#80b1d3" stroke="transparent" points="762.5,-10 762.5,-30 782.5,-30 782.5,-10 762.5,-10"/>
<text text-anchor="start" x="786.2812" y="-15.4" font-family="sans-serif" font-size="14.00" fill="#000000"> &#160;Bootstrap</text>
<polygon fill="#fdb462" stroke="transparent" points="859.5,-10 859.5,-30 879.5,-30 879.5,-10 859.5,-10"/>
<text text-anchor="start" x="883.1732" y="-15.4" font-family="sans-serif" font-size="14.00" fill="#000000"> &#160;Providers</text>
<polygon fill="#fb8072" stroke="transparent" points="955.5,-10 955.5,-30 975.5,-30 975.5,-10 955.5,-10"/>
<text text-anchor="start" x="979.2258" y="-15.4" font-family="sans-serif" font-size="14.00" fill="#000000"> &#160;Exports</text>
<g id="clust1" class="cluster">
<title>cluster_ServicesModule</title>
<polygon fill="none" stroke="#000000" stroke-dasharray="1,5" points="8,-70 8,-195 1587,-195 1587,-70 8,-70"/>
</g>
<g id="clust6" class="cluster">
<title>cluster_ServicesModule_providers</title>
<polygon fill="none" stroke="#000000" points="16,-78 16,-130 1579,-130 1579,-78 16,-78"/>
</g>
<!-- AuthenticationService -->
<g id="node1" class="node">
<title>AuthenticationService</title>
<ellipse fill="#fdb462" stroke="#000000" cx="1474" cy="-104" rx="97.2683" ry="18"/>
<text text-anchor="middle" x="1474" y="-99.8" font-family="Times,serif" font-size="14.00" fill="#000000">AuthenticationService</text>
</g>
<!-- ServicesModule -->
<g id="node11" class="node">
<title>ServicesModule</title>
<polygon fill="#8dd3c7" stroke="#000000" points="852.472,-187 849.472,-191 828.472,-191 825.472,-187 745.528,-187 745.528,-151 852.472,-151 852.472,-187"/>
<text text-anchor="middle" x="799" y="-164.8" font-family="Times,serif" font-size="14.00" fill="#000000">ServicesModule</text>
</g>
<!-- AuthenticationService&#45;&gt;ServicesModule -->
<g id="edge1" class="edge">
<title>AuthenticationService&#45;&gt;ServicesModule</title>
<path fill="none" stroke="#000000" d="M1474,-122.0109C1474,-144.4852 1474,-180 1474,-180 1474,-180 862.5303,-180 862.5303,-180"/>
<polygon fill="#000000" stroke="#000000" points="862.5304,-176.5001 852.5303,-180 862.5303,-183.5001 862.5304,-176.5001"/>
</g>
<!-- CardService -->
<g id="node2" class="node">
<title>CardService</title>
<ellipse fill="#fdb462" stroke="#000000" cx="1300" cy="-104" rx="58.5251" ry="18"/>
<text text-anchor="middle" x="1300" y="-99.8" font-family="Times,serif" font-size="14.00" fill="#000000">CardService</text>
</g>
<!-- CardService&#45;&gt;ServicesModule -->
<g id="edge2" class="edge">
<title>CardService&#45;&gt;ServicesModule</title>
<path fill="none" stroke="#000000" d="M1300,-122.1289C1300,-142.5724 1300,-173 1300,-173 1300,-173 862.6158,-173 862.6158,-173"/>
<polygon fill="#000000" stroke="#000000" points="862.6158,-169.5001 852.6158,-173 862.6157,-176.5001 862.6158,-169.5001"/>
</g>
<!-- ConfigService -->
<g id="node3" class="node">
<title>ConfigService</title>
<ellipse fill="#fdb462" stroke="#000000" cx="1156" cy="-104" rx="66.6325" ry="18"/>
<text text-anchor="middle" x="1156" y="-99.8" font-family="Times,serif" font-size="14.00" fill="#000000">ConfigService</text>
</g>
<!-- ConfigService&#45;&gt;ServicesModule -->
<g id="edge3" class="edge">
<title>ConfigService&#45;&gt;ServicesModule</title>
<path fill="none" stroke="#000000" d="M1156,-122.2667C1156,-140.5552 1156,-166 1156,-166 1156,-166 862.833,-166 862.833,-166"/>
<polygon fill="#000000" stroke="#000000" points="862.8331,-162.5001 852.833,-166 862.833,-169.5001 862.8331,-162.5001"/>
</g>
<!-- FilterService -->
<g id="node4" class="node">
<title>FilterService</title>
<ellipse fill="#fdb462" stroke="#000000" cx="1010" cy="-104" rx="60.8255" ry="18"/>
<text text-anchor="middle" x="1010" y="-99.8" font-family="Times,serif" font-size="14.00" fill="#000000">FilterService</text>
</g>
<!-- FilterService&#45;&gt;ServicesModule -->
<g id="edge4" class="edge">
<title>FilterService&#45;&gt;ServicesModule</title>
<path fill="none" stroke="#000000" d="M1010,-122.0091C1010,-138.0494 1010,-159 1010,-159 1010,-159 862.517,-159 862.517,-159"/>
<polygon fill="#000000" stroke="#000000" points="862.517,-155.5001 852.517,-159 862.5169,-162.5001 862.517,-155.5001"/>
</g>
<!-- I18nService -->
<g id="node5" class="node">
<title>I18nService</title>
<ellipse fill="#fdb462" stroke="#000000" cx="873" cy="-104" rx="57.8849" ry="18"/>
<text text-anchor="middle" x="873" y="-99.8" font-family="Times,serif" font-size="14.00" fill="#000000">I18nService</text>
</g>
<!-- I18nService&#45;&gt;ServicesModule -->
<g id="edge5" class="edge">
<title>I18nService&#45;&gt;ServicesModule</title>
<path fill="none" stroke="#000000" d="M833.8969,-117.468C833.8969,-117.468 833.8969,-140.8642 833.8969,-140.8642"/>
<polygon fill="#000000" stroke="#000000" points="830.397,-140.8641 833.8969,-150.8642 837.397,-140.8642 830.397,-140.8641"/>
</g>
<!-- SettingsService -->
<g id="node6" class="node">
<title>SettingsService</title>
<ellipse fill="#fdb462" stroke="#000000" cx="726" cy="-104" rx="71.221" ry="18"/>
<text text-anchor="middle" x="726" y="-99.8" font-family="Times,serif" font-size="14.00" fill="#000000">SettingsService</text>
</g>
<!-- SettingsService&#45;&gt;ServicesModule -->
<g id="edge6" class="edge">
<title>SettingsService&#45;&gt;ServicesModule</title>
<path fill="none" stroke="#000000" d="M771.3122,-118.104C771.3122,-118.104 771.3122,-140.7209 771.3122,-140.7209"/>
<polygon fill="#000000" stroke="#000000" points="767.8123,-140.7209 771.3122,-150.7209 774.8123,-140.7209 767.8123,-140.7209"/>
</g>
<!-- ThirdActionService -->
<g id="node7" class="node">
<title>ThirdActionService</title>
<ellipse fill="#fdb462" stroke="#000000" cx="549" cy="-104" rx="87.9587" ry="18"/>
<text text-anchor="middle" x="549" y="-99.8" font-family="Times,serif" font-size="14.00" fill="#000000">ThirdActionService</text>
</g>
<!-- ThirdActionService&#45;&gt;ServicesModule -->
<g id="edge7" class="edge">
<title>ThirdActionService&#45;&gt;ServicesModule</title>
<path fill="none" stroke="#000000" d="M549,-122.0091C549,-138.0494 549,-159 549,-159 549,-159 735.3687,-159 735.3687,-159"/>
<polygon fill="#000000" stroke="#000000" points="735.3688,-162.5001 745.3687,-159 735.3687,-155.5001 735.3688,-162.5001"/>
</g>
<!-- ThirdsService -->
<g id="node8" class="node">
<title>ThirdsService</title>
<ellipse fill="#fdb462" stroke="#000000" cx="378" cy="-104" rx="65.4053" ry="18"/>
<text text-anchor="middle" x="378" y="-99.8" font-family="Times,serif" font-size="14.00" fill="#000000">ThirdsService</text>
</g>
<!-- ThirdsService&#45;&gt;ServicesModule -->
<g id="edge8" class="edge">
<title>ThirdsService&#45;&gt;ServicesModule</title>
<path fill="none" stroke="#000000" d="M378,-122.2667C378,-140.5552 378,-166 378,-166 378,-166 735.2524,-166 735.2524,-166"/>
<polygon fill="#000000" stroke="#000000" points="735.2525,-169.5001 745.2524,-166 735.2524,-162.5001 735.2525,-169.5001"/>
</g>
<!-- TimeService -->
<g id="node9" class="node">
<title>TimeService</title>
<ellipse fill="#fdb462" stroke="#000000" cx="234" cy="-104" rx="60.2479" ry="18"/>
<text text-anchor="middle" x="234" y="-99.8" font-family="Times,serif" font-size="14.00" fill="#000000">TimeService</text>
</g>
<!-- TimeService&#45;&gt;ServicesModule -->
<g id="edge9" class="edge">
<title>TimeService&#45;&gt;ServicesModule</title>
<path fill="none" stroke="#000000" d="M234,-122.1289C234,-142.5724 234,-173 234,-173 234,-173 735.3368,-173 735.3368,-173"/>
<polygon fill="#000000" stroke="#000000" points="735.3368,-176.5001 745.3368,-173 735.3368,-169.5001 735.3368,-176.5001"/>
</g>
<!-- TokenInjector -->
<g id="node10" class="node">
<title>TokenInjector</title>
<ellipse fill="#fdb462" stroke="#000000" cx="90" cy="-104" rx="65.9716" ry="18"/>
<text text-anchor="middle" x="90" y="-99.8" font-family="Times,serif" font-size="14.00" fill="#000000">TokenInjector</text>
</g>
<!-- TokenInjector&#45;&gt;ServicesModule -->
<g id="edge10" class="edge">
<title>TokenInjector&#45;&gt;ServicesModule</title>
<path fill="none" stroke="#000000" d="M90,-122.0109C90,-144.4852 90,-180 90,-180 90,-180 735.4191,-180 735.4191,-180"/>
<polygon fill="#000000" stroke="#000000" points="735.4192,-183.5001 745.4191,-180 735.4191,-176.5001 735.4192,-183.5001"/>
</g>
</g>
</svg>
