<?xml version="1.0" encoding="UTF-8" standalone="no"?>
<!DOCTYPE svg PUBLIC "-//W3C//DTD SVG 1.1//EN"
 "http://www.w3.org/Graphics/SVG/1.1/DTD/svg11.dtd">
<!-- Generated by graphviz version 2.40.1 (20161225.0304)
 -->
<!-- Title: dependencies Pages: 1 -->
<svg width="794pt" height="284pt"
 viewBox="0.00 0.00 794.00 284.00" xmlns="http://www.w3.org/2000/svg" xmlns:xlink="http://www.w3.org/1999/xlink">
<g id="graph0" class="graph" transform="scale(1 1) rotate(0) translate(4 280)">
<title>dependencies</title>
<polygon fill="#ffffff" stroke="transparent" points="-4,4 -4,-280 790,-280 790,4 -4,4"/>
<text text-anchor="start" x="372.0091" y="-42.4" font-family="sans-serif" font-weight="bold" font-size="14.00" fill="#000000">Legend</text>
<polygon fill="#ffffb3" stroke="transparent" points="159,-10 159,-30 179,-30 179,-10 159,-10"/>
<text text-anchor="start" x="182.629" y="-15.4" font-family="sans-serif" font-size="14.00" fill="#000000"> &#160;Declarations</text>
<polygon fill="#8dd3c7" stroke="transparent" points="272,-10 272,-30 292,-30 292,-10 272,-10"/>
<text text-anchor="start" x="295.7251" y="-15.4" font-family="sans-serif" font-size="14.00" fill="#000000"> &#160;Module</text>
<polygon fill="#80b1d3" stroke="transparent" points="358,-10 358,-30 378,-30 378,-10 358,-10"/>
<text text-anchor="start" x="381.7812" y="-15.4" font-family="sans-serif" font-size="14.00" fill="#000000"> &#160;Bootstrap</text>
<polygon fill="#fdb462" stroke="transparent" points="455,-10 455,-30 475,-30 475,-10 455,-10"/>
<text text-anchor="start" x="478.6732" y="-15.4" font-family="sans-serif" font-size="14.00" fill="#000000"> &#160;Providers</text>
<polygon fill="#fb8072" stroke="transparent" points="551,-10 551,-30 571,-30 571,-10 551,-10"/>
<text text-anchor="start" x="574.7258" y="-15.4" font-family="sans-serif" font-size="14.00" fill="#000000"> &#160;Exports</text>
<g id="clust1" class="cluster">
<title>cluster_CardsModule</title>
<polygon fill="none" stroke="#000000" stroke-dasharray="1,5" points="8,-70 8,-268 778,-268 778,-70 8,-70"/>
</g>
<g id="clust2" class="cluster">
<title>cluster_CardsModule_declarations</title>
<polygon fill="none" stroke="#000000" points="208,-78 208,-130 770,-130 770,-78 208,-78"/>
</g>
<g id="clust8" class="cluster">
<title>cluster_CardsModule_exports</title>
<polygon fill="none" stroke="#000000" points="121,-208 121,-260 698,-260 698,-208 121,-208"/>
</g>
<g id="clust10" class="cluster">
<title>cluster_CardsModule_providers</title>
<polygon fill="none" stroke="#000000" points="16,-78 16,-130 200,-130 200,-78 16,-78"/>
</g>
<!-- CardComponent -->
<g id="node1" class="node">
<title>CardComponent</title>
<polygon fill="#ffffb3" stroke="#000000" points="762.0452,-122 653.9548,-122 653.9548,-86 762.0452,-86 762.0452,-122"/>
<text text-anchor="middle" x="708" y="-99.8" font-family="Times,serif" font-size="14.00" fill="#000000">CardComponent</text>
</g>
<!-- CardsModule -->
<g id="node5" class="node">
<title>CardsModule</title>
<polygon fill="#8dd3c7" stroke="#000000" points="458.2064,-187 455.2064,-191 434.2064,-191 431.2064,-187 365.7936,-187 365.7936,-151 458.2064,-151 458.2064,-187"/>
<text text-anchor="middle" x="412" y="-164.8" font-family="Times,serif" font-size="14.00" fill="#000000">CardsModule</text>
</g>
<!-- CardComponent&#45;&gt;CardsModule -->
<g id="edge1" class="edge">
<title>CardComponent&#45;&gt;CardsModule</title>
<path fill="none" stroke="#000000" d="M671.875,-122.1061C671.875,-141.3391 671.875,-169 671.875,-169 671.875,-169 468.161,-169 468.161,-169"/>
<polygon fill="#000000" stroke="#000000" points="468.161,-165.5001 458.161,-169 468.161,-172.5001 468.161,-165.5001"/>
</g>
<!-- CardDetailsComponent -->
<g id="node2" class="node">
<title>CardDetailsComponent</title>
<polygon fill="#ffffb3" stroke="#000000" points="636.1965,-122 487.8035,-122 487.8035,-86 636.1965,-86 636.1965,-122"/>
<text text-anchor="middle" x="562" y="-99.8" font-family="Times,serif" font-size="14.00" fill="#000000">CardDetailsComponent</text>
</g>
<!-- CardDetailsComponent&#45;&gt;CardsModule -->
<g id="edge2" class="edge">
<title>CardDetailsComponent&#45;&gt;CardsModule</title>
<path fill="none" stroke="#000000" d="M523.875,-122.027C523.875,-138.3976 523.875,-160 523.875,-160 523.875,-160 468.1497,-160 468.1497,-160"/>
<polygon fill="#000000" stroke="#000000" points="468.1498,-156.5001 458.1497,-160 468.1497,-163.5001 468.1498,-156.5001"/>
</g>
<!-- DetailComponent -->
<g id="node3" class="node">
<title>DetailComponent</title>
<polygon fill="#ffffb3" stroke="#000000" points="469.5409,-122 354.4591,-122 354.4591,-86 469.5409,-86 469.5409,-122"/>
<text text-anchor="middle" x="412" y="-99.8" font-family="Times,serif" font-size="14.00" fill="#000000">DetailComponent</text>
</g>
<!-- DetailComponent&#45;&gt;CardsModule -->
<g id="edge3" class="edge">
<title>DetailComponent&#45;&gt;CardsModule</title>
<path fill="none" stroke="#000000" d="M412,-122.1061C412,-122.1061 412,-140.991 412,-140.991"/>
<polygon fill="#000000" stroke="#000000" points="408.5001,-140.9909 412,-150.991 415.5001,-140.991 408.5001,-140.9909"/>
</g>
<!-- DetailsComponent -->
<g id="node4" class="node">
<title>DetailsComponent</title>
<polygon fill="#ffffb3" stroke="#000000" points="336.4846,-122 215.5154,-122 215.5154,-86 336.4846,-86 336.4846,-122"/>
<text text-anchor="middle" x="276" y="-99.8" font-family="Times,serif" font-size="14.00" fill="#000000">DetailsComponent</text>
</g>
<!-- DetailsComponent&#45;&gt;CardsModule -->
<g id="edge4" class="edge">
<title>DetailsComponent&#45;&gt;CardsModule</title>
<path fill="none" stroke="#000000" d="M303.9862,-122.027C303.9862,-138.3976 303.9862,-160 303.9862,-160 303.9862,-160 355.8791,-160 355.8791,-160"/>
<polygon fill="#000000" stroke="#000000" points="355.8791,-163.5001 365.8791,-160 355.8791,-156.5001 355.8791,-163.5001"/>
</g>
<!-- CardComponent  -->
<g id="node6" class="node">
<title>CardComponent </title>
<polygon fill="#fb8072" stroke="#000000" points="690.0442,-252 577.9558,-252 577.9558,-216 690.0442,-216 690.0442,-252"/>
<text text-anchor="middle" x="634" y="-229.8" font-family="Times,serif" font-size="14.00" fill="#000000">CardComponent </text>
</g>
<!-- CardsModule&#45;&gt;CardComponent  -->
<g id="edge5" class="edge">
<title>CardsModule&#45;&gt;CardComponent </title>
<path fill="none" stroke="#000000" stroke-dasharray="5,2" d="M458.2213,-178C515.8967,-178 607.0381,-178 607.0381,-178 607.0381,-178 607.0381,-205.973 607.0381,-205.973"/>
<polygon fill="#000000" stroke="#000000" points="603.5381,-205.973 607.0381,-215.973 610.5381,-205.973 603.5381,-205.973"/>
</g>
<!-- CardDetailsComponent  -->
<g id="node7" class="node">
<title>CardDetailsComponent </title>
<polygon fill="#fb8072" stroke="#000000" points="559.6967,-252 408.3033,-252 408.3033,-216 559.6967,-216 559.6967,-252"/>
<text text-anchor="middle" x="484" y="-229.8" font-family="Times,serif" font-size="14.00" fill="#000000">CardDetailsComponent </text>
</g>
<!-- CardsModule&#45;&gt;CardDetailsComponent  -->
<g id="edge6" class="edge">
<title>CardsModule&#45;&gt;CardDetailsComponent </title>
<path fill="none" stroke="#000000" stroke-dasharray="5,2" d="M433.1275,-187.1061C433.1275,-187.1061 433.1275,-205.991 433.1275,-205.991"/>
<polygon fill="#000000" stroke="#000000" points="429.6275,-205.9909 433.1275,-215.991 436.6275,-205.991 429.6275,-205.9909"/>
</g>
<!-- DetailComponent  -->
<g id="node8" class="node">
<title>DetailComponent </title>
<polygon fill="#fb8072" stroke="#000000" points="390.54,-252 271.46,-252 271.46,-216 390.54,-216 390.54,-252"/>
<text text-anchor="middle" x="331" y="-229.8" font-family="Times,serif" font-size="14.00" fill="#000000">DetailComponent </text>
</g>
<!-- CardsModule&#45;&gt;DetailComponent  -->
<g id="edge7" class="edge">
<title>CardsModule&#45;&gt;DetailComponent </title>
<path fill="none" stroke="#000000" stroke-dasharray="5,2" d="M378.2084,-187.1061C378.2084,-187.1061 378.2084,-205.991 378.2084,-205.991"/>
<polygon fill="#000000" stroke="#000000" points="374.7085,-205.9909 378.2084,-215.991 381.7085,-205.991 374.7085,-205.9909"/>
</g>
<!-- DetailsComponent  -->
<g id="node9" class="node">
<title>DetailsComponent </title>
<polygon fill="#fb8072" stroke="#000000" points="253.4855,-252 128.5145,-252 128.5145,-216 253.4855,-216 253.4855,-252"/>
<text text-anchor="middle" x="191" y="-229.8" font-family="Times,serif" font-size="14.00" fill="#000000">DetailsComponent </text>
</g>
<!-- CardsModule&#45;&gt;DetailsComponent  -->
<g id="edge8" class="edge">
<title>CardsModule&#45;&gt;DetailsComponent </title>
<path fill="none" stroke="#000000" stroke-dasharray="5,2" d="M365.7948,-178C313.1653,-178 234.375,-178 234.375,-178 234.375,-178 234.375,-205.973 234.375,-205.973"/>
<polygon fill="#000000" stroke="#000000" points="230.8751,-205.973 234.375,-215.973 237.8751,-205.973 230.8751,-205.973"/>
</g>
<!-- HandlebarsService -->
<g id="node10" class="node">
<title>HandlebarsService</title>
<ellipse fill="#fdb462" stroke="#000000" cx="108" cy="-104" rx="83.9257" ry="18"/>
<text text-anchor="middle" x="108" y="-99.8" font-family="Times,serif" font-size="14.00" fill="#000000">HandlebarsService</text>
</g>
<!-- HandlebarsService&#45;&gt;CardsModule -->
<g id="edge9" class="edge">
<title>HandlebarsService&#45;&gt;CardsModule</title>
<path fill="none" stroke="#000000" d="M160.3603,-118.104C160.3603,-137.2211 160.3603,-169 160.3603,-169 160.3603,-169 355.8454,-169 355.8454,-169"/>
<polygon fill="#000000" stroke="#000000" points="355.8454,-172.5001 365.8454,-169 355.8454,-165.5001 355.8454,-172.5001"/>
</g>
</g>
</svg>
