<?xml version="1.0" encoding="UTF-8" standalone="no"?>
<!DOCTYPE svg PUBLIC "-//W3C//DTD SVG 1.1//EN"
 "http://www.w3.org/Graphics/SVG/1.1/DTD/svg11.dtd">
<!-- Generated by graphviz version 2.40.1 (20161225.0304)
 -->
<!-- Title: dependencies Pages: 1 -->
<svg width="1517pt" height="284pt"
 viewBox="0.00 0.00 1517.00 284.00" xmlns="http://www.w3.org/2000/svg" xmlns:xlink="http://www.w3.org/1999/xlink">
<g id="graph0" class="graph" transform="scale(1 1) rotate(0) translate(4 280)">
<title>dependencies</title>
<polygon fill="#ffffff" stroke="transparent" points="-4,4 -4,-280 1513,-280 1513,4 -4,4"/>
<text text-anchor="start" x="733.5091" y="-42.4" font-family="sans-serif" font-weight="bold" font-size="14.00" fill="#000000">Legend</text>
<polygon fill="#ffffb3" stroke="transparent" points="520.5,-10 520.5,-30 540.5,-30 540.5,-10 520.5,-10"/>
<text text-anchor="start" x="544.129" y="-15.4" font-family="sans-serif" font-size="14.00" fill="#000000"> &#160;Declarations</text>
<polygon fill="#8dd3c7" stroke="transparent" points="633.5,-10 633.5,-30 653.5,-30 653.5,-10 633.5,-10"/>
<text text-anchor="start" x="657.2251" y="-15.4" font-family="sans-serif" font-size="14.00" fill="#000000"> &#160;Module</text>
<polygon fill="#80b1d3" stroke="transparent" points="719.5,-10 719.5,-30 739.5,-30 739.5,-10 719.5,-10"/>
<text text-anchor="start" x="743.2812" y="-15.4" font-family="sans-serif" font-size="14.00" fill="#000000"> &#160;Bootstrap</text>
<polygon fill="#fdb462" stroke="transparent" points="816.5,-10 816.5,-30 836.5,-30 836.5,-10 816.5,-10"/>
<text text-anchor="start" x="840.1732" y="-15.4" font-family="sans-serif" font-size="14.00" fill="#000000"> &#160;Providers</text>
<polygon fill="#fb8072" stroke="transparent" points="912.5,-10 912.5,-30 932.5,-30 932.5,-10 912.5,-10"/>
<text text-anchor="start" x="936.2258" y="-15.4" font-family="sans-serif" font-size="14.00" fill="#000000"> &#160;Exports</text>
<g id="clust1" class="cluster">
<title>cluster_AppModule</title>
<polygon fill="none" stroke="#000000" stroke-dasharray="1,5" points="8,-70 8,-268 1501,-268 1501,-70 8,-70"/>
</g>
<g id="clust2" class="cluster">
<title>cluster_AppModule_declarations</title>
<polygon fill="none" stroke="#000000" points="521,-78 521,-130 1493,-130 1493,-78 521,-78"/>
</g>
<g id="clust10" class="cluster">
<title>cluster_AppModule_imports</title>
<polygon fill="none" stroke="#000000" points="16,-78 16,-130 513,-130 513,-78 16,-78"/>
</g>
<g id="clust12" class="cluster">
<title>cluster_AppModule_bootstrap</title>
<polygon fill="none" stroke="#000000" points="677,-208 677,-260 801,-260 801,-208 677,-208"/>
</g>
<!-- AppComponent -->
<g id="node1" class="node">
<title>AppComponent</title>
<polygon fill="#ffffb3" stroke="#000000" points="1484.9399,-122 1379.0601,-122 1379.0601,-86 1484.9399,-86 1484.9399,-122"/>
<text text-anchor="middle" x="1432" y="-99.8" font-family="Times,serif" font-size="14.00" fill="#000000">AppComponent</text>
</g>
<!-- AppModule -->
<g id="node8" class="node">
<title>AppModule</title>
<polygon fill="#8dd3c7" stroke="#000000" points="780.6571,-187 777.6571,-191 756.6571,-191 753.6571,-187 697.3429,-187 697.3429,-151 780.6571,-151 780.6571,-187"/>
<text text-anchor="middle" x="739" y="-164.8" font-family="Times,serif" font-size="14.00" fill="#000000">AppModule</text>
</g>
<!-- AppComponent&#45;&gt;AppModule -->
<g id="edge1" class="edge">
<title>AppComponent&#45;&gt;AppModule</title>
<path fill="none" stroke="#000000" d="M1432,-122.2479C1432,-145.0179 1432,-181 1432,-181 1432,-181 790.7896,-181 790.7896,-181"/>
<polygon fill="#000000" stroke="#000000" points="790.7897,-177.5001 780.7896,-181 790.7896,-184.5001 790.7897,-177.5001"/>
</g>
<!-- CustomLogoComponent -->
<g id="node2" class="node">
<title>CustomLogoComponent</title>
<polygon fill="#ffffb3" stroke="#000000" points="1361.448,-122 1206.552,-122 1206.552,-86 1361.448,-86 1361.448,-122"/>
<text text-anchor="middle" x="1284" y="-99.8" font-family="Times,serif" font-size="14.00" fill="#000000">CustomLogoComponent</text>
</g>
<!-- CustomLogoComponent&#45;&gt;AppModule -->
<g id="edge2" class="edge">
<title>CustomLogoComponent&#45;&gt;AppModule</title>
<path fill="none" stroke="#000000" d="M1284,-122.2843C1284,-143.3211 1284,-175 1284,-175 1284,-175 790.8603,-175 790.8603,-175"/>
<polygon fill="#000000" stroke="#000000" points="790.8603,-171.5001 780.8603,-175 790.8603,-178.5001 790.8603,-171.5001"/>
</g>
<!-- IconComponent -->
<g id="node3" class="node">
<title>IconComponent</title>
<polygon fill="#ffffb3" stroke="#000000" points="1189.2078,-122 1082.7922,-122 1082.7922,-86 1189.2078,-86 1189.2078,-122"/>
<text text-anchor="middle" x="1136" y="-99.8" font-family="Times,serif" font-size="14.00" fill="#000000">IconComponent</text>
</g>
<!-- IconComponent&#45;&gt;AppModule -->
<g id="edge3" class="edge">
<title>IconComponent&#45;&gt;AppModule</title>
<path fill="none" stroke="#000000" d="M1136,-122.1061C1136,-141.3391 1136,-169 1136,-169 1136,-169 790.7356,-169 790.7356,-169"/>
<polygon fill="#000000" stroke="#000000" points="790.7356,-165.5001 780.7356,-169 790.7356,-172.5001 790.7356,-165.5001"/>
</g>
<!-- InfoComponent -->
<g id="node4" class="node">
<title>InfoComponent</title>
<polygon fill="#ffffb3" stroke="#000000" points="1065.1542,-122 960.8458,-122 960.8458,-86 1065.1542,-86 1065.1542,-122"/>
<text text-anchor="middle" x="1013" y="-99.8" font-family="Times,serif" font-size="14.00" fill="#000000">InfoComponent</text>
</g>
<!-- InfoComponent&#45;&gt;AppModule -->
<g id="edge4" class="edge">
<title>InfoComponent&#45;&gt;AppModule</title>
<path fill="none" stroke="#000000" d="M1013,-122.0225C1013,-139.3734 1013,-163 1013,-163 1013,-163 790.913,-163 790.913,-163"/>
<polygon fill="#000000" stroke="#000000" points="790.913,-159.5001 780.913,-163 790.9129,-166.5001 790.913,-159.5001"/>
</g>
<!-- LoginComponent -->
<g id="node5" class="node">
<title>LoginComponent</title>
<polygon fill="#ffffb3" stroke="#000000" points="942.2758,-122 827.7242,-122 827.7242,-86 942.2758,-86 942.2758,-122"/>
<text text-anchor="middle" x="885" y="-99.8" font-family="Times,serif" font-size="14.00" fill="#000000">LoginComponent</text>
</g>
<!-- LoginComponent&#45;&gt;AppModule -->
<g id="edge5" class="edge">
<title>LoginComponent&#45;&gt;AppModule</title>
<path fill="none" stroke="#000000" d="M885,-122.2396C885,-137.5706 885,-157 885,-157 885,-157 790.8377,-157 790.8377,-157"/>
<polygon fill="#000000" stroke="#000000" points="790.8378,-153.5001 780.8377,-157 790.8377,-160.5001 790.8378,-153.5001"/>
</g>
<!-- MenuLinkComponent -->
<g id="node6" class="node">
<title>MenuLinkComponent</title>
<polygon fill="#ffffb3" stroke="#000000" points="809.4355,-122 668.5645,-122 668.5645,-86 809.4355,-86 809.4355,-122"/>
<text text-anchor="middle" x="739" y="-99.8" font-family="Times,serif" font-size="14.00" fill="#000000">MenuLinkComponent</text>
</g>
<!-- MenuLinkComponent&#45;&gt;AppModule -->
<g id="edge6" class="edge">
<title>MenuLinkComponent&#45;&gt;AppModule</title>
<path fill="none" stroke="#000000" d="M739,-122.1061C739,-122.1061 739,-140.991 739,-140.991"/>
<polygon fill="#000000" stroke="#000000" points="735.5001,-140.9909 739,-150.991 742.5001,-140.991 735.5001,-140.9909"/>
</g>
<!-- NavbarComponent -->
<g id="node7" class="node">
<title>NavbarComponent</title>
<polygon fill="#ffffb3" stroke="#000000" points="651.0297,-122 528.9703,-122 528.9703,-86 651.0297,-86 651.0297,-122"/>
<text text-anchor="middle" x="590" y="-99.8" font-family="Times,serif" font-size="14.00" fill="#000000">NavbarComponent</text>
</g>
<!-- NavbarComponent&#45;&gt;AppModule -->
<g id="edge7" class="edge">
<title>NavbarComponent&#45;&gt;AppModule</title>
<path fill="none" stroke="#000000" d="M590,-122.2396C590,-137.5706 590,-157 590,-157 590,-157 687.0987,-157 687.0987,-157"/>
<polygon fill="#000000" stroke="#000000" points="687.0987,-160.5001 697.0987,-157 687.0986,-153.5001 687.0987,-160.5001"/>
</g>
<!-- AppComponent  -->
<g id="node13" class="node">
<title>AppComponent </title>
<polygon fill="#80b1d3" stroke="#000000" points="793.439,-252 684.561,-252 684.561,-216 793.439,-216 793.439,-252"/>
<text text-anchor="middle" x="739" y="-229.8" font-family="Times,serif" font-size="14.00" fill="#000000">AppComponent </text>
</g>
<!-- AppModule&#45;&gt;AppComponent  -->
<g id="edge12" class="edge">
<title>AppModule&#45;&gt;AppComponent </title>
<path fill="none" stroke="#000000" stroke-dasharray="1,5" d="M739,-187.1061C739,-187.1061 739,-205.991 739,-205.991"/>
<polygon fill="#000000" stroke="#000000" points="735.5001,-205.9909 739,-215.991 742.5001,-205.991 735.5001,-205.9909"/>
</g>
<!-- AppRoutingModule -->
<g id="node9" class="node">
<title>AppRoutingModule</title>
<polygon fill="#8dd3c7" stroke="#000000" points="505.2744,-122 502.2744,-126 481.2744,-126 478.2744,-122 376.7256,-122 376.7256,-86 505.2744,-86 505.2744,-122"/>
<text text-anchor="middle" x="441" y="-99.8" font-family="Times,serif" font-size="14.00" fill="#000000">AppRoutingModule</text>
</g>
<!-- AppRoutingModule&#45;&gt;AppModule -->
<g id="edge8" class="edge">
<title>AppRoutingModule&#45;&gt;AppModule</title>
<path fill="none" stroke="#000000" d="M441,-122.0225C441,-139.3734 441,-163 441,-163 441,-163 687.2506,-163 687.2506,-163"/>
<polygon fill="#000000" stroke="#000000" points="687.2506,-166.5001 697.2506,-163 687.2506,-159.5001 687.2506,-166.5001"/>
</g>
<!-- ServicesModule -->
<g id="node10" class="node">
<title>ServicesModule</title>
<polygon fill="#8dd3c7" stroke="#000000" points="358.472,-122 355.472,-126 334.472,-126 331.472,-122 251.528,-122 251.528,-86 358.472,-86 358.472,-122"/>
<text text-anchor="middle" x="305" y="-99.8" font-family="Times,serif" font-size="14.00" fill="#000000">ServicesModule</text>
</g>
<!-- ServicesModule&#45;&gt;AppModule -->
<g id="edge9" class="edge">
<title>ServicesModule&#45;&gt;AppModule</title>
<path fill="none" stroke="#000000" d="M305,-122.1061C305,-141.3391 305,-169 305,-169 305,-169 686.9919,-169 686.9919,-169"/>
<polygon fill="#000000" stroke="#000000" points="686.9919,-172.5001 696.9919,-169 686.9919,-165.5001 686.9919,-172.5001"/>
</g>
<!-- StateModule -->
<g id="node11" class="node">
<title>StateModule</title>
<polygon fill="#8dd3c7" stroke="#000000" points="233.544,-122 230.544,-126 209.544,-126 206.544,-122 146.456,-122 146.456,-86 233.544,-86 233.544,-122"/>
<text text-anchor="middle" x="190" y="-99.8" font-family="Times,serif" font-size="14.00" fill="#000000">StateModule</text>
</g>
<!-- StateModule&#45;&gt;AppModule -->
<g id="edge10" class="edge">
<title>StateModule&#45;&gt;AppModule</title>
<path fill="none" stroke="#000000" d="M190,-122.2843C190,-143.3211 190,-175 190,-175 190,-175 687.2852,-175 687.2852,-175"/>
<polygon fill="#000000" stroke="#000000" points="687.2852,-178.5001 697.2852,-175 687.2851,-171.5001 687.2852,-178.5001"/>
</g>
<!-- UtilitiesModule -->
<g id="node12" class="node">
<title>UtilitiesModule</title>
<polygon fill="#8dd3c7" stroke="#000000" points="128.1598,-122 125.1598,-126 104.1598,-126 101.1598,-122 23.8402,-122 23.8402,-86 128.1598,-86 128.1598,-122"/>
<text text-anchor="middle" x="76" y="-99.8" font-family="Times,serif" font-size="14.00" fill="#000000">UtilitiesModule</text>
</g>
<!-- UtilitiesModule&#45;&gt;AppModule -->
<g id="edge11" class="edge">
<title>UtilitiesModule&#45;&gt;AppModule</title>
<path fill="none" stroke="#000000" d="M76,-122.2479C76,-145.0179 76,-181 76,-181 76,-181 687.2752,-181 687.2752,-181"/>
<polygon fill="#000000" stroke="#000000" points="687.2753,-184.5001 697.2752,-181 687.2752,-177.5001 687.2753,-184.5001"/>
</g>
</g>
</svg>
