<?xml version="1.0" encoding="UTF-8" standalone="no"?>
<!DOCTYPE svg PUBLIC "-//W3C//DTD SVG 1.1//EN"
 "http://www.w3.org/Graphics/SVG/1.1/DTD/svg11.dtd">
<!-- Generated by graphviz version 2.40.1 (20161225.0304)
 -->
<!-- Title: dependencies Pages: 1 -->
<svg width="5993pt" height="363pt"
 viewBox="0.00 0.00 5993.00 363.00" xmlns="http://www.w3.org/2000/svg" xmlns:xlink="http://www.w3.org/1999/xlink">
<g id="graph0" class="graph" transform="scale(1 1) rotate(0) translate(4 359)">
<title>dependencies</title>
<polygon fill="#ffffff" stroke="transparent" points="-4,4 -4,-359 5989,-359 5989,4 -4,4"/>
<text text-anchor="start" x="2971.5091" y="-42.4" font-family="sans-serif" font-weight="bold" font-size="14.00" fill="#000000">Legend</text>
<polygon fill="#ffffb3" stroke="transparent" points="2758.5,-10 2758.5,-30 2778.5,-30 2778.5,-10 2758.5,-10"/>
<text text-anchor="start" x="2782.129" y="-15.4" font-family="sans-serif" font-size="14.00" fill="#000000"> &#160;Declarations</text>
<polygon fill="#8dd3c7" stroke="transparent" points="2871.5,-10 2871.5,-30 2891.5,-30 2891.5,-10 2871.5,-10"/>
<text text-anchor="start" x="2895.2251" y="-15.4" font-family="sans-serif" font-size="14.00" fill="#000000"> &#160;Module</text>
<polygon fill="#80b1d3" stroke="transparent" points="2957.5,-10 2957.5,-30 2977.5,-30 2977.5,-10 2957.5,-10"/>
<text text-anchor="start" x="2981.2812" y="-15.4" font-family="sans-serif" font-size="14.00" fill="#000000"> &#160;Bootstrap</text>
<polygon fill="#fdb462" stroke="transparent" points="3054.5,-10 3054.5,-30 3074.5,-30 3074.5,-10 3054.5,-10"/>
<text text-anchor="start" x="3078.1732" y="-15.4" font-family="sans-serif" font-size="14.00" fill="#000000"> &#160;Providers</text>
<polygon fill="#fb8072" stroke="transparent" points="3150.5,-10 3150.5,-30 3170.5,-30 3170.5,-10 3150.5,-10"/>
<text text-anchor="start" x="3174.2258" y="-15.4" font-family="sans-serif" font-size="14.00" fill="#000000"> &#160;Exports</text>
<g id="clust1" class="cluster">
<title>cluster_AppModule</title>
<polygon fill="none" stroke="#000000" stroke-dasharray="1,5" points="678,-146 678,-347 1718,-347 1718,-146 678,-146"/>
</g>
<g id="clust2" class="cluster">
<title>cluster_AppModule_declarations</title>
<polygon fill="none" stroke="#000000" points="1068,-154 1068,-206 1710,-206 1710,-154 1068,-154"/>
</g>
<g id="clust8" class="cluster">
<title>cluster_AppModule_imports</title>
<polygon fill="none" stroke="#000000" points="686,-154 686,-206 1060,-206 1060,-154 686,-154"/>
</g>
<g id="clust10" class="cluster">
<title>cluster_AppModule_bootstrap</title>
<polygon fill="none" stroke="#000000" points="1143,-287 1143,-339 1267,-339 1267,-287 1143,-287"/>
</g>
<g id="clust18" class="cluster">
<title>cluster_ArchivesModule</title>
<polygon fill="none" stroke="#000000" stroke-dasharray="1,5" points="1726,-70 1726,-206 2070,-206 2070,-70 1726,-70"/>
</g>
<g id="clust19" class="cluster">
<title>cluster_ArchivesModule_declarations</title>
<polygon fill="none" stroke="#000000" points="1914,-78 1914,-130 2062,-130 2062,-78 1914,-78"/>
</g>
<g id="clust21" class="cluster">
<title>cluster_ArchivesModule_imports</title>
<polygon fill="none" stroke="#000000" points="1734,-78 1734,-130 1906,-130 1906,-78 1734,-78"/>
</g>
<g id="clust31" class="cluster">
<title>cluster_CardsModule</title>
<polygon fill="none" stroke="#000000" stroke-dasharray="1,5" points="2078,-70 2078,-279 2848,-279 2848,-70 2078,-70"/>
</g>
<g id="clust32" class="cluster">
<title>cluster_CardsModule_declarations</title>
<polygon fill="none" stroke="#000000" points="2278,-78 2278,-130 2840,-130 2840,-78 2278,-78"/>
</g>
<g id="clust38" class="cluster">
<title>cluster_CardsModule_exports</title>
<polygon fill="none" stroke="#000000" points="2227,-219 2227,-271 2804,-271 2804,-219 2227,-219"/>
</g>
<g id="clust40" class="cluster">
<title>cluster_CardsModule_providers</title>
<polygon fill="none" stroke="#000000" points="2086,-78 2086,-130 2270,-130 2270,-78 2086,-78"/>
</g>
<g id="clust41" class="cluster">
<title>cluster_FeedModule</title>
<polygon fill="none" stroke="#000000" stroke-dasharray="1,5" points="2856,-146 2856,-347 4916,-347 4916,-146 2856,-146"/>
</g>
<g id="clust42" class="cluster">
<title>cluster_FeedModule_declarations</title>
<polygon fill="none" stroke="#000000" points="3020,-154 3020,-206 4908,-206 4908,-154 3020,-154"/>
</g>
<g id="clust55" class="cluster">
<title>cluster_FeedModule_imports</title>
<polygon fill="none" stroke="#000000" points="2864,-154 2864,-206 3012,-206 3012,-154 2864,-154"/>
</g>
<g id="clust56" class="cluster">
<title>cluster_FeedModule_exports</title>
<polygon fill="none" stroke="#000000" points="3755,-287 3755,-339 3883,-339 3883,-287 3755,-287"/>
</g>
<g id="clust65" class="cluster">
<title>cluster_ServicesModule</title>
<polygon fill="none" stroke="#000000" stroke-dasharray="1,5" points="8,-70 8,-138 1393,-138 1393,-70 8,-70"/>
</g>
<g id="clust70" class="cluster">
<title>cluster_ServicesModule_providers</title>
<polygon fill="none" stroke="#000000" points="16,-78 16,-130 1385,-130 1385,-78 16,-78"/>
</g>
<g id="clust71" class="cluster">
<title>cluster_SettingsModule</title>
<polygon fill="none" stroke="#000000" stroke-dasharray="1,5" points="4924,-70 4924,-206 5587,-206 5587,-70 4924,-70"/>
</g>
<g id="clust72" class="cluster">
<title>cluster_SettingsModule_declarations</title>
<polygon fill="none" stroke="#000000" points="5106,-78 5106,-130 5579,-130 5579,-78 5106,-78"/>
</g>
<g id="clust76" class="cluster">
<title>cluster_SettingsModule_imports</title>
<polygon fill="none" stroke="#000000" points="4932,-78 4932,-130 5098,-130 5098,-78 4932,-78"/>
</g>
<g id="clust86" class="cluster">
<title>cluster_StateModule</title>
<polygon fill="none" stroke="#000000" stroke-dasharray="1,5" points="1401,-70 1401,-138 1525,-138 1525,-70 1401,-70"/>
</g>
<g id="clust88" class="cluster">
<title>cluster_StateModule_imports</title>
<polygon fill="none" stroke="#000000" points="1409,-78 1409,-130 1517,-130 1517,-78 1409,-78"/>
</g>
<g id="clust92" class="cluster">
<title>cluster_ThirdpartyModule</title>
<polygon fill="none" stroke="#000000" stroke-dasharray="1,5" points="5595,-70 5595,-206 5977,-206 5977,-70 5595,-70"/>
</g>
<g id="clust93" class="cluster">
<title>cluster_ThirdpartyModule_declarations</title>
<polygon fill="none" stroke="#000000" points="5791,-78 5791,-130 5969,-130 5969,-78 5791,-78"/>
</g>
<g id="clust95" class="cluster">
<title>cluster_ThirdpartyModule_imports</title>
<polygon fill="none" stroke="#000000" points="5603,-78 5603,-130 5783,-130 5783,-78 5603,-78"/>
</g>
<!-- AppComponent -->
<g id="node1" class="node">
<title>AppComponent</title>
<polygon fill="#ffffb3" stroke="#000000" points="1701.9399,-198 1596.0601,-198 1596.0601,-162 1701.9399,-162 1701.9399,-198"/>
<text text-anchor="middle" x="1649" y="-175.8" font-family="Times,serif" font-size="14.00" fill="#000000">AppComponent</text>
</g>
<!-- AppModule -->
<g id="node6" class="node">
<title>AppModule</title>
<polygon fill="#8dd3c7" stroke="#000000" points="1246.6571,-263 1243.6571,-267 1222.6571,-267 1219.6571,-263 1163.3429,-263 1163.3429,-227 1246.6571,-227 1246.6571,-263"/>
<text text-anchor="middle" x="1205" y="-240.8" font-family="Times,serif" font-size="14.00" fill="#000000">AppModule</text>
</g>
<!-- AppComponent&#45;&gt;AppModule -->
<g id="edge1" class="edge">
<title>AppComponent&#45;&gt;AppModule</title>
<path fill="none" stroke="#000000" d="M1649,-198.2921C1649,-220.2057 1649,-254 1649,-254 1649,-254 1256.7704,-254 1256.7704,-254"/>
<polygon fill="#000000" stroke="#000000" points="1256.7705,-250.5001 1246.7704,-254 1256.7704,-257.5001 1256.7705,-250.5001"/>
</g>
<!-- IconComponent -->
<g id="node2" class="node">
<title>IconComponent</title>
<polygon fill="#ffffb3" stroke="#000000" points="1578.2078,-198 1471.7922,-198 1471.7922,-162 1578.2078,-162 1578.2078,-198"/>
<text text-anchor="middle" x="1525" y="-175.8" font-family="Times,serif" font-size="14.00" fill="#000000">IconComponent</text>
</g>
<!-- IconComponent&#45;&gt;AppModule -->
<g id="edge2" class="edge">
<title>IconComponent&#45;&gt;AppModule</title>
<path fill="none" stroke="#000000" d="M1525,-198.1061C1525,-217.3391 1525,-245 1525,-245 1525,-245 1256.8344,-245 1256.8344,-245"/>
<polygon fill="#000000" stroke="#000000" points="1256.8344,-241.5001 1246.8344,-245 1256.8344,-248.5001 1256.8344,-241.5001"/>
</g>
<!-- InfoComponent -->
<g id="node3" class="node">
<title>InfoComponent</title>
<polygon fill="#ffffb3" stroke="#000000" points="1454.1542,-198 1349.8458,-198 1349.8458,-162 1454.1542,-162 1454.1542,-198"/>
<text text-anchor="middle" x="1402" y="-175.8" font-family="Times,serif" font-size="14.00" fill="#000000">InfoComponent</text>
</g>
<!-- InfoComponent&#45;&gt;AppModule -->
<g id="edge3" class="edge">
<title>InfoComponent&#45;&gt;AppModule</title>
<path fill="none" stroke="#000000" d="M1402,-198.027C1402,-214.3976 1402,-236 1402,-236 1402,-236 1256.7786,-236 1256.7786,-236"/>
<polygon fill="#000000" stroke="#000000" points="1256.7787,-232.5001 1246.7786,-236 1256.7786,-239.5001 1256.7787,-232.5001"/>
</g>
<!-- LoginComponent -->
<g id="node4" class="node">
<title>LoginComponent</title>
<polygon fill="#ffffb3" stroke="#000000" points="1331.2758,-198 1216.7242,-198 1216.7242,-162 1331.2758,-162 1331.2758,-198"/>
<text text-anchor="middle" x="1274" y="-175.8" font-family="Times,serif" font-size="14.00" fill="#000000">LoginComponent</text>
</g>
<!-- LoginComponent&#45;&gt;AppModule -->
<g id="edge4" class="edge">
<title>LoginComponent&#45;&gt;AppModule</title>
<path fill="none" stroke="#000000" d="M1231.7202,-198.1061C1231.7202,-198.1061 1231.7202,-216.991 1231.7202,-216.991"/>
<polygon fill="#000000" stroke="#000000" points="1228.2203,-216.9909 1231.7202,-226.991 1235.2203,-216.991 1228.2203,-216.9909"/>
</g>
<!-- NavbarComponent -->
<g id="node5" class="node">
<title>NavbarComponent</title>
<polygon fill="#ffffb3" stroke="#000000" points="1198.0297,-198 1075.9703,-198 1075.9703,-162 1198.0297,-162 1198.0297,-198"/>
<text text-anchor="middle" x="1137" y="-175.8" font-family="Times,serif" font-size="14.00" fill="#000000">NavbarComponent</text>
</g>
<!-- NavbarComponent&#45;&gt;AppModule -->
<g id="edge5" class="edge">
<title>NavbarComponent&#45;&gt;AppModule</title>
<path fill="none" stroke="#000000" d="M1180.7181,-198.1061C1180.7181,-198.1061 1180.7181,-216.991 1180.7181,-216.991"/>
<polygon fill="#000000" stroke="#000000" points="1177.2182,-216.9909 1180.7181,-226.991 1184.2182,-216.991 1177.2182,-216.9909"/>
</g>
<!-- AppComponent  -->
<g id="node10" class="node">
<title>AppComponent </title>
<polygon fill="#80b1d3" stroke="#000000" points="1259.439,-331 1150.561,-331 1150.561,-295 1259.439,-295 1259.439,-331"/>
<text text-anchor="middle" x="1205" y="-308.8" font-family="Times,serif" font-size="14.00" fill="#000000">AppComponent </text>
</g>
<!-- AppModule&#45;&gt;AppComponent  -->
<g id="edge9" class="edge">
<title>AppModule&#45;&gt;AppComponent </title>
<path fill="none" stroke="#000000" stroke-dasharray="1,5" d="M1205,-263.2228C1205,-263.2228 1205,-284.7269 1205,-284.7269"/>
<polygon fill="#000000" stroke="#000000" points="1201.5001,-284.7269 1205,-294.7269 1208.5001,-284.727 1201.5001,-284.7269"/>
</g>
<!-- AppRoutingModule -->
<g id="node7" class="node">
<title>AppRoutingModule</title>
<polygon fill="#8dd3c7" stroke="#000000" points="1052.2744,-198 1049.2744,-202 1028.2744,-202 1025.2744,-198 923.7256,-198 923.7256,-162 1052.2744,-162 1052.2744,-198"/>
<text text-anchor="middle" x="988" y="-175.8" font-family="Times,serif" font-size="14.00" fill="#000000">AppRoutingModule</text>
</g>
<!-- AppRoutingModule&#45;&gt;AppModule -->
<g id="edge6" class="edge">
<title>AppRoutingModule&#45;&gt;AppModule</title>
<path fill="none" stroke="#000000" d="M988,-198.027C988,-214.3976 988,-236 988,-236 988,-236 1153.1602,-236 1153.1602,-236"/>
<polygon fill="#000000" stroke="#000000" points="1153.1603,-239.5001 1163.1602,-236 1153.1602,-232.5001 1153.1603,-239.5001"/>
</g>
<!-- ServicesModule -->
<g id="node8" class="node">
<title>ServicesModule</title>
<polygon fill="#8dd3c7" stroke="#000000" points="800.472,-198 797.472,-202 776.472,-202 773.472,-198 693.528,-198 693.528,-162 800.472,-162 800.472,-198"/>
<text text-anchor="middle" x="747" y="-175.8" font-family="Times,serif" font-size="14.00" fill="#000000">ServicesModule</text>
</g>
<!-- ServicesModule&#45;&gt;AppModule -->
<g id="edge7" class="edge">
<title>ServicesModule&#45;&gt;AppModule</title>
<path fill="none" stroke="#000000" d="M747,-198.2921C747,-220.2057 747,-254 747,-254 747,-254 1153.1414,-254 1153.1414,-254"/>
<polygon fill="#000000" stroke="#000000" points="1153.1414,-257.5001 1163.1414,-254 1153.1414,-250.5001 1153.1414,-257.5001"/>
</g>
<!-- StateModule -->
<g id="node9" class="node">
<title>StateModule</title>
<polygon fill="#8dd3c7" stroke="#000000" points="905.544,-198 902.544,-202 881.544,-202 878.544,-198 818.456,-198 818.456,-162 905.544,-162 905.544,-198"/>
<text text-anchor="middle" x="862" y="-175.8" font-family="Times,serif" font-size="14.00" fill="#000000">StateModule</text>
</g>
<!-- StateModule&#45;&gt;AppModule -->
<g id="edge8" class="edge">
<title>StateModule&#45;&gt;AppModule</title>
<path fill="none" stroke="#000000" d="M862,-198.1061C862,-217.3391 862,-245 862,-245 862,-245 1153.2844,-245 1153.2844,-245"/>
<polygon fill="#000000" stroke="#000000" points="1153.2844,-248.5001 1163.2844,-245 1153.2843,-241.5001 1153.2844,-248.5001"/>
</g>
<!-- ArchivesComponent -->
<g id="node11" class="node">
<title>ArchivesComponent</title>
<polygon fill="#ffffb3" stroke="#000000" points="2053.8641,-122 1922.1359,-122 1922.1359,-86 2053.8641,-86 2053.8641,-122"/>
<text text-anchor="middle" x="1988" y="-99.8" font-family="Times,serif" font-size="14.00" fill="#000000">ArchivesComponent</text>
</g>
<!-- ArchivesModule -->
<g id="node12" class="node">
<title>ArchivesModule</title>
<polygon fill="#8dd3c7" stroke="#000000" points="1959.0814,-198 1956.0814,-202 1935.0814,-202 1932.0814,-198 1848.9186,-198 1848.9186,-162 1959.0814,-162 1959.0814,-198"/>
<text text-anchor="middle" x="1904" y="-175.8" font-family="Times,serif" font-size="14.00" fill="#000000">ArchivesModule</text>
</g>
<!-- ArchivesComponent&#45;&gt;ArchivesModule -->
<g id="edge10" class="edge">
<title>ArchivesComponent&#45;&gt;ArchivesModule</title>
<path fill="none" stroke="#000000" d="M1940.5544,-122.0109C1940.5544,-122.0109 1940.5544,-151.855 1940.5544,-151.855"/>
<polygon fill="#000000" stroke="#000000" points="1937.0544,-151.8549 1940.5544,-161.855 1944.0544,-151.855 1937.0544,-151.8549"/>
</g>
<!-- ArchivesRoutingModule -->
<g id="node13" class="node">
<title>ArchivesRoutingModule</title>
<polygon fill="#8dd3c7" stroke="#000000" points="1897.6993,-122 1894.6993,-126 1873.6993,-126 1870.6993,-122 1742.3007,-122 1742.3007,-86 1897.6993,-86 1897.6993,-122"/>
<text text-anchor="middle" x="1820" y="-99.8" font-family="Times,serif" font-size="14.00" fill="#000000">ArchivesRoutingModule</text>
</g>
<!-- ArchivesRoutingModule&#45;&gt;ArchivesModule -->
<g id="edge11" class="edge">
<title>ArchivesRoutingModule&#45;&gt;ArchivesModule</title>
<path fill="none" stroke="#000000" d="M1873.2795,-122.0109C1873.2795,-122.0109 1873.2795,-151.855 1873.2795,-151.855"/>
<polygon fill="#000000" stroke="#000000" points="1869.7795,-151.8549 1873.2795,-161.855 1876.7795,-151.855 1869.7795,-151.8549"/>
</g>
<!-- CardComponent -->
<g id="node14" class="node">
<title>CardComponent</title>
<polygon fill="#ffffb3" stroke="#000000" points="2832.0452,-122 2723.9548,-122 2723.9548,-86 2832.0452,-86 2832.0452,-122"/>
<text text-anchor="middle" x="2778" y="-99.8" font-family="Times,serif" font-size="14.00" fill="#000000">CardComponent</text>
</g>
<!-- CardsModule -->
<g id="node18" class="node">
<title>CardsModule</title>
<polygon fill="#8dd3c7" stroke="#000000" points="2600.2064,-198 2597.2064,-202 2576.2064,-202 2573.2064,-198 2507.7936,-198 2507.7936,-162 2600.2064,-162 2600.2064,-198"/>
<text text-anchor="middle" x="2554" y="-175.8" font-family="Times,serif" font-size="14.00" fill="#000000">CardsModule</text>
</g>
<!-- CardComponent&#45;&gt;CardsModule -->
<g id="edge12" class="edge">
<title>CardComponent&#45;&gt;CardsModule</title>
<path fill="none" stroke="#000000" d="M2759.875,-122.308C2759.875,-142.1455 2759.875,-171 2759.875,-171 2759.875,-171 2610.2024,-171 2610.2024,-171"/>
<polygon fill="#000000" stroke="#000000" points="2610.2024,-167.5001 2600.2024,-171 2610.2023,-174.5001 2610.2024,-167.5001"/>
</g>
<!-- CardDetailsComponent -->
<g id="node15" class="node">
<title>CardDetailsComponent</title>
<polygon fill="#ffffb3" stroke="#000000" points="2706.1965,-122 2557.8035,-122 2557.8035,-86 2706.1965,-86 2706.1965,-122"/>
<text text-anchor="middle" x="2632" y="-99.8" font-family="Times,serif" font-size="14.00" fill="#000000">CardDetailsComponent</text>
</g>
<!-- CardDetailsComponent&#45;&gt;CardsModule -->
<g id="edge13" class="edge">
<title>CardDetailsComponent&#45;&gt;CardsModule</title>
<path fill="none" stroke="#000000" d="M2579.0025,-122.0109C2579.0025,-122.0109 2579.0025,-151.855 2579.0025,-151.855"/>
<polygon fill="#000000" stroke="#000000" points="2575.5025,-151.8549 2579.0025,-161.855 2582.5025,-151.855 2575.5025,-151.8549"/>
</g>
<!-- DetailComponent -->
<g id="node16" class="node">
<title>DetailComponent</title>
<polygon fill="#ffffb3" stroke="#000000" points="2539.5409,-122 2424.4591,-122 2424.4591,-86 2539.5409,-86 2539.5409,-122"/>
<text text-anchor="middle" x="2482" y="-99.8" font-family="Times,serif" font-size="14.00" fill="#000000">DetailComponent</text>
</g>
<!-- DetailComponent&#45;&gt;CardsModule -->
<g id="edge14" class="edge">
<title>DetailComponent&#45;&gt;CardsModule</title>
<path fill="none" stroke="#000000" d="M2523.8335,-122.0109C2523.8335,-122.0109 2523.8335,-151.855 2523.8335,-151.855"/>
<polygon fill="#000000" stroke="#000000" points="2520.3335,-151.8549 2523.8335,-161.855 2527.3335,-151.855 2520.3335,-151.8549"/>
</g>
<!-- DetailsComponent -->
<g id="node17" class="node">
<title>DetailsComponent</title>
<polygon fill="#ffffb3" stroke="#000000" points="2406.4846,-122 2285.5154,-122 2285.5154,-86 2406.4846,-86 2406.4846,-122"/>
<text text-anchor="middle" x="2346" y="-99.8" font-family="Times,serif" font-size="14.00" fill="#000000">DetailsComponent</text>
</g>
<!-- DetailsComponent&#45;&gt;CardsModule -->
<g id="edge15" class="edge">
<title>DetailsComponent&#45;&gt;CardsModule</title>
<path fill="none" stroke="#000000" d="M2391.9861,-122.0348C2391.9861,-141.5762 2391.9861,-170 2391.9861,-170 2391.9861,-170 2497.5733,-170 2497.5733,-170"/>
<polygon fill="#000000" stroke="#000000" points="2497.5734,-173.5001 2507.5733,-170 2497.5733,-166.5001 2497.5734,-173.5001"/>
</g>
<!-- CardComponent  -->
<g id="node19" class="node">
<title>CardComponent </title>
<polygon fill="#fb8072" stroke="#000000" points="2796.0442,-263 2683.9558,-263 2683.9558,-227 2796.0442,-227 2796.0442,-263"/>
<text text-anchor="middle" x="2740" y="-240.8" font-family="Times,serif" font-size="14.00" fill="#000000">CardComponent </text>
</g>
<!-- CardsModule&#45;&gt;CardComponent  -->
<g id="edge16" class="edge">
<title>CardsModule&#45;&gt;CardComponent </title>
<path fill="none" stroke="#000000" stroke-dasharray="5,2" d="M2600.1811,-189C2641.3138,-189 2695.0381,-189 2695.0381,-189 2695.0381,-189 2695.0381,-216.973 2695.0381,-216.973"/>
<polygon fill="#000000" stroke="#000000" points="2691.5381,-216.973 2695.0381,-226.973 2698.5381,-216.973 2691.5381,-216.973"/>
</g>
<!-- CardDetailsComponent  -->
<g id="node20" class="node">
<title>CardDetailsComponent </title>
<polygon fill="#fb8072" stroke="#000000" points="2665.6967,-263 2514.3033,-263 2514.3033,-227 2665.6967,-227 2665.6967,-263"/>
<text text-anchor="middle" x="2590" y="-240.8" font-family="Times,serif" font-size="14.00" fill="#000000">CardDetailsComponent </text>
</g>
<!-- CardsModule&#45;&gt;CardDetailsComponent  -->
<g id="edge17" class="edge">
<title>CardsModule&#45;&gt;CardDetailsComponent </title>
<path fill="none" stroke="#000000" stroke-dasharray="5,2" d="M2557.1275,-198.1061C2557.1275,-198.1061 2557.1275,-216.991 2557.1275,-216.991"/>
<polygon fill="#000000" stroke="#000000" points="2553.6275,-216.9909 2557.1275,-226.991 2560.6275,-216.991 2553.6275,-216.9909"/>
</g>
<!-- DetailComponent  -->
<g id="node21" class="node">
<title>DetailComponent </title>
<polygon fill="#fb8072" stroke="#000000" points="2496.54,-263 2377.46,-263 2377.46,-227 2496.54,-227 2496.54,-263"/>
<text text-anchor="middle" x="2437" y="-240.8" font-family="Times,serif" font-size="14.00" fill="#000000">DetailComponent </text>
</g>
<!-- CardsModule&#45;&gt;DetailComponent  -->
<g id="edge18" class="edge">
<title>CardsModule&#45;&gt;DetailComponent </title>
<path fill="none" stroke="#000000" stroke-dasharray="5,2" d="M2507.7361,-191C2484.1484,-191 2460.375,-191 2460.375,-191 2460.375,-191 2460.375,-216.7181 2460.375,-216.7181"/>
<polygon fill="#000000" stroke="#000000" points="2456.8751,-216.718 2460.375,-226.7181 2463.8751,-216.7181 2456.8751,-216.718"/>
</g>
<!-- DetailsComponent  -->
<g id="node22" class="node">
<title>DetailsComponent </title>
<polygon fill="#fb8072" stroke="#000000" points="2359.4855,-263 2234.5145,-263 2234.5145,-227 2359.4855,-227 2359.4855,-263"/>
<text text-anchor="middle" x="2297" y="-240.8" font-family="Times,serif" font-size="14.00" fill="#000000">DetailsComponent </text>
</g>
<!-- CardsModule&#45;&gt;DetailsComponent  -->
<g id="edge19" class="edge">
<title>CardsModule&#45;&gt;DetailsComponent </title>
<path fill="none" stroke="#000000" stroke-dasharray="5,2" d="M2507.6839,-184C2440.0898,-184 2322.375,-184 2322.375,-184 2322.375,-184 2322.375,-216.698 2322.375,-216.698"/>
<polygon fill="#000000" stroke="#000000" points="2318.8751,-216.698 2322.375,-226.698 2325.8751,-216.698 2318.8751,-216.698"/>
</g>
<!-- FeedModule -->
<g id="node36" class="node">
<title>FeedModule</title>
<polygon fill="#8dd3c7" stroke="#000000" points="3862.2619,-263 3859.2619,-267 3838.2619,-267 3835.2619,-263 3775.7381,-263 3775.7381,-227 3862.2619,-227 3862.2619,-263"/>
<text text-anchor="middle" x="3819" y="-240.8" font-family="Times,serif" font-size="14.00" fill="#000000">FeedModule</text>
</g>
<!-- CardsModule&#45;&gt;FeedModule -->
<g id="edge33" class="edge">
<title>CardsModule&#45;&gt;FeedModule</title>
<path fill="none" stroke="#000000" d="M2600.2613,-180C2684.0107,-180 2852.1662,-180 2852.1662,-180 2852.1662,-180 2852.1662,-258 2852.1662,-258 2852.1662,-258 3765.5789,-258 3765.5789,-258"/>
<polygon fill="#000000" stroke="#000000" points="3765.5789,-261.5001 3775.5789,-258 3765.5789,-254.5001 3765.5789,-261.5001"/>
</g>
<!-- HandlebarsService -->
<g id="node23" class="node">
<title>HandlebarsService</title>
<ellipse fill="#fdb462" stroke="#000000" cx="2178" cy="-104" rx="83.9257" ry="18"/>
<text text-anchor="middle" x="2178" y="-99.8" font-family="Times,serif" font-size="14.00" fill="#000000">HandlebarsService</text>
</g>
<!-- HandlebarsService&#45;&gt;CardsModule -->
<g id="edge20" class="edge">
<title>HandlebarsService&#45;&gt;CardsModule</title>
<path fill="none" stroke="#000000" d="M2248.3603,-113.8451C2248.3603,-133.771 2248.3603,-177 2248.3603,-177 2248.3603,-177 2497.5799,-177 2497.5799,-177"/>
<polygon fill="#000000" stroke="#000000" points="2497.5799,-180.5001 2507.5799,-177 2497.5799,-173.5001 2497.5799,-180.5001"/>
</g>
<!-- CardListComponent -->
<g id="node24" class="node">
<title>CardListComponent</title>
<polygon fill="#ffffb3" stroke="#000000" points="4900.323,-198 4769.677,-198 4769.677,-162 4900.323,-162 4900.323,-198"/>
<text text-anchor="middle" x="4835" y="-175.8" font-family="Times,serif" font-size="14.00" fill="#000000">CardListComponent</text>
</g>
<!-- CardListComponent&#45;&gt;FeedModule -->
<g id="edge21" class="edge">
<title>CardListComponent&#45;&gt;FeedModule</title>
<path fill="none" stroke="#000000" d="M4835,-198.0908C4835,-221.1328 4835,-258 4835,-258 4835,-258 3872.3312,-258 3872.3312,-258"/>
<polygon fill="#000000" stroke="#000000" points="3872.3313,-254.5001 3862.3312,-258 3872.3312,-261.5001 3872.3313,-254.5001"/>
</g>
<!-- CustomTimelineChartComponent -->
<g id="node25" class="node">
<title>CustomTimelineChartComponent</title>
<polygon fill="#ffffb3" stroke="#000000" points="4752.0419,-198 4545.9581,-198 4545.9581,-162 4752.0419,-162 4752.0419,-198"/>
<text text-anchor="middle" x="4649" y="-175.8" font-family="Times,serif" font-size="14.00" fill="#000000">CustomTimelineChartComponent</text>
</g>
<!-- CustomTimelineChartComponent&#45;&gt;FeedModule -->
<g id="edge22" class="edge">
<title>CustomTimelineChartComponent&#45;&gt;FeedModule</title>
<path fill="none" stroke="#000000" d="M4649,-198.0449C4649,-219.6623 4649,-253 4649,-253 4649,-253 3872.4558,-253 3872.4558,-253"/>
<polygon fill="#000000" stroke="#000000" points="3872.4558,-249.5001 3862.4558,-253 3872.4558,-256.5001 3872.4558,-249.5001"/>
</g>
<!-- DraggableDirective -->
<g id="node26" class="node">
<title>DraggableDirective</title>
<polygon fill="#ffffb3" stroke="#000000" points="4528.385,-198 4401.615,-198 4401.615,-162 4528.385,-162 4528.385,-198"/>
<text text-anchor="middle" x="4465" y="-175.8" font-family="Times,serif" font-size="14.00" fill="#000000">DraggableDirective</text>
</g>
<!-- DraggableDirective&#45;&gt;FeedModule -->
<g id="edge23" class="edge">
<title>DraggableDirective&#45;&gt;FeedModule</title>
<path fill="none" stroke="#000000" d="M4465,-198.2228C4465,-218.3652 4465,-248 4465,-248 4465,-248 3872.389,-248 3872.389,-248"/>
<polygon fill="#000000" stroke="#000000" points="3872.389,-244.5001 3862.389,-248 3872.3889,-251.5001 3872.389,-244.5001"/>
</g>
<!-- FeedComponent -->
<g id="node27" class="node">
<title>FeedComponent</title>
<polygon fill="#ffffb3" stroke="#000000" points="4384.0452,-198 4275.9548,-198 4275.9548,-162 4384.0452,-162 4384.0452,-198"/>
<text text-anchor="middle" x="4330" y="-175.8" font-family="Times,serif" font-size="14.00" fill="#000000">FeedComponent</text>
</g>
<!-- FeedComponent&#45;&gt;FeedModule -->
<g id="edge24" class="edge">
<title>FeedComponent&#45;&gt;FeedModule</title>
<path fill="none" stroke="#000000" d="M4330,-198.2222C4330,-216.8285 4330,-243 4330,-243 4330,-243 3872.5676,-243 3872.5676,-243"/>
<polygon fill="#000000" stroke="#000000" points="3872.5676,-239.5001 3862.5676,-243 3872.5675,-246.5001 3872.5676,-239.5001"/>
</g>
<!-- FiltersComponent -->
<g id="node28" class="node">
<title>FiltersComponent</title>
<polygon fill="#ffffb3" stroke="#000000" points="4257.6066,-198 4140.3934,-198 4140.3934,-162 4257.6066,-162 4257.6066,-198"/>
<text text-anchor="middle" x="4199" y="-175.8" font-family="Times,serif" font-size="14.00" fill="#000000">FiltersComponent</text>
</g>
<!-- FiltersComponent&#45;&gt;FeedModule -->
<g id="edge25" class="edge">
<title>FiltersComponent&#45;&gt;FeedModule</title>
<path fill="none" stroke="#000000" d="M4199,-198.0336C4199,-215.0597 4199,-238 4199,-238 4199,-238 3872.5908,-238 3872.5908,-238"/>
<polygon fill="#000000" stroke="#000000" points="3872.5909,-234.5001 3862.5908,-238 3872.5908,-241.5001 3872.5909,-234.5001"/>
</g>
<!-- InitChartComponent -->
<g id="node29" class="node">
<title>InitChartComponent</title>
<polygon fill="#ffffb3" stroke="#000000" points="4122.8767,-198 3991.1233,-198 3991.1233,-162 4122.8767,-162 4122.8767,-198"/>
<text text-anchor="middle" x="4057" y="-175.8" font-family="Times,serif" font-size="14.00" fill="#000000">InitChartComponent</text>
</g>
<!-- InitChartComponent&#45;&gt;FeedModule -->
<g id="edge26" class="edge">
<title>InitChartComponent&#45;&gt;FeedModule</title>
<path fill="none" stroke="#000000" d="M4057,-198.2396C4057,-213.5706 4057,-233 4057,-233 4057,-233 3872.3761,-233 3872.3761,-233"/>
<polygon fill="#000000" stroke="#000000" points="3872.3762,-229.5001 3862.3761,-233 3872.3761,-236.5001 3872.3762,-229.5001"/>
</g>
<!-- MouseWheelDirective -->
<g id="node30" class="node">
<title>MouseWheelDirective</title>
<polygon fill="#ffffb3" stroke="#000000" points="3973.2213,-198 3830.7787,-198 3830.7787,-162 3973.2213,-162 3973.2213,-198"/>
<text text-anchor="middle" x="3902" y="-175.8" font-family="Times,serif" font-size="14.00" fill="#000000">MouseWheelDirective</text>
</g>
<!-- MouseWheelDirective&#45;&gt;FeedModule -->
<g id="edge27" class="edge">
<title>MouseWheelDirective&#45;&gt;FeedModule</title>
<path fill="none" stroke="#000000" d="M3846.5102,-198.1061C3846.5102,-198.1061 3846.5102,-216.991 3846.5102,-216.991"/>
<polygon fill="#000000" stroke="#000000" points="3843.0102,-216.9909 3846.5102,-226.991 3850.0102,-216.991 3843.0102,-216.9909"/>
</g>
<!-- NoSelectionComponent -->
<g id="node31" class="node">
<title>NoSelectionComponent</title>
<polygon fill="#ffffb3" stroke="#000000" points="3812.0379,-198 3661.9621,-198 3661.9621,-162 3812.0379,-162 3812.0379,-198"/>
<text text-anchor="middle" x="3737" y="-175.8" font-family="Times,serif" font-size="14.00" fill="#000000">NoSelectionComponent</text>
</g>
<!-- NoSelectionComponent&#45;&gt;FeedModule -->
<g id="edge28" class="edge">
<title>NoSelectionComponent&#45;&gt;FeedModule</title>
<path fill="none" stroke="#000000" d="M3793.9439,-198.1061C3793.9439,-198.1061 3793.9439,-216.991 3793.9439,-216.991"/>
<polygon fill="#000000" stroke="#000000" points="3790.444,-216.9909 3793.9439,-226.991 3797.444,-216.991 3790.444,-216.9909"/>
</g>
<!-- TimeFilterComponent -->
<g id="node32" class="node">
<title>TimeFilterComponent</title>
<polygon fill="#ffffb3" stroke="#000000" points="3643.7106,-198 3502.2894,-198 3502.2894,-162 3643.7106,-162 3643.7106,-198"/>
<text text-anchor="middle" x="3573" y="-175.8" font-family="Times,serif" font-size="14.00" fill="#000000">TimeFilterComponent</text>
</g>
<!-- TimeFilterComponent&#45;&gt;FeedModule -->
<g id="edge29" class="edge">
<title>TimeFilterComponent&#45;&gt;FeedModule</title>
<path fill="none" stroke="#000000" d="M3573,-198.2396C3573,-213.5706 3573,-233 3573,-233 3573,-233 3765.5864,-233 3765.5864,-233"/>
<polygon fill="#000000" stroke="#000000" points="3765.5864,-236.5001 3775.5864,-233 3765.5864,-229.5001 3765.5864,-236.5001"/>
</g>
<!-- TimeLineComponent -->
<g id="node33" class="node">
<title>TimeLineComponent</title>
<polygon fill="#ffffb3" stroke="#000000" points="3484.0394,-198 3347.9606,-198 3347.9606,-162 3484.0394,-162 3484.0394,-198"/>
<text text-anchor="middle" x="3416" y="-175.8" font-family="Times,serif" font-size="14.00" fill="#000000">TimeLineComponent</text>
</g>
<!-- TimeLineComponent&#45;&gt;FeedModule -->
<g id="edge30" class="edge">
<title>TimeLineComponent&#45;&gt;FeedModule</title>
<path fill="none" stroke="#000000" d="M3416,-198.0336C3416,-215.0597 3416,-238 3416,-238 3416,-238 3765.489,-238 3765.489,-238"/>
<polygon fill="#000000" stroke="#000000" points="3765.4891,-241.5001 3775.489,-238 3765.489,-234.5001 3765.4891,-241.5001"/>
</g>
<!-- TypeFilterComponent -->
<g id="node34" class="node">
<title>TypeFilterComponent</title>
<polygon fill="#ffffb3" stroke="#000000" points="3330.4299,-198 3189.5701,-198 3189.5701,-162 3330.4299,-162 3330.4299,-198"/>
<text text-anchor="middle" x="3260" y="-175.8" font-family="Times,serif" font-size="14.00" fill="#000000">TypeFilterComponent</text>
</g>
<!-- TypeFilterComponent&#45;&gt;FeedModule -->
<g id="edge31" class="edge">
<title>TypeFilterComponent&#45;&gt;FeedModule</title>
<path fill="none" stroke="#000000" d="M3260,-198.2222C3260,-216.8285 3260,-243 3260,-243 3260,-243 3765.6014,-243 3765.6014,-243"/>
<polygon fill="#000000" stroke="#000000" points="3765.6014,-246.5001 3775.6014,-243 3765.6013,-239.5001 3765.6014,-246.5001"/>
</g>
<!-- XAxisTickFormatPipe -->
<g id="node35" class="node">
<title>XAxisTickFormatPipe</title>
<polygon fill="#ffffb3" stroke="#000000" points="3171.5338,-198 3028.4662,-198 3028.4662,-162 3171.5338,-162 3171.5338,-198"/>
<text text-anchor="middle" x="3100" y="-175.8" font-family="Times,serif" font-size="14.00" fill="#000000">XAxisTickFormatPipe</text>
</g>
<!-- XAxisTickFormatPipe&#45;&gt;FeedModule -->
<g id="edge32" class="edge">
<title>XAxisTickFormatPipe&#45;&gt;FeedModule</title>
<path fill="none" stroke="#000000" d="M3100,-198.2228C3100,-218.3652 3100,-248 3100,-248 3100,-248 3765.6425,-248 3765.6425,-248"/>
<polygon fill="#000000" stroke="#000000" points="3765.6426,-251.5001 3775.6425,-248 3765.6425,-244.5001 3765.6426,-251.5001"/>
</g>
<!-- FeedComponent  -->
<g id="node38" class="node">
<title>FeedComponent </title>
<polygon fill="#fb8072" stroke="#000000" points="3875.0442,-331 3762.9558,-331 3762.9558,-295 3875.0442,-295 3875.0442,-331"/>
<text text-anchor="middle" x="3819" y="-308.8" font-family="Times,serif" font-size="14.00" fill="#000000">FeedComponent </text>
</g>
<!-- FeedModule&#45;&gt;FeedComponent  -->
<g id="edge35" class="edge">
<title>FeedModule&#45;&gt;FeedComponent </title>
<path fill="none" stroke="#000000" stroke-dasharray="5,2" d="M3819,-263.2228C3819,-263.2228 3819,-284.7269 3819,-284.7269"/>
<polygon fill="#000000" stroke="#000000" points="3815.5001,-284.7269 3819,-294.7269 3822.5001,-284.727 3815.5001,-284.7269"/>
</g>
<!-- FeedRoutingModule -->
<g id="node37" class="node">
<title>FeedRoutingModule</title>
<polygon fill="#8dd3c7" stroke="#000000" points="3003.8795,-198 3000.8795,-202 2979.8795,-202 2976.8795,-198 2872.1205,-198 2872.1205,-162 3003.8795,-162 3003.8795,-198"/>
<text text-anchor="middle" x="2938" y="-175.8" font-family="Times,serif" font-size="14.00" fill="#000000">FeedRoutingModule</text>
</g>
<!-- FeedRoutingModule&#45;&gt;FeedModule -->
<g id="edge34" class="edge">
<title>FeedRoutingModule&#45;&gt;FeedModule</title>
<path fill="none" stroke="#000000" d="M2938,-198.0449C2938,-219.6623 2938,-253 2938,-253 2938,-253 3765.6116,-253 3765.6116,-253"/>
<polygon fill="#000000" stroke="#000000" points="3765.6116,-256.5001 3775.6116,-253 3765.6115,-249.5001 3765.6116,-256.5001"/>
</g>
<!-- AuthenticationService -->
<g id="node39" class="node">
<title>AuthenticationService</title>
<ellipse fill="#fdb462" stroke="#000000" cx="1280" cy="-104" rx="97.2683" ry="18"/>
<text text-anchor="middle" x="1280" y="-99.8" font-family="Times,serif" font-size="14.00" fill="#000000">AuthenticationService</text>
</g>
<!-- AuthenticationService&#45;&gt;ServicesModule -->
<g id="edge36" class="edge">
<title>AuthenticationService&#45;&gt;ServicesModule</title>
<path fill="none" stroke="#000000" d="M1190.4402,-111.3158C1190.4402,-123.3491 1190.4402,-146 1190.4402,-146 1190.4402,-146 791.4063,-146 791.4063,-146 791.4063,-146 791.4063,-151.8056 791.4063,-151.8056"/>
<polygon fill="#000000" stroke="#000000" points="787.9064,-151.8055 791.4063,-161.8056 794.9064,-151.8056 787.9064,-151.8055"/>
</g>
<!-- CardService -->
<g id="node40" class="node">
<title>CardService</title>
<ellipse fill="#fdb462" stroke="#000000" cx="1106" cy="-104" rx="58.5251" ry="18"/>
<text text-anchor="middle" x="1106" y="-99.8" font-family="Times,serif" font-size="14.00" fill="#000000">CardService</text>
</g>
<!-- CardService&#45;&gt;ServicesModule -->
<g id="edge37" class="edge">
<title>CardService&#45;&gt;ServicesModule</title>
<path fill="none" stroke="#000000" d="M1064.0614,-116.6603C1064.0614,-126.327 1064.0614,-138 1064.0614,-138 1064.0614,-138 782.3265,-138 782.3265,-138 782.3265,-138 782.3265,-151.9445 782.3265,-151.9445"/>
<polygon fill="#000000" stroke="#000000" points="778.8266,-151.9444 782.3265,-161.9445 785.8266,-151.9445 778.8266,-151.9444"/>
</g>
<!-- ConfigService -->
<g id="node41" class="node">
<title>ConfigService</title>
<ellipse fill="#fdb462" stroke="#000000" cx="962" cy="-104" rx="66.6325" ry="18"/>
<text text-anchor="middle" x="962" y="-99.8" font-family="Times,serif" font-size="14.00" fill="#000000">ConfigService</text>
</g>
<!-- ConfigService&#45;&gt;ServicesModule -->
<g id="edge38" class="edge">
<title>ConfigService&#45;&gt;ServicesModule</title>
<path fill="none" stroke="#000000" d="M898.7131,-110.0303C898.7131,-117.7109 898.7131,-130 898.7131,-130 898.7131,-130 773.2468,-130 773.2468,-130 773.2468,-130 773.2468,-151.9489 773.2468,-151.9489"/>
<polygon fill="#000000" stroke="#000000" points="769.7469,-151.9488 773.2468,-161.9489 776.7469,-151.9489 769.7469,-151.9488"/>
</g>
<!-- FilterService -->
<g id="node42" class="node">
<title>FilterService</title>
<ellipse fill="#fdb462" stroke="#000000" cx="816" cy="-104" rx="60.8255" ry="18"/>
<text text-anchor="middle" x="816" y="-99.8" font-family="Times,serif" font-size="14.00" fill="#000000">FilterService</text>
</g>
<!-- FilterService&#45;&gt;ServicesModule -->
<g id="edge39" class="edge">
<title>FilterService&#45;&gt;ServicesModule</title>
<path fill="none" stroke="#000000" d="M764.167,-113.6255C764.167,-113.6255 764.167,-151.7493 764.167,-151.7493"/>
<polygon fill="#000000" stroke="#000000" points="760.6671,-151.7492 764.167,-161.7493 767.6671,-151.7493 760.6671,-151.7492"/>
</g>
<!-- I18nService -->
<g id="node43" class="node">
<title>I18nService</title>
<ellipse fill="#fdb462" stroke="#000000" cx="679" cy="-104" rx="57.8849" ry="18"/>
<text text-anchor="middle" x="679" y="-99.8" font-family="Times,serif" font-size="14.00" fill="#000000">I18nService</text>
</g>
<!-- I18nService&#45;&gt;ServicesModule -->
<g id="edge40" class="edge">
<title>I18nService&#45;&gt;ServicesModule</title>
<path fill="none" stroke="#000000" d="M715.1031,-118.295C715.1031,-118.295 715.1031,-151.7342 715.1031,-151.7342"/>
<polygon fill="#000000" stroke="#000000" points="711.6032,-151.7341 715.1031,-161.7342 718.6032,-151.7342 711.6032,-151.7341"/>
</g>
<!-- SettingsService -->
<g id="node44" class="node">
<title>SettingsService</title>
<ellipse fill="#fdb462" stroke="#000000" cx="532" cy="-104" rx="71.221" ry="18"/>
<text text-anchor="middle" x="532" y="-99.8" font-family="Times,serif" font-size="14.00" fill="#000000">SettingsService</text>
</g>
<!-- SettingsService&#45;&gt;ServicesModule -->
<g id="edge41" class="edge">
<title>SettingsService&#45;&gt;ServicesModule</title>
<path fill="none" stroke="#000000" d="M532,-122.0348C532,-141.5762 532,-170 532,-170 532,-170 683.301,-170 683.301,-170"/>
<polygon fill="#000000" stroke="#000000" points="683.3011,-173.5001 693.301,-170 683.301,-166.5001 683.3011,-173.5001"/>
</g>
<!-- ThirdsService -->
<g id="node45" class="node">
<title>ThirdsService</title>
<ellipse fill="#fdb462" stroke="#000000" cx="378" cy="-104" rx="65.4053" ry="18"/>
<text text-anchor="middle" x="378" y="-99.8" font-family="Times,serif" font-size="14.00" fill="#000000">ThirdsService</text>
</g>
<!-- ThirdsService&#45;&gt;ServicesModule -->
<g id="edge42" class="edge">
<title>ThirdsService&#45;&gt;ServicesModule</title>
<path fill="none" stroke="#000000" d="M378,-122.0449C378,-143.6623 378,-177 378,-177 378,-177 683.3442,-177 683.3442,-177"/>
<polygon fill="#000000" stroke="#000000" points="683.3443,-180.5001 693.3442,-177 683.3442,-173.5001 683.3443,-180.5001"/>
</g>
<!-- TimeService -->
<g id="node46" class="node">
<title>TimeService</title>
<ellipse fill="#fdb462" stroke="#000000" cx="234" cy="-104" rx="60.2479" ry="18"/>
<text text-anchor="middle" x="234" y="-99.8" font-family="Times,serif" font-size="14.00" fill="#000000">TimeService</text>
</g>
<!-- TimeService&#45;&gt;ServicesModule -->
<g id="edge43" class="edge">
<title>TimeService&#45;&gt;ServicesModule</title>
<path fill="none" stroke="#000000" d="M234,-122.1532C234,-145.7566 234,-184 234,-184 234,-184 683.0696,-184 683.0696,-184"/>
<polygon fill="#000000" stroke="#000000" points="683.0696,-187.5001 693.0696,-184 683.0696,-180.5001 683.0696,-187.5001"/>
</g>
<!-- TokenInjector -->
<g id="node47" class="node">
<title>TokenInjector</title>
<ellipse fill="#fdb462" stroke="#000000" cx="90" cy="-104" rx="65.9716" ry="18"/>
<text text-anchor="middle" x="90" y="-99.8" font-family="Times,serif" font-size="14.00" fill="#000000">TokenInjector</text>
</g>
<!-- TokenInjector&#45;&gt;ServicesModule -->
<g id="edge44" class="edge">
<title>TokenInjector&#45;&gt;ServicesModule</title>
<path fill="none" stroke="#000000" d="M90,-122.0265C90,-147.5093 90,-191 90,-191 90,-191 683.5135,-191 683.5135,-191"/>
<polygon fill="#000000" stroke="#000000" points="683.5135,-194.5001 693.5135,-191 683.5135,-187.5001 683.5135,-194.5001"/>
</g>
<!-- BaseSettingComponent -->
<g id="node48" class="node">
<title>BaseSettingComponent</title>
<polygon fill="#ffffb3" stroke="#000000" points="5571.212,-122 5422.788,-122 5422.788,-86 5571.212,-86 5571.212,-122"/>
<text text-anchor="middle" x="5497" y="-99.8" font-family="Times,serif" font-size="14.00" fill="#000000">BaseSettingComponent</text>
</g>
<!-- SettingsModule -->
<g id="node51" class="node">
<title>SettingsModule</title>
<polygon fill="#8dd3c7" stroke="#000000" points="5316.1639,-198 5313.1639,-202 5292.1639,-202 5289.1639,-198 5211.8361,-198 5211.8361,-162 5316.1639,-162 5316.1639,-198"/>
<text text-anchor="middle" x="5264" y="-175.8" font-family="Times,serif" font-size="14.00" fill="#000000">SettingsModule</text>
</g>
<!-- BaseSettingComponent&#45;&gt;SettingsModule -->
<g id="edge45" class="edge">
<title>BaseSettingComponent&#45;&gt;SettingsModule</title>
<path fill="none" stroke="#000000" d="M5497,-122.0109C5497,-144.4852 5497,-180 5497,-180 5497,-180 5326.2897,-180 5326.2897,-180"/>
<polygon fill="#000000" stroke="#000000" points="5326.2898,-176.5001 5316.2897,-180 5326.2897,-183.5001 5326.2898,-176.5001"/>
</g>
<!-- SettingsComponent -->
<g id="node49" class="node">
<title>SettingsComponent</title>
<polygon fill="#ffffb3" stroke="#000000" points="5405.4468,-122 5278.5532,-122 5278.5532,-86 5405.4468,-86 5405.4468,-122"/>
<text text-anchor="middle" x="5342" y="-99.8" font-family="Times,serif" font-size="14.00" fill="#000000">SettingsComponent</text>
</g>
<!-- SettingsComponent&#45;&gt;SettingsModule -->
<g id="edge46" class="edge">
<title>SettingsComponent&#45;&gt;SettingsModule</title>
<path fill="none" stroke="#000000" d="M5297.5544,-122.0109C5297.5544,-122.0109 5297.5544,-151.855 5297.5544,-151.855"/>
<polygon fill="#000000" stroke="#000000" points="5294.0544,-151.8549 5297.5544,-161.855 5301.0544,-151.855 5294.0544,-151.8549"/>
</g>
<!-- TextSettingComponent -->
<g id="node50" class="node">
<title>TextSettingComponent</title>
<polygon fill="#ffffb3" stroke="#000000" points="5260.1596,-122 5113.8404,-122 5113.8404,-86 5260.1596,-86 5260.1596,-122"/>
<text text-anchor="middle" x="5187" y="-99.8" font-family="Times,serif" font-size="14.00" fill="#000000">TextSettingComponent</text>
</g>
<!-- TextSettingComponent&#45;&gt;SettingsModule -->
<g id="edge47" class="edge">
<title>TextSettingComponent&#45;&gt;SettingsModule</title>
<path fill="none" stroke="#000000" d="M5235.999,-122.0109C5235.999,-122.0109 5235.999,-151.855 5235.999,-151.855"/>
<polygon fill="#000000" stroke="#000000" points="5232.499,-151.8549 5235.999,-161.855 5239.499,-151.855 5232.499,-151.8549"/>
</g>
<!-- SettingsRoutingModule -->
<g id="node52" class="node">
<title>SettingsRoutingModule</title>
<polygon fill="#8dd3c7" stroke="#000000" points="5089.7814,-122 5086.7814,-126 5065.7814,-126 5062.7814,-122 4940.2186,-122 4940.2186,-86 5089.7814,-86 5089.7814,-122"/>
<text text-anchor="middle" x="5015" y="-99.8" font-family="Times,serif" font-size="14.00" fill="#000000">SettingsRoutingModule</text>
</g>
<!-- SettingsRoutingModule&#45;&gt;SettingsModule -->
<g id="edge48" class="edge">
<title>SettingsRoutingModule&#45;&gt;SettingsModule</title>
<path fill="none" stroke="#000000" d="M5015,-122.0109C5015,-144.4852 5015,-180 5015,-180 5015,-180 5201.8014,-180 5201.8014,-180"/>
<polygon fill="#000000" stroke="#000000" points="5201.8015,-183.5001 5211.8014,-180 5201.8014,-176.5001 5201.8015,-183.5001"/>
</g>
<!-- !environment -->
<g id="node53" class="node">
<title>!environment</title>
<polygon fill="#8dd3c7" stroke="#000000" points="1508.9232,-122 1505.9232,-126 1484.9232,-126 1481.9232,-122 1417.0768,-122 1417.0768,-86 1508.9232,-86 1508.9232,-122"/>
<text text-anchor="middle" x="1463" y="-99.8" font-family="Times,serif" font-size="14.00" fill="#000000">!environment</text>
</g>
<!-- !environment&#45;&gt;StateModule -->
<g id="edge49" class="edge">
<title>!environment&#45;&gt;StateModule</title>
<path fill="none" stroke="#000000" d="M1435.8079,-122.0511C1435.8079,-136.373 1435.8079,-154 1435.8079,-154 1435.8079,-154 902.2423,-154 902.2423,-154 902.2423,-154 902.2423,-154.7942 902.2423,-154.7942"/>
<polygon fill="#000000" stroke="#000000" points="898.7424,-151.9421 902.2423,-161.9421 905.7424,-151.9422 898.7424,-151.9421"/>
</g>
<!-- IframeDisplayComponent -->
<g id="node54" class="node">
<title>IframeDisplayComponent</title>
<polygon fill="#ffffb3" stroke="#000000" points="5961.1811,-122 5798.8189,-122 5798.8189,-86 5961.1811,-86 5961.1811,-122"/>
<text text-anchor="middle" x="5880" y="-99.8" font-family="Times,serif" font-size="14.00" fill="#000000">IframeDisplayComponent</text>
</g>
<!-- ThirdpartyModule -->
<g id="node55" class="node">
<title>ThirdpartyModule</title>
<polygon fill="#8dd3c7" stroke="#000000" points="5845.9201,-198 5842.9201,-202 5821.9201,-202 5818.9201,-198 5726.0799,-198 5726.0799,-162 5845.9201,-162 5845.9201,-198"/>
<text text-anchor="middle" x="5786" y="-175.8" font-family="Times,serif" font-size="14.00" fill="#000000">ThirdpartyModule</text>
</g>
<!-- IframeDisplayComponent&#45;&gt;ThirdpartyModule -->
<g id="edge50" class="edge">
<title>IframeDisplayComponent&#45;&gt;ThirdpartyModule</title>
<path fill="none" stroke="#000000" d="M5822.3096,-122.0109C5822.3096,-122.0109 5822.3096,-151.855 5822.3096,-151.855"/>
<polygon fill="#000000" stroke="#000000" points="5818.8097,-151.8549 5822.3096,-161.855 5825.8097,-151.855 5818.8097,-151.8549"/>
</g>
<!-- ThirdpartyRoutingModule -->
<g id="node56" class="node">
<title>ThirdpartyRoutingModule</title>
<polygon fill="#8dd3c7" stroke="#000000" points="5775.0378,-122 5772.0378,-126 5751.0378,-126 5748.0378,-122 5610.9622,-122 5610.9622,-86 5775.0378,-86 5775.0378,-122"/>
<text text-anchor="middle" x="5693" y="-99.8" font-family="Times,serif" font-size="14.00" fill="#000000">ThirdpartyRoutingModule</text>
</g>
<!-- ThirdpartyRoutingModule&#45;&gt;ThirdpartyModule -->
<g id="edge51" class="edge">
<title>ThirdpartyRoutingModule&#45;&gt;ThirdpartyModule</title>
<path fill="none" stroke="#000000" d="M5750.7795,-122.0109C5750.7795,-122.0109 5750.7795,-151.855 5750.7795,-151.855"/>
<polygon fill="#000000" stroke="#000000" points="5747.2795,-151.8549 5750.7795,-161.855 5754.2795,-151.855 5747.2795,-151.8549"/>
</g>
</g>
</svg>
