<?xml version="1.0" encoding="UTF-8" standalone="no"?>
<!DOCTYPE svg PUBLIC "-//W3C//DTD SVG 1.1//EN"
 "http://www.w3.org/Graphics/SVG/1.1/DTD/svg11.dtd">
<!-- Generated by graphviz version 2.40.1 (20161225.0304)
 -->
<!-- Title: dependencies Pages: 1 -->
<svg width="2689pt" height="284pt"
 viewBox="0.00 0.00 2689.00 284.00" xmlns="http://www.w3.org/2000/svg" xmlns:xlink="http://www.w3.org/1999/xlink">
<g id="graph0" class="graph" transform="scale(1 1) rotate(0) translate(4 280)">
<title>dependencies</title>
<polygon fill="#ffffff" stroke="transparent" points="-4,4 -4,-280 2685,-280 2685,4 -4,4"/>
<text text-anchor="start" x="1319.5091" y="-42.4" font-family="sans-serif" font-weight="bold" font-size="14.00" fill="#000000">Legend</text>
<polygon fill="#ffffb3" stroke="transparent" points="1106.5,-10 1106.5,-30 1126.5,-30 1126.5,-10 1106.5,-10"/>
<text text-anchor="start" x="1130.129" y="-15.4" font-family="sans-serif" font-size="14.00" fill="#000000"> &#160;Declarations</text>
<polygon fill="#8dd3c7" stroke="transparent" points="1219.5,-10 1219.5,-30 1239.5,-30 1239.5,-10 1219.5,-10"/>
<text text-anchor="start" x="1243.2251" y="-15.4" font-family="sans-serif" font-size="14.00" fill="#000000"> &#160;Module</text>
<polygon fill="#80b1d3" stroke="transparent" points="1305.5,-10 1305.5,-30 1325.5,-30 1325.5,-10 1305.5,-10"/>
<text text-anchor="start" x="1329.2812" y="-15.4" font-family="sans-serif" font-size="14.00" fill="#000000"> &#160;Bootstrap</text>
<polygon fill="#fdb462" stroke="transparent" points="1402.5,-10 1402.5,-30 1422.5,-30 1422.5,-10 1402.5,-10"/>
<text text-anchor="start" x="1426.1732" y="-15.4" font-family="sans-serif" font-size="14.00" fill="#000000"> &#160;Providers</text>
<polygon fill="#fb8072" stroke="transparent" points="1498.5,-10 1498.5,-30 1518.5,-30 1518.5,-10 1498.5,-10"/>
<text text-anchor="start" x="1522.2258" y="-15.4" font-family="sans-serif" font-size="14.00" fill="#000000"> &#160;Exports</text>
<g id="clust1" class="cluster">
<title>cluster_FeedModule</title>
<polygon fill="none" stroke="#000000" stroke-dasharray="1,5" points="8,-70 8,-268 2673,-268 2673,-70 8,-70"/>
</g>
<g id="clust2" class="cluster">
<title>cluster_FeedModule_declarations</title>
<polygon fill="none" stroke="#000000" points="594,-78 594,-130 2665,-130 2665,-78 594,-78"/>
</g>
<g id="clust16" class="cluster">
<title>cluster_FeedModule_imports</title>
<polygon fill="none" stroke="#000000" points="16,-78 16,-130 586,-130 586,-78 16,-78"/>
</g>
<g id="clust17" class="cluster">
<title>cluster_FeedModule_exports</title>
<polygon fill="none" stroke="#000000" points="1241,-208 1241,-260 1369,-260 1369,-208 1241,-208"/>
</g>
<!-- CardListComponent -->
<g id="node1" class="node">
<title>CardListComponent</title>
<polygon fill="#ffffb3" stroke="#000000" points="2657.323,-122 2526.677,-122 2526.677,-86 2657.323,-86 2657.323,-122"/>
<text text-anchor="middle" x="2592" y="-99.8" font-family="Times,serif" font-size="14.00" fill="#000000">CardListComponent</text>
</g>
<!-- FeedModule -->
<g id="node14" class="node">
<title>FeedModule</title>
<polygon fill="#8dd3c7" stroke="#000000" points="1348.2619,-187 1345.2619,-191 1324.2619,-191 1321.2619,-187 1261.7381,-187 1261.7381,-151 1348.2619,-151 1348.2619,-187"/>
<text text-anchor="middle" x="1305" y="-164.8" font-family="Times,serif" font-size="14.00" fill="#000000">FeedModule</text>
</g>
<!-- CardListComponent&#45;&gt;FeedModule -->
<g id="edge1" class="edge">
<title>CardListComponent&#45;&gt;FeedModule</title>
<path fill="none" stroke="#000000" d="M2592,-122.3228C2592,-145.6602 2592,-183 2592,-183 2592,-183 1358.5583,-183 1358.5583,-183"/>
<polygon fill="#000000" stroke="#000000" points="1358.5583,-179.5001 1348.5583,-183 1358.5582,-186.5001 1358.5583,-179.5001"/>
</g>
<!-- CustomTimelineChartComponent -->
<g id="node2" class="node">
<title>CustomTimelineChartComponent</title>
<polygon fill="#ffffb3" stroke="#000000" points="2509.0419,-122 2302.9581,-122 2302.9581,-86 2509.0419,-86 2509.0419,-122"/>
<text text-anchor="middle" x="2406" y="-99.8" font-family="Times,serif" font-size="14.00" fill="#000000">CustomTimelineChartComponent</text>
</g>
<!-- CustomTimelineChartComponent&#45;&gt;FeedModule -->
<g id="edge2" class="edge">
<title>CustomTimelineChartComponent&#45;&gt;FeedModule</title>
<path fill="none" stroke="#000000" d="M2406,-122.1554C2406,-144.3519 2406,-179 2406,-179 2406,-179 1358.4996,-179 1358.4996,-179"/>
<polygon fill="#000000" stroke="#000000" points="1358.4997,-175.5001 1348.4996,-179 1358.4996,-182.5001 1358.4997,-175.5001"/>
</g>
<!-- FeedComponent -->
<g id="node3" class="node">
<title>FeedComponent</title>
<polygon fill="#ffffb3" stroke="#000000" points="2284.0452,-122 2175.9548,-122 2175.9548,-86 2284.0452,-86 2284.0452,-122"/>
<text text-anchor="middle" x="2230" y="-99.8" font-family="Times,serif" font-size="14.00" fill="#000000">FeedComponent</text>
</g>
<!-- FeedComponent&#45;&gt;FeedModule -->
<g id="edge3" class="edge">
<title>FeedComponent&#45;&gt;FeedModule</title>
<path fill="none" stroke="#000000" d="M2230,-122.2843C2230,-143.3211 2230,-175 2230,-175 2230,-175 1358.374,-175 1358.374,-175"/>
<polygon fill="#000000" stroke="#000000" points="1358.374,-171.5001 1348.374,-175 1358.374,-178.5001 1358.374,-171.5001"/>
</g>
<!-- FiltersComponent -->
<g id="node4" class="node">
<title>FiltersComponent</title>
<polygon fill="#ffffb3" stroke="#000000" points="2157.6066,-122 2040.3934,-122 2040.3934,-86 2157.6066,-86 2157.6066,-122"/>
<text text-anchor="middle" x="2099" y="-99.8" font-family="Times,serif" font-size="14.00" fill="#000000">FiltersComponent</text>
</g>
<!-- FiltersComponent&#45;&gt;FeedModule -->
<g id="edge4" class="edge">
<title>FiltersComponent&#45;&gt;FeedModule</title>
<path fill="none" stroke="#000000" d="M2099,-122.308C2099,-142.1455 2099,-171 2099,-171 2099,-171 1358.5359,-171 1358.5359,-171"/>
<polygon fill="#000000" stroke="#000000" points="1358.5359,-167.5001 1348.5359,-171 1358.5359,-174.5001 1358.5359,-167.5001"/>
</g>
<!-- InitChartComponent -->
<g id="node5" class="node">
<title>InitChartComponent</title>
<polygon fill="#ffffb3" stroke="#000000" points="2022.8767,-122 1891.1233,-122 1891.1233,-86 2022.8767,-86 2022.8767,-122"/>
<text text-anchor="middle" x="1957" y="-99.8" font-family="Times,serif" font-size="14.00" fill="#000000">InitChartComponent</text>
</g>
<!-- InitChartComponent&#45;&gt;FeedModule -->
<g id="edge5" class="edge">
<title>InitChartComponent&#45;&gt;FeedModule</title>
<path fill="none" stroke="#000000" d="M1957,-122.2222C1957,-140.8285 1957,-167 1957,-167 1957,-167 1358.2845,-167 1358.2845,-167"/>
<polygon fill="#000000" stroke="#000000" points="1358.2845,-163.5001 1348.2845,-167 1358.2844,-170.5001 1358.2845,-163.5001"/>
</g>
<!-- MouseWheelDirective -->
<g id="node6" class="node">
<title>MouseWheelDirective</title>
<polygon fill="#ffffb3" stroke="#000000" points="1873.2213,-122 1730.7787,-122 1730.7787,-86 1873.2213,-86 1873.2213,-122"/>
<text text-anchor="middle" x="1802" y="-99.8" font-family="Times,serif" font-size="14.00" fill="#000000">MouseWheelDirective</text>
</g>
<!-- MouseWheelDirective&#45;&gt;FeedModule -->
<g id="edge6" class="edge">
<title>MouseWheelDirective&#45;&gt;FeedModule</title>
<path fill="none" stroke="#000000" d="M1802,-122.0225C1802,-139.3734 1802,-163 1802,-163 1802,-163 1358.6698,-163 1358.6698,-163"/>
<polygon fill="#000000" stroke="#000000" points="1358.6699,-159.5001 1348.6698,-163 1358.6698,-166.5001 1358.6699,-159.5001"/>
</g>
<!-- NoSelectionComponent -->
<g id="node7" class="node">
<title>NoSelectionComponent</title>
<polygon fill="#ffffb3" stroke="#000000" points="1712.0379,-122 1561.9621,-122 1561.9621,-86 1712.0379,-86 1712.0379,-122"/>
<text text-anchor="middle" x="1637" y="-99.8" font-family="Times,serif" font-size="14.00" fill="#000000">NoSelectionComponent</text>
</g>
<!-- NoSelectionComponent&#45;&gt;FeedModule -->
<g id="edge7" class="edge">
<title>NoSelectionComponent&#45;&gt;FeedModule</title>
<path fill="none" stroke="#000000" d="M1637,-122.0091C1637,-138.0494 1637,-159 1637,-159 1637,-159 1358.4032,-159 1358.4032,-159"/>
<polygon fill="#000000" stroke="#000000" points="1358.4032,-155.5001 1348.4032,-159 1358.4032,-162.5001 1358.4032,-155.5001"/>
</g>
<!-- SeveritySortComponent -->
<g id="node8" class="node">
<title>SeveritySortComponent</title>
<polygon fill="#ffffb3" stroke="#000000" points="1543.8201,-122 1392.1799,-122 1392.1799,-86 1543.8201,-86 1543.8201,-122"/>
<text text-anchor="middle" x="1468" y="-99.8" font-family="Times,serif" font-size="14.00" fill="#000000">SeveritySortComponent</text>
</g>
<!-- SeveritySortComponent&#45;&gt;FeedModule -->
<g id="edge8" class="edge">
<title>SeveritySortComponent&#45;&gt;FeedModule</title>
<path fill="none" stroke="#000000" d="M1468,-122.1243C1468,-136.7832 1468,-155 1468,-155 1468,-155 1358.681,-155 1358.681,-155"/>
<polygon fill="#000000" stroke="#000000" points="1358.681,-151.5001 1348.681,-155 1358.681,-158.5001 1358.681,-151.5001"/>
</g>
<!-- TagsFilterComponent -->
<g id="node9" class="node">
<title>TagsFilterComponent</title>
<polygon fill="#ffffb3" stroke="#000000" points="1374.3739,-122 1235.6261,-122 1235.6261,-86 1374.3739,-86 1374.3739,-122"/>
<text text-anchor="middle" x="1305" y="-99.8" font-family="Times,serif" font-size="14.00" fill="#000000">TagsFilterComponent</text>
</g>
<!-- TagsFilterComponent&#45;&gt;FeedModule -->
<g id="edge9" class="edge">
<title>TagsFilterComponent&#45;&gt;FeedModule</title>
<path fill="none" stroke="#000000" d="M1305,-122.1061C1305,-122.1061 1305,-140.991 1305,-140.991"/>
<polygon fill="#000000" stroke="#000000" points="1301.5001,-140.9909 1305,-150.991 1308.5001,-140.991 1301.5001,-140.9909"/>
</g>
<!-- TimeFilterComponent -->
<g id="node10" class="node">
<title>TimeFilterComponent</title>
<polygon fill="#ffffb3" stroke="#000000" points="1217.7106,-122 1076.2894,-122 1076.2894,-86 1217.7106,-86 1217.7106,-122"/>
<text text-anchor="middle" x="1147" y="-99.8" font-family="Times,serif" font-size="14.00" fill="#000000">TimeFilterComponent</text>
</g>
<!-- TimeFilterComponent&#45;&gt;FeedModule -->
<g id="edge10" class="edge">
<title>TimeFilterComponent&#45;&gt;FeedModule</title>
<path fill="none" stroke="#000000" d="M1147,-122.1243C1147,-136.7832 1147,-155 1147,-155 1147,-155 1251.4076,-155 1251.4076,-155"/>
<polygon fill="#000000" stroke="#000000" points="1251.4076,-158.5001 1261.4076,-155 1251.4075,-151.5001 1251.4076,-158.5001"/>
</g>
<!-- TimeLineComponent -->
<g id="node11" class="node">
<title>TimeLineComponent</title>
<polygon fill="#ffffb3" stroke="#000000" points="1058.0394,-122 921.9606,-122 921.9606,-86 1058.0394,-86 1058.0394,-122"/>
<text text-anchor="middle" x="990" y="-99.8" font-family="Times,serif" font-size="14.00" fill="#000000">TimeLineComponent</text>
</g>
<!-- TimeLineComponent&#45;&gt;FeedModule -->
<g id="edge11" class="edge">
<title>TimeLineComponent&#45;&gt;FeedModule</title>
<path fill="none" stroke="#000000" d="M990,-122.0091C990,-138.0494 990,-159 990,-159 990,-159 1251.5313,-159 1251.5313,-159"/>
<polygon fill="#000000" stroke="#000000" points="1251.5314,-162.5001 1261.5313,-159 1251.5313,-155.5001 1251.5314,-162.5001"/>
</g>
<!-- TypeFilterComponent -->
<g id="node12" class="node">
<title>TypeFilterComponent</title>
<polygon fill="#ffffb3" stroke="#000000" points="904.4299,-122 763.5701,-122 763.5701,-86 904.4299,-86 904.4299,-122"/>
<text text-anchor="middle" x="834" y="-99.8" font-family="Times,serif" font-size="14.00" fill="#000000">TypeFilterComponent</text>
</g>
<!-- TypeFilterComponent&#45;&gt;FeedModule -->
<g id="edge12" class="edge">
<title>TypeFilterComponent&#45;&gt;FeedModule</title>
<path fill="none" stroke="#000000" d="M834,-122.0225C834,-139.3734 834,-163 834,-163 834,-163 1251.5337,-163 1251.5337,-163"/>
<polygon fill="#000000" stroke="#000000" points="1251.5337,-166.5001 1261.5337,-163 1251.5337,-159.5001 1251.5337,-166.5001"/>
</g>
<!-- XAxisTickFormatPipe -->
<g id="node13" class="node">
<title>XAxisTickFormatPipe</title>
<polygon fill="#ffffb3" stroke="#000000" points="745.5338,-122 602.4662,-122 602.4662,-86 745.5338,-86 745.5338,-122"/>
<text text-anchor="middle" x="674" y="-99.8" font-family="Times,serif" font-size="14.00" fill="#000000">XAxisTickFormatPipe</text>
</g>
<!-- XAxisTickFormatPipe&#45;&gt;FeedModule -->
<g id="edge13" class="edge">
<title>XAxisTickFormatPipe&#45;&gt;FeedModule</title>
<path fill="none" stroke="#000000" d="M674,-122.2222C674,-140.8285 674,-167 674,-167 674,-167 1251.6288,-167 1251.6288,-167"/>
<polygon fill="#000000" stroke="#000000" points="1251.6288,-170.5001 1261.6288,-167 1251.6288,-163.5001 1251.6288,-170.5001"/>
</g>
<!-- FeedComponent  -->
<g id="node19" class="node">
<title>FeedComponent </title>
<polygon fill="#fb8072" stroke="#000000" points="1361.0442,-252 1248.9558,-252 1248.9558,-216 1361.0442,-216 1361.0442,-252"/>
<text text-anchor="middle" x="1305" y="-229.8" font-family="Times,serif" font-size="14.00" fill="#000000">FeedComponent </text>
</g>
<!-- FeedModule&#45;&gt;FeedComponent  -->
<g id="edge18" class="edge">
<title>FeedModule&#45;&gt;FeedComponent </title>
<path fill="none" stroke="#000000" stroke-dasharray="5,2" d="M1305,-187.1061C1305,-187.1061 1305,-205.991 1305,-205.991"/>
<polygon fill="#000000" stroke="#000000" points="1301.5001,-205.9909 1305,-215.991 1308.5001,-205.991 1301.5001,-205.9909"/>
</g>
<!-- CardsModule -->
<g id="node15" class="node">
<title>CardsModule</title>
<polygon fill="#8dd3c7" stroke="#000000" points="578.2064,-122 575.2064,-126 554.2064,-126 551.2064,-122 485.7936,-122 485.7936,-86 578.2064,-86 578.2064,-122"/>
<text text-anchor="middle" x="532" y="-99.8" font-family="Times,serif" font-size="14.00" fill="#000000">CardsModule</text>
</g>
<!-- CardsModule&#45;&gt;FeedModule -->
<g id="edge14" class="edge">
<title>CardsModule&#45;&gt;FeedModule</title>
<path fill="none" stroke="#000000" d="M532,-122.308C532,-142.1455 532,-171 532,-171 532,-171 1251.505,-171 1251.505,-171"/>
<polygon fill="#000000" stroke="#000000" points="1251.505,-174.5001 1261.505,-171 1251.5049,-167.5001 1251.505,-174.5001"/>
</g>
<!-- FeedRoutingModule -->
<g id="node16" class="node">
<title>FeedRoutingModule</title>
<polygon fill="#8dd3c7" stroke="#000000" points="467.8795,-122 464.8795,-126 443.8795,-126 440.8795,-122 336.1205,-122 336.1205,-86 467.8795,-86 467.8795,-122"/>
<text text-anchor="middle" x="402" y="-99.8" font-family="Times,serif" font-size="14.00" fill="#000000">FeedRoutingModule</text>
</g>
<!-- FeedRoutingModule&#45;&gt;FeedModule -->
<g id="edge15" class="edge">
<title>FeedRoutingModule&#45;&gt;FeedModule</title>
<path fill="none" stroke="#000000" d="M402,-122.2843C402,-143.3211 402,-175 402,-175 402,-175 1251.4464,-175 1251.4464,-175"/>
<polygon fill="#000000" stroke="#000000" points="1251.4465,-178.5001 1261.4464,-175 1251.4464,-171.5001 1251.4465,-178.5001"/>
</g>
<!-- FontAwesomeIconsModule -->
<g id="node17" class="node">
<title>FontAwesomeIconsModule</title>
<polygon fill="#8dd3c7" stroke="#000000" points="317.5211,-122 314.5211,-126 293.5211,-126 290.5211,-122 146.4789,-122 146.4789,-86 317.5211,-86 317.5211,-122"/>
<text text-anchor="middle" x="232" y="-99.8" font-family="Times,serif" font-size="14.00" fill="#000000">FontAwesomeIconsModule</text>
</g>
<!-- FontAwesomeIconsModule&#45;&gt;FeedModule -->
<g id="edge16" class="edge">
<title>FontAwesomeIconsModule&#45;&gt;FeedModule</title>
<path fill="none" stroke="#000000" d="M232,-122.1554C232,-144.3519 232,-179 232,-179 232,-179 1251.6082,-179 1251.6082,-179"/>
<polygon fill="#000000" stroke="#000000" points="1251.6082,-182.5001 1261.6082,-179 1251.6081,-175.5001 1251.6082,-182.5001"/>
</g>
<!-- UtilitiesModule -->
<g id="node18" class="node">
<title>UtilitiesModule</title>
<polygon fill="#8dd3c7" stroke="#000000" points="128.1598,-122 125.1598,-126 104.1598,-126 101.1598,-122 23.8402,-122 23.8402,-86 128.1598,-86 128.1598,-122"/>
<text text-anchor="middle" x="76" y="-99.8" font-family="Times,serif" font-size="14.00" fill="#000000">UtilitiesModule</text>
</g>
<!-- UtilitiesModule&#45;&gt;FeedModule -->
<g id="edge17" class="edge">
<title>UtilitiesModule&#45;&gt;FeedModule</title>
<path fill="none" stroke="#000000" d="M76,-122.3228C76,-145.6602 76,-183 76,-183 76,-183 1251.6202,-183 1251.6202,-183"/>
<polygon fill="#000000" stroke="#000000" points="1251.6203,-186.5001 1261.6202,-183 1251.6202,-179.5001 1251.6203,-186.5001"/>
</g>
</g>
</svg>
