<?xml version="1.0" encoding="UTF-8" standalone="no"?>
<!DOCTYPE svg PUBLIC "-//W3C//DTD SVG 1.1//EN"
 "http://www.w3.org/Graphics/SVG/1.1/DTD/svg11.dtd">
<!-- Generated by graphviz version 2.40.1 (20161225.0304)
 -->
<!-- Title: dependencies Pages: 1 -->
<svg width="2527pt" height="284pt"
 viewBox="0.00 0.00 2527.00 284.00" xmlns="http://www.w3.org/2000/svg" xmlns:xlink="http://www.w3.org/1999/xlink">
<g id="graph0" class="graph" transform="scale(1 1) rotate(0) translate(4 280)">
<title>dependencies</title>
<polygon fill="#ffffff" stroke="transparent" points="-4,4 -4,-280 2523,-280 2523,4 -4,4"/>
<text text-anchor="start" x="1238.5091" y="-42.4" font-family="sans-serif" font-weight="bold" font-size="14.00" fill="#000000">Legend</text>
<polygon fill="#ffffb3" stroke="transparent" points="1025.5,-10 1025.5,-30 1045.5,-30 1045.5,-10 1025.5,-10"/>
<text text-anchor="start" x="1049.129" y="-15.4" font-family="sans-serif" font-size="14.00" fill="#000000"> &#160;Declarations</text>
<polygon fill="#8dd3c7" stroke="transparent" points="1138.5,-10 1138.5,-30 1158.5,-30 1158.5,-10 1138.5,-10"/>
<text text-anchor="start" x="1162.2251" y="-15.4" font-family="sans-serif" font-size="14.00" fill="#000000"> &#160;Module</text>
<polygon fill="#80b1d3" stroke="transparent" points="1224.5,-10 1224.5,-30 1244.5,-30 1244.5,-10 1224.5,-10"/>
<text text-anchor="start" x="1248.2812" y="-15.4" font-family="sans-serif" font-size="14.00" fill="#000000"> &#160;Bootstrap</text>
<polygon fill="#fdb462" stroke="transparent" points="1321.5,-10 1321.5,-30 1341.5,-30 1341.5,-10 1321.5,-10"/>
<text text-anchor="start" x="1345.1732" y="-15.4" font-family="sans-serif" font-size="14.00" fill="#000000"> &#160;Providers</text>
<polygon fill="#fb8072" stroke="transparent" points="1417.5,-10 1417.5,-30 1437.5,-30 1437.5,-10 1417.5,-10"/>
<text text-anchor="start" x="1441.2258" y="-15.4" font-family="sans-serif" font-size="14.00" fill="#000000"> &#160;Exports</text>
<g id="clust1" class="cluster">
<title>cluster_FeedModule</title>
<polygon fill="none" stroke="#000000" stroke-dasharray="1,5" points="8,-70 8,-268 2511,-268 2511,-70 8,-70"/>
</g>
<g id="clust2" class="cluster">
<title>cluster_FeedModule_declarations</title>
<polygon fill="none" stroke="#000000" points="594,-78 594,-130 2503,-130 2503,-78 594,-78"/>
</g>
<g id="clust15" class="cluster">
<title>cluster_FeedModule_imports</title>
<polygon fill="none" stroke="#000000" points="16,-78 16,-130 586,-130 586,-78 16,-78"/>
</g>
<g id="clust16" class="cluster">
<title>cluster_FeedModule_exports</title>
<polygon fill="none" stroke="#000000" points="1160,-208 1160,-260 1288,-260 1288,-208 1160,-208"/>
</g>
<!-- CardListComponent -->
<g id="node1" class="node">
<title>CardListComponent</title>
<polygon fill="#ffffb3" stroke="#000000" points="2495.323,-122 2364.677,-122 2364.677,-86 2495.323,-86 2495.323,-122"/>
<text text-anchor="middle" x="2430" y="-99.8" font-family="Times,serif" font-size="14.00" fill="#000000">CardListComponent</text>
</g>
<!-- FeedModule -->
<g id="node13" class="node">
<title>FeedModule</title>
<polygon fill="#8dd3c7" stroke="#000000" points="1267.2619,-187 1264.2619,-191 1243.2619,-191 1240.2619,-187 1180.7381,-187 1180.7381,-151 1267.2619,-151 1267.2619,-187"/>
<text text-anchor="middle" x="1224" y="-164.8" font-family="Times,serif" font-size="14.00" fill="#000000">FeedModule</text>
</g>
<!-- CardListComponent&#45;&gt;FeedModule -->
<g id="edge1" class="edge">
<title>CardListComponent&#45;&gt;FeedModule</title>
<path fill="none" stroke="#000000" d="M2430,-122.3228C2430,-145.6602 2430,-183 2430,-183 2430,-183 1277.2778,-183 1277.2778,-183"/>
<polygon fill="#000000" stroke="#000000" points="1277.2778,-179.5001 1267.2778,-183 1277.2777,-186.5001 1277.2778,-179.5001"/>
</g>
<!-- CustomTimelineChartComponent -->
<g id="node2" class="node">
<title>CustomTimelineChartComponent</title>
<polygon fill="#ffffb3" stroke="#000000" points="2347.0419,-122 2140.9581,-122 2140.9581,-86 2347.0419,-86 2347.0419,-122"/>
<text text-anchor="middle" x="2244" y="-99.8" font-family="Times,serif" font-size="14.00" fill="#000000">CustomTimelineChartComponent</text>
</g>
<!-- CustomTimelineChartComponent&#45;&gt;FeedModule -->
<g id="edge2" class="edge">
<title>CustomTimelineChartComponent&#45;&gt;FeedModule</title>
<path fill="none" stroke="#000000" d="M2244,-122.2921C2244,-144.2057 2244,-178 2244,-178 2244,-178 1277.5018,-178 1277.5018,-178"/>
<polygon fill="#000000" stroke="#000000" points="1277.5019,-174.5001 1267.5018,-178 1277.5018,-181.5001 1277.5019,-174.5001"/>
</g>
<!-- FeedComponent -->
<g id="node3" class="node">
<title>FeedComponent</title>
<polygon fill="#ffffb3" stroke="#000000" points="2122.0452,-122 2013.9548,-122 2013.9548,-86 2122.0452,-86 2122.0452,-122"/>
<text text-anchor="middle" x="2068" y="-99.8" font-family="Times,serif" font-size="14.00" fill="#000000">FeedComponent</text>
</g>
<!-- FeedComponent&#45;&gt;FeedModule -->
<g id="edge3" class="edge">
<title>FeedComponent&#45;&gt;FeedModule</title>
<path fill="none" stroke="#000000" d="M2068,-122.0267C2068,-142.7672 2068,-174 2068,-174 2068,-174 1277.3067,-174 1277.3067,-174"/>
<polygon fill="#000000" stroke="#000000" points="1277.3067,-170.5001 1267.3067,-174 1277.3067,-177.5001 1277.3067,-170.5001"/>
</g>
<!-- FiltersComponent -->
<g id="node4" class="node">
<title>FiltersComponent</title>
<polygon fill="#ffffb3" stroke="#000000" points="1995.6066,-122 1878.3934,-122 1878.3934,-86 1995.6066,-86 1995.6066,-122"/>
<text text-anchor="middle" x="1937" y="-99.8" font-family="Times,serif" font-size="14.00" fill="#000000">FiltersComponent</text>
</g>
<!-- FiltersComponent&#45;&gt;FeedModule -->
<g id="edge4" class="edge">
<title>FiltersComponent&#45;&gt;FeedModule</title>
<path fill="none" stroke="#000000" d="M1937,-122.1061C1937,-141.3391 1937,-169 1937,-169 1937,-169 1277.528,-169 1277.528,-169"/>
<polygon fill="#000000" stroke="#000000" points="1277.5281,-165.5001 1267.528,-169 1277.528,-172.5001 1277.5281,-165.5001"/>
</g>
<!-- InitChartComponent -->
<g id="node5" class="node">
<title>InitChartComponent</title>
<polygon fill="#ffffb3" stroke="#000000" points="1860.8767,-122 1729.1233,-122 1729.1233,-86 1860.8767,-86 1860.8767,-122"/>
<text text-anchor="middle" x="1795" y="-99.8" font-family="Times,serif" font-size="14.00" fill="#000000">InitChartComponent</text>
</g>
<!-- InitChartComponent&#45;&gt;FeedModule -->
<g id="edge5" class="edge">
<title>InitChartComponent&#45;&gt;FeedModule</title>
<path fill="none" stroke="#000000" d="M1795,-122.302C1795,-140.2699 1795,-165 1795,-165 1795,-165 1277.3865,-165 1277.3865,-165"/>
<polygon fill="#000000" stroke="#000000" points="1277.3865,-161.5001 1267.3865,-165 1277.3864,-168.5001 1277.3865,-161.5001"/>
</g>
<!-- MouseWheelDirective -->
<g id="node6" class="node">
<title>MouseWheelDirective</title>
<polygon fill="#ffffb3" stroke="#000000" points="1711.2213,-122 1568.7787,-122 1568.7787,-86 1711.2213,-86 1711.2213,-122"/>
<text text-anchor="middle" x="1640" y="-99.8" font-family="Times,serif" font-size="14.00" fill="#000000">MouseWheelDirective</text>
</g>
<!-- MouseWheelDirective&#45;&gt;FeedModule -->
<g id="edge6" class="edge">
<title>MouseWheelDirective&#45;&gt;FeedModule</title>
<path fill="none" stroke="#000000" d="M1640,-122.027C1640,-138.3976 1640,-160 1640,-160 1640,-160 1277.342,-160 1277.342,-160"/>
<polygon fill="#000000" stroke="#000000" points="1277.3421,-156.5001 1267.342,-160 1277.342,-163.5001 1277.3421,-156.5001"/>
</g>
<!-- NoSelectionComponent -->
<g id="node7" class="node">
<title>NoSelectionComponent</title>
<polygon fill="#ffffb3" stroke="#000000" points="1550.0379,-122 1399.9621,-122 1399.9621,-86 1550.0379,-86 1550.0379,-122"/>
<text text-anchor="middle" x="1475" y="-99.8" font-family="Times,serif" font-size="14.00" fill="#000000">NoSelectionComponent</text>
</g>
<!-- NoSelectionComponent&#45;&gt;FeedModule -->
<g id="edge7" class="edge">
<title>NoSelectionComponent&#45;&gt;FeedModule</title>
<path fill="none" stroke="#000000" d="M1475,-122.1871C1475,-137.1824 1475,-156 1475,-156 1475,-156 1277.4343,-156 1277.4343,-156"/>
<polygon fill="#000000" stroke="#000000" points="1277.4343,-152.5001 1267.4343,-156 1277.4343,-159.5001 1277.4343,-152.5001"/>
</g>
<!-- SeveritySortComponent -->
<g id="node8" class="node">
<title>SeveritySortComponent</title>
<polygon fill="#ffffb3" stroke="#000000" points="1381.8201,-122 1230.1799,-122 1230.1799,-86 1381.8201,-86 1381.8201,-122"/>
<text text-anchor="middle" x="1306" y="-99.8" font-family="Times,serif" font-size="14.00" fill="#000000">SeveritySortComponent</text>
</g>
<!-- SeveritySortComponent&#45;&gt;FeedModule -->
<g id="edge8" class="edge">
<title>SeveritySortComponent&#45;&gt;FeedModule</title>
<path fill="none" stroke="#000000" d="M1248.8604,-122.1061C1248.8604,-122.1061 1248.8604,-140.991 1248.8604,-140.991"/>
<polygon fill="#000000" stroke="#000000" points="1245.3605,-140.9909 1248.8604,-150.991 1252.3605,-140.991 1245.3605,-140.9909"/>
</g>
<!-- TagsFilterComponent -->
<g id="node9" class="node">
<title>TagsFilterComponent</title>
<polygon fill="#ffffb3" stroke="#000000" points="1212.3739,-122 1073.6261,-122 1073.6261,-86 1212.3739,-86 1212.3739,-122"/>
<text text-anchor="middle" x="1143" y="-99.8" font-family="Times,serif" font-size="14.00" fill="#000000">TagsFilterComponent</text>
</g>
<!-- TagsFilterComponent&#45;&gt;FeedModule -->
<g id="edge9" class="edge">
<title>TagsFilterComponent&#45;&gt;FeedModule</title>
<path fill="none" stroke="#000000" d="M1196.528,-122.1061C1196.528,-122.1061 1196.528,-140.991 1196.528,-140.991"/>
<polygon fill="#000000" stroke="#000000" points="1193.0281,-140.9909 1196.528,-150.991 1200.0281,-140.991 1193.0281,-140.9909"/>
</g>
<!-- TimeFilterComponent -->
<g id="node10" class="node">
<title>TimeFilterComponent</title>
<polygon fill="#ffffb3" stroke="#000000" points="1055.7106,-122 914.2894,-122 914.2894,-86 1055.7106,-86 1055.7106,-122"/>
<text text-anchor="middle" x="985" y="-99.8" font-family="Times,serif" font-size="14.00" fill="#000000">TimeFilterComponent</text>
</g>
<!-- TimeFilterComponent&#45;&gt;FeedModule -->
<g id="edge10" class="edge">
<title>TimeFilterComponent&#45;&gt;FeedModule</title>
<path fill="none" stroke="#000000" d="M985,-122.1871C985,-137.1824 985,-156 985,-156 985,-156 1170.7189,-156 1170.7189,-156"/>
<polygon fill="#000000" stroke="#000000" points="1170.7189,-159.5001 1180.7189,-156 1170.7189,-152.5001 1170.7189,-159.5001"/>
</g>
<!-- TimeLineComponent -->
<g id="node11" class="node">
<title>TimeLineComponent</title>
<polygon fill="#ffffb3" stroke="#000000" points="896.0394,-122 759.9606,-122 759.9606,-86 896.0394,-86 896.0394,-122"/>
<text text-anchor="middle" x="828" y="-99.8" font-family="Times,serif" font-size="14.00" fill="#000000">TimeLineComponent</text>
</g>
<!-- TimeLineComponent&#45;&gt;FeedModule -->
<g id="edge11" class="edge">
<title>TimeLineComponent&#45;&gt;FeedModule</title>
<path fill="none" stroke="#000000" d="M828,-122.027C828,-138.3976 828,-160 828,-160 828,-160 1170.4883,-160 1170.4883,-160"/>
<polygon fill="#000000" stroke="#000000" points="1170.4883,-163.5001 1180.4883,-160 1170.4883,-156.5001 1170.4883,-163.5001"/>
</g>
<!-- TypeFilterComponent -->
<g id="node12" class="node">
<title>TypeFilterComponent</title>
<polygon fill="#ffffb3" stroke="#000000" points="742.4299,-122 601.5701,-122 601.5701,-86 742.4299,-86 742.4299,-122"/>
<text text-anchor="middle" x="672" y="-99.8" font-family="Times,serif" font-size="14.00" fill="#000000">TypeFilterComponent</text>
</g>
<!-- TypeFilterComponent&#45;&gt;FeedModule -->
<g id="edge12" class="edge">
<title>TypeFilterComponent&#45;&gt;FeedModule</title>
<path fill="none" stroke="#000000" d="M672,-122.302C672,-140.2699 672,-165 672,-165 672,-165 1170.6855,-165 1170.6855,-165"/>
<polygon fill="#000000" stroke="#000000" points="1170.6855,-168.5001 1180.6855,-165 1170.6855,-161.5001 1170.6855,-168.5001"/>
</g>
<!-- FeedComponent  -->
<g id="node18" class="node">
<title>FeedComponent </title>
<polygon fill="#fb8072" stroke="#000000" points="1280.0442,-252 1167.9558,-252 1167.9558,-216 1280.0442,-216 1280.0442,-252"/>
<text text-anchor="middle" x="1224" y="-229.8" font-family="Times,serif" font-size="14.00" fill="#000000">FeedComponent </text>
</g>
<!-- FeedModule&#45;&gt;FeedComponent  -->
<g id="edge17" class="edge">
<title>FeedModule&#45;&gt;FeedComponent </title>
<path fill="none" stroke="#000000" stroke-dasharray="5,2" d="M1224,-187.1061C1224,-187.1061 1224,-205.991 1224,-205.991"/>
<polygon fill="#000000" stroke="#000000" points="1220.5001,-205.9909 1224,-215.991 1227.5001,-205.991 1220.5001,-205.9909"/>
</g>
<!-- CardsModule -->
<g id="node14" class="node">
<title>CardsModule</title>
<polygon fill="#8dd3c7" stroke="#000000" points="578.2064,-122 575.2064,-126 554.2064,-126 551.2064,-122 485.7936,-122 485.7936,-86 578.2064,-86 578.2064,-122"/>
<text text-anchor="middle" x="532" y="-99.8" font-family="Times,serif" font-size="14.00" fill="#000000">CardsModule</text>
</g>
<!-- CardsModule&#45;&gt;FeedModule -->
<g id="edge13" class="edge">
<title>CardsModule&#45;&gt;FeedModule</title>
<path fill="none" stroke="#000000" d="M532,-122.1061C532,-141.3391 532,-169 532,-169 532,-169 1170.7123,-169 1170.7123,-169"/>
<polygon fill="#000000" stroke="#000000" points="1170.7123,-172.5001 1180.7123,-169 1170.7123,-165.5001 1170.7123,-172.5001"/>
</g>
<!-- FeedRoutingModule -->
<g id="node15" class="node">
<title>FeedRoutingModule</title>
<polygon fill="#8dd3c7" stroke="#000000" points="467.8795,-122 464.8795,-126 443.8795,-126 440.8795,-122 336.1205,-122 336.1205,-86 467.8795,-86 467.8795,-122"/>
<text text-anchor="middle" x="402" y="-99.8" font-family="Times,serif" font-size="14.00" fill="#000000">FeedRoutingModule</text>
</g>
<!-- FeedRoutingModule&#45;&gt;FeedModule -->
<g id="edge14" class="edge">
<title>FeedRoutingModule&#45;&gt;FeedModule</title>
<path fill="none" stroke="#000000" d="M402,-122.0267C402,-142.7672 402,-174 402,-174 402,-174 1170.675,-174 1170.675,-174"/>
<polygon fill="#000000" stroke="#000000" points="1170.675,-177.5001 1180.675,-174 1170.675,-170.5001 1170.675,-177.5001"/>
</g>
<!-- FontAwesomeIconsModule -->
<g id="node16" class="node">
<title>FontAwesomeIconsModule</title>
<polygon fill="#8dd3c7" stroke="#000000" points="317.5211,-122 314.5211,-126 293.5211,-126 290.5211,-122 146.4789,-122 146.4789,-86 317.5211,-86 317.5211,-122"/>
<text text-anchor="middle" x="232" y="-99.8" font-family="Times,serif" font-size="14.00" fill="#000000">FontAwesomeIconsModule</text>
</g>
<!-- FontAwesomeIconsModule&#45;&gt;FeedModule -->
<g id="edge15" class="edge">
<title>FontAwesomeIconsModule&#45;&gt;FeedModule</title>
<path fill="none" stroke="#000000" d="M232,-122.2921C232,-144.2057 232,-178 232,-178 232,-178 1170.7371,-178 1170.7371,-178"/>
<polygon fill="#000000" stroke="#000000" points="1170.7372,-181.5001 1180.7371,-178 1170.7371,-174.5001 1170.7372,-181.5001"/>
</g>
<!-- UtilitiesModule -->
<g id="node17" class="node">
<title>UtilitiesModule</title>
<polygon fill="#8dd3c7" stroke="#000000" points="128.1598,-122 125.1598,-126 104.1598,-126 101.1598,-122 23.8402,-122 23.8402,-86 128.1598,-86 128.1598,-122"/>
<text text-anchor="middle" x="76" y="-99.8" font-family="Times,serif" font-size="14.00" fill="#000000">UtilitiesModule</text>
</g>
<!-- UtilitiesModule&#45;&gt;FeedModule -->
<g id="edge16" class="edge">
<title>UtilitiesModule&#45;&gt;FeedModule</title>
<path fill="none" stroke="#000000" d="M76,-122.3228C76,-145.6602 76,-183 76,-183 76,-183 1170.3989,-183 1170.3989,-183"/>
<polygon fill="#000000" stroke="#000000" points="1170.3989,-186.5001 1180.3989,-183 1170.3988,-179.5001 1170.3989,-186.5001"/>
</g>
</g>
</svg>
