<?xml version="1.0" encoding="UTF-8" standalone="no"?>
<!DOCTYPE svg PUBLIC "-//W3C//DTD SVG 1.1//EN"
 "http://www.w3.org/Graphics/SVG/1.1/DTD/svg11.dtd">
<!-- Generated by graphviz version 2.40.1 (20161225.0304)
 -->
<!-- Title: dependencies Pages: 1 -->
<svg width="1651pt" height="284pt"
 viewBox="0.00 0.00 1651.00 284.00" xmlns="http://www.w3.org/2000/svg" xmlns:xlink="http://www.w3.org/1999/xlink">
<g id="graph0" class="graph" transform="scale(1 1) rotate(0) translate(4 280)">
<title>dependencies</title>
<polygon fill="#ffffff" stroke="transparent" points="-4,4 -4,-280 1647,-280 1647,4 -4,4"/>
<text text-anchor="start" x="800.5091" y="-42.4" font-family="sans-serif" font-weight="bold" font-size="14.00" fill="#000000">Legend</text>
<polygon fill="#ffffb3" stroke="transparent" points="587.5,-10 587.5,-30 607.5,-30 607.5,-10 587.5,-10"/>
<text text-anchor="start" x="611.129" y="-15.4" font-family="sans-serif" font-size="14.00" fill="#000000"> &#160;Declarations</text>
<polygon fill="#8dd3c7" stroke="transparent" points="700.5,-10 700.5,-30 720.5,-30 720.5,-10 700.5,-10"/>
<text text-anchor="start" x="724.2251" y="-15.4" font-family="sans-serif" font-size="14.00" fill="#000000"> &#160;Module</text>
<polygon fill="#80b1d3" stroke="transparent" points="786.5,-10 786.5,-30 806.5,-30 806.5,-10 786.5,-10"/>
<text text-anchor="start" x="810.2812" y="-15.4" font-family="sans-serif" font-size="14.00" fill="#000000"> &#160;Bootstrap</text>
<polygon fill="#fdb462" stroke="transparent" points="883.5,-10 883.5,-30 903.5,-30 903.5,-10 883.5,-10"/>
<text text-anchor="start" x="907.1732" y="-15.4" font-family="sans-serif" font-size="14.00" fill="#000000"> &#160;Providers</text>
<polygon fill="#fb8072" stroke="transparent" points="979.5,-10 979.5,-30 999.5,-30 999.5,-10 979.5,-10"/>
<text text-anchor="start" x="1003.2258" y="-15.4" font-family="sans-serif" font-size="14.00" fill="#000000"> &#160;Exports</text>
<g id="clust1" class="cluster">
<title>cluster_AppModule</title>
<polygon fill="none" stroke="#000000" stroke-dasharray="1,5" points="8,-70 8,-268 1635,-268 1635,-70 8,-70"/>
</g>
<g id="clust2" class="cluster">
<title>cluster_AppModule_declarations</title>
<polygon fill="none" stroke="#000000" points="521,-78 521,-130 1627,-130 1627,-78 521,-78"/>
</g>
<g id="clust11" class="cluster">
<title>cluster_AppModule_imports</title>
<polygon fill="none" stroke="#000000" points="16,-78 16,-130 513,-130 513,-78 16,-78"/>
</g>
<g id="clust13" class="cluster">
<title>cluster_AppModule_bootstrap</title>
<polygon fill="none" stroke="#000000" points="750,-208 750,-260 874,-260 874,-208 750,-208"/>
</g>
<!-- AboutComponent -->
<g id="node1" class="node">
<title>AboutComponent</title>
<polygon fill="#ffffb3" stroke="#000000" points="1619.3301,-122 1502.6699,-122 1502.6699,-86 1619.3301,-86 1619.3301,-122"/>
<text text-anchor="middle" x="1561" y="-99.8" font-family="Times,serif" font-size="14.00" fill="#000000">AboutComponent</text>
</g>
<!-- AppModule -->
<g id="node9" class="node">
<title>AppModule</title>
<polygon fill="#8dd3c7" stroke="#000000" points="853.6571,-187 850.6571,-191 829.6571,-191 826.6571,-187 770.3429,-187 770.3429,-151 853.6571,-151 853.6571,-187"/>
<text text-anchor="middle" x="812" y="-164.8" font-family="Times,serif" font-size="14.00" fill="#000000">AppModule</text>
</g>
<!-- AboutComponent&#45;&gt;AppModule -->
<g id="edge1" class="edge">
<title>AboutComponent&#45;&gt;AppModule</title>
<path fill="none" stroke="#000000" d="M1561,-122.2479C1561,-145.0179 1561,-181 1561,-181 1561,-181 863.8744,-181 863.8744,-181"/>
<polygon fill="#000000" stroke="#000000" points="863.8745,-177.5001 853.8744,-181 863.8744,-184.5001 863.8745,-177.5001"/>
</g>
<!-- AppComponent -->
<g id="node2" class="node">
<title>AppComponent</title>
<polygon fill="#ffffb3" stroke="#000000" points="1484.9399,-122 1379.0601,-122 1379.0601,-86 1484.9399,-86 1484.9399,-122"/>
<text text-anchor="middle" x="1432" y="-99.8" font-family="Times,serif" font-size="14.00" fill="#000000">AppComponent</text>
</g>
<!-- AppComponent&#45;&gt;AppModule -->
<g id="edge2" class="edge">
<title>AppComponent&#45;&gt;AppModule</title>
<path fill="none" stroke="#000000" d="M1432,-122.2843C1432,-143.3211 1432,-175 1432,-175 1432,-175 864.1277,-175 864.1277,-175"/>
<polygon fill="#000000" stroke="#000000" points="864.1277,-171.5001 854.1277,-175 864.1276,-178.5001 864.1277,-171.5001"/>
</g>
<!-- CustomLogoComponent -->
<g id="node3" class="node">
<title>CustomLogoComponent</title>
<polygon fill="#ffffb3" stroke="#000000" points="1361.448,-122 1206.552,-122 1206.552,-86 1361.448,-86 1361.448,-122"/>
<text text-anchor="middle" x="1284" y="-99.8" font-family="Times,serif" font-size="14.00" fill="#000000">CustomLogoComponent</text>
</g>
<!-- CustomLogoComponent&#45;&gt;AppModule -->
<g id="edge3" class="edge">
<title>CustomLogoComponent&#45;&gt;AppModule</title>
<path fill="none" stroke="#000000" d="M1284,-122.1061C1284,-141.3391 1284,-169 1284,-169 1284,-169 863.8869,-169 863.8869,-169"/>
<polygon fill="#000000" stroke="#000000" points="863.8869,-165.5001 853.8869,-169 863.8868,-172.5001 863.8869,-165.5001"/>
</g>
<!-- IconComponent -->
<g id="node4" class="node">
<title>IconComponent</title>
<polygon fill="#ffffb3" stroke="#000000" points="1189.2078,-122 1082.7922,-122 1082.7922,-86 1189.2078,-86 1189.2078,-122"/>
<text text-anchor="middle" x="1136" y="-99.8" font-family="Times,serif" font-size="14.00" fill="#000000">IconComponent</text>
</g>
<!-- IconComponent&#45;&gt;AppModule -->
<g id="edge4" class="edge">
<title>IconComponent&#45;&gt;AppModule</title>
<path fill="none" stroke="#000000" d="M1136,-122.0225C1136,-139.3734 1136,-163 1136,-163 1136,-163 863.694,-163 863.694,-163"/>
<polygon fill="#000000" stroke="#000000" points="863.6941,-159.5001 853.694,-163 863.694,-166.5001 863.6941,-159.5001"/>
</g>
<!-- InfoComponent -->
<g id="node5" class="node">
<title>InfoComponent</title>
<polygon fill="#ffffb3" stroke="#000000" points="1065.1542,-122 960.8458,-122 960.8458,-86 1065.1542,-86 1065.1542,-122"/>
<text text-anchor="middle" x="1013" y="-99.8" font-family="Times,serif" font-size="14.00" fill="#000000">InfoComponent</text>
</g>
<!-- InfoComponent&#45;&gt;AppModule -->
<g id="edge5" class="edge">
<title>InfoComponent&#45;&gt;AppModule</title>
<path fill="none" stroke="#000000" d="M1013,-122.2396C1013,-137.5706 1013,-157 1013,-157 1013,-157 864.1362,-157 864.1362,-157"/>
<polygon fill="#000000" stroke="#000000" points="864.1362,-153.5001 854.1362,-157 864.1362,-160.5001 864.1362,-153.5001"/>
</g>
<!-- LoginComponent -->
<g id="node6" class="node">
<title>LoginComponent</title>
<polygon fill="#ffffb3" stroke="#000000" points="942.2758,-122 827.7242,-122 827.7242,-86 942.2758,-86 942.2758,-122"/>
<text text-anchor="middle" x="885" y="-99.8" font-family="Times,serif" font-size="14.00" fill="#000000">LoginComponent</text>
</g>
<!-- LoginComponent&#45;&gt;AppModule -->
<g id="edge6" class="edge">
<title>LoginComponent&#45;&gt;AppModule</title>
<path fill="none" stroke="#000000" d="M840.7202,-122.1061C840.7202,-122.1061 840.7202,-140.991 840.7202,-140.991"/>
<polygon fill="#000000" stroke="#000000" points="837.2203,-140.9909 840.7202,-150.991 844.2203,-140.991 837.2203,-140.9909"/>
</g>
<!-- MenuLinkComponent -->
<g id="node7" class="node">
<title>MenuLinkComponent</title>
<polygon fill="#ffffb3" stroke="#000000" points="809.4355,-122 668.5645,-122 668.5645,-86 809.4355,-86 809.4355,-122"/>
<text text-anchor="middle" x="739" y="-99.8" font-family="Times,serif" font-size="14.00" fill="#000000">MenuLinkComponent</text>
</g>
<!-- MenuLinkComponent&#45;&gt;AppModule -->
<g id="edge7" class="edge">
<title>MenuLinkComponent&#45;&gt;AppModule</title>
<path fill="none" stroke="#000000" d="M789.6946,-122.1061C789.6946,-122.1061 789.6946,-140.991 789.6946,-140.991"/>
<polygon fill="#000000" stroke="#000000" points="786.1947,-140.9909 789.6946,-150.991 793.1947,-140.991 786.1947,-140.9909"/>
</g>
<!-- NavbarComponent -->
<g id="node8" class="node">
<title>NavbarComponent</title>
<polygon fill="#ffffb3" stroke="#000000" points="651.0297,-122 528.9703,-122 528.9703,-86 651.0297,-86 651.0297,-122"/>
<text text-anchor="middle" x="590" y="-99.8" font-family="Times,serif" font-size="14.00" fill="#000000">NavbarComponent</text>
</g>
<!-- NavbarComponent&#45;&gt;AppModule -->
<g id="edge8" class="edge">
<title>NavbarComponent&#45;&gt;AppModule</title>
<path fill="none" stroke="#000000" d="M590,-122.2396C590,-137.5706 590,-157 590,-157 590,-157 760.2435,-157 760.2435,-157"/>
<polygon fill="#000000" stroke="#000000" points="760.2435,-160.5001 770.2435,-157 760.2435,-153.5001 760.2435,-160.5001"/>
</g>
<!-- AppComponent  -->
<g id="node14" class="node">
<title>AppComponent </title>
<polygon fill="#80b1d3" stroke="#000000" points="866.439,-252 757.561,-252 757.561,-216 866.439,-216 866.439,-252"/>
<text text-anchor="middle" x="812" y="-229.8" font-family="Times,serif" font-size="14.00" fill="#000000">AppComponent </text>
</g>
<!-- AppModule&#45;&gt;AppComponent  -->
<g id="edge13" class="edge">
<title>AppModule&#45;&gt;AppComponent </title>
<path fill="none" stroke="#000000" stroke-dasharray="1,5" d="M812,-187.1061C812,-187.1061 812,-205.991 812,-205.991"/>
<polygon fill="#000000" stroke="#000000" points="808.5001,-205.9909 812,-215.991 815.5001,-205.991 808.5001,-205.9909"/>
</g>
<!-- AppRoutingModule -->
<g id="node10" class="node">
<title>AppRoutingModule</title>
<polygon fill="#8dd3c7" stroke="#000000" points="505.2744,-122 502.2744,-126 481.2744,-126 478.2744,-122 376.7256,-122 376.7256,-86 505.2744,-86 505.2744,-122"/>
<text text-anchor="middle" x="441" y="-99.8" font-family="Times,serif" font-size="14.00" fill="#000000">AppRoutingModule</text>
</g>
<!-- AppRoutingModule&#45;&gt;AppModule -->
<g id="edge9" class="edge">
<title>AppRoutingModule&#45;&gt;AppModule</title>
<path fill="none" stroke="#000000" d="M441,-122.0225C441,-139.3734 441,-163 441,-163 441,-163 760.1628,-163 760.1628,-163"/>
<polygon fill="#000000" stroke="#000000" points="760.1628,-166.5001 770.1628,-163 760.1627,-159.5001 760.1628,-166.5001"/>
</g>
<!-- ServicesModule -->
<g id="node11" class="node">
<title>ServicesModule</title>
<polygon fill="#8dd3c7" stroke="#000000" points="358.472,-122 355.472,-126 334.472,-126 331.472,-122 251.528,-122 251.528,-86 358.472,-86 358.472,-122"/>
<text text-anchor="middle" x="305" y="-99.8" font-family="Times,serif" font-size="14.00" fill="#000000">ServicesModule</text>
</g>
<!-- ServicesModule&#45;&gt;AppModule -->
<g id="edge10" class="edge">
<title>ServicesModule&#45;&gt;AppModule</title>
<path fill="none" stroke="#000000" d="M305,-122.1061C305,-141.3391 305,-169 305,-169 305,-169 760.0787,-169 760.0787,-169"/>
<polygon fill="#000000" stroke="#000000" points="760.0788,-172.5001 770.0787,-169 760.0787,-165.5001 760.0788,-172.5001"/>
</g>
<!-- StateModule -->
<g id="node12" class="node">
<title>StateModule</title>
<polygon fill="#8dd3c7" stroke="#000000" points="233.544,-122 230.544,-126 209.544,-126 206.544,-122 146.456,-122 146.456,-86 233.544,-86 233.544,-122"/>
<text text-anchor="middle" x="190" y="-99.8" font-family="Times,serif" font-size="14.00" fill="#000000">StateModule</text>
</g>
<!-- StateModule&#45;&gt;AppModule -->
<g id="edge11" class="edge">
<title>StateModule&#45;&gt;AppModule</title>
<path fill="none" stroke="#000000" d="M190,-122.2843C190,-143.3211 190,-175 190,-175 190,-175 760.223,-175 760.223,-175"/>
<polygon fill="#000000" stroke="#000000" points="760.223,-178.5001 770.223,-175 760.223,-171.5001 760.223,-178.5001"/>
</g>
<!-- UtilitiesModule -->
<g id="node13" class="node">
<title>UtilitiesModule</title>
<polygon fill="#8dd3c7" stroke="#000000" points="128.1598,-122 125.1598,-126 104.1598,-126 101.1598,-122 23.8402,-122 23.8402,-86 128.1598,-86 128.1598,-122"/>
<text text-anchor="middle" x="76" y="-99.8" font-family="Times,serif" font-size="14.00" fill="#000000">UtilitiesModule</text>
</g>
<!-- UtilitiesModule&#45;&gt;AppModule -->
<g id="edge12" class="edge">
<title>UtilitiesModule&#45;&gt;AppModule</title>
<path fill="none" stroke="#000000" d="M76,-122.2479C76,-145.0179 76,-181 76,-181 76,-181 760.3207,-181 760.3207,-181"/>
<polygon fill="#000000" stroke="#000000" points="760.3207,-184.5001 770.3207,-181 760.3206,-177.5001 760.3207,-184.5001"/>
</g>
</g>
</svg>
