<?xml version="1.0" encoding="UTF-8" standalone="no"?>
<!DOCTYPE svg PUBLIC "-//W3C//DTD SVG 1.1//EN"
 "http://www.w3.org/Graphics/SVG/1.1/DTD/svg11.dtd">
<!-- Generated by graphviz version 2.40.1 (20161225.0304)
 -->
<!-- Title: dependencies Pages: 1 -->
<svg width="1885pt" height="211pt"
 viewBox="0.00 0.00 1885.00 211.00" xmlns="http://www.w3.org/2000/svg" xmlns:xlink="http://www.w3.org/1999/xlink">
<g id="graph0" class="graph" transform="scale(1 1) rotate(0) translate(4 207)">
<title>dependencies</title>
<polygon fill="#ffffff" stroke="transparent" points="-4,4 -4,-207 1881,-207 1881,4 -4,4"/>
<text text-anchor="start" x="917.5091" y="-42.4" font-family="sans-serif" font-weight="bold" font-size="14.00" fill="#000000">Legend</text>
<polygon fill="#ffffb3" stroke="transparent" points="704.5,-10 704.5,-30 724.5,-30 724.5,-10 704.5,-10"/>
<text text-anchor="start" x="728.129" y="-15.4" font-family="sans-serif" font-size="14.00" fill="#000000"> &#160;Declarations</text>
<polygon fill="#8dd3c7" stroke="transparent" points="817.5,-10 817.5,-30 837.5,-30 837.5,-10 817.5,-10"/>
<text text-anchor="start" x="841.2251" y="-15.4" font-family="sans-serif" font-size="14.00" fill="#000000"> &#160;Module</text>
<polygon fill="#80b1d3" stroke="transparent" points="903.5,-10 903.5,-30 923.5,-30 923.5,-10 903.5,-10"/>
<text text-anchor="start" x="927.2812" y="-15.4" font-family="sans-serif" font-size="14.00" fill="#000000"> &#160;Bootstrap</text>
<polygon fill="#fdb462" stroke="transparent" points="1000.5,-10 1000.5,-30 1020.5,-30 1020.5,-10 1000.5,-10"/>
<text text-anchor="start" x="1024.1732" y="-15.4" font-family="sans-serif" font-size="14.00" fill="#000000"> &#160;Providers</text>
<polygon fill="#fb8072" stroke="transparent" points="1096.5,-10 1096.5,-30 1116.5,-30 1116.5,-10 1096.5,-10"/>
<text text-anchor="start" x="1120.2258" y="-15.4" font-family="sans-serif" font-size="14.00" fill="#000000"> &#160;Exports</text>
<g id="clust1" class="cluster">
<title>cluster_ServicesModule</title>
<polygon fill="none" stroke="#000000" stroke-dasharray="1,5" points="8,-70 8,-195 1869,-195 1869,-70 8,-70"/>
</g>
<g id="clust6" class="cluster">
<title>cluster_ServicesModule_providers</title>
<polygon fill="none" stroke="#000000" points="16,-78 16,-130 1861,-130 1861,-78 16,-78"/>
</g>
<!-- AuthenticationService -->
<g id="node1" class="node">
<title>AuthenticationService</title>
<ellipse fill="#fdb462" stroke="#000000" cx="1756" cy="-104" rx="97.2683" ry="18"/>
<text text-anchor="middle" x="1756" y="-99.8" font-family="Times,serif" font-size="14.00" fill="#000000">AuthenticationService</text>
</g>
<!-- ServicesModule -->
<g id="node13" class="node">
<title>ServicesModule</title>
<polygon fill="#8dd3c7" stroke="#000000" points="990.472,-187 987.472,-191 966.472,-191 963.472,-187 883.528,-187 883.528,-151 990.472,-151 990.472,-187"/>
<text text-anchor="middle" x="937" y="-164.8" font-family="Times,serif" font-size="14.00" fill="#000000">ServicesModule</text>
</g>
<!-- AuthenticationService&#45;&gt;ServicesModule -->
<g id="edge1" class="edge">
<title>AuthenticationService&#45;&gt;ServicesModule</title>
<path fill="none" stroke="#000000" d="M1756,-122.0908C1756,-145.1328 1756,-182 1756,-182 1756,-182 1000.7369,-182 1000.7369,-182"/>
<polygon fill="#000000" stroke="#000000" points="1000.7369,-178.5001 990.7369,-182 1000.7368,-185.5001 1000.7369,-178.5001"/>
</g>
<!-- CardService -->
<g id="node2" class="node">
<title>CardService</title>
<ellipse fill="#fdb462" stroke="#000000" cx="1582" cy="-104" rx="58.5251" ry="18"/>
<text text-anchor="middle" x="1582" y="-99.8" font-family="Times,serif" font-size="14.00" fill="#000000">CardService</text>
</g>
<!-- CardService&#45;&gt;ServicesModule -->
<g id="edge2" class="edge">
<title>CardService&#45;&gt;ServicesModule</title>
<path fill="none" stroke="#000000" d="M1582,-122.2843C1582,-143.3211 1582,-175 1582,-175 1582,-175 1000.6071,-175 1000.6071,-175"/>
<polygon fill="#000000" stroke="#000000" points="1000.6071,-171.5001 990.6071,-175 1000.607,-178.5001 1000.6071,-171.5001"/>
</g>
<!-- ConfigService -->
<g id="node3" class="node">
<title>ConfigService</title>
<ellipse fill="#fdb462" stroke="#000000" cx="1438" cy="-104" rx="66.6325" ry="18"/>
<text text-anchor="middle" x="1438" y="-99.8" font-family="Times,serif" font-size="14.00" fill="#000000">ConfigService</text>
</g>
<!-- ConfigService&#45;&gt;ServicesModule -->
<g id="edge3" class="edge">
<title>ConfigService&#45;&gt;ServicesModule</title>
<path fill="none" stroke="#000000" d="M1438,-122.1061C1438,-141.3391 1438,-169 1438,-169 1438,-169 1000.6158,-169 1000.6158,-169"/>
<polygon fill="#000000" stroke="#000000" points="1000.6158,-165.5001 990.6158,-169 1000.6157,-172.5001 1000.6158,-165.5001"/>
</g>
<!-- FilterService -->
<g id="node4" class="node">
<title>FilterService</title>
<ellipse fill="#fdb462" stroke="#000000" cx="1292" cy="-104" rx="60.8255" ry="18"/>
<text text-anchor="middle" x="1292" y="-99.8" font-family="Times,serif" font-size="14.00" fill="#000000">FilterService</text>
</g>
<!-- FilterService&#45;&gt;ServicesModule -->
<g id="edge4" class="edge">
<title>FilterService&#45;&gt;ServicesModule</title>
<path fill="none" stroke="#000000" d="M1292,-122.0225C1292,-139.3734 1292,-163 1292,-163 1292,-163 1000.5315,-163 1000.5315,-163"/>
<polygon fill="#000000" stroke="#000000" points="1000.5315,-159.5001 990.5315,-163 1000.5314,-166.5001 1000.5315,-159.5001"/>
</g>
<!-- I18nService -->
<g id="node5" class="node">
<title>I18nService</title>
<ellipse fill="#fdb462" stroke="#000000" cx="1155" cy="-104" rx="57.8849" ry="18"/>
<text text-anchor="middle" x="1155" y="-99.8" font-family="Times,serif" font-size="14.00" fill="#000000">I18nService</text>
</g>
<!-- I18nService&#45;&gt;ServicesModule -->
<g id="edge5" class="edge">
<title>I18nService&#45;&gt;ServicesModule</title>
<path fill="none" stroke="#000000" d="M1155,-122.2396C1155,-137.5706 1155,-157 1155,-157 1155,-157 1000.608,-157 1000.608,-157"/>
<polygon fill="#000000" stroke="#000000" points="1000.608,-153.5001 990.608,-157 1000.608,-160.5001 1000.608,-153.5001"/>
</g>
<!-- NotifyService -->
<g id="node6" class="node">
<title>NotifyService</title>
<ellipse fill="#fdb462" stroke="#000000" cx="1014" cy="-104" rx="65.4053" ry="18"/>
<text text-anchor="middle" x="1014" y="-99.8" font-family="Times,serif" font-size="14.00" fill="#000000">NotifyService</text>
</g>
<!-- NotifyService&#45;&gt;ServicesModule -->
<g id="edge6" class="edge">
<title>NotifyService&#45;&gt;ServicesModule</title>
<path fill="none" stroke="#000000" d="M969.6418,-117.468C969.6418,-117.468 969.6418,-140.8642 969.6418,-140.8642"/>
<polygon fill="#000000" stroke="#000000" points="966.1419,-140.8641 969.6418,-150.8642 973.1419,-140.8642 966.1419,-140.8641"/>
</g>
<!-- SettingsService -->
<g id="node7" class="node">
<title>SettingsService</title>
<ellipse fill="#fdb462" stroke="#000000" cx="860" cy="-104" rx="71.221" ry="18"/>
<text text-anchor="middle" x="860" y="-99.8" font-family="Times,serif" font-size="14.00" fill="#000000">SettingsService</text>
</g>
<!-- SettingsService&#45;&gt;ServicesModule -->
<g id="edge7" class="edge">
<title>SettingsService&#45;&gt;ServicesModule</title>
<path fill="none" stroke="#000000" d="M907.3122,-117.468C907.3122,-117.468 907.3122,-140.8642 907.3122,-140.8642"/>
<polygon fill="#000000" stroke="#000000" points="903.8123,-140.8641 907.3122,-150.8642 910.8123,-140.8642 903.8123,-140.8641"/>
</g>
<!-- ThirdActionService -->
<g id="node8" class="node">
<title>ThirdActionService</title>
<ellipse fill="#fdb462" stroke="#000000" cx="683" cy="-104" rx="87.9587" ry="18"/>
<text text-anchor="middle" x="683" y="-99.8" font-family="Times,serif" font-size="14.00" fill="#000000">ThirdActionService</text>
</g>
<!-- ThirdActionService&#45;&gt;ServicesModule -->
<g id="edge8" class="edge">
<title>ThirdActionService&#45;&gt;ServicesModule</title>
<path fill="none" stroke="#000000" d="M683,-122.2396C683,-137.5706 683,-157 683,-157 683,-157 873.4435,-157 873.4435,-157"/>
<polygon fill="#000000" stroke="#000000" points="873.4435,-160.5001 883.4435,-157 873.4435,-153.5001 873.4435,-160.5001"/>
</g>
<!-- ThirdsService -->
<g id="node9" class="node">
<title>ThirdsService</title>
<ellipse fill="#fdb462" stroke="#000000" cx="512" cy="-104" rx="65.4053" ry="18"/>
<text text-anchor="middle" x="512" y="-99.8" font-family="Times,serif" font-size="14.00" fill="#000000">ThirdsService</text>
</g>
<!-- ThirdsService&#45;&gt;ServicesModule -->
<g id="edge9" class="edge">
<title>ThirdsService&#45;&gt;ServicesModule</title>
<path fill="none" stroke="#000000" d="M512,-122.0225C512,-139.3734 512,-163 512,-163 512,-163 873.1735,-163 873.1735,-163"/>
<polygon fill="#000000" stroke="#000000" points="873.1735,-166.5001 883.1735,-163 873.1734,-159.5001 873.1735,-166.5001"/>
</g>
<!-- TimeService -->
<g id="node10" class="node">
<title>TimeService</title>
<ellipse fill="#fdb462" stroke="#000000" cx="368" cy="-104" rx="60.2479" ry="18"/>
<text text-anchor="middle" x="368" y="-99.8" font-family="Times,serif" font-size="14.00" fill="#000000">TimeService</text>
</g>
<!-- TimeService&#45;&gt;ServicesModule -->
<g id="edge10" class="edge">
<title>TimeService&#45;&gt;ServicesModule</title>
<path fill="none" stroke="#000000" d="M368,-122.1061C368,-141.3391 368,-169 368,-169 368,-169 873.4699,-169 873.4699,-169"/>
<polygon fill="#000000" stroke="#000000" points="873.4699,-172.5001 883.4699,-169 873.4698,-165.5001 873.4699,-172.5001"/>
</g>
<!-- TokenInjector -->
<g id="node11" class="node">
<title>TokenInjector</title>
<ellipse fill="#fdb462" stroke="#000000" cx="224" cy="-104" rx="65.9716" ry="18"/>
<text text-anchor="middle" x="224" y="-99.8" font-family="Times,serif" font-size="14.00" fill="#000000">TokenInjector</text>
</g>
<!-- TokenInjector&#45;&gt;ServicesModule -->
<g id="edge11" class="edge">
<title>TokenInjector&#45;&gt;ServicesModule</title>
<path fill="none" stroke="#000000" d="M224,-122.2843C224,-143.3211 224,-175 224,-175 224,-175 873.4091,-175 873.4091,-175"/>
<polygon fill="#000000" stroke="#000000" points="873.4092,-178.5001 883.4091,-175 873.4091,-171.5001 873.4092,-178.5001"/>
</g>
<!-- UserService -->
<g id="node12" class="node">
<title>UserService</title>
<ellipse fill="#fdb462" stroke="#000000" cx="82" cy="-104" rx="58.4415" ry="18"/>
<text text-anchor="middle" x="82" y="-99.8" font-family="Times,serif" font-size="14.00" fill="#000000">UserService</text>
</g>
<!-- UserService&#45;&gt;ServicesModule -->
<g id="edge12" class="edge">
<title>UserService&#45;&gt;ServicesModule</title>
<path fill="none" stroke="#000000" d="M82,-122.0908C82,-145.1328 82,-182 82,-182 82,-182 873.5159,-182 873.5159,-182"/>
<polygon fill="#000000" stroke="#000000" points="873.516,-185.5001 883.5159,-182 873.5159,-178.5001 873.516,-185.5001"/>
</g>
</g>
</svg>
