<?xml version="1.0" encoding="UTF-8" standalone="no"?>
<!DOCTYPE svg PUBLIC "-//W3C//DTD SVG 1.1//EN"
 "http://www.w3.org/Graphics/SVG/1.1/DTD/svg11.dtd">
<!-- Generated by graphviz version 2.40.1 (20161225.0304)
 -->
<!-- Title: dependencies Pages: 1 -->
<svg width="2125pt" height="211pt"
 viewBox="0.00 0.00 2125.00 211.00" xmlns="http://www.w3.org/2000/svg" xmlns:xlink="http://www.w3.org/1999/xlink">
<g id="graph0" class="graph" transform="scale(1 1) rotate(0) translate(4 207)">
<title>dependencies</title>
<polygon fill="#ffffff" stroke="transparent" points="-4,4 -4,-207 2121,-207 2121,4 -4,4"/>
<text text-anchor="start" x="1037.5091" y="-42.4" font-family="sans-serif" font-weight="bold" font-size="14.00" fill="#000000">Legend</text>
<polygon fill="#ffffb3" stroke="transparent" points="824.5,-10 824.5,-30 844.5,-30 844.5,-10 824.5,-10"/>
<text text-anchor="start" x="848.129" y="-15.4" font-family="sans-serif" font-size="14.00" fill="#000000"> &#160;Declarations</text>
<polygon fill="#8dd3c7" stroke="transparent" points="937.5,-10 937.5,-30 957.5,-30 957.5,-10 937.5,-10"/>
<text text-anchor="start" x="961.2251" y="-15.4" font-family="sans-serif" font-size="14.00" fill="#000000"> &#160;Module</text>
<polygon fill="#80b1d3" stroke="transparent" points="1023.5,-10 1023.5,-30 1043.5,-30 1043.5,-10 1023.5,-10"/>
<text text-anchor="start" x="1047.2812" y="-15.4" font-family="sans-serif" font-size="14.00" fill="#000000"> &#160;Bootstrap</text>
<polygon fill="#fdb462" stroke="transparent" points="1120.5,-10 1120.5,-30 1140.5,-30 1140.5,-10 1120.5,-10"/>
<text text-anchor="start" x="1144.1732" y="-15.4" font-family="sans-serif" font-size="14.00" fill="#000000"> &#160;Providers</text>
<polygon fill="#fb8072" stroke="transparent" points="1216.5,-10 1216.5,-30 1236.5,-30 1236.5,-10 1216.5,-10"/>
<text text-anchor="start" x="1240.2258" y="-15.4" font-family="sans-serif" font-size="14.00" fill="#000000"> &#160;Exports</text>
<g id="clust1" class="cluster">
<title>cluster_ServicesModule</title>
<polygon fill="none" stroke="#000000" stroke-dasharray="1,5" points="8,-70 8,-195 2109,-195 2109,-70 8,-70"/>
</g>
<g id="clust6" class="cluster">
<title>cluster_ServicesModule_providers</title>
<polygon fill="none" stroke="#000000" points="16,-78 16,-130 2101,-130 2101,-78 16,-78"/>
</g>
<!-- AuthenticationService -->
<g id="node1" class="node">
<title>AuthenticationService</title>
<ellipse fill="#fdb462" stroke="#000000" cx="1996" cy="-104" rx="97.2683" ry="18"/>
<text text-anchor="middle" x="1996" y="-99.8" font-family="Times,serif" font-size="14.00" fill="#000000">AuthenticationService</text>
</g>
<!-- ServicesModule -->
<g id="node14" class="node">
<title>ServicesModule</title>
<polygon fill="#8dd3c7" stroke="#000000" points="1153.472,-187 1150.472,-191 1129.472,-191 1126.472,-187 1046.528,-187 1046.528,-151 1153.472,-151 1153.472,-187"/>
<text text-anchor="middle" x="1100" y="-164.8" font-family="Times,serif" font-size="14.00" fill="#000000">ServicesModule</text>
</g>
<!-- AuthenticationService&#45;&gt;ServicesModule -->
<g id="edge1" class="edge">
<title>AuthenticationService&#45;&gt;ServicesModule</title>
<path fill="none" stroke="#000000" d="M1996,-122.0908C1996,-145.1328 1996,-182 1996,-182 1996,-182 1163.6979,-182 1163.6979,-182"/>
<polygon fill="#000000" stroke="#000000" points="1163.6979,-178.5001 1153.6979,-182 1163.6978,-185.5001 1163.6979,-178.5001"/>
</g>
<!-- CardService -->
<g id="node2" class="node">
<title>CardService</title>
<ellipse fill="#fdb462" stroke="#000000" cx="1822" cy="-104" rx="58.5251" ry="18"/>
<text text-anchor="middle" x="1822" y="-99.8" font-family="Times,serif" font-size="14.00" fill="#000000">CardService</text>
</g>
<!-- CardService&#45;&gt;ServicesModule -->
<g id="edge2" class="edge">
<title>CardService&#45;&gt;ServicesModule</title>
<path fill="none" stroke="#000000" d="M1822,-122.0449C1822,-143.6623 1822,-177 1822,-177 1822,-177 1163.6775,-177 1163.6775,-177"/>
<polygon fill="#000000" stroke="#000000" points="1163.6775,-173.5001 1153.6775,-177 1163.6775,-180.5001 1163.6775,-173.5001"/>
</g>
<!-- ConfigService -->
<g id="node3" class="node">
<title>ConfigService</title>
<ellipse fill="#fdb462" stroke="#000000" cx="1678" cy="-104" rx="66.6325" ry="18"/>
<text text-anchor="middle" x="1678" y="-99.8" font-family="Times,serif" font-size="14.00" fill="#000000">ConfigService</text>
</g>
<!-- ConfigService&#45;&gt;ServicesModule -->
<g id="edge3" class="edge">
<title>ConfigService&#45;&gt;ServicesModule</title>
<path fill="none" stroke="#000000" d="M1678,-122.2228C1678,-142.3652 1678,-172 1678,-172 1678,-172 1163.5991,-172 1163.5991,-172"/>
<polygon fill="#000000" stroke="#000000" points="1163.5991,-168.5001 1153.5991,-172 1163.599,-175.5001 1163.5991,-168.5001"/>
</g>
<!-- FilterService -->
<g id="node4" class="node">
<title>FilterService</title>
<ellipse fill="#fdb462" stroke="#000000" cx="1532" cy="-104" rx="60.8255" ry="18"/>
<text text-anchor="middle" x="1532" y="-99.8" font-family="Times,serif" font-size="14.00" fill="#000000">FilterService</text>
</g>
<!-- FilterService&#45;&gt;ServicesModule -->
<g id="edge4" class="edge">
<title>FilterService&#45;&gt;ServicesModule</title>
<path fill="none" stroke="#000000" d="M1532,-122.2222C1532,-140.8285 1532,-167 1532,-167 1532,-167 1163.8396,-167 1163.8396,-167"/>
<polygon fill="#000000" stroke="#000000" points="1163.8397,-163.5001 1153.8396,-167 1163.8396,-170.5001 1163.8397,-163.5001"/>
</g>
<!-- I18nService -->
<g id="node5" class="node">
<title>I18nService</title>
<ellipse fill="#fdb462" stroke="#000000" cx="1395" cy="-104" rx="57.8849" ry="18"/>
<text text-anchor="middle" x="1395" y="-99.8" font-family="Times,serif" font-size="14.00" fill="#000000">I18nService</text>
</g>
<!-- I18nService&#45;&gt;ServicesModule -->
<g id="edge5" class="edge">
<title>I18nService&#45;&gt;ServicesModule</title>
<path fill="none" stroke="#000000" d="M1395,-122.0336C1395,-139.0597 1395,-162 1395,-162 1395,-162 1163.7645,-162 1163.7645,-162"/>
<polygon fill="#000000" stroke="#000000" points="1163.7646,-158.5001 1153.7645,-162 1163.7645,-165.5001 1163.7646,-158.5001"/>
</g>
<!-- NotifyService -->
<g id="node6" class="node">
<title>NotifyService</title>
<ellipse fill="#fdb462" stroke="#000000" cx="1254" cy="-104" rx="65.4053" ry="18"/>
<text text-anchor="middle" x="1254" y="-99.8" font-family="Times,serif" font-size="14.00" fill="#000000">NotifyService</text>
</g>
<!-- NotifyService&#45;&gt;ServicesModule -->
<g id="edge6" class="edge">
<title>NotifyService&#45;&gt;ServicesModule</title>
<path fill="none" stroke="#000000" d="M1254,-122.2396C1254,-137.5706 1254,-157 1254,-157 1254,-157 1163.8617,-157 1163.8617,-157"/>
<polygon fill="#000000" stroke="#000000" points="1163.8618,-153.5001 1153.8617,-157 1163.8617,-160.5001 1163.8618,-153.5001"/>
</g>
<!-- SettingsService -->
<g id="node7" class="node">
<title>SettingsService</title>
<ellipse fill="#fdb462" stroke="#000000" cx="1100" cy="-104" rx="71.221" ry="18"/>
<text text-anchor="middle" x="1100" y="-99.8" font-family="Times,serif" font-size="14.00" fill="#000000">SettingsService</text>
</g>
<!-- SettingsService&#45;&gt;ServicesModule -->
<g id="edge7" class="edge">
<title>SettingsService&#45;&gt;ServicesModule</title>
<path fill="none" stroke="#000000" d="M1100,-122.1061C1100,-122.1061 1100,-140.991 1100,-140.991"/>
<polygon fill="#000000" stroke="#000000" points="1096.5001,-140.9909 1100,-150.991 1103.5001,-140.991 1096.5001,-140.9909"/>
</g>
<!-- SoundNotificationService -->
<g id="node8" class="node">
<title>SoundNotificationService</title>
<ellipse fill="#fdb462" stroke="#000000" cx="900" cy="-104" rx="111.175" ry="18"/>
<text text-anchor="middle" x="900" y="-99.8" font-family="Times,serif" font-size="14.00" fill="#000000">SoundNotificationService</text>
</g>
<!-- SoundNotificationService&#45;&gt;ServicesModule -->
<g id="edge8" class="edge">
<title>SoundNotificationService&#45;&gt;ServicesModule</title>
<path fill="none" stroke="#000000" d="M900,-122.2396C900,-137.5706 900,-157 900,-157 900,-157 1036.4037,-157 1036.4037,-157"/>
<polygon fill="#000000" stroke="#000000" points="1036.4037,-160.5001 1046.4037,-157 1036.4036,-153.5001 1036.4037,-160.5001"/>
</g>
<!-- ThirdActionService -->
<g id="node9" class="node">
<title>ThirdActionService</title>
<ellipse fill="#fdb462" stroke="#000000" cx="683" cy="-104" rx="87.9587" ry="18"/>
<text text-anchor="middle" x="683" y="-99.8" font-family="Times,serif" font-size="14.00" fill="#000000">ThirdActionService</text>
</g>
<!-- ThirdActionService&#45;&gt;ServicesModule -->
<g id="edge9" class="edge">
<title>ThirdActionService&#45;&gt;ServicesModule</title>
<path fill="none" stroke="#000000" d="M683,-122.0336C683,-139.0597 683,-162 683,-162 683,-162 1036.3382,-162 1036.3382,-162"/>
<polygon fill="#000000" stroke="#000000" points="1036.3383,-165.5001 1046.3382,-162 1036.3382,-158.5001 1036.3383,-165.5001"/>
</g>
<!-- ThirdsService -->
<g id="node10" class="node">
<title>ThirdsService</title>
<ellipse fill="#fdb462" stroke="#000000" cx="512" cy="-104" rx="65.4053" ry="18"/>
<text text-anchor="middle" x="512" y="-99.8" font-family="Times,serif" font-size="14.00" fill="#000000">ThirdsService</text>
</g>
<!-- ThirdsService&#45;&gt;ServicesModule -->
<g id="edge10" class="edge">
<title>ThirdsService&#45;&gt;ServicesModule</title>
<path fill="none" stroke="#000000" d="M512,-122.2222C512,-140.8285 512,-167 512,-167 512,-167 1036.5213,-167 1036.5213,-167"/>
<polygon fill="#000000" stroke="#000000" points="1036.5213,-170.5001 1046.5213,-167 1036.5212,-163.5001 1036.5213,-170.5001"/>
</g>
<!-- TimeService -->
<g id="node11" class="node">
<title>TimeService</title>
<ellipse fill="#fdb462" stroke="#000000" cx="368" cy="-104" rx="60.2479" ry="18"/>
<text text-anchor="middle" x="368" y="-99.8" font-family="Times,serif" font-size="14.00" fill="#000000">TimeService</text>
</g>
<!-- TimeService&#45;&gt;ServicesModule -->
<g id="edge11" class="edge">
<title>TimeService&#45;&gt;ServicesModule</title>
<path fill="none" stroke="#000000" d="M368,-122.2228C368,-142.3652 368,-172 368,-172 368,-172 1036.4709,-172 1036.4709,-172"/>
<polygon fill="#000000" stroke="#000000" points="1036.4709,-175.5001 1046.4709,-172 1036.4708,-168.5001 1036.4709,-175.5001"/>
</g>
<!-- TokenInjector -->
<g id="node12" class="node">
<title>TokenInjector</title>
<ellipse fill="#fdb462" stroke="#000000" cx="224" cy="-104" rx="65.9716" ry="18"/>
<text text-anchor="middle" x="224" y="-99.8" font-family="Times,serif" font-size="14.00" fill="#000000">TokenInjector</text>
</g>
<!-- TokenInjector&#45;&gt;ServicesModule -->
<g id="edge12" class="edge">
<title>TokenInjector&#45;&gt;ServicesModule</title>
<path fill="none" stroke="#000000" d="M224,-122.0449C224,-143.6623 224,-177 224,-177 224,-177 1036.5209,-177 1036.5209,-177"/>
<polygon fill="#000000" stroke="#000000" points="1036.521,-180.5001 1046.5209,-177 1036.5209,-173.5001 1036.521,-180.5001"/>
</g>
<!-- UserService -->
<g id="node13" class="node">
<title>UserService</title>
<ellipse fill="#fdb462" stroke="#000000" cx="82" cy="-104" rx="58.4415" ry="18"/>
<text text-anchor="middle" x="82" y="-99.8" font-family="Times,serif" font-size="14.00" fill="#000000">UserService</text>
</g>
<!-- UserService&#45;&gt;ServicesModule -->
<g id="edge13" class="edge">
<title>UserService&#45;&gt;ServicesModule</title>
<path fill="none" stroke="#000000" d="M82,-122.0908C82,-145.1328 82,-182 82,-182 82,-182 1036.3445,-182 1036.3445,-182"/>
<polygon fill="#000000" stroke="#000000" points="1036.3445,-185.5001 1046.3445,-182 1036.3444,-178.5001 1036.3445,-185.5001"/>
</g>
</g>
</svg>
