<?xml version="1.0" encoding="UTF-8" standalone="no"?>
<!DOCTYPE svg PUBLIC "-//W3C//DTD SVG 1.1//EN"
 "http://www.w3.org/Graphics/SVG/1.1/DTD/svg11.dtd">
<!-- Generated by graphviz version 2.40.1 (20161225.0304)
 -->
<!-- Title: dependencies Pages: 1 -->
<svg width="823pt" height="211pt"
 viewBox="0.00 0.00 823.00 211.00" xmlns="http://www.w3.org/2000/svg" xmlns:xlink="http://www.w3.org/1999/xlink">
<g id="graph0" class="graph" transform="scale(1 1) rotate(0) translate(4 207)">
<title>dependencies</title>
<polygon fill="#ffffff" stroke="transparent" points="-4,4 -4,-207 819,-207 819,4 -4,4"/>
<text text-anchor="start" x="386.5091" y="-42.4" font-family="sans-serif" font-weight="bold" font-size="14.00" fill="#000000">Legend</text>
<polygon fill="#ffffb3" stroke="transparent" points="173.5,-10 173.5,-30 193.5,-30 193.5,-10 173.5,-10"/>
<text text-anchor="start" x="197.129" y="-15.4" font-family="sans-serif" font-size="14.00" fill="#000000"> &#160;Declarations</text>
<polygon fill="#8dd3c7" stroke="transparent" points="286.5,-10 286.5,-30 306.5,-30 306.5,-10 286.5,-10"/>
<text text-anchor="start" x="310.2251" y="-15.4" font-family="sans-serif" font-size="14.00" fill="#000000"> &#160;Module</text>
<polygon fill="#80b1d3" stroke="transparent" points="372.5,-10 372.5,-30 392.5,-30 392.5,-10 372.5,-10"/>
<text text-anchor="start" x="396.2812" y="-15.4" font-family="sans-serif" font-size="14.00" fill="#000000"> &#160;Bootstrap</text>
<polygon fill="#fdb462" stroke="transparent" points="469.5,-10 469.5,-30 489.5,-30 489.5,-10 469.5,-10"/>
<text text-anchor="start" x="493.1732" y="-15.4" font-family="sans-serif" font-size="14.00" fill="#000000"> &#160;Providers</text>
<polygon fill="#fb8072" stroke="transparent" points="565.5,-10 565.5,-30 585.5,-30 585.5,-10 565.5,-10"/>
<text text-anchor="start" x="589.2258" y="-15.4" font-family="sans-serif" font-size="14.00" fill="#000000"> &#160;Exports</text>
<g id="clust1" class="cluster">
<title>cluster_ServicesModule</title>
<polygon fill="none" stroke="#000000" stroke-dasharray="1,5" points="8,-70 8,-195 807,-195 807,-70 8,-70"/>
</g>
<g id="clust6" class="cluster">
<title>cluster_ServicesModule_providers</title>
<polygon fill="none" stroke="#000000" points="16,-78 16,-130 799,-130 799,-78 16,-78"/>
</g>
<!-- AuthenticationService -->
<g id="node1" class="node">
<title>AuthenticationService</title>
<ellipse fill="#fdb462" stroke="#000000" cx="694" cy="-104" rx="97.2683" ry="18"/>
<text text-anchor="middle" x="694" y="-99.8" font-family="Times,serif" font-size="14.00" fill="#000000">AuthenticationService</text>
</g>
<!-- ServicesModule -->
<g id="node6" class="node">
<title>ServicesModule</title>
<polygon fill="#8dd3c7" stroke="#000000" points="431.472,-187 428.472,-191 407.472,-191 404.472,-187 324.528,-187 324.528,-151 431.472,-151 431.472,-187"/>
<text text-anchor="middle" x="378" y="-164.8" font-family="Times,serif" font-size="14.00" fill="#000000">ServicesModule</text>
</g>
<!-- AuthenticationService&#45;&gt;ServicesModule -->
<g id="edge1" class="edge">
<title>AuthenticationService&#45;&gt;ServicesModule</title>
<path fill="none" stroke="#000000" d="M694,-122.2843C694,-143.3211 694,-175 694,-175 694,-175 441.6051,-175 441.6051,-175"/>
<polygon fill="#000000" stroke="#000000" points="441.6051,-171.5001 431.6051,-175 441.6051,-178.5001 441.6051,-171.5001"/>
</g>
<!-- CardService -->
<g id="node2" class="node">
<title>CardService</title>
<ellipse fill="#fdb462" stroke="#000000" cx="520" cy="-104" rx="58.5251" ry="18"/>
<text text-anchor="middle" x="520" y="-99.8" font-family="Times,serif" font-size="14.00" fill="#000000">CardService</text>
</g>
<!-- CardService&#45;&gt;ServicesModule -->
<g id="edge2" class="edge">
<title>CardService&#45;&gt;ServicesModule</title>
<path fill="none" stroke="#000000" d="M520,-122.0225C520,-139.3734 520,-163 520,-163 520,-163 441.6841,-163 441.6841,-163"/>
<polygon fill="#000000" stroke="#000000" points="441.6841,-159.5001 431.6841,-163 441.6841,-166.5001 441.6841,-159.5001"/>
</g>
<!-- ThirdsService -->
<g id="node3" class="node">
<title>ThirdsService</title>
<ellipse fill="#fdb462" stroke="#000000" cx="378" cy="-104" rx="65.4053" ry="18"/>
<text text-anchor="middle" x="378" y="-99.8" font-family="Times,serif" font-size="14.00" fill="#000000">ThirdsService</text>
</g>
<!-- ThirdsService&#45;&gt;ServicesModule -->
<g id="edge3" class="edge">
<title>ThirdsService&#45;&gt;ServicesModule</title>
<path fill="none" stroke="#000000" d="M378,-122.1061C378,-122.1061 378,-140.991 378,-140.991"/>
<polygon fill="#000000" stroke="#000000" points="374.5001,-140.9909 378,-150.991 381.5001,-140.991 374.5001,-140.9909"/>
</g>
<!-- TimeService -->
<g id="node4" class="node">
<title>TimeService</title>
<ellipse fill="#fdb462" stroke="#000000" cx="234" cy="-104" rx="60.2479" ry="18"/>
<text text-anchor="middle" x="234" y="-99.8" font-family="Times,serif" font-size="14.00" fill="#000000">TimeService</text>
</g>
<!-- TimeService&#45;&gt;ServicesModule -->
<g id="edge4" class="edge">
<title>TimeService&#45;&gt;ServicesModule</title>
<path fill="none" stroke="#000000" d="M234,-122.0225C234,-139.3734 234,-163 234,-163 234,-163 314.3797,-163 314.3797,-163"/>
<polygon fill="#000000" stroke="#000000" points="314.3797,-166.5001 324.3797,-163 314.3797,-159.5001 314.3797,-166.5001"/>
</g>
<!-- TokenInjector -->
<g id="node5" class="node">
<title>TokenInjector</title>
<ellipse fill="#fdb462" stroke="#000000" cx="90" cy="-104" rx="65.9716" ry="18"/>
<text text-anchor="middle" x="90" y="-99.8" font-family="Times,serif" font-size="14.00" fill="#000000">TokenInjector</text>
</g>
<!-- TokenInjector&#45;&gt;ServicesModule -->
<g id="edge5" class="edge">
<title>TokenInjector&#45;&gt;ServicesModule</title>
<path fill="none" stroke="#000000" d="M90,-122.2843C90,-143.3211 90,-175 90,-175 90,-175 314.5044,-175 314.5044,-175"/>
<polygon fill="#000000" stroke="#000000" points="314.5044,-178.5001 324.5044,-175 314.5043,-171.5001 314.5044,-178.5001"/>
</g>
</g>
</svg>
