<?xml version="1.0" encoding="UTF-8" standalone="no"?>
<!DOCTYPE svg PUBLIC "-//W3C//DTD SVG 1.1//EN"
 "http://www.w3.org/Graphics/SVG/1.1/DTD/svg11.dtd">
<!-- Generated by graphviz version 2.40.1 (20161225.0304)
 -->
<!-- Title: dependencies Pages: 1 -->
<svg width="922pt" height="284pt"
 viewBox="0.00 0.00 922.00 284.00" xmlns="http://www.w3.org/2000/svg" xmlns:xlink="http://www.w3.org/1999/xlink">
<g id="graph0" class="graph" transform="scale(1 1) rotate(0) translate(4 280)">
<title>dependencies</title>
<polygon fill="#ffffff" stroke="transparent" points="-4,4 -4,-280 918,-280 918,4 -4,4"/>
<text text-anchor="start" x="436.0091" y="-42.4" font-family="sans-serif" font-weight="bold" font-size="14.00" fill="#000000">Legend</text>
<polygon fill="#ffffb3" stroke="transparent" points="223,-10 223,-30 243,-30 243,-10 223,-10"/>
<text text-anchor="start" x="246.629" y="-15.4" font-family="sans-serif" font-size="14.00" fill="#000000"> &#160;Declarations</text>
<polygon fill="#8dd3c7" stroke="transparent" points="336,-10 336,-30 356,-30 356,-10 336,-10"/>
<text text-anchor="start" x="359.7251" y="-15.4" font-family="sans-serif" font-size="14.00" fill="#000000"> &#160;Module</text>
<polygon fill="#80b1d3" stroke="transparent" points="422,-10 422,-30 442,-30 442,-10 422,-10"/>
<text text-anchor="start" x="445.7812" y="-15.4" font-family="sans-serif" font-size="14.00" fill="#000000"> &#160;Bootstrap</text>
<polygon fill="#fdb462" stroke="transparent" points="519,-10 519,-30 539,-30 539,-10 519,-10"/>
<text text-anchor="start" x="542.6732" y="-15.4" font-family="sans-serif" font-size="14.00" fill="#000000"> &#160;Providers</text>
<polygon fill="#fb8072" stroke="transparent" points="615,-10 615,-30 635,-30 635,-10 615,-10"/>
<text text-anchor="start" x="638.7258" y="-15.4" font-family="sans-serif" font-size="14.00" fill="#000000"> &#160;Exports</text>
<g id="clust1" class="cluster">
<title>cluster_CardsModule</title>
<polygon fill="none" stroke="#000000" stroke-dasharray="1,5" points="8,-70 8,-268 906,-268 906,-70 8,-70"/>
</g>
<g id="clust2" class="cluster">
<title>cluster_CardsModule_declarations</title>
<polygon fill="none" stroke="#000000" points="336,-78 336,-130 898,-130 898,-78 336,-78"/>
</g>
<g id="clust7" class="cluster">
<title>cluster_CardsModule_imports</title>
<polygon fill="none" stroke="#000000" points="208,-78 208,-130 328,-130 328,-78 208,-78"/>
</g>
<g id="clust8" class="cluster">
<title>cluster_CardsModule_exports</title>
<polygon fill="none" stroke="#000000" points="181,-208 181,-260 758,-260 758,-208 181,-208"/>
</g>
<g id="clust10" class="cluster">
<title>cluster_CardsModule_providers</title>
<polygon fill="none" stroke="#000000" points="16,-78 16,-130 200,-130 200,-78 16,-78"/>
</g>
<!-- CardComponent -->
<g id="node1" class="node">
<title>CardComponent</title>
<polygon fill="#ffffb3" stroke="#000000" points="890.0452,-122 781.9548,-122 781.9548,-86 890.0452,-86 890.0452,-122"/>
<text text-anchor="middle" x="836" y="-99.8" font-family="Times,serif" font-size="14.00" fill="#000000">CardComponent</text>
</g>
<!-- CardsModule -->
<g id="node5" class="node">
<title>CardsModule</title>
<polygon fill="#8dd3c7" stroke="#000000" points="513.2064,-187 510.2064,-191 489.2064,-191 486.2064,-187 420.7936,-187 420.7936,-151 513.2064,-151 513.2064,-187"/>
<text text-anchor="middle" x="467" y="-164.8" font-family="Times,serif" font-size="14.00" fill="#000000">CardsModule</text>
</g>
<!-- CardComponent&#45;&gt;CardsModule -->
<g id="edge1" class="edge">
<title>CardComponent&#45;&gt;CardsModule</title>
<path fill="none" stroke="#000000" d="M836,-122.1061C836,-141.3391 836,-169 836,-169 836,-169 523.3605,-169 523.3605,-169"/>
<polygon fill="#000000" stroke="#000000" points="523.3605,-165.5001 513.3605,-169 523.3604,-172.5001 523.3605,-165.5001"/>
</g>
<!-- CardDetailsComponent -->
<g id="node2" class="node">
<title>CardDetailsComponent</title>
<polygon fill="#ffffb3" stroke="#000000" points="764.1965,-122 615.8035,-122 615.8035,-86 764.1965,-86 764.1965,-122"/>
<text text-anchor="middle" x="690" y="-99.8" font-family="Times,serif" font-size="14.00" fill="#000000">CardDetailsComponent</text>
</g>
<!-- CardDetailsComponent&#45;&gt;CardsModule -->
<g id="edge2" class="edge">
<title>CardDetailsComponent&#45;&gt;CardsModule</title>
<path fill="none" stroke="#000000" d="M628.9131,-122.027C628.9131,-138.3976 628.9131,-160 628.9131,-160 628.9131,-160 523.3978,-160 523.3978,-160"/>
<polygon fill="#000000" stroke="#000000" points="523.3978,-156.5001 513.3978,-160 523.3977,-163.5001 523.3978,-156.5001"/>
</g>
<!-- DetailComponent -->
<g id="node3" class="node">
<title>DetailComponent</title>
<polygon fill="#ffffb3" stroke="#000000" points="597.5409,-122 482.4591,-122 482.4591,-86 597.5409,-86 597.5409,-122"/>
<text text-anchor="middle" x="540" y="-99.8" font-family="Times,serif" font-size="14.00" fill="#000000">DetailComponent</text>
</g>
<!-- DetailComponent&#45;&gt;CardsModule -->
<g id="edge3" class="edge">
<title>DetailComponent&#45;&gt;CardsModule</title>
<path fill="none" stroke="#000000" d="M497.6666,-122.1061C497.6666,-122.1061 497.6666,-140.991 497.6666,-140.991"/>
<polygon fill="#000000" stroke="#000000" points="494.1666,-140.9909 497.6666,-150.991 501.1666,-140.991 494.1666,-140.9909"/>
</g>
<!-- DetailsComponent -->
<g id="node4" class="node">
<title>DetailsComponent</title>
<polygon fill="#ffffb3" stroke="#000000" points="464.4846,-122 343.5154,-122 343.5154,-86 464.4846,-86 464.4846,-122"/>
<text text-anchor="middle" x="404" y="-99.8" font-family="Times,serif" font-size="14.00" fill="#000000">DetailsComponent</text>
</g>
<!-- DetailsComponent&#45;&gt;CardsModule -->
<g id="edge4" class="edge">
<title>DetailsComponent&#45;&gt;CardsModule</title>
<path fill="none" stroke="#000000" d="M442.6946,-122.1061C442.6946,-122.1061 442.6946,-140.991 442.6946,-140.991"/>
<polygon fill="#000000" stroke="#000000" points="439.1947,-140.9909 442.6946,-150.991 446.1947,-140.991 439.1947,-140.9909"/>
</g>
<!-- CardComponent  -->
<g id="node7" class="node">
<title>CardComponent </title>
<polygon fill="#fb8072" stroke="#000000" points="750.0442,-252 637.9558,-252 637.9558,-216 750.0442,-216 750.0442,-252"/>
<text text-anchor="middle" x="694" y="-229.8" font-family="Times,serif" font-size="14.00" fill="#000000">CardComponent </text>
</g>
<!-- CardsModule&#45;&gt;CardComponent  -->
<g id="edge6" class="edge">
<title>CardsModule&#45;&gt;CardComponent </title>
<path fill="none" stroke="#000000" stroke-dasharray="5,2" d="M513.2104,-178C579.5819,-178 694,-178 694,-178 694,-178 694,-205.973 694,-205.973"/>
<polygon fill="#000000" stroke="#000000" points="690.5001,-205.973 694,-215.973 697.5001,-205.973 690.5001,-205.973"/>
</g>
<!-- CardDetailsComponent  -->
<g id="node8" class="node">
<title>CardDetailsComponent </title>
<polygon fill="#fb8072" stroke="#000000" points="619.6967,-252 468.3033,-252 468.3033,-216 619.6967,-216 619.6967,-252"/>
<text text-anchor="middle" x="544" y="-229.8" font-family="Times,serif" font-size="14.00" fill="#000000">CardDetailsComponent </text>
</g>
<!-- CardsModule&#45;&gt;CardDetailsComponent  -->
<g id="edge7" class="edge">
<title>CardsModule&#45;&gt;CardDetailsComponent </title>
<path fill="none" stroke="#000000" stroke-dasharray="5,2" d="M490.6275,-187.1061C490.6275,-187.1061 490.6275,-205.991 490.6275,-205.991"/>
<polygon fill="#000000" stroke="#000000" points="487.1275,-205.9909 490.6275,-215.991 494.1275,-205.991 487.1275,-205.9909"/>
</g>
<!-- DetailComponent  -->
<g id="node9" class="node">
<title>DetailComponent </title>
<polygon fill="#fb8072" stroke="#000000" points="450.54,-252 331.46,-252 331.46,-216 450.54,-216 450.54,-252"/>
<text text-anchor="middle" x="391" y="-229.8" font-family="Times,serif" font-size="14.00" fill="#000000">DetailComponent </text>
</g>
<!-- CardsModule&#45;&gt;DetailComponent  -->
<g id="edge8" class="edge">
<title>CardsModule&#45;&gt;DetailComponent </title>
<path fill="none" stroke="#000000" stroke-dasharray="5,2" d="M435.7085,-187.1061C435.7085,-187.1061 435.7085,-205.991 435.7085,-205.991"/>
<polygon fill="#000000" stroke="#000000" points="432.2085,-205.9909 435.7085,-215.991 439.2085,-205.991 432.2085,-205.9909"/>
</g>
<!-- DetailsComponent  -->
<g id="node10" class="node">
<title>DetailsComponent </title>
<polygon fill="#fb8072" stroke="#000000" points="313.4855,-252 188.5145,-252 188.5145,-216 313.4855,-216 313.4855,-252"/>
<text text-anchor="middle" x="251" y="-229.8" font-family="Times,serif" font-size="14.00" fill="#000000">DetailsComponent </text>
</g>
<!-- CardsModule&#45;&gt;DetailsComponent  -->
<g id="edge9" class="edge">
<title>CardsModule&#45;&gt;DetailsComponent </title>
<path fill="none" stroke="#000000" stroke-dasharray="5,2" d="M420.7863,-178C361.0075,-178 264.4564,-178 264.4564,-178 264.4564,-178 264.4564,-205.973 264.4564,-205.973"/>
<polygon fill="#000000" stroke="#000000" points="260.9564,-205.973 264.4564,-215.973 267.9564,-205.973 260.9564,-205.973"/>
</g>
<!-- UtilitiesModule -->
<g id="node6" class="node">
<title>UtilitiesModule</title>
<polygon fill="#8dd3c7" stroke="#000000" points="320.1598,-122 317.1598,-126 296.1598,-126 293.1598,-122 215.8402,-122 215.8402,-86 320.1598,-86 320.1598,-122"/>
<text text-anchor="middle" x="268" y="-99.8" font-family="Times,serif" font-size="14.00" fill="#000000">UtilitiesModule</text>
</g>
<!-- UtilitiesModule&#45;&gt;CardsModule -->
<g id="edge5" class="edge">
<title>UtilitiesModule&#45;&gt;CardsModule</title>
<path fill="none" stroke="#000000" d="M316.786,-122.027C316.786,-138.3976 316.786,-160 316.786,-160 316.786,-160 410.7051,-160 410.7051,-160"/>
<polygon fill="#000000" stroke="#000000" points="410.7052,-163.5001 420.7051,-160 410.7051,-156.5001 410.7052,-163.5001"/>
</g>
<!-- HandlebarsService -->
<g id="node11" class="node">
<title>HandlebarsService</title>
<ellipse fill="#fdb462" stroke="#000000" cx="108" cy="-104" rx="83.9257" ry="18"/>
<text text-anchor="middle" x="108" y="-99.8" font-family="Times,serif" font-size="14.00" fill="#000000">HandlebarsService</text>
</g>
<!-- HandlebarsService&#45;&gt;CardsModule -->
<g id="edge10" class="edge">
<title>HandlebarsService&#45;&gt;CardsModule</title>
<path fill="none" stroke="#000000" d="M106.3974,-122.1061C106.3974,-141.3391 106.3974,-169 106.3974,-169 106.3974,-169 410.5957,-169 410.5957,-169"/>
<polygon fill="#000000" stroke="#000000" points="410.5958,-172.5001 420.5957,-169 410.5957,-165.5001 410.5958,-172.5001"/>
</g>
</g>
</svg>
