<?xml version="1.0" encoding="UTF-8" standalone="no"?>
<!DOCTYPE svg PUBLIC "-//W3C//DTD SVG 1.1//EN"
 "http://www.w3.org/Graphics/SVG/1.1/DTD/svg11.dtd">
<!-- Generated by graphviz version 2.40.1 (20161225.0304)
 -->
<!-- Title: dependencies Pages: 1 -->
<svg width="1345pt" height="284pt"
 viewBox="0.00 0.00 1345.00 284.00" xmlns="http://www.w3.org/2000/svg" xmlns:xlink="http://www.w3.org/1999/xlink">
<g id="graph0" class="graph" transform="scale(1 1) rotate(0) translate(4 280)">
<title>dependencies</title>
<polygon fill="#ffffff" stroke="transparent" points="-4,4 -4,-280 1341,-280 1341,4 -4,4"/>
<text text-anchor="start" x="647.5091" y="-42.4" font-family="sans-serif" font-weight="bold" font-size="14.00" fill="#000000">Legend</text>
<polygon fill="#ffffb3" stroke="transparent" points="434.5,-10 434.5,-30 454.5,-30 454.5,-10 434.5,-10"/>
<text text-anchor="start" x="458.129" y="-15.4" font-family="sans-serif" font-size="14.00" fill="#000000"> &#160;Declarations</text>
<polygon fill="#8dd3c7" stroke="transparent" points="547.5,-10 547.5,-30 567.5,-30 567.5,-10 547.5,-10"/>
<text text-anchor="start" x="571.2251" y="-15.4" font-family="sans-serif" font-size="14.00" fill="#000000"> &#160;Module</text>
<polygon fill="#80b1d3" stroke="transparent" points="633.5,-10 633.5,-30 653.5,-30 653.5,-10 633.5,-10"/>
<text text-anchor="start" x="657.2812" y="-15.4" font-family="sans-serif" font-size="14.00" fill="#000000"> &#160;Bootstrap</text>
<polygon fill="#fdb462" stroke="transparent" points="730.5,-10 730.5,-30 750.5,-30 750.5,-10 730.5,-10"/>
<text text-anchor="start" x="754.1732" y="-15.4" font-family="sans-serif" font-size="14.00" fill="#000000"> &#160;Providers</text>
<polygon fill="#fb8072" stroke="transparent" points="826.5,-10 826.5,-30 846.5,-30 846.5,-10 826.5,-10"/>
<text text-anchor="start" x="850.2258" y="-15.4" font-family="sans-serif" font-size="14.00" fill="#000000"> &#160;Exports</text>
<g id="clust1" class="cluster">
<title>cluster_AppModule</title>
<polygon fill="none" stroke="#000000" stroke-dasharray="1,5" points="8,-70 8,-268 1329,-268 1329,-70 8,-70"/>
</g>
<g id="clust2" class="cluster">
<title>cluster_AppModule_declarations</title>
<polygon fill="none" stroke="#000000" points="521,-78 521,-130 1321,-130 1321,-78 521,-78"/>
</g>
<g id="clust9" class="cluster">
<title>cluster_AppModule_imports</title>
<polygon fill="none" stroke="#000000" points="16,-78 16,-130 513,-130 513,-78 16,-78"/>
</g>
<g id="clust11" class="cluster">
<title>cluster_AppModule_bootstrap</title>
<polygon fill="none" stroke="#000000" points="602,-208 602,-260 726,-260 726,-208 602,-208"/>
</g>
<!-- AppComponent -->
<g id="node1" class="node">
<title>AppComponent</title>
<polygon fill="#ffffb3" stroke="#000000" points="1312.9399,-122 1207.0601,-122 1207.0601,-86 1312.9399,-86 1312.9399,-122"/>
<text text-anchor="middle" x="1260" y="-99.8" font-family="Times,serif" font-size="14.00" fill="#000000">AppComponent</text>
</g>
<!-- AppModule -->
<g id="node7" class="node">
<title>AppModule</title>
<polygon fill="#8dd3c7" stroke="#000000" points="705.6571,-187 702.6571,-191 681.6571,-191 678.6571,-187 622.3429,-187 622.3429,-151 705.6571,-151 705.6571,-187"/>
<text text-anchor="middle" x="664" y="-164.8" font-family="Times,serif" font-size="14.00" fill="#000000">AppModule</text>
</g>
<!-- AppComponent&#45;&gt;AppModule -->
<g id="edge1" class="edge">
<title>AppComponent&#45;&gt;AppModule</title>
<path fill="none" stroke="#000000" d="M1260,-122.0109C1260,-144.4852 1260,-180 1260,-180 1260,-180 715.9096,-180 715.9096,-180"/>
<polygon fill="#000000" stroke="#000000" points="715.9096,-176.5001 705.9096,-180 715.9095,-183.5001 715.9096,-176.5001"/>
</g>
<!-- IconComponent -->
<g id="node2" class="node">
<title>IconComponent</title>
<polygon fill="#ffffb3" stroke="#000000" points="1189.2078,-122 1082.7922,-122 1082.7922,-86 1189.2078,-86 1189.2078,-122"/>
<text text-anchor="middle" x="1136" y="-99.8" font-family="Times,serif" font-size="14.00" fill="#000000">IconComponent</text>
</g>
<!-- IconComponent&#45;&gt;AppModule -->
<g id="edge2" class="edge">
<title>IconComponent&#45;&gt;AppModule</title>
<path fill="none" stroke="#000000" d="M1136,-122.1289C1136,-142.5724 1136,-173 1136,-173 1136,-173 715.8869,-173 715.8869,-173"/>
<polygon fill="#000000" stroke="#000000" points="715.8869,-169.5001 705.8869,-173 715.8868,-176.5001 715.8869,-169.5001"/>
</g>
<!-- InfoComponent -->
<g id="node3" class="node">
<title>InfoComponent</title>
<polygon fill="#ffffb3" stroke="#000000" points="1065.1542,-122 960.8458,-122 960.8458,-86 1065.1542,-86 1065.1542,-122"/>
<text text-anchor="middle" x="1013" y="-99.8" font-family="Times,serif" font-size="14.00" fill="#000000">InfoComponent</text>
</g>
<!-- InfoComponent&#45;&gt;AppModule -->
<g id="edge3" class="edge">
<title>InfoComponent&#45;&gt;AppModule</title>
<path fill="none" stroke="#000000" d="M1013,-122.2667C1013,-140.5552 1013,-166 1013,-166 1013,-166 715.7509,-166 715.7509,-166"/>
<polygon fill="#000000" stroke="#000000" points="715.7509,-162.5001 705.7509,-166 715.7509,-169.5001 715.7509,-162.5001"/>
</g>
<!-- LoginComponent -->
<g id="node4" class="node">
<title>LoginComponent</title>
<polygon fill="#ffffb3" stroke="#000000" points="942.2758,-122 827.7242,-122 827.7242,-86 942.2758,-86 942.2758,-122"/>
<text text-anchor="middle" x="885" y="-99.8" font-family="Times,serif" font-size="14.00" fill="#000000">LoginComponent</text>
</g>
<!-- LoginComponent&#45;&gt;AppModule -->
<g id="edge4" class="edge">
<title>LoginComponent&#45;&gt;AppModule</title>
<path fill="none" stroke="#000000" d="M885,-122.0091C885,-138.0494 885,-159 885,-159 885,-159 715.8282,-159 715.8282,-159"/>
<polygon fill="#000000" stroke="#000000" points="715.8283,-155.5001 705.8282,-159 715.8282,-162.5001 715.8283,-155.5001"/>
</g>
<!-- MenuLinkComponent -->
<g id="node5" class="node">
<title>MenuLinkComponent</title>
<polygon fill="#ffffb3" stroke="#000000" points="809.4355,-122 668.5645,-122 668.5645,-86 809.4355,-86 809.4355,-122"/>
<text text-anchor="middle" x="739" y="-99.8" font-family="Times,serif" font-size="14.00" fill="#000000">MenuLinkComponent</text>
</g>
<!-- MenuLinkComponent&#45;&gt;AppModule -->
<g id="edge5" class="edge">
<title>MenuLinkComponent&#45;&gt;AppModule</title>
<path fill="none" stroke="#000000" d="M687.3054,-122.1061C687.3054,-122.1061 687.3054,-140.991 687.3054,-140.991"/>
<polygon fill="#000000" stroke="#000000" points="683.8055,-140.9909 687.3054,-150.991 690.8055,-140.991 683.8055,-140.9909"/>
</g>
<!-- NavbarComponent -->
<g id="node6" class="node">
<title>NavbarComponent</title>
<polygon fill="#ffffb3" stroke="#000000" points="651.0297,-122 528.9703,-122 528.9703,-86 651.0297,-86 651.0297,-122"/>
<text text-anchor="middle" x="590" y="-99.8" font-family="Times,serif" font-size="14.00" fill="#000000">NavbarComponent</text>
</g>
<!-- NavbarComponent&#45;&gt;AppModule -->
<g id="edge6" class="edge">
<title>NavbarComponent&#45;&gt;AppModule</title>
<path fill="none" stroke="#000000" d="M636.7181,-122.1061C636.7181,-122.1061 636.7181,-140.991 636.7181,-140.991"/>
<polygon fill="#000000" stroke="#000000" points="633.2182,-140.9909 636.7181,-150.991 640.2182,-140.991 633.2182,-140.9909"/>
</g>
<!-- AppComponent  -->
<g id="node12" class="node">
<title>AppComponent </title>
<polygon fill="#80b1d3" stroke="#000000" points="718.439,-252 609.561,-252 609.561,-216 718.439,-216 718.439,-252"/>
<text text-anchor="middle" x="664" y="-229.8" font-family="Times,serif" font-size="14.00" fill="#000000">AppComponent </text>
</g>
<!-- AppModule&#45;&gt;AppComponent  -->
<g id="edge11" class="edge">
<title>AppModule&#45;&gt;AppComponent </title>
<path fill="none" stroke="#000000" stroke-dasharray="1,5" d="M664,-187.1061C664,-187.1061 664,-205.991 664,-205.991"/>
<polygon fill="#000000" stroke="#000000" points="660.5001,-205.9909 664,-215.991 667.5001,-205.991 660.5001,-205.9909"/>
</g>
<!-- AppRoutingModule -->
<g id="node8" class="node">
<title>AppRoutingModule</title>
<polygon fill="#8dd3c7" stroke="#000000" points="505.2744,-122 502.2744,-126 481.2744,-126 478.2744,-122 376.7256,-122 376.7256,-86 505.2744,-86 505.2744,-122"/>
<text text-anchor="middle" x="441" y="-99.8" font-family="Times,serif" font-size="14.00" fill="#000000">AppRoutingModule</text>
</g>
<!-- AppRoutingModule&#45;&gt;AppModule -->
<g id="edge7" class="edge">
<title>AppRoutingModule&#45;&gt;AppModule</title>
<path fill="none" stroke="#000000" d="M441,-122.0091C441,-138.0494 441,-159 441,-159 441,-159 612.317,-159 612.317,-159"/>
<polygon fill="#000000" stroke="#000000" points="612.317,-162.5001 622.317,-159 612.317,-155.5001 612.317,-162.5001"/>
</g>
<!-- ServicesModule -->
<g id="node9" class="node">
<title>ServicesModule</title>
<polygon fill="#8dd3c7" stroke="#000000" points="358.472,-122 355.472,-126 334.472,-126 331.472,-122 251.528,-122 251.528,-86 358.472,-86 358.472,-122"/>
<text text-anchor="middle" x="305" y="-99.8" font-family="Times,serif" font-size="14.00" fill="#000000">ServicesModule</text>
</g>
<!-- ServicesModule&#45;&gt;AppModule -->
<g id="edge8" class="edge">
<title>ServicesModule&#45;&gt;AppModule</title>
<path fill="none" stroke="#000000" d="M305,-122.2667C305,-140.5552 305,-166 305,-166 305,-166 612.1155,-166 612.1155,-166"/>
<polygon fill="#000000" stroke="#000000" points="612.1156,-169.5001 622.1155,-166 612.1155,-162.5001 612.1156,-169.5001"/>
</g>
<!-- StateModule -->
<g id="node10" class="node">
<title>StateModule</title>
<polygon fill="#8dd3c7" stroke="#000000" points="233.544,-122 230.544,-126 209.544,-126 206.544,-122 146.456,-122 146.456,-86 233.544,-86 233.544,-122"/>
<text text-anchor="middle" x="190" y="-99.8" font-family="Times,serif" font-size="14.00" fill="#000000">StateModule</text>
</g>
<!-- StateModule&#45;&gt;AppModule -->
<g id="edge9" class="edge">
<title>StateModule&#45;&gt;AppModule</title>
<path fill="none" stroke="#000000" d="M190,-122.1289C190,-142.5724 190,-173 190,-173 190,-173 611.9357,-173 611.9357,-173"/>
<polygon fill="#000000" stroke="#000000" points="611.9357,-176.5001 621.9357,-173 611.9356,-169.5001 611.9357,-176.5001"/>
</g>
<!-- UtilitiesModule -->
<g id="node11" class="node">
<title>UtilitiesModule</title>
<polygon fill="#8dd3c7" stroke="#000000" points="128.1598,-122 125.1598,-126 104.1598,-126 101.1598,-122 23.8402,-122 23.8402,-86 128.1598,-86 128.1598,-122"/>
<text text-anchor="middle" x="76" y="-99.8" font-family="Times,serif" font-size="14.00" fill="#000000">UtilitiesModule</text>
</g>
<!-- UtilitiesModule&#45;&gt;AppModule -->
<g id="edge10" class="edge">
<title>UtilitiesModule&#45;&gt;AppModule</title>
<path fill="none" stroke="#000000" d="M76,-122.0109C76,-144.4852 76,-180 76,-180 76,-180 612.1839,-180 612.1839,-180"/>
<polygon fill="#000000" stroke="#000000" points="612.1839,-183.5001 622.1839,-180 612.1838,-176.5001 612.1839,-183.5001"/>
</g>
</g>
</svg>
