<?xml version="1.0" encoding="UTF-8" standalone="no"?>
<!DOCTYPE svg PUBLIC "-//W3C//DTD SVG 1.1//EN"
 "http://www.w3.org/Graphics/SVG/1.1/DTD/svg11.dtd">
<!-- Generated by graphviz version 2.40.1 (20161225.0304)
 -->
<!-- Title: dependencies Pages: 1 -->
<svg width="1840pt" height="284pt"
 viewBox="0.00 0.00 1840.00 284.00" xmlns="http://www.w3.org/2000/svg" xmlns:xlink="http://www.w3.org/1999/xlink">
<g id="graph0" class="graph" transform="scale(1 1) rotate(0) translate(4 280)">
<title>dependencies</title>
<polygon fill="#ffffff" stroke="transparent" points="-4,4 -4,-280 1836,-280 1836,4 -4,4"/>
<text text-anchor="start" x="895.0091" y="-42.4" font-family="sans-serif" font-weight="bold" font-size="14.00" fill="#000000">Legend</text>
<polygon fill="#ffffb3" stroke="transparent" points="682,-10 682,-30 702,-30 702,-10 682,-10"/>
<text text-anchor="start" x="705.629" y="-15.4" font-family="sans-serif" font-size="14.00" fill="#000000"> &#160;Declarations</text>
<polygon fill="#8dd3c7" stroke="transparent" points="795,-10 795,-30 815,-30 815,-10 795,-10"/>
<text text-anchor="start" x="818.7251" y="-15.4" font-family="sans-serif" font-size="14.00" fill="#000000"> &#160;Module</text>
<polygon fill="#80b1d3" stroke="transparent" points="881,-10 881,-30 901,-30 901,-10 881,-10"/>
<text text-anchor="start" x="904.7812" y="-15.4" font-family="sans-serif" font-size="14.00" fill="#000000"> &#160;Bootstrap</text>
<polygon fill="#fdb462" stroke="transparent" points="978,-10 978,-30 998,-30 998,-10 978,-10"/>
<text text-anchor="start" x="1001.6732" y="-15.4" font-family="sans-serif" font-size="14.00" fill="#000000"> &#160;Providers</text>
<polygon fill="#fb8072" stroke="transparent" points="1074,-10 1074,-30 1094,-30 1094,-10 1074,-10"/>
<text text-anchor="start" x="1097.7258" y="-15.4" font-family="sans-serif" font-size="14.00" fill="#000000"> &#160;Exports</text>
<g id="clust1" class="cluster">
<title>cluster_AppModule</title>
<polygon fill="none" stroke="#000000" stroke-dasharray="1,5" points="8,-70 8,-268 1824,-268 1824,-70 8,-70"/>
</g>
<g id="clust2" class="cluster">
<title>cluster_AppModule_declarations</title>
<polygon fill="none" stroke="#000000" points="710,-78 710,-130 1816,-130 1816,-78 710,-78"/>
</g>
<g id="clust11" class="cluster">
<title>cluster_AppModule_imports</title>
<polygon fill="none" stroke="#000000" points="16,-78 16,-130 702,-130 702,-78 16,-78"/>
</g>
<g id="clust13" class="cluster">
<title>cluster_AppModule_bootstrap</title>
<polygon fill="none" stroke="#000000" points="866,-208 866,-260 990,-260 990,-208 866,-208"/>
</g>
<!-- AboutComponent -->
<g id="node1" class="node">
<title>AboutComponent</title>
<polygon fill="#ffffb3" stroke="#000000" points="1808.3301,-122 1691.6699,-122 1691.6699,-86 1808.3301,-86 1808.3301,-122"/>
<text text-anchor="middle" x="1750" y="-99.8" font-family="Times,serif" font-size="14.00" fill="#000000">AboutComponent</text>
</g>
<!-- AppModule -->
<g id="node9" class="node">
<title>AppModule</title>
<polygon fill="#8dd3c7" stroke="#000000" points="969.6571,-187 966.6571,-191 945.6571,-191 942.6571,-187 886.3429,-187 886.3429,-151 969.6571,-151 969.6571,-187"/>
<text text-anchor="middle" x="928" y="-164.8" font-family="Times,serif" font-size="14.00" fill="#000000">AppModule</text>
</g>
<!-- AboutComponent&#45;&gt;AppModule -->
<g id="edge1" class="edge">
<title>AboutComponent&#45;&gt;AppModule</title>
<path fill="none" stroke="#000000" d="M1750,-122.0908C1750,-145.1328 1750,-182 1750,-182 1750,-182 979.8932,-182 979.8932,-182"/>
<polygon fill="#000000" stroke="#000000" points="979.8932,-178.5001 969.8932,-182 979.8932,-185.5001 979.8932,-178.5001"/>
</g>
<!-- AppComponent -->
<g id="node2" class="node">
<title>AppComponent</title>
<polygon fill="#ffffb3" stroke="#000000" points="1673.9399,-122 1568.0601,-122 1568.0601,-86 1673.9399,-86 1673.9399,-122"/>
<text text-anchor="middle" x="1621" y="-99.8" font-family="Times,serif" font-size="14.00" fill="#000000">AppComponent</text>
</g>
<!-- AppComponent&#45;&gt;AppModule -->
<g id="edge2" class="edge">
<title>AppComponent&#45;&gt;AppModule</title>
<path fill="none" stroke="#000000" d="M1621,-122.0449C1621,-143.6623 1621,-177 1621,-177 1621,-177 979.7896,-177 979.7896,-177"/>
<polygon fill="#000000" stroke="#000000" points="979.7897,-173.5001 969.7896,-177 979.7896,-180.5001 979.7897,-173.5001"/>
</g>
<!-- CustomLogoComponent -->
<g id="node3" class="node">
<title>CustomLogoComponent</title>
<polygon fill="#ffffb3" stroke="#000000" points="1550.448,-122 1395.552,-122 1395.552,-86 1550.448,-86 1550.448,-122"/>
<text text-anchor="middle" x="1473" y="-99.8" font-family="Times,serif" font-size="14.00" fill="#000000">CustomLogoComponent</text>
</g>
<!-- CustomLogoComponent&#45;&gt;AppModule -->
<g id="edge3" class="edge">
<title>CustomLogoComponent&#45;&gt;AppModule</title>
<path fill="none" stroke="#000000" d="M1473,-122.2228C1473,-142.3652 1473,-172 1473,-172 1473,-172 979.8603,-172 979.8603,-172"/>
<polygon fill="#000000" stroke="#000000" points="979.8603,-168.5001 969.8603,-172 979.8603,-175.5001 979.8603,-168.5001"/>
</g>
<!-- IconComponent -->
<g id="node4" class="node">
<title>IconComponent</title>
<polygon fill="#ffffb3" stroke="#000000" points="1378.2078,-122 1271.7922,-122 1271.7922,-86 1378.2078,-86 1378.2078,-122"/>
<text text-anchor="middle" x="1325" y="-99.8" font-family="Times,serif" font-size="14.00" fill="#000000">IconComponent</text>
</g>
<!-- IconComponent&#45;&gt;AppModule -->
<g id="edge4" class="edge">
<title>IconComponent&#45;&gt;AppModule</title>
<path fill="none" stroke="#000000" d="M1325,-122.2222C1325,-140.8285 1325,-167 1325,-167 1325,-167 979.7356,-167 979.7356,-167"/>
<polygon fill="#000000" stroke="#000000" points="979.7356,-163.5001 969.7356,-167 979.7356,-170.5001 979.7356,-163.5001"/>
</g>
<!-- InfoComponent -->
<g id="node5" class="node">
<title>InfoComponent</title>
<polygon fill="#ffffb3" stroke="#000000" points="1254.1542,-122 1149.8458,-122 1149.8458,-86 1254.1542,-86 1254.1542,-122"/>
<text text-anchor="middle" x="1202" y="-99.8" font-family="Times,serif" font-size="14.00" fill="#000000">InfoComponent</text>
</g>
<!-- InfoComponent&#45;&gt;AppModule -->
<g id="edge5" class="edge">
<title>InfoComponent&#45;&gt;AppModule</title>
<path fill="none" stroke="#000000" d="M1202,-122.0336C1202,-139.0597 1202,-162 1202,-162 1202,-162 979.913,-162 979.913,-162"/>
<polygon fill="#000000" stroke="#000000" points="979.913,-158.5001 969.913,-162 979.9129,-165.5001 979.913,-158.5001"/>
</g>
<!-- LoginComponent -->
<g id="node6" class="node">
<title>LoginComponent</title>
<polygon fill="#ffffb3" stroke="#000000" points="1131.2758,-122 1016.7242,-122 1016.7242,-86 1131.2758,-86 1131.2758,-122"/>
<text text-anchor="middle" x="1074" y="-99.8" font-family="Times,serif" font-size="14.00" fill="#000000">LoginComponent</text>
</g>
<!-- LoginComponent&#45;&gt;AppModule -->
<g id="edge6" class="edge">
<title>LoginComponent&#45;&gt;AppModule</title>
<path fill="none" stroke="#000000" d="M1074,-122.2396C1074,-137.5706 1074,-157 1074,-157 1074,-157 979.8377,-157 979.8377,-157"/>
<polygon fill="#000000" stroke="#000000" points="979.8378,-153.5001 969.8377,-157 979.8377,-160.5001 979.8378,-153.5001"/>
</g>
<!-- MenuLinkComponent -->
<g id="node7" class="node">
<title>MenuLinkComponent</title>
<polygon fill="#ffffb3" stroke="#000000" points="998.4355,-122 857.5645,-122 857.5645,-86 998.4355,-86 998.4355,-122"/>
<text text-anchor="middle" x="928" y="-99.8" font-family="Times,serif" font-size="14.00" fill="#000000">MenuLinkComponent</text>
</g>
<!-- MenuLinkComponent&#45;&gt;AppModule -->
<g id="edge7" class="edge">
<title>MenuLinkComponent&#45;&gt;AppModule</title>
<path fill="none" stroke="#000000" d="M928,-122.1061C928,-122.1061 928,-140.991 928,-140.991"/>
<polygon fill="#000000" stroke="#000000" points="924.5001,-140.9909 928,-150.991 931.5001,-140.991 924.5001,-140.9909"/>
</g>
<!-- NavbarComponent -->
<g id="node8" class="node">
<title>NavbarComponent</title>
<polygon fill="#ffffb3" stroke="#000000" points="840.0297,-122 717.9703,-122 717.9703,-86 840.0297,-86 840.0297,-122"/>
<text text-anchor="middle" x="779" y="-99.8" font-family="Times,serif" font-size="14.00" fill="#000000">NavbarComponent</text>
</g>
<!-- NavbarComponent&#45;&gt;AppModule -->
<g id="edge8" class="edge">
<title>NavbarComponent&#45;&gt;AppModule</title>
<path fill="none" stroke="#000000" d="M779,-122.2396C779,-137.5706 779,-157 779,-157 779,-157 876.0987,-157 876.0987,-157"/>
<polygon fill="#000000" stroke="#000000" points="876.0987,-160.5001 886.0987,-157 876.0986,-153.5001 876.0987,-160.5001"/>
</g>
<!-- AppComponent  -->
<g id="node15" class="node">
<title>AppComponent </title>
<polygon fill="#80b1d3" stroke="#000000" points="982.439,-252 873.561,-252 873.561,-216 982.439,-216 982.439,-252"/>
<text text-anchor="middle" x="928" y="-229.8" font-family="Times,serif" font-size="14.00" fill="#000000">AppComponent </text>
</g>
<!-- AppModule&#45;&gt;AppComponent  -->
<g id="edge14" class="edge">
<title>AppModule&#45;&gt;AppComponent </title>
<path fill="none" stroke="#000000" stroke-dasharray="1,5" d="M928,-187.1061C928,-187.1061 928,-205.991 928,-205.991"/>
<polygon fill="#000000" stroke="#000000" points="924.5001,-205.9909 928,-215.991 931.5001,-205.991 924.5001,-205.9909"/>
</g>
<!-- AppRoutingModule -->
<g id="node10" class="node">
<title>AppRoutingModule</title>
<polygon fill="#8dd3c7" stroke="#000000" points="694.2744,-122 691.2744,-126 670.2744,-126 667.2744,-122 565.7256,-122 565.7256,-86 694.2744,-86 694.2744,-122"/>
<text text-anchor="middle" x="630" y="-99.8" font-family="Times,serif" font-size="14.00" fill="#000000">AppRoutingModule</text>
</g>
<!-- AppRoutingModule&#45;&gt;AppModule -->
<g id="edge9" class="edge">
<title>AppRoutingModule&#45;&gt;AppModule</title>
<path fill="none" stroke="#000000" d="M630,-122.0336C630,-139.0597 630,-162 630,-162 630,-162 876.2506,-162 876.2506,-162"/>
<polygon fill="#000000" stroke="#000000" points="876.2506,-165.5001 886.2506,-162 876.2506,-158.5001 876.2506,-165.5001"/>
</g>
<!-- FontAwesomeIconsModule -->
<g id="node11" class="node">
<title>FontAwesomeIconsModule</title>
<polygon fill="#8dd3c7" stroke="#000000" points="547.5211,-122 544.5211,-126 523.5211,-126 520.5211,-122 376.4789,-122 376.4789,-86 547.5211,-86 547.5211,-122"/>
<text text-anchor="middle" x="462" y="-99.8" font-family="Times,serif" font-size="14.00" fill="#000000">FontAwesomeIconsModule</text>
</g>
<!-- FontAwesomeIconsModule&#45;&gt;AppModule -->
<g id="edge10" class="edge">
<title>FontAwesomeIconsModule&#45;&gt;AppModule</title>
<path fill="none" stroke="#000000" d="M462,-122.2222C462,-140.8285 462,-167 462,-167 462,-167 876.2355,-167 876.2355,-167"/>
<polygon fill="#000000" stroke="#000000" points="876.2355,-170.5001 886.2355,-167 876.2355,-163.5001 876.2355,-170.5001"/>
</g>
<!-- ServicesModule -->
<g id="node12" class="node">
<title>ServicesModule</title>
<polygon fill="#8dd3c7" stroke="#000000" points="358.472,-122 355.472,-126 334.472,-126 331.472,-122 251.528,-122 251.528,-86 358.472,-86 358.472,-122"/>
<text text-anchor="middle" x="305" y="-99.8" font-family="Times,serif" font-size="14.00" fill="#000000">ServicesModule</text>
</g>
<!-- ServicesModule&#45;&gt;AppModule -->
<g id="edge11" class="edge">
<title>ServicesModule&#45;&gt;AppModule</title>
<path fill="none" stroke="#000000" d="M305,-122.2228C305,-142.3652 305,-172 305,-172 305,-172 876.1558,-172 876.1558,-172"/>
<polygon fill="#000000" stroke="#000000" points="876.1559,-175.5001 886.1558,-172 876.1558,-168.5001 876.1559,-175.5001"/>
</g>
<!-- StateModule -->
<g id="node13" class="node">
<title>StateModule</title>
<polygon fill="#8dd3c7" stroke="#000000" points="233.544,-122 230.544,-126 209.544,-126 206.544,-122 146.456,-122 146.456,-86 233.544,-86 233.544,-122"/>
<text text-anchor="middle" x="190" y="-99.8" font-family="Times,serif" font-size="14.00" fill="#000000">StateModule</text>
</g>
<!-- StateModule&#45;&gt;AppModule -->
<g id="edge12" class="edge">
<title>StateModule&#45;&gt;AppModule</title>
<path fill="none" stroke="#000000" d="M190,-122.0449C190,-143.6623 190,-177 190,-177 190,-177 876.2074,-177 876.2074,-177"/>
<polygon fill="#000000" stroke="#000000" points="876.2074,-180.5001 886.2074,-177 876.2074,-173.5001 876.2074,-180.5001"/>
</g>
<!-- UtilitiesModule -->
<g id="node14" class="node">
<title>UtilitiesModule</title>
<polygon fill="#8dd3c7" stroke="#000000" points="128.1598,-122 125.1598,-126 104.1598,-126 101.1598,-122 23.8402,-122 23.8402,-86 128.1598,-86 128.1598,-122"/>
<text text-anchor="middle" x="76" y="-99.8" font-family="Times,serif" font-size="14.00" fill="#000000">UtilitiesModule</text>
</g>
<!-- UtilitiesModule&#45;&gt;AppModule -->
<g id="edge13" class="edge">
<title>UtilitiesModule&#45;&gt;AppModule</title>
<path fill="none" stroke="#000000" d="M76,-122.0908C76,-145.1328 76,-182 76,-182 76,-182 876.3295,-182 876.3295,-182"/>
<polygon fill="#000000" stroke="#000000" points="876.3295,-185.5001 886.3295,-182 876.3295,-178.5001 876.3295,-185.5001"/>
</g>
</g>
</svg>
