<?xml version="1.0" encoding="UTF-8" standalone="no"?>
<!DOCTYPE svg PUBLIC "-//W3C//DTD SVG 1.1//EN"
 "http://www.w3.org/Graphics/SVG/1.1/DTD/svg11.dtd">
<!-- Generated by graphviz version 2.40.1 (20161225.0304)
 -->
<!-- Title: dependencies Pages: 1 -->
<svg width="1249pt" height="211pt"
 viewBox="0.00 0.00 1249.00 211.00" xmlns="http://www.w3.org/2000/svg" xmlns:xlink="http://www.w3.org/1999/xlink">
<g id="graph0" class="graph" transform="scale(1 1) rotate(0) translate(4 207)">
<title>dependencies</title>
<polygon fill="#ffffff" stroke="transparent" points="-4,4 -4,-207 1245,-207 1245,4 -4,4"/>
<text text-anchor="start" x="599.5091" y="-42.4" font-family="sans-serif" font-weight="bold" font-size="14.00" fill="#000000">Legend</text>
<polygon fill="#ffffb3" stroke="transparent" points="386.5,-10 386.5,-30 406.5,-30 406.5,-10 386.5,-10"/>
<text text-anchor="start" x="410.129" y="-15.4" font-family="sans-serif" font-size="14.00" fill="#000000"> &#160;Declarations</text>
<polygon fill="#8dd3c7" stroke="transparent" points="499.5,-10 499.5,-30 519.5,-30 519.5,-10 499.5,-10"/>
<text text-anchor="start" x="523.2251" y="-15.4" font-family="sans-serif" font-size="14.00" fill="#000000"> &#160;Module</text>
<polygon fill="#80b1d3" stroke="transparent" points="585.5,-10 585.5,-30 605.5,-30 605.5,-10 585.5,-10"/>
<text text-anchor="start" x="609.2812" y="-15.4" font-family="sans-serif" font-size="14.00" fill="#000000"> &#160;Bootstrap</text>
<polygon fill="#fdb462" stroke="transparent" points="682.5,-10 682.5,-30 702.5,-30 702.5,-10 682.5,-10"/>
<text text-anchor="start" x="706.1732" y="-15.4" font-family="sans-serif" font-size="14.00" fill="#000000"> &#160;Providers</text>
<polygon fill="#fb8072" stroke="transparent" points="778.5,-10 778.5,-30 798.5,-30 798.5,-10 778.5,-10"/>
<text text-anchor="start" x="802.2258" y="-15.4" font-family="sans-serif" font-size="14.00" fill="#000000"> &#160;Exports</text>
<g id="clust1" class="cluster">
<title>cluster_ServicesModule</title>
<polygon fill="none" stroke="#000000" stroke-dasharray="1,5" points="8,-70 8,-195 1233,-195 1233,-70 8,-70"/>
</g>
<g id="clust6" class="cluster">
<title>cluster_ServicesModule_providers</title>
<polygon fill="none" stroke="#000000" points="16,-78 16,-130 1225,-130 1225,-78 16,-78"/>
</g>
<!-- AuthenticationService -->
<g id="node1" class="node">
<title>AuthenticationService</title>
<ellipse fill="#fdb462" stroke="#000000" cx="1120" cy="-104" rx="97.2683" ry="18"/>
<text text-anchor="middle" x="1120" y="-99.8" font-family="Times,serif" font-size="14.00" fill="#000000">AuthenticationService</text>
</g>
<!-- ServicesModule -->
<g id="node9" class="node">
<title>ServicesModule</title>
<polygon fill="#8dd3c7" stroke="#000000" points="640.472,-187 637.472,-191 616.472,-191 613.472,-187 533.528,-187 533.528,-151 640.472,-151 640.472,-187"/>
<text text-anchor="middle" x="587" y="-164.8" font-family="Times,serif" font-size="14.00" fill="#000000">ServicesModule</text>
</g>
<!-- AuthenticationService&#45;&gt;ServicesModule -->
<g id="edge1" class="edge">
<title>AuthenticationService&#45;&gt;ServicesModule</title>
<path fill="none" stroke="#000000" d="M1120,-122.2921C1120,-144.2057 1120,-178 1120,-178 1120,-178 650.5465,-178 650.5465,-178"/>
<polygon fill="#000000" stroke="#000000" points="650.5465,-174.5001 640.5465,-178 650.5464,-181.5001 650.5465,-174.5001"/>
</g>
<!-- CardService -->
<g id="node2" class="node">
<title>CardService</title>
<ellipse fill="#fdb462" stroke="#000000" cx="946" cy="-104" rx="58.5251" ry="18"/>
<text text-anchor="middle" x="946" y="-99.8" font-family="Times,serif" font-size="14.00" fill="#000000">CardService</text>
</g>
<!-- CardService&#45;&gt;ServicesModule -->
<g id="edge2" class="edge">
<title>CardService&#45;&gt;ServicesModule</title>
<path fill="none" stroke="#000000" d="M946,-122.1061C946,-141.3391 946,-169 946,-169 946,-169 650.7459,-169 650.7459,-169"/>
<polygon fill="#000000" stroke="#000000" points="650.746,-165.5001 640.7459,-169 650.7459,-172.5001 650.746,-165.5001"/>
</g>
<!-- ConfigService -->
<g id="node3" class="node">
<title>ConfigService</title>
<ellipse fill="#fdb462" stroke="#000000" cx="802" cy="-104" rx="66.6325" ry="18"/>
<text text-anchor="middle" x="802" y="-99.8" font-family="Times,serif" font-size="14.00" fill="#000000">ConfigService</text>
</g>
<!-- ConfigService&#45;&gt;ServicesModule -->
<g id="edge3" class="edge">
<title>ConfigService&#45;&gt;ServicesModule</title>
<path fill="none" stroke="#000000" d="M802,-122.027C802,-138.3976 802,-160 802,-160 802,-160 650.699,-160 650.699,-160"/>
<polygon fill="#000000" stroke="#000000" points="650.699,-156.5001 640.699,-160 650.6989,-163.5001 650.699,-156.5001"/>
</g>
<!-- FilterService -->
<g id="node4" class="node">
<title>FilterService</title>
<ellipse fill="#fdb462" stroke="#000000" cx="656" cy="-104" rx="60.8255" ry="18"/>
<text text-anchor="middle" x="656" y="-99.8" font-family="Times,serif" font-size="14.00" fill="#000000">FilterService</text>
</g>
<!-- FilterService&#45;&gt;ServicesModule -->
<g id="edge4" class="edge">
<title>FilterService&#45;&gt;ServicesModule</title>
<path fill="none" stroke="#000000" d="M617.7867,-118.104C617.7867,-118.104 617.7867,-140.7209 617.7867,-140.7209"/>
<polygon fill="#000000" stroke="#000000" points="614.2868,-140.7209 617.7867,-150.7209 621.2868,-140.7209 614.2868,-140.7209"/>
</g>
<!-- I18nService -->
<g id="node5" class="node">
<title>I18nService</title>
<ellipse fill="#fdb462" stroke="#000000" cx="519" cy="-104" rx="57.8849" ry="18"/>
<text text-anchor="middle" x="519" y="-99.8" font-family="Times,serif" font-size="14.00" fill="#000000">I18nService</text>
</g>
<!-- I18nService&#45;&gt;ServicesModule -->
<g id="edge5" class="edge">
<title>I18nService&#45;&gt;ServicesModule</title>
<path fill="none" stroke="#000000" d="M555.1031,-118.104C555.1031,-118.104 555.1031,-140.7209 555.1031,-140.7209"/>
<polygon fill="#000000" stroke="#000000" points="551.6032,-140.7209 555.1031,-150.7209 558.6032,-140.7209 551.6032,-140.7209"/>
</g>
<!-- ThirdsService -->
<g id="node6" class="node">
<title>ThirdsService</title>
<ellipse fill="#fdb462" stroke="#000000" cx="378" cy="-104" rx="65.4053" ry="18"/>
<text text-anchor="middle" x="378" y="-99.8" font-family="Times,serif" font-size="14.00" fill="#000000">ThirdsService</text>
</g>
<!-- ThirdsService&#45;&gt;ServicesModule -->
<g id="edge6" class="edge">
<title>ThirdsService&#45;&gt;ServicesModule</title>
<path fill="none" stroke="#000000" d="M378,-122.027C378,-138.3976 378,-160 378,-160 378,-160 523.4487,-160 523.4487,-160"/>
<polygon fill="#000000" stroke="#000000" points="523.4487,-163.5001 533.4487,-160 523.4487,-156.5001 523.4487,-163.5001"/>
</g>
<!-- TimeService -->
<g id="node7" class="node">
<title>TimeService</title>
<ellipse fill="#fdb462" stroke="#000000" cx="234" cy="-104" rx="60.2479" ry="18"/>
<text text-anchor="middle" x="234" y="-99.8" font-family="Times,serif" font-size="14.00" fill="#000000">TimeService</text>
</g>
<!-- TimeService&#45;&gt;ServicesModule -->
<g id="edge7" class="edge">
<title>TimeService&#45;&gt;ServicesModule</title>
<path fill="none" stroke="#000000" d="M234,-122.1061C234,-141.3391 234,-169 234,-169 234,-169 523.3869,-169 523.3869,-169"/>
<polygon fill="#000000" stroke="#000000" points="523.3869,-172.5001 533.3869,-169 523.3869,-165.5001 523.3869,-172.5001"/>
</g>
<!-- TokenInjector -->
<g id="node8" class="node">
<title>TokenInjector</title>
<ellipse fill="#fdb462" stroke="#000000" cx="90" cy="-104" rx="65.9716" ry="18"/>
<text text-anchor="middle" x="90" y="-99.8" font-family="Times,serif" font-size="14.00" fill="#000000">TokenInjector</text>
</g>
<!-- TokenInjector&#45;&gt;ServicesModule -->
<g id="edge8" class="edge">
<title>TokenInjector&#45;&gt;ServicesModule</title>
<path fill="none" stroke="#000000" d="M90,-122.2921C90,-144.2057 90,-178 90,-178 90,-178 523.3401,-178 523.3401,-178"/>
<polygon fill="#000000" stroke="#000000" points="523.3401,-181.5001 533.3401,-178 523.34,-174.5001 523.3401,-181.5001"/>
</g>
</g>
</svg>
