<?xml version="1.0" encoding="UTF-8" standalone="no"?>
<!DOCTYPE svg PUBLIC "-//W3C//DTD SVG 1.1//EN"
 "http://www.w3.org/Graphics/SVG/1.1/DTD/svg11.dtd">
<!-- Generated by graphviz version 2.40.1 (20161225.0304)
 -->
<!-- Title: dependencies Pages: 1 -->
<svg width="1409pt" height="211pt"
 viewBox="0.00 0.00 1409.00 211.00" xmlns="http://www.w3.org/2000/svg" xmlns:xlink="http://www.w3.org/1999/xlink">
<g id="graph0" class="graph" transform="scale(1 1) rotate(0) translate(4 207)">
<title>dependencies</title>
<polygon fill="#ffffff" stroke="transparent" points="-4,4 -4,-207 1405,-207 1405,4 -4,4"/>
<text text-anchor="start" x="679.5091" y="-42.4" font-family="sans-serif" font-weight="bold" font-size="14.00" fill="#000000">Legend</text>
<polygon fill="#ffffb3" stroke="transparent" points="466.5,-10 466.5,-30 486.5,-30 486.5,-10 466.5,-10"/>
<text text-anchor="start" x="490.129" y="-15.4" font-family="sans-serif" font-size="14.00" fill="#000000"> &#160;Declarations</text>
<polygon fill="#8dd3c7" stroke="transparent" points="579.5,-10 579.5,-30 599.5,-30 599.5,-10 579.5,-10"/>
<text text-anchor="start" x="603.2251" y="-15.4" font-family="sans-serif" font-size="14.00" fill="#000000"> &#160;Module</text>
<polygon fill="#80b1d3" stroke="transparent" points="665.5,-10 665.5,-30 685.5,-30 685.5,-10 665.5,-10"/>
<text text-anchor="start" x="689.2812" y="-15.4" font-family="sans-serif" font-size="14.00" fill="#000000"> &#160;Bootstrap</text>
<polygon fill="#fdb462" stroke="transparent" points="762.5,-10 762.5,-30 782.5,-30 782.5,-10 762.5,-10"/>
<text text-anchor="start" x="786.1732" y="-15.4" font-family="sans-serif" font-size="14.00" fill="#000000"> &#160;Providers</text>
<polygon fill="#fb8072" stroke="transparent" points="858.5,-10 858.5,-30 878.5,-30 878.5,-10 858.5,-10"/>
<text text-anchor="start" x="882.2258" y="-15.4" font-family="sans-serif" font-size="14.00" fill="#000000"> &#160;Exports</text>
<g id="clust1" class="cluster">
<title>cluster_ServicesModule</title>
<polygon fill="none" stroke="#000000" stroke-dasharray="1,5" points="8,-70 8,-195 1393,-195 1393,-70 8,-70"/>
</g>
<g id="clust6" class="cluster">
<title>cluster_ServicesModule_providers</title>
<polygon fill="none" stroke="#000000" points="16,-78 16,-130 1385,-130 1385,-78 16,-78"/>
</g>
<!-- AuthenticationService -->
<g id="node1" class="node">
<title>AuthenticationService</title>
<ellipse fill="#fdb462" stroke="#000000" cx="1280" cy="-104" rx="97.2683" ry="18"/>
<text text-anchor="middle" x="1280" y="-99.8" font-family="Times,serif" font-size="14.00" fill="#000000">AuthenticationService</text>
</g>
<!-- ServicesModule -->
<g id="node10" class="node">
<title>ServicesModule</title>
<polygon fill="#8dd3c7" stroke="#000000" points="732.472,-187 729.472,-191 708.472,-191 705.472,-187 625.528,-187 625.528,-151 732.472,-151 732.472,-187"/>
<text text-anchor="middle" x="679" y="-164.8" font-family="Times,serif" font-size="14.00" fill="#000000">ServicesModule</text>
</g>
<!-- AuthenticationService&#45;&gt;ServicesModule -->
<g id="edge1" class="edge">
<title>AuthenticationService&#45;&gt;ServicesModule</title>
<path fill="none" stroke="#000000" d="M1280,-122.0109C1280,-144.4852 1280,-180 1280,-180 1280,-180 742.5989,-180 742.5989,-180"/>
<polygon fill="#000000" stroke="#000000" points="742.599,-176.5001 732.5989,-180 742.5989,-183.5001 742.599,-176.5001"/>
</g>
<!-- CardService -->
<g id="node2" class="node">
<title>CardService</title>
<ellipse fill="#fdb462" stroke="#000000" cx="1106" cy="-104" rx="58.5251" ry="18"/>
<text text-anchor="middle" x="1106" y="-99.8" font-family="Times,serif" font-size="14.00" fill="#000000">CardService</text>
</g>
<!-- CardService&#45;&gt;ServicesModule -->
<g id="edge2" class="edge">
<title>CardService&#45;&gt;ServicesModule</title>
<path fill="none" stroke="#000000" d="M1106,-122.1289C1106,-142.5724 1106,-173 1106,-173 1106,-173 742.6475,-173 742.6475,-173"/>
<polygon fill="#000000" stroke="#000000" points="742.6475,-169.5001 732.6475,-173 742.6474,-176.5001 742.6475,-169.5001"/>
</g>
<!-- ConfigService -->
<g id="node3" class="node">
<title>ConfigService</title>
<ellipse fill="#fdb462" stroke="#000000" cx="962" cy="-104" rx="66.6325" ry="18"/>
<text text-anchor="middle" x="962" y="-99.8" font-family="Times,serif" font-size="14.00" fill="#000000">ConfigService</text>
</g>
<!-- ConfigService&#45;&gt;ServicesModule -->
<g id="edge3" class="edge">
<title>ConfigService&#45;&gt;ServicesModule</title>
<path fill="none" stroke="#000000" d="M962,-122.2667C962,-140.5552 962,-166 962,-166 962,-166 742.5628,-166 742.5628,-166"/>
<polygon fill="#000000" stroke="#000000" points="742.5629,-162.5001 732.5628,-166 742.5628,-169.5001 742.5629,-162.5001"/>
</g>
<!-- FilterService -->
<g id="node4" class="node">
<title>FilterService</title>
<ellipse fill="#fdb462" stroke="#000000" cx="816" cy="-104" rx="60.8255" ry="18"/>
<text text-anchor="middle" x="816" y="-99.8" font-family="Times,serif" font-size="14.00" fill="#000000">FilterService</text>
</g>
<!-- FilterService&#45;&gt;ServicesModule -->
<g id="edge4" class="edge">
<title>FilterService&#45;&gt;ServicesModule</title>
<path fill="none" stroke="#000000" d="M816,-122.0091C816,-138.0494 816,-159 816,-159 816,-159 742.7528,-159 742.7528,-159"/>
<polygon fill="#000000" stroke="#000000" points="742.7529,-155.5001 732.7528,-159 742.7528,-162.5001 742.7529,-155.5001"/>
</g>
<!-- I18nService -->
<g id="node5" class="node">
<title>I18nService</title>
<ellipse fill="#fdb462" stroke="#000000" cx="679" cy="-104" rx="57.8849" ry="18"/>
<text text-anchor="middle" x="679" y="-99.8" font-family="Times,serif" font-size="14.00" fill="#000000">I18nService</text>
</g>
<!-- I18nService&#45;&gt;ServicesModule -->
<g id="edge5" class="edge">
<title>I18nService&#45;&gt;ServicesModule</title>
<path fill="none" stroke="#000000" d="M679,-122.1061C679,-122.1061 679,-140.991 679,-140.991"/>
<polygon fill="#000000" stroke="#000000" points="675.5001,-140.9909 679,-150.991 682.5001,-140.991 675.5001,-140.9909"/>
</g>
<!-- SettingsService -->
<g id="node6" class="node">
<title>SettingsService</title>
<ellipse fill="#fdb462" stroke="#000000" cx="532" cy="-104" rx="71.221" ry="18"/>
<text text-anchor="middle" x="532" y="-99.8" font-family="Times,serif" font-size="14.00" fill="#000000">SettingsService</text>
</g>
<!-- SettingsService&#45;&gt;ServicesModule -->
<g id="edge6" class="edge">
<title>SettingsService&#45;&gt;ServicesModule</title>
<path fill="none" stroke="#000000" d="M532,-122.0091C532,-138.0494 532,-159 532,-159 532,-159 615.5138,-159 615.5138,-159"/>
<polygon fill="#000000" stroke="#000000" points="615.5138,-162.5001 625.5138,-159 615.5138,-155.5001 615.5138,-162.5001"/>
</g>
<!-- ThirdsService -->
<g id="node7" class="node">
<title>ThirdsService</title>
<ellipse fill="#fdb462" stroke="#000000" cx="378" cy="-104" rx="65.4053" ry="18"/>
<text text-anchor="middle" x="378" y="-99.8" font-family="Times,serif" font-size="14.00" fill="#000000">ThirdsService</text>
</g>
<!-- ThirdsService&#45;&gt;ServicesModule -->
<g id="edge7" class="edge">
<title>ThirdsService&#45;&gt;ServicesModule</title>
<path fill="none" stroke="#000000" d="M378,-122.2667C378,-140.5552 378,-166 378,-166 378,-166 615.1872,-166 615.1872,-166"/>
<polygon fill="#000000" stroke="#000000" points="615.1873,-169.5001 625.1872,-166 615.1872,-162.5001 615.1873,-169.5001"/>
</g>
<!-- TimeService -->
<g id="node8" class="node">
<title>TimeService</title>
<ellipse fill="#fdb462" stroke="#000000" cx="234" cy="-104" rx="60.2479" ry="18"/>
<text text-anchor="middle" x="234" y="-99.8" font-family="Times,serif" font-size="14.00" fill="#000000">TimeService</text>
</g>
<!-- TimeService&#45;&gt;ServicesModule -->
<g id="edge8" class="edge">
<title>TimeService&#45;&gt;ServicesModule</title>
<path fill="none" stroke="#000000" d="M234,-122.1289C234,-142.5724 234,-173 234,-173 234,-173 615.3226,-173 615.3226,-173"/>
<polygon fill="#000000" stroke="#000000" points="615.3226,-176.5001 625.3226,-173 615.3226,-169.5001 615.3226,-176.5001"/>
</g>
<!-- TokenInjector -->
<g id="node9" class="node">
<title>TokenInjector</title>
<ellipse fill="#fdb462" stroke="#000000" cx="90" cy="-104" rx="65.9716" ry="18"/>
<text text-anchor="middle" x="90" y="-99.8" font-family="Times,serif" font-size="14.00" fill="#000000">TokenInjector</text>
</g>
<!-- TokenInjector&#45;&gt;ServicesModule -->
<g id="edge9" class="edge">
<title>TokenInjector&#45;&gt;ServicesModule</title>
<path fill="none" stroke="#000000" d="M90,-122.0109C90,-144.4852 90,-180 90,-180 90,-180 615.4303,-180 615.4303,-180"/>
<polygon fill="#000000" stroke="#000000" points="615.4304,-183.5001 625.4303,-180 615.4303,-176.5001 615.4304,-183.5001"/>
</g>
</g>
</svg>
