<?xml version="1.0" encoding="UTF-8" standalone="no"?>
<!DOCTYPE svg PUBLIC "-//W3C//DTD SVG 1.1//EN"
 "http://www.w3.org/Graphics/SVG/1.1/DTD/svg11.dtd">
<!-- Generated by graphviz version 2.40.1 (20161225.0304)
 -->
<!-- Title: dependencies Pages: 1 -->
<svg width="2473pt" height="284pt"
 viewBox="0.00 0.00 2473.00 284.00" xmlns="http://www.w3.org/2000/svg" xmlns:xlink="http://www.w3.org/1999/xlink">
<g id="graph0" class="graph" transform="scale(1 1) rotate(0) translate(4 280)">
<title>dependencies</title>
<polygon fill="#ffffff" stroke="transparent" points="-4,4 -4,-280 2469,-280 2469,4 -4,4"/>
<text text-anchor="start" x="1211.5091" y="-42.4" font-family="sans-serif" font-weight="bold" font-size="14.00" fill="#000000">Legend</text>
<polygon fill="#ffffb3" stroke="transparent" points="998.5,-10 998.5,-30 1018.5,-30 1018.5,-10 998.5,-10"/>
<text text-anchor="start" x="1022.129" y="-15.4" font-family="sans-serif" font-size="14.00" fill="#000000"> &#160;Declarations</text>
<polygon fill="#8dd3c7" stroke="transparent" points="1111.5,-10 1111.5,-30 1131.5,-30 1131.5,-10 1111.5,-10"/>
<text text-anchor="start" x="1135.2251" y="-15.4" font-family="sans-serif" font-size="14.00" fill="#000000"> &#160;Module</text>
<polygon fill="#80b1d3" stroke="transparent" points="1197.5,-10 1197.5,-30 1217.5,-30 1217.5,-10 1197.5,-10"/>
<text text-anchor="start" x="1221.2812" y="-15.4" font-family="sans-serif" font-size="14.00" fill="#000000"> &#160;Bootstrap</text>
<polygon fill="#fdb462" stroke="transparent" points="1294.5,-10 1294.5,-30 1314.5,-30 1314.5,-10 1294.5,-10"/>
<text text-anchor="start" x="1318.1732" y="-15.4" font-family="sans-serif" font-size="14.00" fill="#000000"> &#160;Providers</text>
<polygon fill="#fb8072" stroke="transparent" points="1390.5,-10 1390.5,-30 1410.5,-30 1410.5,-10 1390.5,-10"/>
<text text-anchor="start" x="1414.2258" y="-15.4" font-family="sans-serif" font-size="14.00" fill="#000000"> &#160;Exports</text>
<g id="clust1" class="cluster">
<title>cluster_FeedModule</title>
<polygon fill="none" stroke="#000000" stroke-dasharray="1,5" points="8,-70 8,-268 2457,-268 2457,-70 8,-70"/>
</g>
<g id="clust2" class="cluster">
<title>cluster_FeedModule_declarations</title>
<polygon fill="none" stroke="#000000" points="404,-78 404,-130 2449,-130 2449,-78 404,-78"/>
</g>
<g id="clust16" class="cluster">
<title>cluster_FeedModule_imports</title>
<polygon fill="none" stroke="#000000" points="16,-78 16,-130 396,-130 396,-78 16,-78"/>
</g>
<g id="clust17" class="cluster">
<title>cluster_FeedModule_exports</title>
<polygon fill="none" stroke="#000000" points="1132,-208 1132,-260 1260,-260 1260,-208 1132,-208"/>
</g>
<!-- CardListComponent -->
<g id="node1" class="node">
<title>CardListComponent</title>
<polygon fill="#ffffb3" stroke="#000000" points="2441.323,-122 2310.677,-122 2310.677,-86 2441.323,-86 2441.323,-122"/>
<text text-anchor="middle" x="2376" y="-99.8" font-family="Times,serif" font-size="14.00" fill="#000000">CardListComponent</text>
</g>
<!-- FeedModule -->
<g id="node14" class="node">
<title>FeedModule</title>
<polygon fill="#8dd3c7" stroke="#000000" points="1239.2619,-187 1236.2619,-191 1215.2619,-191 1212.2619,-187 1152.7381,-187 1152.7381,-151 1239.2619,-151 1239.2619,-187"/>
<text text-anchor="middle" x="1196" y="-164.8" font-family="Times,serif" font-size="14.00" fill="#000000">FeedModule</text>
</g>
<!-- CardListComponent&#45;&gt;FeedModule -->
<g id="edge1" class="edge">
<title>CardListComponent&#45;&gt;FeedModule</title>
<path fill="none" stroke="#000000" d="M2376,-122.3228C2376,-145.6602 2376,-183 2376,-183 2376,-183 1249.3963,-183 1249.3963,-183"/>
<polygon fill="#000000" stroke="#000000" points="1249.3963,-179.5001 1239.3963,-183 1249.3962,-186.5001 1249.3963,-179.5001"/>
</g>
<!-- CustomTimelineChartComponent -->
<g id="node2" class="node">
<title>CustomTimelineChartComponent</title>
<polygon fill="#ffffb3" stroke="#000000" points="2293.0419,-122 2086.9581,-122 2086.9581,-86 2293.0419,-86 2293.0419,-122"/>
<text text-anchor="middle" x="2190" y="-99.8" font-family="Times,serif" font-size="14.00" fill="#000000">CustomTimelineChartComponent</text>
</g>
<!-- CustomTimelineChartComponent&#45;&gt;FeedModule -->
<g id="edge2" class="edge">
<title>CustomTimelineChartComponent&#45;&gt;FeedModule</title>
<path fill="none" stroke="#000000" d="M2190,-122.2921C2190,-144.2057 2190,-178 2190,-178 2190,-178 1249.3501,-178 1249.3501,-178"/>
<polygon fill="#000000" stroke="#000000" points="1249.3501,-174.5001 1239.3501,-178 1249.3501,-181.5001 1249.3501,-174.5001"/>
</g>
<!-- DraggableDirective -->
<g id="node3" class="node">
<title>DraggableDirective</title>
<polygon fill="#ffffb3" stroke="#000000" points="2069.385,-122 1942.615,-122 1942.615,-86 2069.385,-86 2069.385,-122"/>
<text text-anchor="middle" x="2006" y="-99.8" font-family="Times,serif" font-size="14.00" fill="#000000">DraggableDirective</text>
</g>
<!-- DraggableDirective&#45;&gt;FeedModule -->
<g id="edge3" class="edge">
<title>DraggableDirective&#45;&gt;FeedModule</title>
<path fill="none" stroke="#000000" d="M2006,-122.0267C2006,-142.7672 2006,-174 2006,-174 2006,-174 1249.2628,-174 1249.2628,-174"/>
<polygon fill="#000000" stroke="#000000" points="1249.2628,-170.5001 1239.2628,-174 1249.2627,-177.5001 1249.2628,-170.5001"/>
</g>
<!-- FeedComponent -->
<g id="node4" class="node">
<title>FeedComponent</title>
<polygon fill="#ffffb3" stroke="#000000" points="1925.0452,-122 1816.9548,-122 1816.9548,-86 1925.0452,-86 1925.0452,-122"/>
<text text-anchor="middle" x="1871" y="-99.8" font-family="Times,serif" font-size="14.00" fill="#000000">FeedComponent</text>
</g>
<!-- FeedComponent&#45;&gt;FeedModule -->
<g id="edge4" class="edge">
<title>FeedComponent&#45;&gt;FeedModule</title>
<path fill="none" stroke="#000000" d="M1871,-122.1061C1871,-141.3391 1871,-169 1871,-169 1871,-169 1249.5095,-169 1249.5095,-169"/>
<polygon fill="#000000" stroke="#000000" points="1249.5095,-165.5001 1239.5095,-169 1249.5095,-172.5001 1249.5095,-165.5001"/>
</g>
<!-- FiltersComponent -->
<g id="node5" class="node">
<title>FiltersComponent</title>
<polygon fill="#ffffb3" stroke="#000000" points="1798.6066,-122 1681.3934,-122 1681.3934,-86 1798.6066,-86 1798.6066,-122"/>
<text text-anchor="middle" x="1740" y="-99.8" font-family="Times,serif" font-size="14.00" fill="#000000">FiltersComponent</text>
</g>
<!-- FiltersComponent&#45;&gt;FeedModule -->
<g id="edge5" class="edge">
<title>FiltersComponent&#45;&gt;FeedModule</title>
<path fill="none" stroke="#000000" d="M1740,-122.302C1740,-140.2699 1740,-165 1740,-165 1740,-165 1249.5982,-165 1249.5982,-165"/>
<polygon fill="#000000" stroke="#000000" points="1249.5983,-161.5001 1239.5982,-165 1249.5982,-168.5001 1249.5983,-161.5001"/>
</g>
<!-- InitChartComponent -->
<g id="node6" class="node">
<title>InitChartComponent</title>
<polygon fill="#ffffb3" stroke="#000000" points="1663.8767,-122 1532.1233,-122 1532.1233,-86 1663.8767,-86 1663.8767,-122"/>
<text text-anchor="middle" x="1598" y="-99.8" font-family="Times,serif" font-size="14.00" fill="#000000">InitChartComponent</text>
</g>
<!-- InitChartComponent&#45;&gt;FeedModule -->
<g id="edge6" class="edge">
<title>InitChartComponent&#45;&gt;FeedModule</title>
<path fill="none" stroke="#000000" d="M1598,-122.027C1598,-138.3976 1598,-160 1598,-160 1598,-160 1249.403,-160 1249.403,-160"/>
<polygon fill="#000000" stroke="#000000" points="1249.403,-156.5001 1239.403,-160 1249.403,-163.5001 1249.403,-156.5001"/>
</g>
<!-- MouseWheelDirective -->
<g id="node7" class="node">
<title>MouseWheelDirective</title>
<polygon fill="#ffffb3" stroke="#000000" points="1514.2213,-122 1371.7787,-122 1371.7787,-86 1514.2213,-86 1514.2213,-122"/>
<text text-anchor="middle" x="1443" y="-99.8" font-family="Times,serif" font-size="14.00" fill="#000000">MouseWheelDirective</text>
</g>
<!-- MouseWheelDirective&#45;&gt;FeedModule -->
<g id="edge7" class="edge">
<title>MouseWheelDirective&#45;&gt;FeedModule</title>
<path fill="none" stroke="#000000" d="M1443,-122.1871C1443,-137.1824 1443,-156 1443,-156 1443,-156 1249.3068,-156 1249.3068,-156"/>
<polygon fill="#000000" stroke="#000000" points="1249.3068,-152.5001 1239.3068,-156 1249.3067,-159.5001 1249.3068,-152.5001"/>
</g>
<!-- NoSelectionComponent -->
<g id="node8" class="node">
<title>NoSelectionComponent</title>
<polygon fill="#ffffb3" stroke="#000000" points="1353.0379,-122 1202.9621,-122 1202.9621,-86 1353.0379,-86 1353.0379,-122"/>
<text text-anchor="middle" x="1278" y="-99.8" font-family="Times,serif" font-size="14.00" fill="#000000">NoSelectionComponent</text>
</g>
<!-- NoSelectionComponent&#45;&gt;FeedModule -->
<g id="edge8" class="edge">
<title>NoSelectionComponent&#45;&gt;FeedModule</title>
<path fill="none" stroke="#000000" d="M1221.0561,-122.1061C1221.0561,-122.1061 1221.0561,-140.991 1221.0561,-140.991"/>
<polygon fill="#000000" stroke="#000000" points="1217.5562,-140.9909 1221.0561,-150.991 1224.5562,-140.991 1217.5562,-140.9909"/>
</g>
<!-- TagsFilterComponent -->
<g id="node9" class="node">
<title>TagsFilterComponent</title>
<polygon fill="#ffffb3" stroke="#000000" points="1184.3739,-122 1045.6261,-122 1045.6261,-86 1184.3739,-86 1184.3739,-122"/>
<text text-anchor="middle" x="1115" y="-99.8" font-family="Times,serif" font-size="14.00" fill="#000000">TagsFilterComponent</text>
</g>
<!-- TagsFilterComponent&#45;&gt;FeedModule -->
<g id="edge9" class="edge">
<title>TagsFilterComponent&#45;&gt;FeedModule</title>
<path fill="none" stroke="#000000" d="M1168.528,-122.1061C1168.528,-122.1061 1168.528,-140.991 1168.528,-140.991"/>
<polygon fill="#000000" stroke="#000000" points="1165.0281,-140.9909 1168.528,-150.991 1172.0281,-140.991 1165.0281,-140.9909"/>
</g>
<!-- TimeFilterComponent -->
<g id="node10" class="node">
<title>TimeFilterComponent</title>
<polygon fill="#ffffb3" stroke="#000000" points="1027.7106,-122 886.2894,-122 886.2894,-86 1027.7106,-86 1027.7106,-122"/>
<text text-anchor="middle" x="957" y="-99.8" font-family="Times,serif" font-size="14.00" fill="#000000">TimeFilterComponent</text>
</g>
<!-- TimeFilterComponent&#45;&gt;FeedModule -->
<g id="edge10" class="edge">
<title>TimeFilterComponent&#45;&gt;FeedModule</title>
<path fill="none" stroke="#000000" d="M957,-122.1871C957,-137.1824 957,-156 957,-156 957,-156 1142.7189,-156 1142.7189,-156"/>
<polygon fill="#000000" stroke="#000000" points="1142.7189,-159.5001 1152.7189,-156 1142.7189,-152.5001 1142.7189,-159.5001"/>
</g>
<!-- TimeLineComponent -->
<g id="node11" class="node">
<title>TimeLineComponent</title>
<polygon fill="#ffffb3" stroke="#000000" points="868.0394,-122 731.9606,-122 731.9606,-86 868.0394,-86 868.0394,-122"/>
<text text-anchor="middle" x="800" y="-99.8" font-family="Times,serif" font-size="14.00" fill="#000000">TimeLineComponent</text>
</g>
<!-- TimeLineComponent&#45;&gt;FeedModule -->
<g id="edge11" class="edge">
<title>TimeLineComponent&#45;&gt;FeedModule</title>
<path fill="none" stroke="#000000" d="M800,-122.027C800,-138.3976 800,-160 800,-160 800,-160 1142.4883,-160 1142.4883,-160"/>
<polygon fill="#000000" stroke="#000000" points="1142.4883,-163.5001 1152.4883,-160 1142.4883,-156.5001 1142.4883,-163.5001"/>
</g>
<!-- TypeFilterComponent -->
<g id="node12" class="node">
<title>TypeFilterComponent</title>
<polygon fill="#ffffb3" stroke="#000000" points="714.4299,-122 573.5701,-122 573.5701,-86 714.4299,-86 714.4299,-122"/>
<text text-anchor="middle" x="644" y="-99.8" font-family="Times,serif" font-size="14.00" fill="#000000">TypeFilterComponent</text>
</g>
<!-- TypeFilterComponent&#45;&gt;FeedModule -->
<g id="edge12" class="edge">
<title>TypeFilterComponent&#45;&gt;FeedModule</title>
<path fill="none" stroke="#000000" d="M644,-122.302C644,-140.2699 644,-165 644,-165 644,-165 1142.6855,-165 1142.6855,-165"/>
<polygon fill="#000000" stroke="#000000" points="1142.6855,-168.5001 1152.6855,-165 1142.6855,-161.5001 1142.6855,-168.5001"/>
</g>
<!-- XAxisTickFormatPipe -->
<g id="node13" class="node">
<title>XAxisTickFormatPipe</title>
<polygon fill="#ffffb3" stroke="#000000" points="555.5338,-122 412.4662,-122 412.4662,-86 555.5338,-86 555.5338,-122"/>
<text text-anchor="middle" x="484" y="-99.8" font-family="Times,serif" font-size="14.00" fill="#000000">XAxisTickFormatPipe</text>
</g>
<!-- XAxisTickFormatPipe&#45;&gt;FeedModule -->
<g id="edge13" class="edge">
<title>XAxisTickFormatPipe&#45;&gt;FeedModule</title>
<path fill="none" stroke="#000000" d="M484,-122.1061C484,-141.3391 484,-169 484,-169 484,-169 1142.533,-169 1142.533,-169"/>
<polygon fill="#000000" stroke="#000000" points="1142.533,-172.5001 1152.533,-169 1142.533,-165.5001 1142.533,-172.5001"/>
</g>
<!-- FeedComponent  -->
<g id="node18" class="node">
<title>FeedComponent </title>
<polygon fill="#fb8072" stroke="#000000" points="1252.0442,-252 1139.9558,-252 1139.9558,-216 1252.0442,-216 1252.0442,-252"/>
<text text-anchor="middle" x="1196" y="-229.8" font-family="Times,serif" font-size="14.00" fill="#000000">FeedComponent </text>
</g>
<!-- FeedModule&#45;&gt;FeedComponent  -->
<g id="edge17" class="edge">
<title>FeedModule&#45;&gt;FeedComponent </title>
<path fill="none" stroke="#000000" stroke-dasharray="5,2" d="M1196,-187.1061C1196,-187.1061 1196,-205.991 1196,-205.991"/>
<polygon fill="#000000" stroke="#000000" points="1192.5001,-205.9909 1196,-215.991 1199.5001,-205.991 1192.5001,-205.9909"/>
</g>
<!-- CardsModule -->
<g id="node15" class="node">
<title>CardsModule</title>
<polygon fill="#8dd3c7" stroke="#000000" points="388.2064,-122 385.2064,-126 364.2064,-126 361.2064,-122 295.7936,-122 295.7936,-86 388.2064,-86 388.2064,-122"/>
<text text-anchor="middle" x="342" y="-99.8" font-family="Times,serif" font-size="14.00" fill="#000000">CardsModule</text>
</g>
<!-- CardsModule&#45;&gt;FeedModule -->
<g id="edge14" class="edge">
<title>CardsModule&#45;&gt;FeedModule</title>
<path fill="none" stroke="#000000" d="M342,-122.0267C342,-142.7672 342,-174 342,-174 342,-174 1142.4759,-174 1142.4759,-174"/>
<polygon fill="#000000" stroke="#000000" points="1142.476,-177.5001 1152.4759,-174 1142.4759,-170.5001 1142.476,-177.5001"/>
</g>
<!-- FeedRoutingModule -->
<g id="node16" class="node">
<title>FeedRoutingModule</title>
<polygon fill="#8dd3c7" stroke="#000000" points="277.8795,-122 274.8795,-126 253.8795,-126 250.8795,-122 146.1205,-122 146.1205,-86 277.8795,-86 277.8795,-122"/>
<text text-anchor="middle" x="212" y="-99.8" font-family="Times,serif" font-size="14.00" fill="#000000">FeedRoutingModule</text>
</g>
<!-- FeedRoutingModule&#45;&gt;FeedModule -->
<g id="edge15" class="edge">
<title>FeedRoutingModule&#45;&gt;FeedModule</title>
<path fill="none" stroke="#000000" d="M212,-122.2921C212,-144.2057 212,-178 212,-178 212,-178 1142.4491,-178 1142.4491,-178"/>
<polygon fill="#000000" stroke="#000000" points="1142.4491,-181.5001 1152.4491,-178 1142.4491,-174.5001 1142.4491,-181.5001"/>
</g>
<!-- UtilitiesModule -->
<g id="node17" class="node">
<title>UtilitiesModule</title>
<polygon fill="#8dd3c7" stroke="#000000" points="128.1598,-122 125.1598,-126 104.1598,-126 101.1598,-122 23.8402,-122 23.8402,-86 128.1598,-86 128.1598,-122"/>
<text text-anchor="middle" x="76" y="-99.8" font-family="Times,serif" font-size="14.00" fill="#000000">UtilitiesModule</text>
</g>
<!-- UtilitiesModule&#45;&gt;FeedModule -->
<g id="edge16" class="edge">
<title>UtilitiesModule&#45;&gt;FeedModule</title>
<path fill="none" stroke="#000000" d="M76,-122.3228C76,-145.6602 76,-183 76,-183 76,-183 1142.4384,-183 1142.4384,-183"/>
<polygon fill="#000000" stroke="#000000" points="1142.4385,-186.5001 1152.4384,-183 1142.4384,-179.5001 1142.4385,-186.5001"/>
</g>
</g>
</svg>
