<?xml version="1.0" encoding="UTF-8" standalone="no"?>
<!DOCTYPE svg PUBLIC "-//W3C//DTD SVG 1.1//EN"
 "http://www.w3.org/Graphics/SVG/1.1/DTD/svg11.dtd">
<!-- Generated by graphviz version 2.40.1 (20161225.0304)
 -->
<!-- Title: dependencies Pages: 1 -->
<svg width="1737pt" height="211pt"
 viewBox="0.00 0.00 1737.00 211.00" xmlns="http://www.w3.org/2000/svg" xmlns:xlink="http://www.w3.org/1999/xlink">
<g id="graph0" class="graph" transform="scale(1 1) rotate(0) translate(4 207)">
<title>dependencies</title>
<polygon fill="#ffffff" stroke="transparent" points="-4,4 -4,-207 1733,-207 1733,4 -4,4"/>
<text text-anchor="start" x="843.5091" y="-42.4" font-family="sans-serif" font-weight="bold" font-size="14.00" fill="#000000">Legend</text>
<polygon fill="#ffffb3" stroke="transparent" points="630.5,-10 630.5,-30 650.5,-30 650.5,-10 630.5,-10"/>
<text text-anchor="start" x="654.129" y="-15.4" font-family="sans-serif" font-size="14.00" fill="#000000"> &#160;Declarations</text>
<polygon fill="#8dd3c7" stroke="transparent" points="743.5,-10 743.5,-30 763.5,-30 763.5,-10 743.5,-10"/>
<text text-anchor="start" x="767.2251" y="-15.4" font-family="sans-serif" font-size="14.00" fill="#000000"> &#160;Module</text>
<polygon fill="#80b1d3" stroke="transparent" points="829.5,-10 829.5,-30 849.5,-30 849.5,-10 829.5,-10"/>
<text text-anchor="start" x="853.2812" y="-15.4" font-family="sans-serif" font-size="14.00" fill="#000000"> &#160;Bootstrap</text>
<polygon fill="#fdb462" stroke="transparent" points="926.5,-10 926.5,-30 946.5,-30 946.5,-10 926.5,-10"/>
<text text-anchor="start" x="950.1732" y="-15.4" font-family="sans-serif" font-size="14.00" fill="#000000"> &#160;Providers</text>
<polygon fill="#fb8072" stroke="transparent" points="1022.5,-10 1022.5,-30 1042.5,-30 1042.5,-10 1022.5,-10"/>
<text text-anchor="start" x="1046.2258" y="-15.4" font-family="sans-serif" font-size="14.00" fill="#000000"> &#160;Exports</text>
<g id="clust1" class="cluster">
<title>cluster_ServicesModule</title>
<polygon fill="none" stroke="#000000" stroke-dasharray="1,5" points="8,-70 8,-195 1721,-195 1721,-70 8,-70"/>
</g>
<g id="clust6" class="cluster">
<title>cluster_ServicesModule_providers</title>
<polygon fill="none" stroke="#000000" points="16,-78 16,-130 1713,-130 1713,-78 16,-78"/>
</g>
<!-- AuthenticationService -->
<g id="node1" class="node">
<title>AuthenticationService</title>
<ellipse fill="#fdb462" stroke="#000000" cx="1608" cy="-104" rx="97.2683" ry="18"/>
<text text-anchor="middle" x="1608" y="-99.8" font-family="Times,serif" font-size="14.00" fill="#000000">AuthenticationService</text>
</g>
<!-- ServicesModule -->
<g id="node12" class="node">
<title>ServicesModule</title>
<polygon fill="#8dd3c7" stroke="#000000" points="913.472,-187 910.472,-191 889.472,-191 886.472,-187 806.528,-187 806.528,-151 913.472,-151 913.472,-187"/>
<text text-anchor="middle" x="860" y="-164.8" font-family="Times,serif" font-size="14.00" fill="#000000">ServicesModule</text>
</g>
<!-- AuthenticationService&#45;&gt;ServicesModule -->
<g id="edge1" class="edge">
<title>AuthenticationService&#45;&gt;ServicesModule</title>
<path fill="none" stroke="#000000" d="M1608,-122.0908C1608,-145.1328 1608,-182 1608,-182 1608,-182 923.4941,-182 923.4941,-182"/>
<polygon fill="#000000" stroke="#000000" points="923.4942,-178.5001 913.4941,-182 923.4941,-185.5001 923.4942,-178.5001"/>
</g>
<!-- CardService -->
<g id="node2" class="node">
<title>CardService</title>
<ellipse fill="#fdb462" stroke="#000000" cx="1434" cy="-104" rx="58.5251" ry="18"/>
<text text-anchor="middle" x="1434" y="-99.8" font-family="Times,serif" font-size="14.00" fill="#000000">CardService</text>
</g>
<!-- CardService&#45;&gt;ServicesModule -->
<g id="edge2" class="edge">
<title>CardService&#45;&gt;ServicesModule</title>
<path fill="none" stroke="#000000" d="M1434,-122.2843C1434,-143.3211 1434,-175 1434,-175 1434,-175 923.4851,-175 923.4851,-175"/>
<polygon fill="#000000" stroke="#000000" points="923.4851,-171.5001 913.4851,-175 923.485,-178.5001 923.4851,-171.5001"/>
</g>
<!-- ConfigService -->
<g id="node3" class="node">
<title>ConfigService</title>
<ellipse fill="#fdb462" stroke="#000000" cx="1290" cy="-104" rx="66.6325" ry="18"/>
<text text-anchor="middle" x="1290" y="-99.8" font-family="Times,serif" font-size="14.00" fill="#000000">ConfigService</text>
</g>
<!-- ConfigService&#45;&gt;ServicesModule -->
<g id="edge3" class="edge">
<title>ConfigService&#45;&gt;ServicesModule</title>
<path fill="none" stroke="#000000" d="M1290,-122.1061C1290,-141.3391 1290,-169 1290,-169 1290,-169 923.5904,-169 923.5904,-169"/>
<polygon fill="#000000" stroke="#000000" points="923.5904,-165.5001 913.5904,-169 923.5903,-172.5001 923.5904,-165.5001"/>
</g>
<!-- FilterService -->
<g id="node4" class="node">
<title>FilterService</title>
<ellipse fill="#fdb462" stroke="#000000" cx="1144" cy="-104" rx="60.8255" ry="18"/>
<text text-anchor="middle" x="1144" y="-99.8" font-family="Times,serif" font-size="14.00" fill="#000000">FilterService</text>
</g>
<!-- FilterService&#45;&gt;ServicesModule -->
<g id="edge4" class="edge">
<title>FilterService&#45;&gt;ServicesModule</title>
<path fill="none" stroke="#000000" d="M1144,-122.0225C1144,-139.3734 1144,-163 1144,-163 1144,-163 923.7521,-163 923.7521,-163"/>
<polygon fill="#000000" stroke="#000000" points="923.7521,-159.5001 913.7521,-163 923.7521,-166.5001 923.7521,-159.5001"/>
</g>
<!-- I18nService -->
<g id="node5" class="node">
<title>I18nService</title>
<ellipse fill="#fdb462" stroke="#000000" cx="1007" cy="-104" rx="57.8849" ry="18"/>
<text text-anchor="middle" x="1007" y="-99.8" font-family="Times,serif" font-size="14.00" fill="#000000">I18nService</text>
</g>
<!-- I18nService&#45;&gt;ServicesModule -->
<g id="edge5" class="edge">
<title>I18nService&#45;&gt;ServicesModule</title>
<path fill="none" stroke="#000000" d="M1007,-122.2396C1007,-137.5706 1007,-157 1007,-157 1007,-157 923.4862,-157 923.4862,-157"/>
<polygon fill="#000000" stroke="#000000" points="923.4862,-153.5001 913.4862,-157 923.4862,-160.5001 923.4862,-153.5001"/>
</g>
<!-- SettingsService -->
<g id="node6" class="node">
<title>SettingsService</title>
<ellipse fill="#fdb462" stroke="#000000" cx="860" cy="-104" rx="71.221" ry="18"/>
<text text-anchor="middle" x="860" y="-99.8" font-family="Times,serif" font-size="14.00" fill="#000000">SettingsService</text>
</g>
<!-- SettingsService&#45;&gt;ServicesModule -->
<g id="edge6" class="edge">
<title>SettingsService&#45;&gt;ServicesModule</title>
<path fill="none" stroke="#000000" d="M860,-122.1061C860,-122.1061 860,-140.991 860,-140.991"/>
<polygon fill="#000000" stroke="#000000" points="856.5001,-140.9909 860,-150.991 863.5001,-140.991 856.5001,-140.9909"/>
</g>
<!-- ThirdActionService -->
<g id="node7" class="node">
<title>ThirdActionService</title>
<ellipse fill="#fdb462" stroke="#000000" cx="683" cy="-104" rx="87.9587" ry="18"/>
<text text-anchor="middle" x="683" y="-99.8" font-family="Times,serif" font-size="14.00" fill="#000000">ThirdActionService</text>
</g>
<!-- ThirdActionService&#45;&gt;ServicesModule -->
<g id="edge7" class="edge">
<title>ThirdActionService&#45;&gt;ServicesModule</title>
<path fill="none" stroke="#000000" d="M683,-122.2396C683,-137.5706 683,-157 683,-157 683,-157 796.4138,-157 796.4138,-157"/>
<polygon fill="#000000" stroke="#000000" points="796.4139,-160.5001 806.4138,-157 796.4138,-153.5001 796.4139,-160.5001"/>
</g>
<!-- ThirdsService -->
<g id="node8" class="node">
<title>ThirdsService</title>
<ellipse fill="#fdb462" stroke="#000000" cx="512" cy="-104" rx="65.4053" ry="18"/>
<text text-anchor="middle" x="512" y="-99.8" font-family="Times,serif" font-size="14.00" fill="#000000">ThirdsService</text>
</g>
<!-- ThirdsService&#45;&gt;ServicesModule -->
<g id="edge8" class="edge">
<title>ThirdsService&#45;&gt;ServicesModule</title>
<path fill="none" stroke="#000000" d="M512,-122.0225C512,-139.3734 512,-163 512,-163 512,-163 796.3877,-163 796.3877,-163"/>
<polygon fill="#000000" stroke="#000000" points="796.3877,-166.5001 806.3877,-163 796.3876,-159.5001 796.3877,-166.5001"/>
</g>
<!-- TimeService -->
<g id="node9" class="node">
<title>TimeService</title>
<ellipse fill="#fdb462" stroke="#000000" cx="368" cy="-104" rx="60.2479" ry="18"/>
<text text-anchor="middle" x="368" y="-99.8" font-family="Times,serif" font-size="14.00" fill="#000000">TimeService</text>
</g>
<!-- TimeService&#45;&gt;ServicesModule -->
<g id="edge9" class="edge">
<title>TimeService&#45;&gt;ServicesModule</title>
<path fill="none" stroke="#000000" d="M368,-122.1061C368,-141.3391 368,-169 368,-169 368,-169 796.4108,-169 796.4108,-169"/>
<polygon fill="#000000" stroke="#000000" points="796.4108,-172.5001 806.4108,-169 796.4108,-165.5001 796.4108,-172.5001"/>
</g>
<!-- TokenInjector -->
<g id="node10" class="node">
<title>TokenInjector</title>
<ellipse fill="#fdb462" stroke="#000000" cx="224" cy="-104" rx="65.9716" ry="18"/>
<text text-anchor="middle" x="224" y="-99.8" font-family="Times,serif" font-size="14.00" fill="#000000">TokenInjector</text>
</g>
<!-- TokenInjector&#45;&gt;ServicesModule -->
<g id="edge10" class="edge">
<title>TokenInjector&#45;&gt;ServicesModule</title>
<path fill="none" stroke="#000000" d="M224,-122.2843C224,-143.3211 224,-175 224,-175 224,-175 796.3231,-175 796.3231,-175"/>
<polygon fill="#000000" stroke="#000000" points="796.3232,-178.5001 806.3231,-175 796.3231,-171.5001 796.3232,-178.5001"/>
</g>
<!-- UserService -->
<g id="node11" class="node">
<title>UserService</title>
<ellipse fill="#fdb462" stroke="#000000" cx="82" cy="-104" rx="58.4415" ry="18"/>
<text text-anchor="middle" x="82" y="-99.8" font-family="Times,serif" font-size="14.00" fill="#000000">UserService</text>
</g>
<!-- UserService&#45;&gt;ServicesModule -->
<g id="edge11" class="edge">
<title>UserService&#45;&gt;ServicesModule</title>
<path fill="none" stroke="#000000" d="M82,-122.0908C82,-145.1328 82,-182 82,-182 82,-182 796.5249,-182 796.5249,-182"/>
<polygon fill="#000000" stroke="#000000" points="796.5249,-185.5001 806.5249,-182 796.5249,-178.5001 796.5249,-185.5001"/>
</g>
</g>
</svg>
