<?xml version="1.0" encoding="UTF-8" standalone="no"?>
<!DOCTYPE svg PUBLIC "-//W3C//DTD SVG 1.1//EN"
 "http://www.w3.org/Graphics/SVG/1.1/DTD/svg11.dtd">
<!-- Generated by graphviz version 2.40.1 (20161225.0304)
 -->
<!-- Title: dependencies Pages: 1 -->
<svg width="1065pt" height="284pt"
 viewBox="0.00 0.00 1065.00 284.00" xmlns="http://www.w3.org/2000/svg" xmlns:xlink="http://www.w3.org/1999/xlink">
<g id="graph0" class="graph" transform="scale(1 1) rotate(0) translate(4 280)">
<title>dependencies</title>
<polygon fill="#ffffff" stroke="transparent" points="-4,4 -4,-280 1061,-280 1061,4 -4,4"/>
<text text-anchor="start" x="507.5091" y="-42.4" font-family="sans-serif" font-weight="bold" font-size="14.00" fill="#000000">Legend</text>
<polygon fill="#ffffb3" stroke="transparent" points="294.5,-10 294.5,-30 314.5,-30 314.5,-10 294.5,-10"/>
<text text-anchor="start" x="318.129" y="-15.4" font-family="sans-serif" font-size="14.00" fill="#000000"> &#160;Declarations</text>
<polygon fill="#8dd3c7" stroke="transparent" points="407.5,-10 407.5,-30 427.5,-30 427.5,-10 407.5,-10"/>
<text text-anchor="start" x="431.2251" y="-15.4" font-family="sans-serif" font-size="14.00" fill="#000000"> &#160;Module</text>
<polygon fill="#80b1d3" stroke="transparent" points="493.5,-10 493.5,-30 513.5,-30 513.5,-10 493.5,-10"/>
<text text-anchor="start" x="517.2812" y="-15.4" font-family="sans-serif" font-size="14.00" fill="#000000"> &#160;Bootstrap</text>
<polygon fill="#fdb462" stroke="transparent" points="590.5,-10 590.5,-30 610.5,-30 610.5,-10 590.5,-10"/>
<text text-anchor="start" x="614.1732" y="-15.4" font-family="sans-serif" font-size="14.00" fill="#000000"> &#160;Providers</text>
<polygon fill="#fb8072" stroke="transparent" points="686.5,-10 686.5,-30 706.5,-30 706.5,-10 686.5,-10"/>
<text text-anchor="start" x="710.2258" y="-15.4" font-family="sans-serif" font-size="14.00" fill="#000000"> &#160;Exports</text>
<g id="clust1" class="cluster">
<title>cluster_AppModule</title>
<polygon fill="none" stroke="#000000" stroke-dasharray="1,5" points="8,-70 8,-268 1049,-268 1049,-70 8,-70"/>
</g>
<g id="clust2" class="cluster">
<title>cluster_AppModule_declarations</title>
<polygon fill="none" stroke="#000000" points="399,-78 399,-130 1041,-130 1041,-78 399,-78"/>
</g>
<g id="clust8" class="cluster">
<title>cluster_AppModule_imports</title>
<polygon fill="none" stroke="#000000" points="16,-78 16,-130 391,-130 391,-78 16,-78"/>
</g>
<g id="clust10" class="cluster">
<title>cluster_AppModule_bootstrap</title>
<polygon fill="none" stroke="#000000" points="474,-208 474,-260 598,-260 598,-208 474,-208"/>
</g>
<!-- AppComponent -->
<g id="node1" class="node">
<title>AppComponent</title>
<polygon fill="#ffffb3" stroke="#000000" points="1032.9399,-122 927.0601,-122 927.0601,-86 1032.9399,-86 1032.9399,-122"/>
<text text-anchor="middle" x="980" y="-99.8" font-family="Times,serif" font-size="14.00" fill="#000000">AppComponent</text>
</g>
<!-- AppModule -->
<g id="node6" class="node">
<title>AppModule</title>
<polygon fill="#8dd3c7" stroke="#000000" points="577.6571,-187 574.6571,-191 553.6571,-191 550.6571,-187 494.3429,-187 494.3429,-151 577.6571,-151 577.6571,-187"/>
<text text-anchor="middle" x="536" y="-164.8" font-family="Times,serif" font-size="14.00" fill="#000000">AppModule</text>
</g>
<!-- AppComponent&#45;&gt;AppModule -->
<g id="edge1" class="edge">
<title>AppComponent&#45;&gt;AppModule</title>
<path fill="none" stroke="#000000" d="M980,-122.2921C980,-144.2057 980,-178 980,-178 980,-178 587.7704,-178 587.7704,-178"/>
<polygon fill="#000000" stroke="#000000" points="587.7705,-174.5001 577.7704,-178 587.7704,-181.5001 587.7705,-174.5001"/>
</g>
<!-- IconComponent -->
<g id="node2" class="node">
<title>IconComponent</title>
<polygon fill="#ffffb3" stroke="#000000" points="909.2078,-122 802.7922,-122 802.7922,-86 909.2078,-86 909.2078,-122"/>
<text text-anchor="middle" x="856" y="-99.8" font-family="Times,serif" font-size="14.00" fill="#000000">IconComponent</text>
</g>
<!-- IconComponent&#45;&gt;AppModule -->
<g id="edge2" class="edge">
<title>IconComponent&#45;&gt;AppModule</title>
<path fill="none" stroke="#000000" d="M856,-122.1061C856,-141.3391 856,-169 856,-169 856,-169 587.8344,-169 587.8344,-169"/>
<polygon fill="#000000" stroke="#000000" points="587.8344,-165.5001 577.8344,-169 587.8344,-172.5001 587.8344,-165.5001"/>
</g>
<!-- InfoComponent -->
<g id="node3" class="node">
<title>InfoComponent</title>
<polygon fill="#ffffb3" stroke="#000000" points="785.1542,-122 680.8458,-122 680.8458,-86 785.1542,-86 785.1542,-122"/>
<text text-anchor="middle" x="733" y="-99.8" font-family="Times,serif" font-size="14.00" fill="#000000">InfoComponent</text>
</g>
<!-- InfoComponent&#45;&gt;AppModule -->
<g id="edge3" class="edge">
<title>InfoComponent&#45;&gt;AppModule</title>
<path fill="none" stroke="#000000" d="M733,-122.027C733,-138.3976 733,-160 733,-160 733,-160 587.7786,-160 587.7786,-160"/>
<polygon fill="#000000" stroke="#000000" points="587.7787,-156.5001 577.7786,-160 587.7786,-163.5001 587.7787,-156.5001"/>
</g>
<!-- LoginComponent -->
<g id="node4" class="node">
<title>LoginComponent</title>
<polygon fill="#ffffb3" stroke="#000000" points="662.2758,-122 547.7242,-122 547.7242,-86 662.2758,-86 662.2758,-122"/>
<text text-anchor="middle" x="605" y="-99.8" font-family="Times,serif" font-size="14.00" fill="#000000">LoginComponent</text>
</g>
<!-- LoginComponent&#45;&gt;AppModule -->
<g id="edge4" class="edge">
<title>LoginComponent&#45;&gt;AppModule</title>
<path fill="none" stroke="#000000" d="M562.7202,-122.1061C562.7202,-122.1061 562.7202,-140.991 562.7202,-140.991"/>
<polygon fill="#000000" stroke="#000000" points="559.2203,-140.9909 562.7202,-150.991 566.2203,-140.991 559.2203,-140.9909"/>
</g>
<!-- NavbarComponent -->
<g id="node5" class="node">
<title>NavbarComponent</title>
<polygon fill="#ffffb3" stroke="#000000" points="529.0297,-122 406.9703,-122 406.9703,-86 529.0297,-86 529.0297,-122"/>
<text text-anchor="middle" x="468" y="-99.8" font-family="Times,serif" font-size="14.00" fill="#000000">NavbarComponent</text>
</g>
<!-- NavbarComponent&#45;&gt;AppModule -->
<g id="edge5" class="edge">
<title>NavbarComponent&#45;&gt;AppModule</title>
<path fill="none" stroke="#000000" d="M511.7181,-122.1061C511.7181,-122.1061 511.7181,-140.991 511.7181,-140.991"/>
<polygon fill="#000000" stroke="#000000" points="508.2182,-140.9909 511.7181,-150.991 515.2182,-140.991 508.2182,-140.9909"/>
</g>
<!-- AppComponent  -->
<g id="node10" class="node">
<title>AppComponent </title>
<polygon fill="#80b1d3" stroke="#000000" points="590.439,-252 481.561,-252 481.561,-216 590.439,-216 590.439,-252"/>
<text text-anchor="middle" x="536" y="-229.8" font-family="Times,serif" font-size="14.00" fill="#000000">AppComponent </text>
</g>
<!-- AppModule&#45;&gt;AppComponent  -->
<g id="edge9" class="edge">
<title>AppModule&#45;&gt;AppComponent </title>
<path fill="none" stroke="#000000" stroke-dasharray="1,5" d="M536,-187.1061C536,-187.1061 536,-205.991 536,-205.991"/>
<polygon fill="#000000" stroke="#000000" points="532.5001,-205.9909 536,-215.991 539.5001,-205.991 532.5001,-205.9909"/>
</g>
<!-- AppRoutingModule -->
<g id="node7" class="node">
<title>AppRoutingModule</title>
<polygon fill="#8dd3c7" stroke="#000000" points="383.2744,-122 380.2744,-126 359.2744,-126 356.2744,-122 254.7256,-122 254.7256,-86 383.2744,-86 383.2744,-122"/>
<text text-anchor="middle" x="319" y="-99.8" font-family="Times,serif" font-size="14.00" fill="#000000">AppRoutingModule</text>
</g>
<!-- AppRoutingModule&#45;&gt;AppModule -->
<g id="edge6" class="edge">
<title>AppRoutingModule&#45;&gt;AppModule</title>
<path fill="none" stroke="#000000" d="M319,-122.027C319,-138.3976 319,-160 319,-160 319,-160 484.1602,-160 484.1602,-160"/>
<polygon fill="#000000" stroke="#000000" points="484.1603,-163.5001 494.1602,-160 484.1602,-156.5001 484.1603,-163.5001"/>
</g>
<!-- ServicesModule -->
<g id="node8" class="node">
<title>ServicesModule</title>
<polygon fill="#8dd3c7" stroke="#000000" points="236.472,-122 233.472,-126 212.472,-126 209.472,-122 129.528,-122 129.528,-86 236.472,-86 236.472,-122"/>
<text text-anchor="middle" x="183" y="-99.8" font-family="Times,serif" font-size="14.00" fill="#000000">ServicesModule</text>
</g>
<!-- ServicesModule&#45;&gt;AppModule -->
<g id="edge7" class="edge">
<title>ServicesModule&#45;&gt;AppModule</title>
<path fill="none" stroke="#000000" d="M183,-122.1061C183,-141.3391 183,-169 183,-169 183,-169 484.1201,-169 484.1201,-169"/>
<polygon fill="#000000" stroke="#000000" points="484.1201,-172.5001 494.1201,-169 484.12,-165.5001 484.1201,-172.5001"/>
</g>
<!-- StateModule -->
<g id="node9" class="node">
<title>StateModule</title>
<polygon fill="#8dd3c7" stroke="#000000" points="111.544,-122 108.544,-126 87.544,-126 84.544,-122 24.456,-122 24.456,-86 111.544,-86 111.544,-122"/>
<text text-anchor="middle" x="68" y="-99.8" font-family="Times,serif" font-size="14.00" fill="#000000">StateModule</text>
</g>
<!-- StateModule&#45;&gt;AppModule -->
<g id="edge8" class="edge">
<title>StateModule&#45;&gt;AppModule</title>
<path fill="none" stroke="#000000" d="M68,-122.2921C68,-144.2057 68,-178 68,-178 68,-178 484.0563,-178 484.0563,-178"/>
<polygon fill="#000000" stroke="#000000" points="484.0563,-181.5001 494.0563,-178 484.0562,-174.5001 484.0563,-181.5001"/>
</g>
</g>
</svg>
