<?xml version="1.0" encoding="UTF-8" standalone="no"?>
<!DOCTYPE svg PUBLIC "-//W3C//DTD SVG 1.1//EN"
 "http://www.w3.org/Graphics/SVG/1.1/DTD/svg11.dtd">
<!-- Generated by graphviz version 2.40.1 (20161225.0304)
 -->
<!-- Title: dependencies Pages: 1 -->
<svg width="687pt" height="211pt"
 viewBox="0.00 0.00 687.00 211.00" xmlns="http://www.w3.org/2000/svg" xmlns:xlink="http://www.w3.org/1999/xlink">
<g id="graph0" class="graph" transform="scale(1 1) rotate(0) translate(4 207)">
<title>dependencies</title>
<polygon fill="#ffffff" stroke="transparent" points="-4,4 -4,-207 683,-207 683,4 -4,4"/>
<text text-anchor="start" x="318.5091" y="-42.4" font-family="sans-serif" font-weight="bold" font-size="14.00" fill="#000000">Legend</text>
<polygon fill="#ffffb3" stroke="transparent" points="105.5,-10 105.5,-30 125.5,-30 125.5,-10 105.5,-10"/>
<text text-anchor="start" x="129.129" y="-15.4" font-family="sans-serif" font-size="14.00" fill="#000000"> &#160;Declarations</text>
<polygon fill="#8dd3c7" stroke="transparent" points="218.5,-10 218.5,-30 238.5,-30 238.5,-10 218.5,-10"/>
<text text-anchor="start" x="242.2251" y="-15.4" font-family="sans-serif" font-size="14.00" fill="#000000"> &#160;Module</text>
<polygon fill="#80b1d3" stroke="transparent" points="304.5,-10 304.5,-30 324.5,-30 324.5,-10 304.5,-10"/>
<text text-anchor="start" x="328.2812" y="-15.4" font-family="sans-serif" font-size="14.00" fill="#000000"> &#160;Bootstrap</text>
<polygon fill="#fdb462" stroke="transparent" points="401.5,-10 401.5,-30 421.5,-30 421.5,-10 401.5,-10"/>
<text text-anchor="start" x="425.1732" y="-15.4" font-family="sans-serif" font-size="14.00" fill="#000000"> &#160;Providers</text>
<polygon fill="#fb8072" stroke="transparent" points="497.5,-10 497.5,-30 517.5,-30 517.5,-10 497.5,-10"/>
<text text-anchor="start" x="521.2258" y="-15.4" font-family="sans-serif" font-size="14.00" fill="#000000"> &#160;Exports</text>
<g id="clust1" class="cluster">
<title>cluster_SettingsModule</title>
<polygon fill="none" stroke="#000000" stroke-dasharray="1,5" points="8,-70 8,-195 671,-195 671,-70 8,-70"/>
</g>
<g id="clust2" class="cluster">
<title>cluster_SettingsModule_declarations</title>
<polygon fill="none" stroke="#000000" points="190,-78 190,-130 663,-130 663,-78 190,-78"/>
</g>
<g id="clust6" class="cluster">
<title>cluster_SettingsModule_imports</title>
<polygon fill="none" stroke="#000000" points="16,-78 16,-130 182,-130 182,-78 16,-78"/>
</g>
<!-- BaseSettingComponent -->
<g id="node1" class="node">
<title>BaseSettingComponent</title>
<polygon fill="#ffffb3" stroke="#000000" points="655.212,-122 506.788,-122 506.788,-86 655.212,-86 655.212,-122"/>
<text text-anchor="middle" x="581" y="-99.8" font-family="Times,serif" font-size="14.00" fill="#000000">BaseSettingComponent</text>
</g>
<!-- SettingsModule -->
<g id="node4" class="node">
<title>SettingsModule</title>
<polygon fill="#8dd3c7" stroke="#000000" points="400.1639,-187 397.1639,-191 376.1639,-191 373.1639,-187 295.8361,-187 295.8361,-151 400.1639,-151 400.1639,-187"/>
<text text-anchor="middle" x="348" y="-164.8" font-family="Times,serif" font-size="14.00" fill="#000000">SettingsModule</text>
</g>
<!-- BaseSettingComponent&#45;&gt;SettingsModule -->
<g id="edge1" class="edge">
<title>BaseSettingComponent&#45;&gt;SettingsModule</title>
<path fill="none" stroke="#000000" d="M581,-122.1061C581,-141.3391 581,-169 581,-169 581,-169 410.2897,-169 410.2897,-169"/>
<polygon fill="#000000" stroke="#000000" points="410.2898,-165.5001 400.2897,-169 410.2897,-172.5001 410.2898,-165.5001"/>
</g>
<!-- SettingsComponent -->
<g id="node2" class="node">
<title>SettingsComponent</title>
<polygon fill="#ffffb3" stroke="#000000" points="489.4468,-122 362.5532,-122 362.5532,-86 489.4468,-86 489.4468,-122"/>
<text text-anchor="middle" x="426" y="-99.8" font-family="Times,serif" font-size="14.00" fill="#000000">SettingsComponent</text>
</g>
<!-- SettingsComponent&#45;&gt;SettingsModule -->
<g id="edge2" class="edge">
<title>SettingsComponent&#45;&gt;SettingsModule</title>
<path fill="none" stroke="#000000" d="M381.5544,-122.1061C381.5544,-122.1061 381.5544,-140.991 381.5544,-140.991"/>
<polygon fill="#000000" stroke="#000000" points="378.0544,-140.9909 381.5544,-150.991 385.0544,-140.991 378.0544,-140.9909"/>
</g>
<!-- TextSettingComponent -->
<g id="node3" class="node">
<title>TextSettingComponent</title>
<polygon fill="#ffffb3" stroke="#000000" points="344.1596,-122 197.8404,-122 197.8404,-86 344.1596,-86 344.1596,-122"/>
<text text-anchor="middle" x="271" y="-99.8" font-family="Times,serif" font-size="14.00" fill="#000000">TextSettingComponent</text>
</g>
<!-- TextSettingComponent&#45;&gt;SettingsModule -->
<g id="edge3" class="edge">
<title>TextSettingComponent&#45;&gt;SettingsModule</title>
<path fill="none" stroke="#000000" d="M319.999,-122.1061C319.999,-122.1061 319.999,-140.991 319.999,-140.991"/>
<polygon fill="#000000" stroke="#000000" points="316.499,-140.9909 319.999,-150.991 323.499,-140.991 316.499,-140.9909"/>
</g>
<!-- SettingsRoutingModule -->
<g id="node5" class="node">
<title>SettingsRoutingModule</title>
<polygon fill="#8dd3c7" stroke="#000000" points="173.7814,-122 170.7814,-126 149.7814,-126 146.7814,-122 24.2186,-122 24.2186,-86 173.7814,-86 173.7814,-122"/>
<text text-anchor="middle" x="99" y="-99.8" font-family="Times,serif" font-size="14.00" fill="#000000">SettingsRoutingModule</text>
</g>
<!-- SettingsRoutingModule&#45;&gt;SettingsModule -->
<g id="edge4" class="edge">
<title>SettingsRoutingModule&#45;&gt;SettingsModule</title>
<path fill="none" stroke="#000000" d="M99,-122.1061C99,-141.3391 99,-169 99,-169 99,-169 285.8014,-169 285.8014,-169"/>
<polygon fill="#000000" stroke="#000000" points="285.8015,-172.5001 295.8014,-169 285.8014,-165.5001 285.8015,-172.5001"/>
</g>
</g>
</svg>
