<?xml version="1.0" encoding="UTF-8" standalone="no"?>
<!DOCTYPE svg PUBLIC "-//W3C//DTD SVG 1.1//EN"
 "http://www.w3.org/Graphics/SVG/1.1/DTD/svg11.dtd">
<!-- Generated by graphviz version 2.40.1 (20161225.0304)
 -->
<!-- Title: dependencies Pages: 1 -->
<svg width="1021pt" height="211pt"
 viewBox="0.00 0.00 1021.00 211.00" xmlns="http://www.w3.org/2000/svg" xmlns:xlink="http://www.w3.org/1999/xlink">
<g id="graph0" class="graph" transform="scale(1 1) rotate(0) translate(4 207)">
<title>dependencies</title>
<polygon fill="#ffffff" stroke="transparent" points="-4,4 -4,-207 1017,-207 1017,4 -4,4"/>
<text text-anchor="start" x="485.5091" y="-42.4" font-family="sans-serif" font-weight="bold" font-size="14.00" fill="#000000">Legend</text>
<polygon fill="#ffffb3" stroke="transparent" points="272.5,-10 272.5,-30 292.5,-30 292.5,-10 272.5,-10"/>
<text text-anchor="start" x="296.129" y="-15.4" font-family="sans-serif" font-size="14.00" fill="#000000"> &#160;Declarations</text>
<polygon fill="#8dd3c7" stroke="transparent" points="385.5,-10 385.5,-30 405.5,-30 405.5,-10 385.5,-10"/>
<text text-anchor="start" x="409.2251" y="-15.4" font-family="sans-serif" font-size="14.00" fill="#000000"> &#160;Module</text>
<polygon fill="#80b1d3" stroke="transparent" points="471.5,-10 471.5,-30 491.5,-30 491.5,-10 471.5,-10"/>
<text text-anchor="start" x="495.2812" y="-15.4" font-family="sans-serif" font-size="14.00" fill="#000000"> &#160;Bootstrap</text>
<polygon fill="#fdb462" stroke="transparent" points="568.5,-10 568.5,-30 588.5,-30 588.5,-10 568.5,-10"/>
<text text-anchor="start" x="592.1732" y="-15.4" font-family="sans-serif" font-size="14.00" fill="#000000"> &#160;Providers</text>
<polygon fill="#fb8072" stroke="transparent" points="664.5,-10 664.5,-30 684.5,-30 684.5,-10 664.5,-10"/>
<text text-anchor="start" x="688.2258" y="-15.4" font-family="sans-serif" font-size="14.00" fill="#000000"> &#160;Exports</text>
<g id="clust1" class="cluster">
<title>cluster_SettingsModule</title>
<polygon fill="none" stroke="#000000" stroke-dasharray="1,5" points="8,-70 8,-195 1005,-195 1005,-70 8,-70"/>
</g>
<g id="clust2" class="cluster">
<title>cluster_SettingsModule_declarations</title>
<polygon fill="none" stroke="#000000" points="190,-78 190,-130 997,-130 997,-78 190,-78"/>
</g>
<g id="clust8" class="cluster">
<title>cluster_SettingsModule_imports</title>
<polygon fill="none" stroke="#000000" points="16,-78 16,-130 182,-130 182,-78 16,-78"/>
</g>
<!-- BaseSettingComponent -->
<g id="node1" class="node">
<title>BaseSettingComponent</title>
<polygon fill="#ffffb3" stroke="#000000" points="989.212,-122 840.788,-122 840.788,-86 989.212,-86 989.212,-122"/>
<text text-anchor="middle" x="915" y="-99.8" font-family="Times,serif" font-size="14.00" fill="#000000">BaseSettingComponent</text>
</g>
<!-- SettingsModule -->
<g id="node6" class="node">
<title>SettingsModule</title>
<polygon fill="#8dd3c7" stroke="#000000" points="554.1639,-187 551.1639,-191 530.1639,-191 527.1639,-187 449.8361,-187 449.8361,-151 554.1639,-151 554.1639,-187"/>
<text text-anchor="middle" x="502" y="-164.8" font-family="Times,serif" font-size="14.00" fill="#000000">SettingsModule</text>
</g>
<!-- BaseSettingComponent&#45;&gt;SettingsModule -->
<g id="edge1" class="edge">
<title>BaseSettingComponent&#45;&gt;SettingsModule</title>
<path fill="none" stroke="#000000" d="M915,-122.2843C915,-143.3211 915,-175 915,-175 915,-175 564.3067,-175 564.3067,-175"/>
<polygon fill="#000000" stroke="#000000" points="564.3068,-171.5001 554.3067,-175 564.3067,-178.5001 564.3068,-171.5001"/>
</g>
<!-- EmailSettingComponent -->
<g id="node2" class="node">
<title>EmailSettingComponent</title>
<polygon fill="#ffffb3" stroke="#000000" points="823.441,-122 668.559,-122 668.559,-86 823.441,-86 823.441,-122"/>
<text text-anchor="middle" x="746" y="-99.8" font-family="Times,serif" font-size="14.00" fill="#000000">EmailSettingComponent</text>
</g>
<!-- EmailSettingComponent&#45;&gt;SettingsModule -->
<g id="edge2" class="edge">
<title>EmailSettingComponent&#45;&gt;SettingsModule</title>
<path fill="none" stroke="#000000" d="M746,-122.0225C746,-139.3734 746,-163 746,-163 746,-163 564.3441,-163 564.3441,-163"/>
<polygon fill="#000000" stroke="#000000" points="564.3442,-159.5001 554.3441,-163 564.3441,-166.5001 564.3442,-159.5001"/>
</g>
<!-- ListSettingComponent -->
<g id="node3" class="node">
<title>ListSettingComponent</title>
<polygon fill="#ffffb3" stroke="#000000" points="650.28,-122 507.72,-122 507.72,-86 650.28,-86 650.28,-122"/>
<text text-anchor="middle" x="579" y="-99.8" font-family="Times,serif" font-size="14.00" fill="#000000">ListSettingComponent</text>
</g>
<!-- ListSettingComponent&#45;&gt;SettingsModule -->
<g id="edge3" class="edge">
<title>ListSettingComponent&#45;&gt;SettingsModule</title>
<path fill="none" stroke="#000000" d="M530.9709,-122.1061C530.9709,-122.1061 530.9709,-140.991 530.9709,-140.991"/>
<polygon fill="#000000" stroke="#000000" points="527.471,-140.9909 530.9709,-150.991 534.471,-140.991 527.471,-140.9909"/>
</g>
<!-- SettingsComponent -->
<g id="node4" class="node">
<title>SettingsComponent</title>
<polygon fill="#ffffb3" stroke="#000000" points="489.4468,-122 362.5532,-122 362.5532,-86 489.4468,-86 489.4468,-122"/>
<text text-anchor="middle" x="426" y="-99.8" font-family="Times,serif" font-size="14.00" fill="#000000">SettingsComponent</text>
</g>
<!-- SettingsComponent&#45;&gt;SettingsModule -->
<g id="edge4" class="edge">
<title>SettingsComponent&#45;&gt;SettingsModule</title>
<path fill="none" stroke="#000000" d="M469.4457,-122.1061C469.4457,-122.1061 469.4457,-140.991 469.4457,-140.991"/>
<polygon fill="#000000" stroke="#000000" points="465.9457,-140.9909 469.4457,-150.991 472.9457,-140.991 465.9457,-140.9909"/>
</g>
<!-- TextSettingComponent -->
<g id="node5" class="node">
<title>TextSettingComponent</title>
<polygon fill="#ffffb3" stroke="#000000" points="344.1596,-122 197.8404,-122 197.8404,-86 344.1596,-86 344.1596,-122"/>
<text text-anchor="middle" x="271" y="-99.8" font-family="Times,serif" font-size="14.00" fill="#000000">TextSettingComponent</text>
</g>
<!-- TextSettingComponent&#45;&gt;SettingsModule -->
<g id="edge5" class="edge">
<title>TextSettingComponent&#45;&gt;SettingsModule</title>
<path fill="none" stroke="#000000" d="M271,-122.0225C271,-139.3734 271,-163 271,-163 271,-163 439.5825,-163 439.5825,-163"/>
<polygon fill="#000000" stroke="#000000" points="439.5826,-166.5001 449.5825,-163 439.5825,-159.5001 439.5826,-166.5001"/>
</g>
<!-- SettingsRoutingModule -->
<g id="node7" class="node">
<title>SettingsRoutingModule</title>
<polygon fill="#8dd3c7" stroke="#000000" points="173.7814,-122 170.7814,-126 149.7814,-126 146.7814,-122 24.2186,-122 24.2186,-86 173.7814,-86 173.7814,-122"/>
<text text-anchor="middle" x="99" y="-99.8" font-family="Times,serif" font-size="14.00" fill="#000000">SettingsRoutingModule</text>
</g>
<!-- SettingsRoutingModule&#45;&gt;SettingsModule -->
<g id="edge6" class="edge">
<title>SettingsRoutingModule&#45;&gt;SettingsModule</title>
<path fill="none" stroke="#000000" d="M99,-122.2843C99,-143.3211 99,-175 99,-175 99,-175 439.7279,-175 439.7279,-175"/>
<polygon fill="#000000" stroke="#000000" points="439.728,-178.5001 449.7279,-175 439.7279,-171.5001 439.728,-178.5001"/>
</g>
</g>
</svg>
