<?xml version="1.0" encoding="UTF-8" standalone="no"?>
<!DOCTYPE svg PUBLIC "-//W3C//DTD SVG 1.1//EN"
 "http://www.w3.org/Graphics/SVG/1.1/DTD/svg11.dtd">
<!-- Generated by graphviz version 2.40.1 (20161225.0304)
 -->
<!-- Title: dependencies Pages: 1 -->
<svg width="1406pt" height="211pt"
 viewBox="0.00 0.00 1406.00 211.00" xmlns="http://www.w3.org/2000/svg" xmlns:xlink="http://www.w3.org/1999/xlink">
<g id="graph0" class="graph" transform="scale(1 1) rotate(0) translate(4 207)">
<title>dependencies</title>
<polygon fill="#ffffff" stroke="transparent" points="-4,4 -4,-207 1402,-207 1402,4 -4,4"/>
<text text-anchor="start" x="678.0091" y="-42.4" font-family="sans-serif" font-weight="bold" font-size="14.00" fill="#000000">Legend</text>
<polygon fill="#ffffb3" stroke="transparent" points="465,-10 465,-30 485,-30 485,-10 465,-10"/>
<text text-anchor="start" x="488.629" y="-15.4" font-family="sans-serif" font-size="14.00" fill="#000000"> &#160;Declarations</text>
<polygon fill="#8dd3c7" stroke="transparent" points="578,-10 578,-30 598,-30 598,-10 578,-10"/>
<text text-anchor="start" x="601.7251" y="-15.4" font-family="sans-serif" font-size="14.00" fill="#000000"> &#160;Module</text>
<polygon fill="#80b1d3" stroke="transparent" points="664,-10 664,-30 684,-30 684,-10 664,-10"/>
<text text-anchor="start" x="687.7812" y="-15.4" font-family="sans-serif" font-size="14.00" fill="#000000"> &#160;Bootstrap</text>
<polygon fill="#fdb462" stroke="transparent" points="761,-10 761,-30 781,-30 781,-10 761,-10"/>
<text text-anchor="start" x="784.6732" y="-15.4" font-family="sans-serif" font-size="14.00" fill="#000000"> &#160;Providers</text>
<polygon fill="#fb8072" stroke="transparent" points="857,-10 857,-30 877,-30 877,-10 857,-10"/>
<text text-anchor="start" x="880.7258" y="-15.4" font-family="sans-serif" font-size="14.00" fill="#000000"> &#160;Exports</text>
<g id="clust1" class="cluster">
<title>cluster_SettingsModule</title>
<polygon fill="none" stroke="#000000" stroke-dasharray="1,5" points="8,-70 8,-195 1390,-195 1390,-70 8,-70"/>
</g>
<g id="clust2" class="cluster">
<title>cluster_SettingsModule_declarations</title>
<polygon fill="none" stroke="#000000" points="190,-78 190,-130 1382,-130 1382,-78 190,-78"/>
</g>
<g id="clust10" class="cluster">
<title>cluster_SettingsModule_imports</title>
<polygon fill="none" stroke="#000000" points="16,-78 16,-130 182,-130 182,-78 16,-78"/>
</g>
<!-- BaseSettingComponent -->
<g id="node1" class="node">
<title>BaseSettingComponent</title>
<polygon fill="#ffffb3" stroke="#000000" points="1374.212,-122 1225.788,-122 1225.788,-86 1374.212,-86 1374.212,-122"/>
<text text-anchor="middle" x="1300" y="-99.8" font-family="Times,serif" font-size="14.00" fill="#000000">BaseSettingComponent</text>
</g>
<!-- SettingsModule -->
<g id="node8" class="node">
<title>SettingsModule</title>
<polygon fill="#8dd3c7" stroke="#000000" points="768.1639,-187 765.1639,-191 744.1639,-191 741.1639,-187 663.8361,-187 663.8361,-151 768.1639,-151 768.1639,-187"/>
<text text-anchor="middle" x="716" y="-164.8" font-family="Times,serif" font-size="14.00" fill="#000000">SettingsModule</text>
</g>
<!-- BaseSettingComponent&#45;&gt;SettingsModule -->
<g id="edge1" class="edge">
<title>BaseSettingComponent&#45;&gt;SettingsModule</title>
<path fill="none" stroke="#000000" d="M1300,-122.2921C1300,-144.2057 1300,-178 1300,-178 1300,-178 778.3401,-178 778.3401,-178"/>
<polygon fill="#000000" stroke="#000000" points="778.3401,-174.5001 768.3401,-178 778.34,-181.5001 778.3401,-174.5001"/>
</g>
<!-- EmailSettingComponent -->
<g id="node2" class="node">
<title>EmailSettingComponent</title>
<polygon fill="#ffffb3" stroke="#000000" points="1208.441,-122 1053.559,-122 1053.559,-86 1208.441,-86 1208.441,-122"/>
<text text-anchor="middle" x="1131" y="-99.8" font-family="Times,serif" font-size="14.00" fill="#000000">EmailSettingComponent</text>
</g>
<!-- EmailSettingComponent&#45;&gt;SettingsModule -->
<g id="edge2" class="edge">
<title>EmailSettingComponent&#45;&gt;SettingsModule</title>
<path fill="none" stroke="#000000" d="M1131,-122.1061C1131,-141.3391 1131,-169 1131,-169 1131,-169 778.56,-169 778.56,-169"/>
<polygon fill="#000000" stroke="#000000" points="778.5601,-165.5001 768.56,-169 778.56,-172.5001 778.5601,-165.5001"/>
</g>
<!-- ListSettingComponent -->
<g id="node3" class="node">
<title>ListSettingComponent</title>
<polygon fill="#ffffb3" stroke="#000000" points="1035.28,-122 892.72,-122 892.72,-86 1035.28,-86 1035.28,-122"/>
<text text-anchor="middle" x="964" y="-99.8" font-family="Times,serif" font-size="14.00" fill="#000000">ListSettingComponent</text>
</g>
<!-- ListSettingComponent&#45;&gt;SettingsModule -->
<g id="edge3" class="edge">
<title>ListSettingComponent&#45;&gt;SettingsModule</title>
<path fill="none" stroke="#000000" d="M964,-122.027C964,-138.3976 964,-160 964,-160 964,-160 778.2914,-160 778.2914,-160"/>
<polygon fill="#000000" stroke="#000000" points="778.2914,-156.5001 768.2914,-160 778.2913,-163.5001 778.2914,-156.5001"/>
</g>
<!-- MultiSettingsComponent -->
<g id="node4" class="node">
<title>MultiSettingsComponent</title>
<polygon fill="#ffffb3" stroke="#000000" points="874.563,-122 717.437,-122 717.437,-86 874.563,-86 874.563,-122"/>
<text text-anchor="middle" x="796" y="-99.8" font-family="Times,serif" font-size="14.00" fill="#000000">MultiSettingsComponent</text>
</g>
<!-- MultiSettingsComponent&#45;&gt;SettingsModule -->
<g id="edge4" class="edge">
<title>MultiSettingsComponent&#45;&gt;SettingsModule</title>
<path fill="none" stroke="#000000" d="M742.7752,-122.1061C742.7752,-122.1061 742.7752,-140.991 742.7752,-140.991"/>
<polygon fill="#000000" stroke="#000000" points="739.2753,-140.9909 742.7752,-150.991 746.2753,-140.991 739.2753,-140.9909"/>
</g>
<!-- SettingsComponent -->
<g id="node5" class="node">
<title>SettingsComponent</title>
<polygon fill="#ffffb3" stroke="#000000" points="699.4468,-122 572.5532,-122 572.5532,-86 699.4468,-86 699.4468,-122"/>
<text text-anchor="middle" x="636" y="-99.8" font-family="Times,serif" font-size="14.00" fill="#000000">SettingsComponent</text>
</g>
<!-- SettingsComponent&#45;&gt;SettingsModule -->
<g id="edge5" class="edge">
<title>SettingsComponent&#45;&gt;SettingsModule</title>
<path fill="none" stroke="#000000" d="M681.4457,-122.1061C681.4457,-122.1061 681.4457,-140.991 681.4457,-140.991"/>
<polygon fill="#000000" stroke="#000000" points="677.9457,-140.9909 681.4457,-150.991 684.9457,-140.991 677.9457,-140.9909"/>
</g>
<!-- TextSettingComponent -->
<g id="node6" class="node">
<title>TextSettingComponent</title>
<polygon fill="#ffffb3" stroke="#000000" points="554.1596,-122 407.8404,-122 407.8404,-86 554.1596,-86 554.1596,-122"/>
<text text-anchor="middle" x="481" y="-99.8" font-family="Times,serif" font-size="14.00" fill="#000000">TextSettingComponent</text>
</g>
<!-- TextSettingComponent&#45;&gt;SettingsModule -->
<g id="edge6" class="edge">
<title>TextSettingComponent&#45;&gt;SettingsModule</title>
<path fill="none" stroke="#000000" d="M481,-122.027C481,-138.3976 481,-160 481,-160 481,-160 653.5539,-160 653.5539,-160"/>
<polygon fill="#000000" stroke="#000000" points="653.5539,-163.5001 663.5539,-160 653.5539,-156.5001 653.5539,-163.5001"/>
</g>
<!-- TypeAheadSettingsComponent -->
<g id="node7" class="node">
<title>TypeAheadSettingsComponent</title>
<polygon fill="#ffffb3" stroke="#000000" points="389.7492,-122 198.2508,-122 198.2508,-86 389.7492,-86 389.7492,-122"/>
<text text-anchor="middle" x="294" y="-99.8" font-family="Times,serif" font-size="14.00" fill="#000000">TypeAheadSettingsComponent</text>
</g>
<!-- TypeAheadSettingsComponent&#45;&gt;SettingsModule -->
<g id="edge7" class="edge">
<title>TypeAheadSettingsComponent&#45;&gt;SettingsModule</title>
<path fill="none" stroke="#000000" d="M294,-122.1061C294,-141.3391 294,-169 294,-169 294,-169 653.8313,-169 653.8313,-169"/>
<polygon fill="#000000" stroke="#000000" points="653.8313,-172.5001 663.8313,-169 653.8312,-165.5001 653.8313,-172.5001"/>
</g>
<!-- SettingsRoutingModule -->
<g id="node9" class="node">
<title>SettingsRoutingModule</title>
<polygon fill="#8dd3c7" stroke="#000000" points="173.7814,-122 170.7814,-126 149.7814,-126 146.7814,-122 24.2186,-122 24.2186,-86 173.7814,-86 173.7814,-122"/>
<text text-anchor="middle" x="99" y="-99.8" font-family="Times,serif" font-size="14.00" fill="#000000">SettingsRoutingModule</text>
</g>
<!-- SettingsRoutingModule&#45;&gt;SettingsModule -->
<g id="edge8" class="edge">
<title>SettingsRoutingModule&#45;&gt;SettingsModule</title>
<path fill="none" stroke="#000000" d="M99,-122.2921C99,-144.2057 99,-178 99,-178 99,-178 653.6611,-178 653.6611,-178"/>
<polygon fill="#000000" stroke="#000000" points="653.6611,-181.5001 663.6611,-178 653.6611,-174.5001 653.6611,-181.5001"/>
</g>
</g>
</svg>
